# Blender v2.83.0 OBJ File: 'assaultblaster.blend'
# www.blender.org
o Assaultblaster_Cube
v 0.110814 -0.168051 1.383499
v 0.110814 0.408066 1.383499
v -0.110814 -0.168051 1.383499
v -0.110814 0.408066 1.383499
v 0.049801 0.324920 -1.824501
v 0.049801 0.441339 -1.824501
v -0.049801 0.324920 -1.824501
v -0.049801 0.441339 -1.824501
v -0.049801 0.324920 -0.731156
v -0.110814 0.100740 -0.461926
v -0.110814 0.100740 0.146531
v -0.110814 0.100740 0.643738
v -0.110814 0.468406 0.643738
v -0.110814 0.468406 0.175337
v -0.110814 0.468406 -0.461926
v -0.049801 0.441339 -0.731156
v 0.110814 0.100740 0.643738
v 0.110814 0.100740 0.146531
v 0.110814 0.100740 -0.461926
v 0.049801 0.324920 -0.731156
v 0.049801 0.441339 -0.731156
v 0.110814 0.468406 -0.461926
v 0.110814 0.468406 0.175337
v 0.110814 0.468406 0.643738
v -0.110814 0.100740 -0.043141
v -0.110814 0.468406 -0.043141
v 0.110814 0.100740 -0.043141
v 0.110814 0.468406 -0.043141
v 0.073863 -0.482430 -0.043141
v 0.073863 -0.482430 -0.461926
v -0.073863 -0.482430 -0.461926
v -0.073863 -0.482430 -0.043141
v -0.110814 0.100740 0.460219
v -0.110814 0.468406 0.460219
v 0.110814 0.100740 0.460219
v 0.110814 0.468406 0.460219
v -0.040788 -0.022772 0.530310
v -0.040788 -0.022772 0.713829
v 0.040788 -0.022772 0.713829
v 0.040788 -0.022772 0.530310
v -0.040788 -0.103795 0.570858
v -0.040788 -0.166207 0.784383
v 0.040788 -0.166207 0.784383
v 0.040788 -0.103795 0.570858
v -0.040788 -0.313915 0.671928
v -0.040788 -0.313915 0.855447
v 0.040788 -0.313915 0.855447
v 0.040788 -0.313915 0.671928
v -0.040788 -0.458079 0.738924
v -0.040788 -0.458079 0.922443
v 0.040788 -0.458079 0.922443
v 0.040788 -0.458079 0.738924
v -0.110814 0.100740 0.017186
v 0.110814 0.468406 0.067307
v -0.110814 0.468406 0.067307
v 0.110814 0.100740 0.017186
v -0.036807 0.012296 0.050600
v -0.036807 -0.008949 0.164775
v 0.036807 -0.008949 0.164775
v 0.036807 0.012296 0.050600
v -0.036807 -0.055239 0.080414
v -0.036807 -0.071202 0.177737
v 0.036807 -0.071202 0.177737
v 0.036807 -0.055239 0.080414
v -0.036807 -0.092420 0.383211
v 0.036807 -0.034164 0.377940
v -0.036807 -0.034164 0.377940
v 0.036807 -0.092420 0.383211
v -0.110814 0.468406 0.368459
v 0.110814 0.100740 0.368459
v -0.110814 0.100740 0.368459
v 0.110814 0.468406 0.368459
v -0.036807 -0.028397 0.266136
v -0.036807 -0.088652 0.263851
v 0.036807 -0.088652 0.263851
v 0.036807 -0.028397 0.266136
v -0.096624 -0.127300 1.471274
v 0.096624 -0.127300 1.471274
v 0.096624 0.367315 1.471274
v -0.096624 0.367315 1.471274
v 0.040788 -0.385997 0.705426
v -0.040788 -0.385997 0.705426
v -0.040788 -0.385997 0.888945
v 0.040788 -0.385997 0.888945
v -0.062002 -0.135001 0.677621
v 0.062002 -0.135001 0.677621
v -0.062002 -0.313915 0.763687
v 0.062002 -0.313915 0.763687
v -0.062002 -0.458079 0.830684
v 0.062002 -0.458079 0.830684
v -0.062002 -0.385997 0.797186
v 0.062002 -0.385997 0.797186
v 0.040124 0.079563 0.370673
v -0.041206 0.085259 0.676257
v 0.041206 0.085259 0.676257
v -0.041206 0.085259 0.492738
v 0.041206 0.085259 0.492738
v -0.040124 0.079563 0.370673
v -0.072958 0.383130 -1.824501
v 0.000000 0.297853 -1.824501
v 0.000000 0.468406 -1.824501
v 0.072958 0.383130 -1.824501
v 0.000000 0.468406 -0.731156
v 0.000000 0.297853 -0.731156
v 0.072958 0.383130 -0.731156
v -0.072958 0.383130 -0.731156
v -0.110814 0.040742 0.872594
v -0.000000 0.443905 1.383499
v 0.000000 0.504245 -0.461926
v -0.000000 0.504245 0.175337
v -0.000000 0.504245 0.643738
v 0.000000 0.504245 -0.043141
v -0.000000 0.504245 0.460219
v -0.000000 0.504245 0.067307
v -0.000000 0.504245 0.368459
v -0.110814 0.342310 -0.461926
v -0.110814 0.342310 -0.043141
v -0.120079 0.450086 -0.103987
v -0.120079 0.450086 -0.401080
v -0.120079 0.360631 -0.401080
v -0.120079 0.360631 -0.103987
v -0.061380 0.354025 -1.824501
v -0.024900 0.311387 -1.824501
v 0.024901 0.454873 -1.824501
v 0.061380 0.354025 -1.824501
v -0.061380 0.412234 -1.824501
v 0.024901 0.311387 -1.824501
v -0.024900 0.454873 -1.824501
v 0.061380 0.412234 -1.824501
v 0.046765 0.383130 -1.824501
v -0.046765 0.383130 -1.824501
v 0.000000 0.328469 -1.824501
v 0.000000 0.437791 -1.824501
v -0.034786 0.423789 -1.824501
v -0.034786 0.342470 -1.824501
v 0.034786 0.342470 -1.824501
v 0.034786 0.423789 -1.824501
v -0.030673 0.383130 -1.855944
v 0.000000 0.383130 -1.867834
v 0.000000 0.418982 -1.855944
v 0.030673 0.383130 -1.855944
v 0.000000 0.347278 -1.855944
v -0.022816 0.409798 -1.855944
v -0.022816 0.356461 -1.855944
v 0.022816 0.356461 -1.855944
v 0.022816 0.409798 -1.855944
v 0.110814 0.468406 0.847094
v -0.110814 0.468406 0.847094
v 0.110814 0.040742 0.872594
v -0.000000 0.504245 0.847094
v 0.073863 0.053596 -0.461926
v -0.073863 0.053596 -0.461926
v -0.073863 0.053596 -0.043141
v 0.073863 0.053596 -0.043141
vt 0.842862 0.729420
vt 0.866984 0.924903
vt 0.834340 0.960663
vt 0.291738 0.630477
vt 0.707679 0.630477
vt 0.707679 0.642393
vt 0.599243 0.865362
vt 0.574083 0.868375
vt 0.580757 0.850923
vt 0.617300 0.474321
vt 0.803445 0.313808
vt 0.823279 0.537973
vt 0.707679 0.710486
vt 0.707679 0.721268
vt 0.291739 0.721269
vt 0.802134 0.268804
vt 0.599468 0.311862
vt 0.598691 0.268705
vt 0.291738 0.587350
vt 0.707679 0.587351
vt 0.707679 0.598132
vt 0.012793 0.286121
vt 0.113599 0.266858
vt 0.112722 0.307188
vt 0.344677 0.267711
vt 0.303102 0.311624
vt 0.303625 0.267427
vt 0.523103 0.268433
vt 0.453326 0.312758
vt 0.453412 0.268247
vt 0.893557 0.183305
vt 0.972908 0.279636
vt 0.875385 0.276920
vt 0.916447 0.083840
vt 0.951342 0.124542
vt 0.911216 0.123535
vt 0.186894 0.581561
vt 0.122823 0.765867
vt 0.060817 0.585352
vt 0.840097 0.616332
vt 0.973643 0.594701
vt 0.846704 0.636858
vt 0.707679 0.575435
vt 0.291739 0.563518
vt 0.007713 0.310162
vt 0.330700 0.454387
vt 0.280016 0.453355
vt 0.525785 0.454473
vt 0.453750 0.455102
vt 0.599400 0.225493
vt 0.526771 0.083161
vt 0.617839 0.063687
vt 0.419354 0.081586
vt 0.344837 0.223290
vt 0.332502 0.082081
vt 0.748498 0.817721
vt 0.756304 0.953625
vt 0.748498 0.977249
vt 0.113330 0.226889
vt 0.009774 0.218965
vt 0.107389 0.183035
vt 0.303723 0.223342
vt 0.261948 0.223748
vt 0.261029 0.175859
vt 0.256554 0.452663
vt 0.091553 0.439274
vt 0.913585 0.055672
vt 0.947971 0.060804
vt 0.915924 0.064952
vt 0.262031 0.267043
vt 0.118715 0.763607
vt 0.120475 0.760674
vt 0.054396 0.949311
vt 0.181719 0.946138
vt 0.121147 0.769295
vt 0.523428 0.224343
vt 0.455041 0.081862
vt 0.418130 0.312689
vt 0.417948 0.455145
vt 0.938595 0.181999
vt 0.926660 0.176477
vt 0.930529 0.176502
vt 0.418342 0.268100
vt 0.590135 0.927125
vt 0.559101 0.961593
vt 0.559101 0.927125
vt 0.918052 0.181634
vt 0.926486 0.166455
vt 0.786445 0.694698
vt 0.745230 0.742400
vt 0.743092 0.695960
vt 0.931616 0.166600
vt 0.939132 0.156079
vt 0.928817 0.174193
vt 0.928700 0.174219
vt 0.929249 0.173496
vt 0.929622 0.170523
vt 0.928208 0.173538
vt 0.928133 0.170513
vt 0.412012 0.848954
vt 0.434812 0.828328
vt 0.439819 0.849908
vt 0.478643 0.951165
vt 0.441512 0.880650
vt 0.478643 0.859961
vt 0.401566 0.982802
vt 0.438689 0.984125
vt 0.928541 0.174219
vt 0.928671 0.174260
vt 0.416324 0.808452
vt 0.440132 0.810051
vt 0.454953 0.767275
vt 0.425578 0.796526
vt 0.407507 0.773409
vt 0.386469 0.817285
vt 0.469503 0.822352
vt 0.928325 0.071380
vt 0.282309 0.082898
vt 0.261285 0.310763
vt 0.935296 0.069879
vt 0.930933 0.074174
vt 0.930509 0.078278
vt 0.947988 0.083150
vt 0.934378 0.077150
vt 0.932972 0.076667
vt 0.931767 0.077037
vt 0.932399 0.077218
vt 0.932415 0.077216
vt 0.932390 0.077230
vt 0.933255 0.073614
vt 0.932553 0.077115
vt 0.932271 0.077203
vt 0.786445 0.666693
vt 0.743092 0.665431
vt 0.932439 0.077206
vt 0.932423 0.077213
vt 0.932421 0.077212
vt 0.932417 0.077213
vt 0.932449 0.077212
vt 0.932197 0.077355
vt 0.932661 0.077211
vt 0.344318 0.312189
vt 0.453673 0.223780
vt 0.937946 0.128508
vt 0.954535 0.146010
vt 0.936451 0.923597
vt 0.877361 0.768989
vt 0.942221 0.771275
vt 0.972377 0.959356
vt 0.972377 0.721378
vt 0.902997 0.995208
vt 0.928661 0.174245
vt 0.928619 0.174288
vt 0.928653 0.174264
vt 0.407452 0.879516
vt 0.372047 0.854496
vt 0.928606 0.174287
vt 0.928627 0.174276
vt 0.433886 0.796785
vt 0.418667 0.827005
vt 0.928572 0.174325
vt 0.364234 0.946609
vt 0.745230 0.618991
vt 0.787473 0.608555
vt 0.962144 0.185967
vt 0.923859 0.128163
vt 0.905789 0.143753
vt 0.919978 0.155281
vt 0.707679 0.551602
vt 0.291739 0.539685
vt 0.291738 0.608914
vt 0.707679 0.608914
vt 0.707679 0.619695
vt 0.707679 0.688924
vt 0.707679 0.699705
vt 0.291738 0.699705
vt 0.578153 0.777252
vt 0.593194 0.755621
vt 0.611680 0.770059
vt 0.656772 0.976246
vt 0.676587 0.955087
vt 0.684738 0.975792
vt 0.554845 0.855905
vt 0.557367 0.831607
vt 0.291739 0.654310
vt 0.707679 0.654310
vt 0.707679 0.666226
vt 0.418547 0.223575
vt 0.013711 0.243120
vt 0.096788 0.091942
vt 0.258997 0.083417
vt 0.790171 0.841454
vt 0.756333 0.841184
vt 0.790142 0.953895
vt 0.797977 0.977358
vt 0.797977 0.817831
vt 0.682928 0.899704
vt 0.663113 0.920863
vt 0.654962 0.900159
vt 0.614284 0.843731
vt 0.624403 0.862348
vt 0.656831 0.800475
vt 0.635070 0.789375
vt 0.656831 0.777548
vt 0.535606 0.797580
vt 0.553881 0.801473
vt 0.535606 0.820507
vt 0.640617 0.842875
vt 0.638556 0.819509
vt 0.551820 0.778107
vt 0.637592 0.765078
vt 0.634192 0.952013
vt 0.663890 0.954410
vt 0.568034 0.758634
vt 0.705508 0.923937
vt 0.675810 0.921540
vt 0.656831 0.823402
vt 0.618354 0.752607
vt 0.669850 0.937975
vt 0.685415 0.945936
vt 0.683939 0.932429
vt 0.654286 0.930014
vt 0.655762 0.943522
vt 0.705508 0.957059
vt 0.634192 0.918891
vt 0.973643 0.679014
vt 0.840097 0.657383
vt 0.003489 0.195719
vt 0.000241 0.333602
vt 0.803458 0.223804
vt 0.823279 0.000241
vt 0.972908 0.553308
vt 0.863013 0.553308
vt 0.523215 0.312555
vt 0.002586 0.548503
vt 0.000241 0.992185
vt 0.240712 0.984153
vt 0.240712 0.538455
vt 0.014501 0.264656
vt 0.707679 0.563519
vt 0.947678 0.047081
vt 0.590135 0.961593
vt 0.787473 0.752836
vt 0.707679 0.539686
vt 0.291738 0.678142
vt 0.707679 0.678142
vt 0.535606 0.843434
vn -0.9872 0.0000 0.1596
vn -0.9292 0.3696 -0.0000
vn 0.0000 0.0000 -1.0000
vn 1.0000 0.0000 0.0000
vn 0.4775 -0.8786 0.0000
vn 0.3060 0.9461 0.1064
vn 0.4775 0.8786 0.0000
vn 0.3036 0.9387 -0.1632
vn 0.3077 0.9515 0.0000
vn 0.0000 -0.9673 -0.2536
vn 0.0000 -1.0000 0.0000
vn 0.3657 -0.6728 -0.6431
vn 0.9292 0.3696 0.0000
vn 0.9019 0.3588 -0.2405
vn -1.0000 0.0000 -0.0000
vn -0.8924 -0.4513 -0.0000
vn -0.9903 0.0000 -0.1392
vn -0.0000 0.0000 1.0000
vn 0.0000 0.3285 0.9445
vn 0.0000 -0.4475 -0.8943
vn -1.0000 -0.0039 -0.0000
vn -0.9995 -0.0296 -0.0075
vn 1.0000 -0.0039 0.0000
vn 0.9686 0.1077 0.2240
vn 0.0000 0.4414 0.8973
vn 0.9664 0.2235 -0.1267
vn -0.9664 0.2235 -0.1267
vn 0.0000 -0.4214 -0.9069
vn -0.9686 -0.1077 -0.2239
vn 0.0000 -0.4335 -0.9012
vn 0.0000 0.4335 0.9011
vn 0.0000 0.4214 0.9069
vn 0.9690 0.1041 0.2240
vn -0.9690 -0.1041 -0.2240
vn 0.0000 -0.3534 -0.9355
vn 0.0000 -0.4039 -0.9148
vn -0.8161 -0.5682 -0.1057
vn 0.7669 -0.6417 0.0000
vn 0.0000 0.1641 0.9864
vn 0.0000 -0.9868 -0.1619
vn -0.9997 -0.0023 -0.0259
vn 0.0000 -0.9995 -0.0315
vn 0.0000 -0.0638 -0.9980
vn 0.9997 -0.0109 -0.0219
vn 0.0000 -0.9982 -0.0605
vn 0.0000 0.9987 0.0515
vn 0.2361 -0.9708 0.0432
vn 0.0000 0.9821 0.1884
vn 0.0000 -0.9801 -0.1986
vn 0.9872 0.0000 0.1596
vn 0.0000 0.7535 0.6575
vn 0.0000 -0.9070 0.4211
vn 0.9690 -0.1041 -0.2240
vn -0.9690 0.1041 0.2240
vn -0.9686 0.1077 0.2239
vn 0.9686 -0.1077 -0.2240
vn 0.9996 -0.0126 -0.0252
vn 0.0000 -0.1040 -0.9946
vn 0.2171 -0.9762 0.0000
vn -0.2870 -0.9579 0.0000
vn -0.2171 -0.9762 -0.0000
vn 0.0000 0.9029 0.4298
vn 0.9292 -0.3696 0.0000
vn -0.4775 0.8786 -0.0000
vn -0.4775 -0.8786 -0.0000
vn 0.3265 0.8111 -0.4852
vn -0.9292 -0.3696 -0.0000
vn -0.3077 0.9515 0.0000
vn -0.3060 0.9461 0.1064
vn -0.3036 0.9387 -0.1632
vn -0.9886 0.0000 -0.1505
vn -0.9886 0.0000 0.1505
vn -0.8924 0.4513 0.0000
vn -0.3265 -0.8111 -0.4852
vn 0.8611 0.2537 -0.4407
vn -0.8611 -0.2537 -0.4407
vn -0.1257 -0.3123 -0.9416
vn -0.3594 0.1059 -0.9272
vn 0.1257 -0.3123 -0.9416
vn 0.3594 0.1059 -0.9272
vn -0.8611 0.2537 -0.4407
vn 0.8611 -0.2537 -0.4407
vn -0.3265 0.8111 -0.4852
vn 0.3265 -0.8111 -0.4852
vn 0.0000 -0.8069 -0.5907
vn -0.3657 -0.6728 -0.6431
vn -0.9753 0.0000 -0.2210
vn 0.9903 0.0000 -0.1392
vn 0.8249 -0.3282 -0.4602
vn 0.0000 -0.9257 -0.3783
vn -0.7871 -0.6169 -0.0000
vn 0.7871 -0.6169 0.0000
vn 0.4743 0.8727 -0.1162
vn -0.9019 0.3588 -0.2405
vn -0.9996 -0.0126 -0.0252
vn 0.9686 0.1077 0.2239
vn 0.9681 0.1105 0.2247
vn -0.9681 0.1105 0.2247
vn -0.9686 -0.1077 -0.2240
vn -0.7669 -0.6417 0.0000
vn 0.8161 -0.5682 -0.1057
vn -0.9997 -0.0109 -0.0219
vn 0.9997 -0.0023 -0.0259
vn 0.2870 -0.9579 0.0000
vn 0.2762 0.8539 0.4411
vn -0.2762 0.8539 0.4411
vn -0.9686 0.1077 0.2240
vn 0.9686 -0.1077 -0.2239
vn 0.9995 -0.0296 -0.0075
vn -0.2361 -0.9708 0.0432
vn -0.4743 0.8727 -0.1162
vn -0.3594 -0.1059 -0.9272
vn -0.1257 0.3123 -0.9416
vn 0.3594 -0.1059 -0.9272
vn 0.1257 0.3123 -0.9416
vn -0.9134 -0.3634 -0.1835
s off
f 3/1/1 80/2/1 4/3/1
f 16/4/2 8/5/2 126/6/2
f 126/7/3 8/8/3 134/9/3
f 149/10/4 2/11/4 1/12/4
f 127/13/5 5/14/5 20/15/5
f 108/16/6 147/17/6 150/18/6
f 21/19/7 6/20/7 124/21/7
f 21/22/8 109/23/8 22/24/8
f 110/25/9 54/26/9 114/27/9
f 111/28/9 36/29/9 113/30/9
f 12/31/10 149/32/10 107/33/10
f 11/34/11 70/35/11 71/36/11
f 151/37/3 31/38/3 152/39/3
f 20/40/12 19/41/12 104/42/12
f 129/43/13 21/19/13 105/44/13
f 22/24/14 105/45/14 21/22/14
f 54/26/4 18/46/4 56/47/4
f 36/29/4 17/48/4 35/49/4
f 148/50/15 12/51/15 107/52/15
f 71/53/15 14/54/15 11/55/15
f 117/56/16 120/57/16 116/58/16
f 15/59/17 106/60/17 116/61/17
f 55/62/15 26/63/15 117/64/15
f 22/24/4 27/65/4 19/66/4
f 25/67/11 56/68/11 53/69/11
f 112/70/9 22/24/9 109/23/9
f 31/38/11 29/71/11 32/72/11
f 153/73/18 29/71/18 154/74/18
f 154/74/4 30/75/4 151/37/4
f 152/39/15 32/72/15 153/73/15
f 13/76/15 33/77/15 12/51/15
f 72/78/4 35/49/4 70/79/4
f 95/80/19 38/81/19 39/82/19
f 113/30/9 72/78/9 115/83/9
f 40/84/20 41/85/20 37/86/20
f 94/87/21 37/88/21 38/81/21
f 67/89/22 96/90/22 98/91/22
f 95/80/23 40/92/23 97/93/23
f 43/94/24 88/95/24 86/96/24
f 38/81/25 43/94/25 39/82/25
f 39/82/26 86/96/26 44/97/26
f 85/98/27 38/81/27 41/99/27
f 81/100/28 49/101/28 82/102/28
f 85/103/29 45/104/29 87/105/29
f 44/106/30 45/104/30 41/107/30
f 42/108/31 47/109/31 43/94/31
f 49/101/11 90/110/11 89/111/11
f 83/112/32 51/113/32 84/114/32
f 84/114/33 90/110/33 92/115/33
f 91/116/34 49/101/34 89/111/34
f 56/68/35 57/117/35 53/69/35
f 11/55/15 55/62/15 53/118/15
f 28/119/4 56/47/4 27/65/4
f 114/27/9 28/119/9 112/70/9
f 60/120/36 61/121/36 57/117/36
f 11/34/37 57/117/37 58/122/37
f 18/123/38 60/120/38 56/68/38
f 11/34/39 59/124/39 18/123/39
f 61/121/40 63/125/40 62/126/40
f 65/127/41 37/128/41 67/129/41
f 59/124/4 64/130/4 60/120/4
f 58/122/15 61/121/15 62/126/15
f 75/131/42 65/127/42 74/132/42
f 66/133/43 98/91/43 93/134/43
f 68/135/44 40/136/44 44/137/44
f 68/135/45 41/138/45 65/127/45
f 75/131/4 66/139/4 68/135/4
f 73/140/46 66/139/46 76/141/46
f 74/132/15 67/129/15 73/140/15
f 115/83/9 23/142/9 110/25/9
f 23/142/4 70/79/4 18/46/4
f 34/143/15 71/53/15 33/77/15
f 93/144/47 35/145/47 97/93/47
f 62/126/15 73/140/15 58/122/15
f 58/122/48 76/141/48 59/124/48
f 63/125/4 76/141/4 75/131/4
f 63/125/49 74/132/49 62/126/49
f 79/146/18 77/147/18 78/148/18
f 2/149/50 78/148/50 1/150/50
f 108/151/51 80/2/51 79/146/51
f 1/150/52 77/147/52 3/1/52
f 87/105/34 82/102/34 91/116/34
f 47/109/33 92/152/33 88/95/33
f 46/153/32 84/154/32 47/109/32
f 48/155/28 82/102/28 45/104/28
f 88/156/53 81/100/53 48/155/53
f 46/153/54 91/157/54 83/158/54
f 83/112/54 89/111/54 50/159/54
f 92/115/53 52/160/53 81/100/53
f 50/159/11 90/110/11 51/113/11
f 42/108/55 87/161/55 46/153/55
f 86/162/56 48/155/56 44/106/56
f 66/133/57 97/163/57 40/164/57
f 93/144/58 71/36/58 70/35/58
f 17/165/59 97/93/59 35/145/59
f 98/166/60 33/167/60 71/36/60
f 12/31/61 96/168/61 94/87/61
f 12/31/62 95/80/62 17/165/62
f 125/169/63 105/44/63 20/170/63
f 103/171/64 101/172/64 128/173/64
f 123/174/65 100/175/65 104/176/65
f 130/177/3 125/178/3 136/179/3
f 137/180/66 140/181/66 133/182/66
f 128/183/3 133/184/3 134/9/3
f 106/185/67 99/186/67 122/187/67
f 69/188/68 110/25/68 14/54/68
f 55/62/68 112/70/68 26/63/68
f 34/143/68 115/83/68 69/188/68
f 26/63/68 109/23/68 15/59/68
f 13/76/68 113/30/68 34/143/68
f 14/54/68 114/27/68 55/62/68
f 148/50/69 108/16/69 150/18/69
f 109/23/70 16/189/70 15/59/70
f 117/64/15 10/190/15 25/191/15
f 118/192/15 120/57/15 121/193/15
f 116/58/71 119/194/71 15/195/71
f 26/196/72 121/193/72 117/56/72
f 15/195/73 118/192/73 26/196/73
f 135/197/74 142/198/74 132/199/74
f 126/7/3 131/200/3 99/201/3
f 128/183/3 134/9/3 8/8/3
f 123/202/3 132/203/3 100/204/3
f 6/205/3 137/206/3 124/207/3
f 122/208/3 131/200/3 135/209/3
f 129/210/3 137/206/3 6/205/3
f 132/203/3 127/211/3 100/204/3
f 130/212/75 146/213/75 137/180/75
f 130/177/3 129/210/3 102/214/3
f 131/215/76 144/216/76 135/197/76
f 133/184/3 124/207/3 137/206/3
f 123/202/3 7/217/3 135/209/3
f 7/217/3 122/208/3 135/209/3
f 127/211/3 136/179/3 5/218/3
f 125/178/3 5/218/3 136/179/3
f 144/216/77 139/219/77 142/198/77
f 143/220/78 139/219/78 138/221/78
f 139/219/79 145/222/79 142/198/79
f 139/219/80 146/213/80 141/223/80
f 131/215/81 143/220/81 138/221/81
f 130/212/82 145/222/82 141/223/82
f 134/224/83 140/181/83 143/220/83
f 136/225/84 142/198/84 145/222/84
f 19/41/85 10/226/85 104/42/85
f 10/226/86 9/227/86 104/42/86
f 116/61/87 9/228/87 10/190/87
f 19/66/88 105/45/88 22/24/88
f 20/229/89 105/45/89 19/66/89
f 148/50/68 111/28/68 13/76/68
f 4/230/15 107/52/15 3/231/15
f 107/33/90 1/232/90 3/233/90
f 150/18/9 24/234/9 111/28/9
f 17/48/4 147/17/4 149/10/4
f 10/235/91 153/73/91 25/236/91
f 27/237/92 151/37/92 19/238/92
f 25/236/18 154/74/18 27/237/18
f 19/238/3 152/39/3 10/235/3
f 3/1/1 77/147/1 80/2/1
f 99/186/2 106/185/2 126/6/2
f 106/185/2 16/4/2 126/6/2
f 149/10/4 147/17/4 2/11/4
f 20/15/5 104/176/5 127/13/5
f 104/176/5 100/175/5 127/13/5
f 108/16/6 2/11/6 147/17/6
f 124/21/7 101/172/7 103/171/7
f 103/171/7 21/19/7 124/21/7
f 21/22/93 103/239/93 109/23/93
f 110/25/9 23/142/9 54/26/9
f 111/28/9 24/234/9 36/29/9
f 12/31/10 17/165/10 149/32/10
f 11/34/11 18/123/11 70/35/11
f 151/37/3 30/75/3 31/38/3
f 105/44/13 102/240/13 129/43/13
f 129/43/13 6/20/13 21/19/13
f 54/26/4 23/142/4 18/46/4
f 36/29/4 24/234/4 17/48/4
f 148/50/15 13/76/15 12/51/15
f 71/53/15 69/188/15 14/54/15
f 117/56/16 121/193/16 120/57/16
f 15/59/94 16/189/94 106/60/94
f 25/191/15 53/118/15 117/64/15
f 53/118/15 55/62/15 117/64/15
f 22/24/4 28/119/4 27/65/4
f 25/67/11 27/241/11 56/68/11
f 112/70/9 28/119/9 22/24/9
f 31/38/11 30/75/11 29/71/11
f 153/73/18 32/72/18 29/71/18
f 154/74/4 29/71/4 30/75/4
f 152/39/15 31/38/15 32/72/15
f 13/76/15 34/143/15 33/77/15
f 72/78/4 36/29/4 35/49/4
f 95/80/19 94/87/19 38/81/19
f 113/30/9 36/29/9 72/78/9
f 40/84/20 44/242/20 41/85/20
f 94/87/21 96/168/21 37/88/21
f 67/89/95 37/243/95 96/90/95
f 95/80/23 39/82/23 40/92/23
f 43/94/96 47/109/96 88/95/96
f 38/81/25 42/108/25 43/94/25
f 44/97/4 40/92/4 39/82/4
f 39/82/97 43/94/97 86/96/97
f 42/108/98 38/81/98 85/98/98
f 38/81/15 37/88/15 41/99/15
f 81/100/28 52/160/28 49/101/28
f 85/103/99 41/107/99 45/104/99
f 44/106/30 48/155/30 45/104/30
f 42/108/31 46/153/31 47/109/31
f 49/101/11 52/160/11 90/110/11
f 83/112/32 50/159/32 51/113/32
f 84/114/33 51/113/33 90/110/33
f 91/116/34 82/102/34 49/101/34
f 56/68/35 60/120/35 57/117/35
f 11/55/15 14/54/15 55/62/15
f 28/119/4 54/26/4 56/47/4
f 114/27/9 54/26/9 28/119/9
f 60/120/36 64/130/36 61/121/36
f 11/34/100 53/69/100 57/117/100
f 18/123/101 59/124/101 60/120/101
f 11/34/39 58/122/39 59/124/39
f 61/121/40 64/130/40 63/125/40
f 65/127/102 41/138/102 37/128/102
f 59/124/4 63/125/4 64/130/4
f 58/122/15 57/117/15 61/121/15
f 75/131/42 68/135/42 65/127/42
f 66/133/43 67/89/43 98/91/43
f 68/135/103 66/139/103 40/136/103
f 68/135/45 44/137/45 41/138/45
f 75/131/4 76/141/4 66/139/4
f 73/140/46 67/129/46 66/139/46
f 74/132/15 65/127/15 67/129/15
f 115/83/9 72/78/9 23/142/9
f 23/142/4 72/78/4 70/79/4
f 34/143/15 69/188/15 71/53/15
f 93/144/104 70/35/104 35/145/104
f 62/126/15 74/132/15 73/140/15
f 58/122/48 73/140/48 76/141/48
f 63/125/4 59/124/4 76/141/4
f 63/125/49 75/131/49 74/132/49
f 79/146/18 80/2/18 77/147/18
f 2/149/50 79/146/50 78/148/50
f 79/146/105 2/149/105 108/151/105
f 108/151/106 4/3/106 80/2/106
f 1/150/52 78/148/52 77/147/52
f 87/105/34 45/104/34 82/102/34
f 47/109/33 84/154/33 92/152/33
f 46/153/32 83/158/32 84/154/32
f 48/155/28 81/100/28 82/102/28
f 88/156/53 92/115/53 81/100/53
f 46/153/54 87/161/54 91/157/54
f 83/112/54 91/116/54 89/111/54
f 92/115/53 90/110/53 52/160/53
f 50/159/11 89/111/11 90/110/11
f 42/108/107 85/98/107 87/161/107
f 86/162/108 88/156/108 48/155/108
f 66/133/109 93/134/109 97/163/109
f 93/144/58 98/166/58 71/36/58
f 17/165/59 95/80/59 97/93/59
f 98/166/110 96/168/110 33/167/110
f 12/31/61 33/167/61 96/168/61
f 12/31/62 94/87/62 95/80/62
f 20/170/63 5/244/63 125/169/63
f 125/169/63 102/240/63 105/44/63
f 128/173/64 8/5/64 16/4/64
f 16/4/64 103/171/64 128/173/64
f 104/176/65 9/245/65 123/174/65
f 9/245/65 7/246/65 123/174/65
f 130/177/3 102/214/3 125/178/3
f 137/180/66 146/213/66 140/181/66
f 128/183/3 101/247/3 133/184/3
f 7/246/67 9/245/67 122/187/67
f 9/245/67 106/185/67 122/187/67
f 69/188/68 115/83/68 110/25/68
f 55/62/68 114/27/68 112/70/68
f 34/143/68 113/30/68 115/83/68
f 26/63/68 112/70/68 109/23/68
f 13/76/68 111/28/68 113/30/68
f 14/54/68 110/25/68 114/27/68
f 148/50/69 4/230/69 108/16/69
f 109/23/111 103/239/111 16/189/111
f 117/64/15 116/61/15 10/190/15
f 118/192/15 119/194/15 120/57/15
f 116/58/71 120/57/71 119/194/71
f 26/196/72 118/192/72 121/193/72
f 15/195/73 119/194/73 118/192/73
f 135/197/74 144/216/74 142/198/74
f 126/7/3 134/9/3 131/200/3
f 123/202/3 135/209/3 132/203/3
f 122/208/3 99/201/3 131/200/3
f 132/203/3 136/179/3 127/211/3
f 130/212/75 141/223/75 146/213/75
f 130/177/3 137/206/3 129/210/3
f 131/215/76 138/221/76 144/216/76
f 133/184/3 101/247/3 124/207/3
f 144/216/112 138/221/112 139/219/112
f 143/220/113 140/181/113 139/219/113
f 139/219/114 141/223/114 145/222/114
f 139/219/115 140/181/115 146/213/115
f 131/215/81 134/224/81 143/220/81
f 130/212/82 136/225/82 145/222/82
f 134/224/83 133/182/83 140/181/83
f 136/225/84 132/199/84 142/198/84
f 116/61/116 106/60/116 9/228/116
f 148/50/68 150/18/68 111/28/68
f 4/230/15 148/50/15 107/52/15
f 107/33/90 149/32/90 1/232/90
f 150/18/9 147/17/9 24/234/9
f 17/48/4 24/234/4 147/17/4
f 10/235/91 152/39/91 153/73/91
f 27/237/92 154/74/92 151/37/92
f 25/236/18 153/73/18 154/74/18
f 19/238/3 151/37/3 152/39/3
