# Blender v2.93.2 OBJ File: 'backpack.blend'
# www.blender.org
o backpack_Cube
v 0.326535 0.585541 -0.298956
v 0.287538 -0.322218 -0.201137
v 0.326535 -0.082693 0.352596
v 0.252717 -0.239602 0.352596
v -0.252948 -0.322218 0.154924
v -0.210966 0.374946 0.154924
v -0.179130 -0.239602 0.352596
v -0.252948 -0.082693 0.352596
v 0.284553 0.374946 0.154924
v -0.213950 -0.322218 -0.201137
v 0.326535 -0.322218 0.154924
v 0.326535 0.131661 -0.203927
v -0.252948 0.585541 -0.298956
v 0.043203 -0.322218 -0.264916
v 0.029885 -0.082693 0.406815
v 0.029885 -0.322218 0.406815
v 0.042911 0.662165 -0.298956
v 0.029885 0.504962 0.084474
v 0.043203 0.131661 -0.203927
v -0.252948 0.131661 -0.203927
v -0.124444 -0.356942 0.241237
v -0.124444 -0.356942 0.131234
v -0.102743 -0.356942 -0.066910
v 0.032949 -0.356942 0.271409
v 0.198032 -0.356942 0.241237
v 0.198032 -0.356942 0.131234
v 0.176330 -0.356942 -0.066910
v 0.040639 -0.356942 -0.102402
v 0.179498 0.340006 0.194647
v 0.201360 0.184180 0.300295
v 0.030864 0.345101 0.232274
v 0.030864 0.179250 0.335951
v -0.107862 0.340006 0.194647
v -0.129724 0.184180 0.300295
v 0.267424 -0.250103 -0.256644
v 0.266465 -0.305665 -0.254855
v 0.093614 -0.250103 -0.256644
v 0.093614 -0.302764 -0.267377
v 0.061330 0.595472 -0.328149
v 0.294554 0.581087 -0.328149
v 0.294554 0.542430 -0.306760
v 0.072194 0.542430 -0.310199
v 0.135092 0.465133 -0.401711
v 0.262662 0.456007 -0.394964
v 0.262662 0.431826 -0.375927
v 0.141034 0.430667 -0.378964
v 0.214693 0.092416 -0.492871
v 0.341229 0.074692 -0.484074
v 0.339677 0.056043 -0.459641
v 0.218313 0.064259 -0.462297
v 0.176149 -0.385645 -0.683088
v 0.303676 -0.391463 -0.672792
v 0.304819 -0.377719 -0.645279
v 0.183344 -0.370831 -0.644754
v 0.116572 -0.509556 -0.501182
v 0.244446 -0.511206 -0.508280
v 0.246764 -0.483347 -0.502459
v 0.125289 -0.476459 -0.501934
v 0.242100 -0.418609 -0.360548
v 0.239207 -0.444406 -0.348794
v 0.107554 -0.407414 -0.360548
v 0.105508 -0.432003 -0.357759
v -0.181018 -0.250103 -0.256644
v -0.180060 -0.305665 -0.254855
v -0.007209 -0.250103 -0.256644
v -0.007209 -0.305665 -0.295758
v 0.025075 0.595472 -0.328149
v -0.208149 0.581087 -0.328149
v -0.208149 0.542430 -0.306760
v 0.014212 0.542430 -0.310199
v -0.065424 0.465133 -0.405875
v -0.190739 0.456007 -0.381058
v -0.188032 0.431826 -0.362214
v -0.068072 0.430667 -0.382514
v -0.240639 0.143811 -0.592092
v -0.352121 0.157184 -0.530481
v -0.344796 0.138155 -0.507430
v -0.237465 0.116676 -0.560559
v -0.375270 -0.328510 -0.749731
v -0.484252 -0.303385 -0.687324
v -0.470544 -0.290419 -0.663011
v -0.362087 -0.313287 -0.713191
v -0.275133 -0.467383 -0.599133
v -0.390762 -0.437729 -0.552705
v -0.383940 -0.410284 -0.548742
v -0.275483 -0.433152 -0.598922
v -0.305377 -0.351941 -0.427188
v -0.173787 -0.380507 -0.336658
v -0.184673 -0.373798 -0.483587
v -0.187366 -0.398205 -0.479892
vt 0.356274 0.205087
vt 0.248100 0.138566
vt 0.342136 0.131587
vt 0.459447 0.300831
vt 0.447101 0.577552
vt 0.424263 0.918814
vt 0.573344 0.668382
vt 0.581446 0.914701
vt 0.568731 0.167115
vt 0.658482 0.081960
vt 0.680294 0.200523
vt 0.787877 0.198451
vt 0.686602 0.297229
vt 0.637051 0.751631
vt 0.523558 0.930373
vt 0.515280 0.747977
vt 0.704342 0.573642
vt 0.905421 0.487672
vt 0.891361 0.773582
vt 0.463959 0.203856
vt 0.570074 0.285935
vt 0.545649 0.583111
vt 0.620346 0.585350
vt 0.738391 0.588894
vt 0.764330 0.755449
vt 0.732554 0.913509
vt 0.739623 0.936856
vt 0.264036 0.783348
vt 0.244375 0.497934
vt 0.503618 0.436844
vt 0.645428 0.545168
vt 0.894692 0.128614
vt 0.947985 0.215241
vt 0.745422 0.124444
vt 0.800587 0.124573
vt 0.483078 0.084808
vt 0.568958 0.087261
vt 0.397323 0.129740
vt 0.797174 0.702267
vt 0.883551 0.765099
vt 0.823992 0.812982
vt 0.883551 0.644938
vt 0.868627 0.703368
vt 0.509059 0.264033
vt 0.499728 0.178838
vt 0.567402 0.279294
vt 0.629051 0.264033
vt 0.638382 0.178838
vt 0.638382 0.131540
vt 0.570708 0.118567
vt 0.499728 0.131540
vt 0.572646 0.538062
vt 0.644342 0.434792
vt 0.504483 0.547309
vt 0.571879 0.427799
vt 0.068573 0.390742
vt 0.047552 0.430714
vt 0.043744 0.394203
vt 0.823992 0.597054
vt 0.792024 0.679587
vt 0.799583 0.605446
vt 0.545020 0.559214
vt 0.520191 0.552165
vt 0.620921 0.562249
vt 0.642956 0.554810
vt 0.135844 0.743079
vt 0.095403 0.726856
vt 0.124790 0.719166
vt 0.507414 0.947205
vt 0.526023 0.949209
vt 0.715714 0.936570
vt 0.592152 0.958892
vt 0.054181 0.365321
vt 0.074515 0.413197
vt 0.047305 0.427719
vt 0.196490 0.226861
vt 0.078917 0.638259
vt 0.086237 0.633322
vt 0.049278 0.752628
vt 0.088589 0.733424
vt 0.092248 0.767004
vt 0.099717 0.758455
vt 0.131277 0.720867
vt 0.143686 0.743536
vt 0.097794 0.507343
vt 0.108682 0.627505
vt 0.114901 0.628722
vt 0.061835 0.727003
vt 0.054839 0.511084
vt 0.023041 0.474945
vt 0.047259 0.464473
vt 0.028137 0.519552
vt 0.062693 0.511149
vt 0.103312 0.503593
vt 0.054797 0.464631
vt 0.074429 0.426645
vt 0.083278 0.461422
vt 0.088589 0.460372
vt 0.041078 0.403004
vt 0.016328 0.439651
vt 0.006264 0.406856
vt 0.074590 0.397098
vt 0.044283 0.434060
vt 0.079380 0.427232
vt 0.799716 0.798589
vt 0.740263 0.565062
vt 0.767953 0.559609
vt 0.669156 0.557951
vt 0.663694 0.586650
vt 0.131017 0.040646
vt 0.091163 0.052591
vt 0.092606 0.018216
vt 0.759739 0.954779
vt 0.448611 0.941926
vt 0.075081 0.141896
vt 0.082650 0.048264
vt 0.041167 0.033827
vt 0.083702 0.010196
vt 0.123767 0.062442
vt 0.139815 0.040382
vt 0.104817 0.277123
vt 0.083593 0.145011
vt 0.109015 0.146555
vt 0.115604 0.145742
vt 0.116918 0.062932
vt 0.055680 0.058556
vt 0.058427 0.276324
vt 0.025244 0.317404
vt 0.028190 0.267527
vt 0.044358 0.139560
vt 0.067127 0.275765
vt 0.082458 0.366316
vt 0.060523 0.326129
vt 0.093547 0.329100
vt 0.099250 0.329543
vt 0.111095 0.280740
vt 0.027894 0.385962
vt 0.039654 0.417378
vt 0.013305 0.399505
vt 0.084267 0.412995
vt 0.049607 0.362913
vt 0.052496 0.326581
vt 0.572153 0.959287
vt 0.638648 0.958284
vt 0.619120 0.933610
vt 0.644039 0.934358
vt 0.047553 0.637429
vt 0.782482 0.724186
vt 0.736684 0.955623
vt 0.096637 0.397942
vt 0.623067 0.957816
vn -0.2657 -0.9636 -0.0291
vn -0.9956 0.0600 -0.0726
vn -0.2337 0.9024 0.3620
vn 0.4043 -0.7217 0.5619
vn 0.8042 -0.3783 0.4584
vn 0.0000 -0.2428 -0.9701
vn 0.9946 0.0213 0.1019
vn -0.1875 -0.0882 0.9783
vn 0.0000 0.1368 -0.9906
vn 0.3164 0.8490 0.4232
vn -0.9946 0.0213 0.1019
vn 0.2364 0.0000 0.9717
vn -0.1813 0.2691 0.9459
vn 0.0942 0.6106 0.7863
vn 0.2657 -0.9636 -0.0291
vn 0.2609 -0.9654 0.0000
vn -0.0474 -0.9678 0.2471
vn -0.5174 -0.7035 0.4872
vn -0.0520 -0.9764 -0.2095
vn 0.0544 -0.9767 -0.2078
vn 0.0000 -1.0000 0.0000
vn 0.2202 0.5684 0.7928
vn -0.2348 0.5678 0.7889
vn 0.1908 0.2557 0.9477
vn -0.1208 0.5686 0.8137
vn -0.2188 0.6617 0.7171
vn 0.4898 0.3832 0.7831
vn 0.0000 0.5511 -0.8344
vn 0.0055 -0.9550 -0.2964
vn 0.9276 -0.0280 -0.3725
vn -0.1240 0.1982 -0.9723
vn -0.0162 -0.5268 0.8498
vn 0.6547 -0.3659 -0.6614
vn 0.0251 0.4067 -0.9132
vn 0.0000 0.8780 -0.4786
vn 0.9904 -0.0858 -0.1085
vn -0.9904 -0.0858 -0.1085
vn -0.9794 -0.1926 -0.0614
vn 0.0311 0.5046 -0.8628
vn -0.8830 -0.3549 -0.3071
vn 0.9659 -0.1253 -0.2265
vn -0.0465 -0.3899 0.9197
vn 0.9686 0.1539 0.1955
vn -0.0365 -0.2244 0.9738
vn 0.0690 0.2509 -0.9655
vn -0.0423 -0.8192 -0.5719
vn 0.0914 0.3618 -0.9278
vn -0.9903 0.0219 0.1375
vn 0.9968 -0.0796 -0.0017
vn 0.0498 0.9093 -0.4132
vn -0.8843 0.4666 -0.0144
vn 0.9441 -0.3089 0.1151
vn 0.0476 0.7937 0.6064
vn -0.0695 -0.5499 0.8323
vn 0.9794 -0.0234 -0.2008
vn -0.9759 0.0573 -0.2104
vn -0.9475 0.2449 -0.2055
vn -0.1127 -0.8776 0.4659
vn 0.9925 -0.0980 0.0736
vn 0.8994 -0.0799 -0.4298
vn -0.0279 0.1331 -0.9907
vn -0.0848 -0.9359 -0.3419
vn -0.8409 -0.0319 -0.5403
vn 0.5675 0.4740 -0.6733
vn 0.0129 -0.5499 0.8351
vn -0.3451 -0.1923 -0.9186
vn -0.2213 0.8545 -0.4700
vn 0.8954 -0.2949 -0.3336
vn -0.0326 0.5285 -0.8483
vn 0.8391 -0.3206 -0.4395
vn -0.9870 -0.0779 -0.1407
vn 0.3384 -0.4072 0.8483
vn -0.8635 0.2463 0.4401
vn 0.1350 -0.5429 0.8289
vn -0.1993 0.5705 -0.7968
vn -0.4416 -0.7695 -0.4613
vn -0.4070 0.3969 -0.8227
vn 0.9492 -0.1848 -0.2545
vn -0.9112 0.1248 0.3926
vn -0.0078 0.9035 -0.4286
vn 0.8778 0.2378 -0.4158
vn -0.8517 -0.0727 0.5190
vn 0.3954 0.7672 0.5051
vn 0.1593 -0.7223 0.6730
vn -0.8094 0.0050 0.5872
vn 0.5417 0.4839 -0.6873
vn 0.8020 0.0119 -0.5972
vn -0.0156 -0.8598 0.5103
vn -0.8611 0.1436 0.4876
vn -0.8130 -0.0734 -0.5777
vn 0.0279 0.1331 -0.9907
vn 0.0000 0.4010 -0.9161
vn 0.0000 -0.3205 -0.9472
vn 0.0000 -0.2505 -0.9681
vn -0.8042 -0.3783 0.4584
vn -0.3319 0.8436 0.4221
vn 0.0455 -0.9674 0.2491
vn 0.9956 0.0600 -0.0726
vn 0.0150 -0.2514 -0.9678
vn -0.2511 0.0000 0.9680
vn 0.2418 0.8949 0.3751
vn -0.0150 -0.2514 -0.9678
vn 0.1792 -0.0843 0.9802
vn -0.2020 0.2565 0.9452
vn 0.2046 0.6652 0.7181
vn 0.5174 -0.7035 0.4872
vn -0.4265 -0.7192 0.5484
vn -0.2609 -0.9654 0.0000
vn -0.0518 -0.9764 -0.2094
vn 0.0542 -0.9767 -0.2077
vn 0.1599 0.5233 0.8370
vn -0.1695 0.5224 0.8357
vn 0.1733 0.2670 0.9480
vn -0.4969 0.3821 0.7791
vn -0.0976 0.6078 0.7880
vn 0.1187 0.5686 0.8140
vn 0.0432 0.5197 -0.8533
vn 0.1995 -0.6135 -0.7641
vn -0.0131 -0.5298 0.8480
vn 0.4579 -0.1822 -0.8701
vn 0.2393 0.8859 -0.3973
vn -0.0640 0.8767 -0.4768
vn 0.9953 0.0599 0.0758
vn -0.9953 0.0599 0.0758
vn -0.9791 -0.1982 -0.0446
vn 0.0794 0.4538 -0.8875
vn -0.8854 -0.3012 -0.3541
vn 0.9679 -0.1555 -0.1976
vn -0.0179 -0.3854 0.9226
vn 0.9704 0.1582 0.1824
vn -0.0222 -0.2262 0.9738
vn 0.1015 0.2462 -0.9639
vn 0.0103 -0.8102 -0.5860
vn 0.1153 0.3648 -0.9239
vn -0.9833 0.0069 0.1819
vn 0.9967 -0.0808 0.0016
vn 0.0749 0.8997 -0.4300
vn -0.9577 0.2490 -0.1441
vn 0.9490 -0.1382 0.2835
vn -0.1078 -0.5764 0.8100
vn 0.9868 -0.1442 -0.0734
vn -0.9810 0.0388 -0.1903
vn -0.9858 0.0644 -0.1551
vn 0.0096 -0.9222 0.3866
vn 0.9944 -0.0800 0.0692
vn -0.0851 -0.9292 -0.3596
vn 0.1473 -0.4218 0.8947
vn -0.5259 -0.4118 -0.7442
vn -0.0251 0.4065 -0.9133
vn 0.8947 -0.2901 -0.3397
vn -0.2064 0.3567 -0.9111
vn 0.8394 -0.3477 -0.4178
vn -0.9868 -0.1525 -0.0539
vn 0.3150 -0.3973 0.8619
vn -0.8570 0.2292 0.4616
vn 0.2831 -0.5423 0.7911
vn -0.3471 0.5626 -0.7503
vn -0.3915 -0.7914 -0.4695
vn -0.3884 0.3894 -0.8351
vn 0.9468 -0.1810 -0.2662
vn -0.8890 0.1031 0.4462
vn -0.0391 0.9007 -0.4327
vn 0.8377 0.0119 -0.5460
vn -0.7460 0.0901 0.6599
vn 0.3931 -0.9164 0.0760
vn -0.5218 -0.6489 0.5537
vn 0.7467 -0.1794 -0.6405
vn 0.8152 -0.1736 -0.5525
vn 0.1526 -0.9825 0.1069
vn -0.5715 -0.4424 0.6911
s off
f 5/1/1 23/2/1 22/3/1
f 5/1/2 8/4/2 6/5/2
f 13/6/3 18/7/3 17/8/3
f 16/9/4 25/10/4 4/11/4
f 11/12/5 3/13/5 4/11/5
f 19/14/6 41/15/6 12/16/6
f 9/17/7 12/18/7 1/19/7
f 7/20/8 15/21/8 8/4/8
f 19/14/9 35/22/9 37/23/9
f 19/14/9 63/24/9 20/25/9
f 1/26/10 18/7/10 9/17/10
f 69/27/6 19/14/6 20/25/6
f 6/5/11 13/28/11 20/29/11
f 4/11/12 15/21/12 16/9/12
f 15/21/13 34/30/13 8/4/13
f 18/7/14 29/31/14 9/17/14
f 11/12/15 27/32/15 2/33/15
f 11/12/16 25/34/16 26/35/16
f 16/9/17 21/36/17 24/37/17
f 5/1/18 21/38/18 7/20/18
f 14/39/19 23/40/19 10/41/19
f 14/39/20 27/42/20 28/43/20
f 27/44/21 26/45/21 28/46/21
f 23/47/21 28/46/21 22/48/21
f 21/49/21 22/48/21 24/50/21
f 25/51/21 24/50/21 26/45/21
f 26/45/21 22/48/21 28/46/21
f 31/52/22 30/53/22 29/31/22
f 34/30/23 31/52/23 33/54/23
f 15/21/24 30/53/24 32/55/24
f 6/5/25 34/30/25 33/54/25
f 18/7/26 33/54/26 31/52/26
f 9/17/27 30/53/27 3/13/27
f 35/56/28 61/57/28 37/58/28
f 2/59/29 38/60/29 36/61/29
f 36/62/30 35/22/30 2/63/30
f 38/64/31 14/65/31 37/23/31
f 41/66/32 46/67/32 45/68/32
f 1/69/33 41/15/33 40/70/33
f 17/8/34 40/71/34 39/72/34
f 89/73/35 63/74/35 65/75/35
f 12/18/36 11/12/36 2/33/36
f 5/1/37 20/29/37 10/76/37
f 46/67/38 47/77/38 50/78/38
f 40/79/39 43/80/39 39/81/39
f 42/82/40 43/80/40 46/67/40
f 41/66/41 44/83/41 40/84/41
f 50/78/42 53/85/42 49/86/42
f 45/68/43 48/87/43 44/83/43
f 45/68/44 50/78/44 49/86/44
f 44/88/45 47/77/45 43/80/45
f 51/89/46 56/90/46 55/91/46
f 47/77/47 52/92/47 51/89/47
f 47/77/48 54/93/48 50/78/48
f 48/87/49 53/85/49 52/94/49
f 58/95/50 59/96/50 57/97/50
f 51/89/51 58/95/51 54/93/51
f 53/85/52 56/98/52 52/94/52
f 54/93/53 57/97/53 53/85/53
f 38/99/54 60/100/54 36/101/54
f 36/102/55 59/96/55 35/56/55
f 38/99/56 61/57/56 62/103/56
f 62/103/57 58/95/57 55/91/57
f 55/91/58 60/100/58 62/103/58
f 57/97/59 60/104/59 56/98/59
f 2/63/60 35/22/60 12/16/60
f 19/14/61 37/23/61 14/65/61
f 64/105/62 14/39/62 10/41/62
f 64/106/63 10/107/63 63/24/63
f 66/108/64 65/109/64 14/65/64
f 69/110/65 74/111/65 70/112/65
f 13/113/66 69/27/66 20/25/66
f 17/8/67 68/114/67 13/6/67
f 74/111/68 75/115/68 71/116/68
f 71/116/69 68/117/69 67/118/69
f 70/112/70 71/116/70 67/118/70
f 72/119/71 69/110/71 68/120/71
f 81/121/72 78/122/72 77/123/72
f 76/124/73 73/125/73 72/119/73
f 73/125/74 78/122/74 74/111/74
f 75/115/75 72/126/75 71/116/75
f 79/127/76 84/128/76 80/129/76
f 75/115/77 80/129/77 76/130/77
f 82/131/78 75/115/78 78/122/78
f 76/124/79 81/121/79 77/123/79
f 87/132/80 86/133/80 85/134/80
f 86/133/81 79/127/81 82/131/81
f 84/135/82 81/121/82 80/136/82
f 85/134/83 82/131/83 81/121/83
f 88/137/84 66/138/84 64/139/84
f 87/132/85 64/140/85 63/74/85
f 66/138/86 89/73/86 65/75/86
f 86/133/87 90/141/87 83/142/87
f 90/141/88 84/128/88 83/142/88
f 84/135/89 87/132/89 85/134/89
f 10/107/90 20/25/90 63/24/90
f 19/14/91 14/65/91 65/109/91
f 17/8/92 39/72/92 67/143/92
f 67/144/93 42/145/93 70/146/93
f 42/145/94 19/14/94 70/146/94
f 5/1/1 10/76/1 23/2/1
f 5/1/95 7/20/95 8/4/95
f 13/6/96 6/5/96 18/7/96
f 16/9/97 24/37/97 25/10/97
f 11/12/98 9/17/98 3/13/98
f 19/14/99 42/145/99 41/15/99
f 7/20/100 16/9/100 15/21/100
f 19/14/9 12/16/9 35/22/9
f 19/14/9 65/109/9 63/24/9
f 1/26/101 17/8/101 18/7/101
f 69/27/102 70/146/102 19/14/102
f 4/11/103 3/13/103 15/21/103
f 15/21/104 32/55/104 34/30/104
f 18/7/105 31/52/105 29/31/105
f 11/12/15 26/35/15 27/32/15
f 11/12/106 4/11/106 25/34/106
f 16/9/107 7/20/107 21/36/107
f 5/1/108 22/3/108 21/38/108
f 14/39/109 28/43/109 23/40/109
f 14/39/110 2/59/110 27/42/110
f 26/45/21 24/50/21 22/48/21
f 31/52/111 32/55/111 30/53/111
f 34/30/112 32/55/112 31/52/112
f 15/21/113 3/13/113 30/53/113
f 6/5/114 8/4/114 34/30/114
f 18/7/115 6/5/115 33/54/115
f 9/17/116 29/31/116 30/53/116
f 35/56/117 59/96/117 61/57/117
f 2/59/118 14/39/118 38/60/118
f 41/66/119 42/82/119 46/67/119
f 1/69/120 12/16/120 41/15/120
f 17/8/121 1/26/121 40/71/121
f 89/73/122 87/132/122 63/74/122
f 12/18/123 9/17/123 11/12/123
f 5/1/124 6/5/124 20/29/124
f 46/67/125 43/80/125 47/77/125
f 40/79/126 44/88/126 43/80/126
f 42/82/127 39/81/127 43/80/127
f 41/66/128 45/68/128 44/83/128
f 50/78/129 54/93/129 53/85/129
f 45/68/130 49/86/130 48/87/130
f 45/68/131 46/67/131 50/78/131
f 44/88/132 48/147/132 47/77/132
f 51/89/133 52/92/133 56/90/133
f 47/77/134 48/147/134 52/92/134
f 47/77/135 51/89/135 54/93/135
f 48/87/136 49/86/136 53/85/136
f 58/95/137 61/57/137 59/96/137
f 51/89/138 55/91/138 58/95/138
f 53/85/139 57/97/139 56/98/139
f 54/93/53 58/95/53 57/97/53
f 38/99/140 62/103/140 60/100/140
f 36/102/141 60/104/141 59/96/141
f 38/99/142 37/58/142 61/57/142
f 62/103/143 61/57/143 58/95/143
f 55/91/144 56/90/144 60/100/144
f 57/97/145 59/96/145 60/104/145
f 64/105/146 66/148/146 14/39/146
f 69/110/147 73/125/147 74/111/147
f 13/113/148 68/149/148 69/27/148
f 17/8/149 67/143/149 68/114/149
f 74/111/150 78/122/150 75/115/150
f 71/116/151 72/126/151 68/117/151
f 70/112/152 74/111/152 71/116/152
f 72/119/153 73/125/153 69/110/153
f 81/121/154 82/131/154 78/122/154
f 76/124/155 77/123/155 73/125/155
f 73/125/156 77/123/156 78/122/156
f 75/115/157 76/130/157 72/126/157
f 79/127/158 83/142/158 84/128/158
f 75/115/159 79/127/159 80/129/159
f 82/131/160 79/127/160 75/115/160
f 76/124/161 80/136/161 81/121/161
f 87/132/162 89/73/162 86/133/162
f 86/133/163 83/142/163 79/127/163
f 84/135/164 85/134/164 81/121/164
f 85/134/83 86/133/83 82/131/83
f 88/137/165 90/141/165 66/138/165
f 87/132/166 88/150/166 64/140/166
f 66/138/167 90/141/167 89/73/167
f 86/133/168 89/73/168 90/141/168
f 90/141/169 88/137/169 84/128/169
f 84/135/170 88/150/170 87/132/170
f 67/144/93 39/151/93 42/145/93
