# Blender v2.83.0 OBJ File: 'blaster.blend'
# www.blender.org
o Blaster_Cube.001
v -0.081872 -0.004332 0.967842
v -0.081872 0.070394 1.090357
v -0.135322 0.125423 -1.032887
v -0.135322 0.466185 -1.148102
v 0.081872 -0.004332 0.967842
v 0.081872 0.070394 1.090357
v 0.135322 0.125423 -1.032887
v 0.135322 0.466185 -1.148102
v -0.135322 0.125423 0.214373
v -0.135322 0.466185 0.102447
v 0.135322 0.125423 0.214373
v 0.135322 0.466185 0.102447
v -0.081872 0.188475 0.680537
v 0.081872 0.399140 0.702286
v -0.081872 0.399140 0.702286
v 0.081872 0.188475 0.680537
v -0.081872 0.098935 0.877236
v 0.081872 0.242557 0.949961
v -0.081872 0.472396 0.421480
v 0.081872 0.237356 0.365521
v -0.081872 0.237356 0.365521
v 0.081872 0.472396 0.421480
v -0.081872 0.242557 0.949961
v 0.081872 0.098935 0.877236
v -0.108597 0.484846 0.260758
v 0.108597 0.211848 0.286072
v -0.108597 0.211848 0.286072
v 0.108597 0.484846 0.260758
v -0.081872 0.224969 0.586999
v 0.081872 0.444472 0.582838
v -0.081872 0.444472 0.582838
v 0.081872 0.224969 0.586999
v 0.000000 0.184539 0.280647
v -0.028255 0.237356 0.365521
v -0.037478 0.211848 0.286072
v 0.028255 0.237356 0.365521
v 0.037478 0.211848 0.286072
v 0.028255 0.145922 0.395155
v 0.037478 0.110384 0.378518
v -0.000000 0.100420 0.373576
v -0.028255 0.145922 0.395155
v -0.037478 0.110384 0.378518
v 0.026839 0.188475 0.680537
v 0.026839 0.164114 0.741833
v 0.000000 0.145325 0.754281
v -0.026839 0.188475 0.680537
v -0.026839 0.164114 0.741833
v -0.081872 0.362327 0.782312
v 0.081872 0.164114 0.741833
v -0.081872 0.164114 0.741833
v 0.081872 0.362327 0.782312
v -0.000000 0.073916 0.614819
v -0.032158 0.083879 0.609706
v -0.027547 0.119789 0.588915
v 0.027547 0.119789 0.588915
v 0.032158 0.083879 0.609706
v 0.027901 0.113526 0.490467
v -0.027901 0.113526 0.490467
v -0.000000 0.067838 0.492561
v -0.034818 0.077802 0.492544
v 0.034818 0.077802 0.492544
v 0.028255 0.198062 0.359490
v -0.037478 0.171634 0.329293
v -0.028255 0.198062 0.359490
v 0.037478 0.171634 0.329293
v -0.000000 0.161671 0.322209
v -0.081872 -0.160918 1.057691
v -0.081872 -0.134712 1.137430
v 0.081872 -0.134712 1.137430
v 0.081872 -0.160918 1.057691
v 0.000000 0.085657 0.214373
v 0.000000 0.098935 0.877236
v -0.135322 0.402316 -1.122542
v -0.135322 0.291174 -1.086852
v 0.045107 0.085657 -1.032887
v -0.045107 0.085657 -1.032887
v -0.045107 0.491573 -1.152669
v 0.045107 0.491573 -1.152669
v 0.135322 0.402316 -1.122542
v 0.135322 0.291174 -1.086852
v -0.045107 0.291174 -1.121707
v 0.045107 0.291174 -1.121707
v -0.045107 0.426480 -1.130665
v 0.045107 0.426480 -1.130665
v -0.028747 0.315711 -1.135683
v 0.028747 0.315711 -1.135683
v -0.028747 0.401943 -1.138390
v 0.028747 0.401943 -1.138390
v 0.000000 0.491573 0.102447
v 0.135322 0.288615 0.160408
v -0.135322 0.288615 0.160408
v 0.000000 0.091415 1.121328
v 0.000000 0.420161 0.733257
v 0.000000 0.493417 0.452452
v 0.000000 0.263578 0.980932
v 0.000000 0.505867 0.291729
v 0.000000 0.465493 0.613809
v 0.000000 0.383348 0.813283
v 0.000000 -0.113691 1.168402
v -0.027291 0.224969 0.586999
v 0.027291 0.224969 0.586999
v -0.029499 0.108989 0.695614
v 0.029499 0.108989 0.695614
v 0.000000 0.094613 0.704394
v 0.027193 0.139125 0.654570
v -0.027193 0.139125 0.654570
vt 0.999156 0.067731
vt 0.999534 0.112904
vt 0.494490 0.072170
vt 0.867519 0.656873
vt 0.940079 0.624937
vt 0.940079 0.676308
vt 0.169620 0.103236
vt 0.114061 0.165131
vt 0.110628 0.111641
vt 0.110629 0.279301
vt 0.036899 0.229265
vt 0.114061 0.225811
vt 0.127507 0.794695
vt 0.050151 0.735758
vt 0.143796 0.735986
vt 0.186467 0.195471
vt 0.115629 0.195471
vt 0.999699 0.139001
vt 0.502056 0.195470
vt 0.501983 0.142242
vt 0.437331 0.344762
vt 0.463485 0.237203
vt 0.494490 0.318770
vt 0.260894 0.226216
vt 0.264485 0.307606
vt 0.235673 0.304184
vt 0.330252 0.195470
vt 0.292896 0.226838
vt 0.285663 0.195470
vt 0.309065 0.081230
vt 0.292895 0.164103
vt 0.264485 0.083335
vt 0.463485 0.153737
vt 0.403693 0.062514
vt 0.437330 0.046179
vt 0.592862 0.493135
vt 0.627154 0.474809
vt 0.627194 0.496933
vt 0.451509 0.195470
vt 0.400990 0.229147
vt 0.390293 0.195470
vt 0.169620 0.287706
vt 0.338831 0.226342
vt 0.403694 0.328426
vt 0.309065 0.309711
vt 0.255057 0.195471
vt 0.189411 0.226435
vt 0.577469 0.699261
vt 0.560700 0.692740
vt 0.562330 0.618780
vt 0.235672 0.086757
vt 0.189411 0.164506
vt 0.849527 0.474785
vt 0.787468 0.497513
vt 0.787467 0.474785
vt 0.501983 0.248698
vt 0.338831 0.164599
vt 0.468694 0.738449
vt 0.481719 0.720318
vt 0.479892 0.742537
vt 0.592881 0.524045
vt 0.627156 0.542387
vt 0.592605 0.553191
vt 0.490889 0.621999
vt 0.514026 0.628917
vt 0.498586 0.635113
vt 0.050151 0.687170
vt 0.143796 0.686942
vt 0.556956 0.862715
vt 0.545301 0.835650
vt 0.557555 0.835542
vt 0.511135 0.742199
vt 0.501934 0.721417
vt 0.514624 0.720681
vt 0.569793 0.836189
vt 0.570864 0.861789
vt 0.787467 0.542408
vt 0.760228 0.519680
vt 0.787467 0.519680
vt 0.475203 0.681277
vt 0.490835 0.654004
vt 0.486167 0.684857
vt 0.543661 0.698516
vt 0.512075 0.624936
vt 0.488554 0.627156
vt 0.497295 0.610003
vt 0.571472 0.727124
vt 0.260893 0.164725
vt 0.515807 0.684810
vt 0.506016 0.655656
vt 0.517096 0.650584
vt 0.558401 0.797125
vt 0.570858 0.758161
vt 0.570422 0.797873
vt 0.127507 0.628233
vt 0.547672 0.757651
vt 0.559294 0.756589
vt 0.849527 0.508596
vt 0.906262 0.474785
vt 0.906262 0.542408
vt 0.760227 0.474785
vt 0.546360 0.797343
vt 0.504531 0.686169
vt 0.469487 0.717089
vt 0.556445 0.885941
vt 0.577469 0.880783
vt 0.517096 0.756042
vt 0.498635 0.743822
vt 0.543103 0.861178
vt 0.718765 0.497327
vt 0.627200 0.520270
vt 0.460672 0.749522
vt 0.480739 0.753271
vt 0.046493 0.195471
vt 0.000143 0.231758
vt 0.980817 0.542407
vt 0.036899 0.161678
vt 0.036955 0.126715
vt 0.849527 0.542408
vt 0.529857 0.563140
vt 0.554720 0.964268
vt 0.535668 0.879863
vt 0.529837 0.454056
vt 0.524273 0.508602
vt 0.867519 0.765699
vt 0.940079 0.899014
vt 0.867519 0.930998
vt 0.940079 0.765699
vt 0.722399 0.899014
vt 0.794959 0.765699
vt 0.794959 0.930998
vt 0.722399 0.676308
vt 0.722399 0.765699
vt 0.185424 0.763682
vt 0.209656 0.646494
vt 0.208328 0.732043
vt 0.722399 0.624937
vt 0.794959 0.656873
vt 0.794959 0.604518
vt 0.265984 0.733434
vt 0.290216 0.763357
vt 0.267312 0.647889
vt 0.290216 0.616254
vt 0.185424 0.616567
vt 0.999857 0.177402
vt 0.999857 0.213538
vt 0.999699 0.251939
vt 0.043112 0.490089
vt 0.043304 0.451630
vt 0.043119 0.527301
vt 0.043326 0.565759
vt 0.998608 0.000143
vt 0.489604 0.004938
vt 0.999534 0.278035
vt 0.999155 0.323209
vt 0.998607 0.390797
vt 0.400990 0.161794
vt 0.489605 0.386002
vt 0.718763 0.474787
vt 0.718765 0.519867
vt 0.760227 0.542407
vt 0.718763 0.542406
vt 0.000143 0.159185
vt 0.502185 0.636050
vt 0.548425 0.726617
vt 0.559962 0.726247
vt 0.480739 0.646709
vt 0.494845 0.755208
vt 0.867519 0.604518
vt 0.036955 0.264228
vt 0.083945 0.818502
vt 0.592589 0.463990
vt 0.508684 0.609978
vt 0.083945 0.604426
vt 0.760228 0.497513
vt 0.980817 0.474785
vn 1.0000 0.0000 0.0000
vn -0.0159 -0.3715 -0.9283
vn -1.0000 0.0000 0.0000
vn -1.0000 0.0025 0.0047
vn -0.4145 0.5751 0.7053
vn 0.1844 0.9829 0.0000
vn -0.9753 0.0204 0.2199
vn -0.3505 0.8756 0.3323
vn 0.9502 0.0288 0.3104
vn 0.0000 -0.9521 0.3057
vn -0.2743 0.9588 0.0743
vn -0.3941 0.7478 0.5343
vn -0.4409 -0.8398 -0.3168
vn 0.1837 0.9793 -0.0844
vn 0.0000 -0.9010 -0.4337
vn -0.9857 0.0523 0.1602
vn -0.9502 0.0288 0.3104
vn -0.3026 0.9392 0.1625
vn -0.9742 0.1273 0.1861
vn -0.9990 0.0265 -0.0367
vn 0.0000 -0.0182 -0.9998
vn 0.2623 -0.6201 -0.7394
vn 0.9674 0.1586 0.1974
vn -0.2994 -0.5977 -0.7437
vn 0.0000 -0.9293 -0.3693
vn -0.9818 0.1896 -0.0085
vn 0.4409 -0.8398 -0.3168
vn 0.9992 0.0362 0.0144
vn -0.6237 -0.4844 0.6136
vn 0.9906 0.1361 0.0154
vn -0.3644 0.8460 0.3892
vn -0.2747 -0.9599 0.0560
vn 1.0000 0.0025 0.0047
vn 0.3025 -0.9520 0.0473
vn 0.0000 -0.6595 -0.7517
vn 0.2659 -0.9298 -0.2546
vn -0.2798 -0.9248 -0.2577
vn 0.9779 0.1939 0.0782
vn -0.9732 0.2164 0.0772
vn -0.5343 -0.6188 -0.5758
vn 0.9743 0.1648 0.1533
vn 0.3082 -0.8335 -0.4586
vn 0.0000 -0.9984 -0.0558
vn -0.9925 -0.0186 0.1212
vn 0.1248 -0.9426 0.3098
vn 0.0000 -0.4977 -0.8674
vn -0.3920 0.2058 0.8966
vn 0.0000 -0.6385 0.7696
vn 0.2745 -0.5354 0.7988
vn 0.1535 -0.5222 0.8389
vn -0.2745 -0.5354 0.7988
vn 0.1723 -0.3908 -0.9042
vn 0.3452 -0.2869 -0.8936
vn -0.1723 -0.3908 -0.9042
vn 0.0000 -0.3967 -0.9179
vn -0.3452 -0.2869 -0.8936
vn -0.6279 -0.0244 -0.7779
vn 0.0159 -0.3715 -0.9283
vn 0.0000 -0.3202 -0.9473
vn 0.0000 -0.0314 -0.9995
vn 0.0000 -0.4949 -0.8689
vn 0.4953 -0.0574 -0.8668
vn 0.0000 0.3003 -0.9538
vn 0.0000 1.0000 0.0000
vn -0.1844 0.9829 0.0000
vn 0.4033 -0.9150 0.0000
vn 0.0000 -1.0000 0.0000
vn -0.4033 -0.9150 0.0000
vn 0.3920 0.2058 0.8966
vn 0.3644 0.8460 0.3892
vn 0.3026 0.9392 0.1625
vn 0.3941 0.7478 0.5343
vn 0.2194 0.9692 0.1116
vn 0.3505 0.8756 0.3323
vn 0.4145 0.5751 0.7053
vn -0.1837 0.9793 -0.0844
vn -0.9628 0.0848 0.2566
vn 0.9857 0.0523 0.1602
vn 0.9753 0.0204 0.2199
vn 0.9628 0.0848 0.2566
vn 0.0000 -0.9316 -0.3635
vn -0.1248 -0.9426 0.3098
vn 0.0000 -0.9198 0.3924
vn -0.3241 -0.9053 0.2746
vn 0.9964 0.0846 0.0061
vn 0.4846 -0.6134 0.6236
vn 0.4764 -0.8567 0.1979
vn -0.9934 0.1116 -0.0275
vn 0.0000 0.9980 -0.0635
vn 0.0000 0.9468 0.3218
vn 0.0000 0.5646 0.8254
vn 0.0000 -0.1517 0.9884
vn -0.0421 -0.3199 -0.9465
vn -1.0000 0.0038 0.0063
vn 0.2704 0.9627 0.0097
vn 0.9862 -0.0383 0.1610
vn -0.2194 0.9692 0.1116
vn 0.1691 0.9828 -0.0742
vn -0.9862 -0.0383 0.1610
vn -0.9674 0.1586 0.1974
vn -0.9992 0.0362 0.0144
vn 0.2994 -0.5977 -0.7437
vn 0.9742 0.1273 0.1861
vn -0.2623 -0.6201 -0.7394
vn -0.9906 0.1361 0.0154
vn 0.9990 0.0265 -0.0367
vn -0.4846 -0.6134 0.6236
vn 0.9818 0.1896 -0.0085
vn -0.3025 -0.9520 0.0473
vn 1.0000 0.0038 0.0063
vn 0.2747 -0.9599 0.0560
vn 0.2798 -0.9248 -0.2577
vn -0.2659 -0.9298 -0.2546
vn 0.9732 0.2164 0.0772
vn -0.9779 0.1939 0.0782
vn -0.3082 -0.8335 -0.4586
vn 0.9925 -0.0186 0.1212
vn 0.5343 -0.6188 -0.5758
vn -0.9743 0.1648 0.1533
vn -0.1535 -0.5222 0.8389
vn 0.3448 -0.2906 -0.8925
vn 0.0720 -0.0659 -0.9952
vn -0.3448 -0.2906 -0.8925
vn -0.0720 -0.0659 -0.9952
vn -0.4953 -0.0574 -0.8668
vn 0.0421 -0.3199 -0.9465
vn 0.6279 -0.0244 -0.7779
vn -0.2704 0.9627 0.0097
vn 0.2819 -0.9594 0.0102
vn -0.2819 -0.9594 0.0102
vn 0.2743 0.9588 0.0743
vn -0.1691 0.9828 -0.0742
vn -0.4764 -0.8567 0.1979
vn 0.9934 0.1116 -0.0275
vn 0.6237 -0.4844 0.6136
vn 0.3241 -0.9053 0.2746
vn -0.9964 0.0846 0.0061
s off
f 80/1/1 79/2/1 90/3/1
f 84/4/2 8/5/2 79/6/2
f 24/7/1 6/8/1 5/9/1
f 1/10/3 68/11/3 2/12/3
f 106/13/4 100/14/4 54/15/4
f 95/16/5 2/12/5 92/17/5
f 8/18/6 89/19/6 12/20/6
f 12/20/1 79/2/1 8/18/1
f 27/21/7 25/22/7 91/23/7
f 48/24/3 13/25/3 50/26/3
f 97/27/8 15/28/8 93/29/8
f 32/30/1 14/31/1 16/32/1
f 28/33/9 20/34/9 26/35/9
f 37/36/10 20/37/10 36/38/10
f 96/39/11 19/40/11 94/41/11
f 2/12/3 17/42/3 1/10/3
f 31/43/3 21/44/3 29/45/3
f 98/46/12 23/47/12 95/16/12
f 47/48/13 45/49/13 72/50/13
f 49/51/1 18/52/1 24/7/1
f 89/19/14 28/33/14 12/20/14
f 24/53/15 44/54/15 49/55/15
f 10/56/16 91/23/16 25/22/16
f 21/44/17 25/22/17 27/21/17
f 15/28/3 29/45/3 13/25/3
f 20/34/1 30/57/1 32/30/1
f 94/41/18 31/43/18 97/27/18
f 63/58/19 41/59/19 64/60/19
f 35/61/10 21/62/10 27/63/10
f 102/64/20 46/65/20 106/66/20
f 54/15/21 101/67/21 55/68/21
f 66/69/22 39/70/22 40/71/22
f 65/72/23 38/73/23 39/74/23
f 66/69/24 42/75/24 63/76/24
f 50/77/25 46/78/25 47/79/25
f 60/80/26 54/81/26 58/82/26
f 72/50/27 45/49/27 44/83/27
f 103/84/28 43/85/28 44/86/28
f 102/87/29 45/49/29 47/48/29
f 16/32/1 51/88/1 49/51/1
f 61/89/30 55/90/30 56/91/30
f 93/29/31 48/24/31 98/46/31
f 23/47/3 50/26/3 17/42/3
f 59/92/32 53/93/32 60/94/32
f 101/67/33 105/95/33 55/68/33
f 59/92/34 56/96/34 52/97/34
f 72/98/35 5/99/35 1/100/35
f 44/54/25 16/101/25 49/55/25
f 40/71/36 61/102/36 59/92/36
f 40/71/37 60/94/37 42/75/37
f 39/74/38 57/103/38 61/89/38
f 42/104/39 58/82/39 41/59/39
f 33/105/40 63/76/40 35/106/40
f 37/107/41 62/108/41 65/72/41
f 33/105/42 65/109/42 66/69/42
f 101/110/43 34/111/43 36/38/43
f 35/112/44 64/60/44 34/113/44
f 99/114/45 68/11/45 67/115/45
f 5/99/46 67/116/46 1/100/46
f 2/12/47 99/114/47 92/17/47
f 5/9/1 69/117/1 70/118/1
f 17/119/15 47/79/15 72/98/15
f 9/120/48 35/61/48 27/63/48
f 33/105/49 71/121/49 37/122/49
f 11/123/50 37/36/50 71/124/50
f 35/106/51 71/121/51 33/105/51
f 82/125/52 7/126/52 75/127/52
f 82/125/53 79/6/53 80/128/53
f 3/129/54 81/130/54 76/131/54
f 81/130/55 75/127/55 76/131/55
f 73/132/56 81/130/56 74/133/56
f 81/134/57 87/135/57 85/136/57
f 4/137/58 83/138/58 73/132/58
f 77/139/59 84/4/59 83/138/59
f 87/135/60 86/140/60 85/136/60
f 81/134/61 86/140/61 82/141/61
f 82/141/62 88/142/62 84/143/62
f 84/143/63 87/135/63 83/144/63
f 78/145/64 77/146/64 89/19/64
f 89/19/65 4/147/65 10/56/65
f 11/123/66 75/148/66 7/149/66
f 75/148/67 71/124/67 76/150/67
f 76/150/68 9/120/68 3/151/68
f 7/152/1 90/3/1 11/153/1
f 10/56/3 73/154/3 91/23/3
f 74/155/3 91/23/3 73/154/3
f 3/156/3 91/23/3 74/155/3
f 6/8/69 99/114/69 69/117/69
f 93/29/70 51/88/70 14/31/70
f 94/41/71 30/57/71 22/157/71
f 98/46/72 18/52/72 51/88/72
f 96/39/73 22/157/73 28/33/73
f 97/27/74 14/31/74 30/57/74
f 95/16/75 6/8/75 18/52/75
f 25/22/76 89/19/76 10/56/76
f 91/23/77 9/158/77 27/21/77
f 28/33/78 90/3/78 12/20/78
f 26/35/79 90/3/79 28/33/79
f 11/153/80 90/3/80 26/35/80
f 16/101/81 101/110/81 32/159/81
f 100/160/81 13/161/81 29/162/81
f 34/111/43 29/162/43 21/62/43
f 32/159/43 36/38/43 20/37/43
f 70/163/82 69/117/82 99/114/82
f 99/114/83 67/115/83 70/163/83
f 52/97/84 102/87/84 53/93/84
f 56/91/85 105/164/85 103/84/85
f 103/165/86 45/49/86 104/166/86
f 52/97/87 103/165/87 104/166/87
f 53/167/88 106/66/88 54/81/88
f 55/90/89 58/82/89 54/81/89
f 41/59/90 57/103/90 38/73/90
f 64/60/91 38/73/91 62/108/91
f 34/113/92 62/108/92 36/168/92
f 84/4/93 78/169/93 8/5/93
f 24/7/1 18/52/1 6/8/1
f 1/10/3 67/170/3 68/11/3
f 106/13/94 46/171/94 100/14/94
f 95/16/5 23/47/5 2/12/5
f 8/18/95 78/145/95 89/19/95
f 12/20/1 90/3/1 79/2/1
f 48/24/3 15/28/3 13/25/3
f 97/27/8 31/43/8 15/28/8
f 32/30/1 30/57/1 14/31/1
f 28/33/96 22/157/96 20/34/96
f 37/36/10 26/172/10 20/37/10
f 96/39/97 25/22/97 19/40/97
f 2/12/3 23/47/3 17/42/3
f 31/43/3 19/40/3 21/44/3
f 98/46/12 48/24/12 23/47/12
f 49/51/1 51/88/1 18/52/1
f 89/19/98 96/39/98 28/33/98
f 24/53/15 72/98/15 44/54/15
f 21/44/99 19/40/99 25/22/99
f 15/28/3 31/43/3 29/45/3
f 20/34/1 22/157/1 30/57/1
f 94/41/18 19/40/18 31/43/18
f 63/58/100 42/104/100 41/59/100
f 35/61/10 34/111/10 21/62/10
f 102/64/101 47/173/101 46/65/101
f 54/15/21 100/14/21 101/67/21
f 66/69/102 65/109/102 39/70/102
f 65/72/103 62/108/103 38/73/103
f 66/69/104 40/71/104 42/75/104
f 50/77/25 13/161/25 46/78/25
f 60/80/105 53/167/105 54/81/105
f 103/84/106 105/164/106 43/85/106
f 102/87/107 104/166/107 45/49/107
f 16/32/1 14/31/1 51/88/1
f 61/89/108 57/103/108 55/90/108
f 93/29/31 15/28/31 48/24/31
f 23/47/3 48/24/3 50/26/3
f 59/92/109 52/97/109 53/93/109
f 101/67/110 43/174/110 105/95/110
f 59/92/111 61/102/111 56/96/111
f 1/100/35 17/119/35 72/98/35
f 72/98/35 24/53/35 5/99/35
f 44/54/25 43/175/25 16/101/25
f 40/71/112 39/70/112 61/102/112
f 40/71/113 59/92/113 60/94/113
f 39/74/114 38/73/114 57/103/114
f 42/104/115 60/80/115 58/82/115
f 33/105/116 66/69/116 63/76/116
f 37/107/117 36/168/117 62/108/117
f 33/105/118 37/122/118 65/109/118
f 101/110/43 100/160/43 34/111/43
f 35/112/119 63/58/119 64/60/119
f 5/99/46 70/176/46 67/116/46
f 2/12/47 68/11/47 99/114/47
f 5/9/1 6/8/1 69/117/1
f 17/119/15 50/77/15 47/79/15
f 9/120/120 71/124/120 35/61/120
f 11/123/48 26/172/48 37/36/48
f 82/125/121 80/128/121 7/126/121
f 82/125/122 84/4/122 79/6/122
f 3/129/123 74/133/123 81/130/123
f 81/130/55 82/125/55 75/127/55
f 73/132/124 83/138/124 81/130/124
f 81/134/125 83/144/125 87/135/125
f 4/137/126 77/139/126 83/138/126
f 77/139/59 78/169/59 84/4/59
f 87/135/60 88/142/60 86/140/60
f 81/134/61 85/136/61 86/140/61
f 82/141/127 86/140/127 88/142/127
f 84/143/63 88/142/63 87/135/63
f 89/19/128 77/146/128 4/147/128
f 11/123/129 71/124/129 75/148/129
f 76/150/130 71/124/130 9/120/130
f 7/152/1 80/1/1 90/3/1
f 10/56/3 4/147/3 73/154/3
f 3/156/3 9/158/3 91/23/3
f 6/8/69 92/17/69 99/114/69
f 93/29/70 98/46/70 51/88/70
f 94/41/71 97/27/71 30/57/71
f 98/46/72 95/16/72 18/52/72
f 96/39/131 94/41/131 22/157/131
f 97/27/74 93/29/74 14/31/74
f 95/16/75 92/17/75 6/8/75
f 25/22/132 96/39/132 89/19/132
f 16/101/81 43/175/81 101/110/81
f 100/160/81 46/78/81 13/161/81
f 34/111/43 100/160/43 29/162/43
f 32/159/43 101/110/43 36/38/43
f 52/97/133 104/166/133 102/87/133
f 56/91/134 55/90/134 105/164/134
f 103/165/135 44/83/135 45/49/135
f 52/97/136 56/96/136 103/165/136
f 53/167/137 102/64/137 106/66/137
f 55/90/89 57/103/89 58/82/89
f 41/59/90 58/82/90 57/103/90
f 64/60/91 41/59/91 38/73/91
f 34/113/92 64/60/92 62/108/92
