# Blender v2.93.2 OBJ File: 'bomb.blend'
# www.blender.org
o Cube
v 0.153809 0.569541 -0.153809
v 0.185758 -0.566760 -0.185758
v 0.153809 0.569541 0.153809
v 0.185758 -0.566760 0.185758
v -0.153809 0.569541 -0.153809
v -0.185758 -0.566760 -0.185758
v -0.153809 0.569541 0.153809
v -0.185758 -0.566760 0.185758
v -0.264781 -0.566760 0.000000
v 0.000000 -0.566760 -0.264781
v 0.000000 0.569541 0.219241
v 0.219241 0.569541 0.000000
v 0.000000 -0.566760 0.264781
v -0.219241 0.569541 0.000000
v 0.000000 0.569541 -0.219241
v 0.264781 -0.566760 0.000000
v 0.000000 -0.663005 0.000000
v 0.467644 0.003578 -0.467644
v -0.467644 0.003578 0.467644
v 0.467644 0.003578 0.467644
v -0.467644 0.003578 -0.467644
v 0.000000 0.003578 -0.666583
v 0.666583 0.003578 0.000000
v -0.666583 0.003578 0.000000
v 0.000000 0.003578 0.666583
v 0.373210 -0.329714 -0.373210
v -0.373210 0.336869 0.373210
v 0.373210 -0.329714 0.373210
v -0.373210 -0.329714 -0.373210
v 0.000000 -0.329714 -0.531977
v 0.531977 -0.329714 0.000000
v -0.531977 -0.329714 0.000000
v 0.000000 -0.329714 0.531977
v 0.373210 0.336869 -0.373210
v -0.373210 -0.329714 0.373210
v 0.373210 0.336869 0.373210
v -0.373210 0.336869 -0.373210
v 0.000000 0.336869 -0.531977
v 0.531977 0.336869 0.000000
v -0.531977 0.336869 0.000000
v 0.000000 0.336869 0.531977
v 0.000000 0.637297 0.219270
v -0.153830 0.637297 0.153830
v 0.219270 0.637297 0.000000
v 0.153830 0.637297 0.153830
v -0.219270 0.637297 0.000000
v -0.153830 0.637297 -0.153830
v 0.000000 0.637297 -0.219270
v 0.153830 0.637297 -0.153830
v 0.000000 0.587638 -0.059330
v -0.076915 0.637297 0.186550
v 0.186550 0.637297 0.076915
v -0.186550 0.637297 -0.076915
v 0.076915 0.637297 -0.186550
v 0.076915 0.637297 0.186550
v 0.186550 0.637297 -0.076915
v -0.186550 0.637297 0.076915
v -0.076915 0.637297 -0.186550
v 0.000000 0.637297 0.150049
v 0.000000 0.637297 -0.150049
v 0.150049 0.637297 0.000000
v -0.150049 0.637297 0.000000
v -0.110826 0.637297 -0.110826
v 0.110826 0.637297 -0.110826
v 0.110826 0.637297 0.110826
v -0.110826 0.637297 0.110826
v 0.000000 0.587638 -0.118659
v 0.063730 0.756900 -0.056848
v -0.118659 0.587638 0.000000
v 0.000000 0.587638 0.118659
v 0.118659 0.587638 0.000000
v -0.087642 0.587638 -0.087642
v 0.087642 0.587638 -0.087642
v 0.087642 0.587638 0.087642
v -0.087642 0.587638 0.087642
v -0.059330 0.587638 0.000000
v 0.000000 0.587638 0.059330
v 0.059330 0.587638 0.000000
v -0.103150 0.587638 -0.043821
v -0.043821 0.587638 -0.103150
v 0.103150 0.587638 -0.043821
v 0.043821 0.587638 -0.103150
v 0.103150 0.587638 0.043821
v 0.043821 0.587638 0.103150
v -0.103150 0.587638 0.043821
v -0.043821 0.587638 0.103150
v -0.042308 0.587638 0.042308
v 0.042308 0.587638 0.042308
v -0.042308 0.587638 -0.042308
v 0.042308 0.587638 -0.042308
v 0.027976 0.680877 -0.059330
v -0.027403 0.702166 0.000000
v 0.027976 0.680877 0.059330
v 0.083354 0.659588 0.000000
v -0.011515 0.696058 0.042308
v 0.067466 0.665695 0.042308
v -0.011515 0.696058 -0.042308
v 0.067466 0.665695 -0.042308
v 0.165987 0.859017 -0.107106
v 0.012994 0.803350 -0.008803
v 0.063730 0.790863 0.056848
v 0.114466 0.744414 0.008803
v 0.027550 0.807005 0.034261
v 0.099910 0.764977 0.046815
v 0.027550 0.782786 -0.046815
v 0.099910 0.740758 -0.034261
v 0.100548 0.788647 -0.057802
v 0.243849 0.898215 -0.229901
v 0.049812 0.853031 -0.039900
v 0.100548 0.875515 0.023031
v 0.151285 0.811130 0.005130
v 0.064368 0.877994 -0.004619
v 0.136729 0.848114 0.027491
v 0.064368 0.816048 -0.062262
v 0.136729 0.786168 -0.030151
v 0.125097 0.911163 -0.120575
v 0.165987 0.952227 -0.085727
v 0.206877 0.900081 -0.072258
v 0.136829 0.942807 -0.106022
v 0.195146 0.934904 -0.071566
v 0.136829 0.876339 -0.121267
v 0.195146 0.868436 -0.086812
v 0.256946 0.934338 -0.240333
v 0.212156 0.938633 -0.240341
v 0.243849 0.970461 -0.213330
v 0.275543 0.930043 -0.202891
v 0.221249 0.963160 -0.229061
v 0.266450 0.957035 -0.202354
v 0.221249 0.911641 -0.240877
v 0.266450 0.905516 -0.214171
vt 0.305844 0.585284
vt 0.325449 0.624819
vt 0.308044 0.638369
vt 0.406271 0.564951
vt 0.339746 0.466519
vt 0.406279 0.462627
vt 0.187634 0.508028
vt 0.269075 0.479836
vt 0.479883 0.145102
vt 0.479380 0.250115
vt 0.405966 0.230432
vt 0.506820 0.585474
vt 0.472849 0.466482
vt 0.543652 0.479777
vt 0.601083 0.655396
vt 0.625322 0.507972
vt 0.735562 0.574920
vt 0.211962 0.654925
vt 0.077840 0.574904
vt 0.331823 0.145719
vt 0.332765 0.250425
vt 0.259771 0.231893
vt 0.184079 0.239369
vt 0.202944 0.136120
vt 0.628428 0.238595
vt 0.609278 0.135086
vt 0.696132 0.204878
vt 0.558921 0.610065
vt 0.524703 0.651580
vt 0.504560 0.638746
vt 0.406233 0.605402
vt 0.386474 0.608976
vt 0.355422 0.565167
vt 0.365516 0.610387
vt 0.345739 0.618731
vt 0.478227 0.409649
vt 0.406186 0.347463
vt 0.479635 0.349740
vt 0.334314 0.409755
vt 0.253733 0.349115
vt 0.332796 0.349919
vt 0.651018 0.430360
vt 0.558837 0.348763
vt 0.649945 0.346931
vt 0.161911 0.430664
vt 0.033739 0.322983
vt 0.162844 0.347457
vt 0.779378 0.322144
vt 0.552501 0.231274
vt 0.116505 0.205896
vt 0.406248 0.407463
vt 0.258497 0.416874
vt 0.554179 0.416672
vt 0.019387 0.455402
vt 0.794009 0.454944
vt 0.369476 0.626957
vt 0.406200 0.623548
vt 0.425992 0.609042
vt 0.442947 0.627109
vt 0.334493 0.641932
vt 0.351118 0.669526
vt 0.339452 0.679429
vt 0.301279 0.665394
vt 0.253905 0.609763
vt 0.287971 0.651105
vt 0.272108 0.671532
vt 0.487108 0.625103
vt 0.466774 0.618942
vt 0.457154 0.565248
vt 0.446971 0.610521
vt 0.559503 0.694199
vt 0.540642 0.672146
vt 0.434767 0.657238
vt 0.420623 0.656345
vt 0.277009 0.700634
vt 0.253372 0.693440
vt 0.477984 0.642253
vt 0.511299 0.665924
vt 0.535675 0.701480
vt 0.327478 0.688819
vt 0.320092 0.703725
vt 0.377517 0.657057
vt 0.364826 0.663588
vt 0.925255 0.826784
vt 0.827013 0.865142
vt 0.909025 0.806778
vt 0.363630 0.689373
vt 0.347155 0.703867
vt 0.406042 0.677664
vt 0.428187 0.680605
vt 0.383909 0.680405
vt 0.391643 0.656253
vt 0.461192 0.669902
vt 0.447463 0.663863
vt 0.501274 0.722643
vt 0.492257 0.704464
vt 0.406133 0.654257
vt 0.484877 0.689419
vt 0.472875 0.679917
vt 0.895179 0.785301
vt 0.812374 0.843728
vt 0.448490 0.689774
vt 0.883099 0.762944
vt 0.796754 0.825126
vt 0.870627 0.740564
vt 0.781017 0.808458
vt 0.338743 0.723706
vt 0.311075 0.721734
vt 0.464988 0.704473
vt 0.473374 0.724512
vt 0.840045 0.888513
vt 0.805716 0.932070
vt 0.794708 0.907456
vt 0.727901 0.825692
vt 0.765582 0.792285
vt 0.780658 0.886396
vt 0.766301 0.869346
vt 0.714189 0.808140
vt 0.750516 0.774943
vt 0.855717 0.719357
vt 0.838022 0.700439
vt 0.735122 0.755423
vt 0.818918 0.683393
vt 0.943259 0.845577
vt 0.701520 0.841879
vt 0.690486 0.822679
vt 0.762061 0.913330
vt 0.746076 0.898876
vt 0.740044 0.840718
vt 0.720798 0.873258
vt 0.710729 0.858889
vt 0.752866 0.854711
vt 0.732329 0.886272
vt 0.697609 0.788650
vt 0.664055 0.892289
vt 0.683065 0.916162
vt 0.672841 0.904837
vt 0.672462 0.804150
vt 0.644234 0.862524
vt 0.629121 0.849138
vt 0.719169 0.954132
vt 0.707584 0.938742
vt 0.776733 0.933762
vt 0.649718 0.975910
vt 0.655031 0.877756
vt 0.617424 0.934936
vt 0.606641 0.927351
vt 0.694788 0.927079
vt 0.634617 0.954810
vt 0.598347 0.916920
vt 0.634441 0.986474
vt 0.640604 0.966430
vt 0.600914 0.949376
vt 0.624403 0.946277
vt 0.619563 0.969306
vt 0.584226 0.931005
vt 0.586338 0.910626
vt 0.851667 0.912856
vt 0.654431 0.988368
vn -0.9202 -0.0004 -0.3915
vn -0.2461 0.7776 0.5785
vn -0.5785 0.7776 -0.2461
vn 0.1438 -0.9301 0.3381
vn 0.5785 0.7776 0.2461
vn 0.2461 0.7776 -0.5785
vn -0.2461 0.7776 -0.5785
vn 0.5785 0.7776 -0.2461
vn -0.3381 -0.9301 0.1438
vn -0.3381 -0.9301 -0.1438
vn 0.1438 -0.9301 -0.3381
vn -0.5785 0.7776 0.2461
vn 0.2461 0.7776 0.5785
vn 0.9202 -0.0004 -0.3915
vn -0.3915 -0.0004 0.9202
vn -0.9202 -0.0004 0.3915
vn 0.3669 -0.3484 0.8626
vn -0.8626 -0.3484 0.3669
vn 0.8626 -0.3484 -0.3669
vn -0.3669 -0.3484 -0.8626
vn 0.3669 -0.3484 -0.8626
vn 0.8626 -0.3484 0.3669
vn -0.8626 -0.3484 -0.3669
vn -0.3669 -0.3484 0.8626
vn -0.2717 -0.7199 0.6387
vn -0.6387 -0.7199 -0.2717
vn 0.6387 -0.7199 0.2717
vn 0.2717 -0.7199 -0.6387
vn -0.2717 -0.7199 -0.6387
vn 0.6387 -0.7199 -0.2717
vn -0.6387 -0.7199 0.2717
vn 0.2717 -0.7199 0.6387
vn 0.3669 0.3484 0.8626
vn -0.8626 0.3484 0.3669
vn 0.8626 0.3484 -0.3669
vn -0.3669 0.3484 -0.8626
vn 0.3669 0.3484 -0.8626
vn 0.8626 0.3484 0.3669
vn -0.8626 0.3484 -0.3669
vn -0.3669 0.3484 0.8626
vn 0.0000 1.0000 0.0000
vn 0.8098 0.5119 0.2866
vn -0.3915 -0.0004 -0.9202
vn 0.9202 -0.0004 0.3915
vn 0.3915 -0.0004 0.9202
vn 0.3915 -0.0004 -0.9202
vn -0.2866 0.5119 -0.8098
vn 0.2866 0.5119 0.8098
vn 0.8098 0.5119 -0.2866
vn 0.8862 -0.2959 -0.3565
vn -0.8098 0.5119 -0.2866
vn -0.2866 0.5119 0.8098
vn 0.2866 0.5119 -0.8098
vn -0.8098 0.5119 0.2866
vn 0.8832 -0.2847 0.3728
vn 0.3584 -0.1075 0.9274
vn -0.3603 0.1023 0.9272
vn 0.4875 -0.1179 -0.8651
vn -0.8501 0.3718 0.3729
vn 0.8294 -0.2926 0.4759
vn -0.8531 0.3649 -0.3730
vn -0.8942 0.2493 0.3718
vn -0.3709 0.1113 -0.9220
vn -0.8971 0.2548 -0.3609
vn 0.3706 -0.1194 -0.9211
vn -0.5610 0.2553 -0.7875
vn 0.8749 -0.4839 -0.0186
vn -0.4604 0.5981 0.6560
vn 0.1266 0.3200 0.9389
vn -0.3283 0.1846 -0.9264
vn 0.2313 -0.0533 0.9714
vn -0.4443 0.2194 0.8686
vn 0.9099 -0.3045 -0.2817
vn -0.2409 0.8867 0.3946
vn 0.1487 0.7638 0.6282
vn 0.0359 -0.5956 -0.8025
vn 0.5453 -0.7023 -0.4575
vn 0.6996 -0.1474 0.6991
vn -0.7281 0.6586 0.1902
vn 0.5465 -0.3753 -0.7487
vn 0.0532 -0.0916 -0.9944
vn 0.3528 -0.9328 -0.0740
vn -0.7573 0.4829 -0.4397
vn 0.8260 0.2684 0.4957
vn -0.7573 -0.2431 -0.6062
vn 0.8955 -0.4107 0.1712
vn -0.6964 0.1502 -0.7017
vn 0.7335 0.2344 0.6380
vn -0.7156 0.6744 -0.1819
vn 0.8837 -0.1194 -0.4526
vn 0.2901 0.6382 -0.7131
vn 0.8676 0.3001 -0.3965
vn 0.2346 -0.3473 -0.9079
vn -0.2841 -0.8464 -0.4504
vn 0.3528 0.8718 0.3399
vn -0.2841 0.9581 -0.0365
vn 0.8260 -0.4576 0.3292
vn 0.3381 -0.9301 0.1438
vn -0.1438 -0.9301 0.3381
vn -0.1438 -0.9301 -0.3381
vn 0.3381 -0.9301 -0.1438
vn 0.8832 -0.2847 -0.3728
vn 0.8862 -0.2959 0.3565
vn 0.3706 -0.1194 0.9211
vn -0.3709 0.1113 0.9220
vn 0.3485 -0.1336 -0.9277
vn -0.9002 0.3370 0.2757
vn 0.8578 -0.3534 0.3732
vn -0.8307 0.2903 -0.4751
vn -0.8971 0.2548 0.3609
vn -0.3603 0.1023 -0.9272
vn -0.8942 0.2493 -0.3718
vn 0.3584 -0.1075 -0.9274
vn -0.8211 0.3076 -0.4808
vn 0.7688 -0.6045 -0.2086
vn -0.3097 0.4658 0.8289
vn 0.3182 0.0787 0.9447
vn -0.2310 0.0536 -0.9715
vn 0.3408 -0.1535 0.9275
vn -0.3483 0.1342 0.9277
vn 0.8655 -0.3341 -0.3732
vn -0.4750 0.8279 0.2982
vn 0.3563 0.5885 0.7257
vn -0.2684 -0.4894 -0.8297
vn 0.3756 -0.7401 -0.5578
vn 0.7662 -0.3949 0.5070
vn -0.8808 0.4727 0.0290
vn 0.3391 -0.4186 -0.8424
vn -0.3209 -0.0829 -0.9435
vn 0.8303 -0.5550 0.0501
vn -0.6399 -0.2008 -0.7418
vn 0.8226 -0.0198 0.5682
vn -0.8367 0.4522 -0.3089
vn 0.6062 -0.4156 -0.6781
vn 0.0390 0.4055 -0.9132
vn 0.6087 0.6047 -0.5137
vn 0.0021 0.0206 -0.9998
s off
f 14/1/1 46/2/1 53/3/1
f 11/4/2 27/5/2 41/6/2
f 14/1/3 37/7/3 40/8/3
f 17/9/4 4/10/4 13/11/4
f 12/12/5 36/13/5 39/14/5
f 15/15/6 34/16/6 38/17/6
f 37/7/7 15/18/7 38/19/7
f 34/16/8 12/12/8 39/14/8
f 17/20/9 8/21/9 9/22/9
f 6/23/10 17/24/10 9/22/10
f 2/25/11 17/26/11 10/27/11
f 27/5/12 14/1/12 40/8/12
f 36/13/13 11/4/13 41/6/13
f 1/28/14 49/29/14 56/30/14
f 11/4/15 42/31/15 51/32/15
f 7/33/16 43/34/16 57/35/16
f 20/36/17 33/37/17 28/38/17
f 19/39/18 32/40/18 35/41/18
f 18/42/19 31/43/19 26/44/19
f 21/45/20 30/46/20 29/47/20
f 30/48/21 18/42/21 26/44/21
f 31/43/22 20/36/22 28/38/22
f 32/40/23 21/45/23 29/47/23
f 33/37/24 19/39/24 35/41/24
f 13/11/25 35/41/25 8/21/25
f 9/22/26 29/47/26 6/23/26
f 16/49/27 28/38/27 4/10/27
f 10/27/28 26/44/28 2/25/28
f 29/47/29 10/50/29 6/23/29
f 26/44/30 16/49/30 2/25/30
f 35/41/31 9/22/31 8/21/31
f 28/38/32 13/11/32 4/10/32
f 20/36/33 41/6/33 25/51/33
f 19/39/34 40/8/34 24/52/34
f 18/42/35 39/14/35 23/53/35
f 21/45/36 38/19/36 22/54/36
f 38/17/37 18/42/37 22/55/37
f 39/14/38 20/36/38 23/53/38
f 40/8/39 21/45/39 24/52/39
f 41/6/40 19/39/40 25/51/40
f 66/56/41 43/34/41 51/32/41
f 59/57/41 55/58/41 65/59/41
f 62/60/42 69/61/42 79/62/42
f 53/3/41 62/60/41 63/63/41
f 5/64/43 47/65/43 58/66/43
f 12/12/44 44/67/44 52/68/44
f 3/69/45 45/70/45 55/58/45
f 15/15/46 48/71/46 54/72/46
f 65/59/47 74/73/47 84/74/47
f 58/66/41 60/75/41 48/76/41
f 47/65/41 63/63/41 58/66/41
f 56/30/41 61/77/41 44/67/41
f 49/29/41 64/78/41 56/30/41
f 54/72/41 60/79/41 64/78/41
f 65/59/41 45/70/41 52/68/41
f 61/77/41 52/68/41 44/67/41
f 63/63/48 72/80/48 80/81/48
f 59/57/41 51/32/41 42/31/41
f 66/56/49 75/82/49 85/83/49
f 62/60/41 57/35/41 66/56/41
f 90/84/50 94/85/50 78/86/50
f 79/62/41 76/87/41 89/88/41
f 77/89/41 84/74/41 88/90/41
f 87/91/41 75/82/41 86/92/41
f 61/77/51 71/93/51 83/94/51
f 60/79/52 67/95/52 82/96/52
f 59/57/53 70/97/53 86/92/53
f 64/78/54 73/98/54 81/99/54
f 77/89/41 86/92/41 70/97/41
f 88/100/55 94/85/55 96/101/55
f 76/87/41 85/83/41 87/91/41
f 88/90/41 74/73/41 83/94/41
f 78/102/41 83/94/41 71/93/41
f 77/103/56 96/101/56 93/104/56
f 87/105/57 93/104/57 95/106/57
f 80/81/41 50/107/41 67/108/41
f 72/80/41 89/88/41 80/81/41
f 81/99/41 78/102/41 71/93/41
f 73/98/41 90/109/41 81/99/41
f 82/96/41 50/110/41 90/109/41
f 98/111/58 68/112/58 106/113/58
f 95/106/59 100/114/59 92/115/59
f 96/101/60 102/116/60 104/117/60
f 92/115/61 105/118/61 97/119/61
f 76/120/62 95/106/62 92/115/62
f 89/121/63 91/122/63 50/123/63
f 76/120/64 97/119/64 89/121/64
f 50/124/65 98/111/65 90/84/65
f 105/118/66 109/125/66 114/126/66
f 102/116/67 115/127/67 111/128/67
f 103/129/68 110/130/68 112/131/68
f 101/132/69 113/133/69 110/130/69
f 97/119/70 68/134/70 91/122/70
f 93/104/71 104/117/71 101/132/71
f 95/106/72 101/132/72 103/129/72
f 94/85/73 106/113/73 102/116/73
f 110/130/74 119/135/74 112/131/74
f 110/130/75 120/136/75 117/137/75
f 107/138/76 121/139/76 99/140/76
f 115/127/77 99/141/77 122/142/77
f 104/117/78 111/128/78 113/133/78
f 103/129/79 109/125/79 100/114/79
f 106/113/80 107/143/80 115/127/80
f 68/134/81 114/126/81 107/138/81
f 99/141/82 130/144/82 122/142/82
f 116/145/83 127/146/83 124/147/83
f 118/148/84 128/149/84 120/136/84
f 116/145/85 129/150/85 121/139/85
f 111/128/86 122/142/86 118/148/86
f 109/125/87 121/139/87 114/126/87
f 113/133/88 118/148/88 120/136/88
f 112/131/89 116/145/89 109/125/89
f 130/144/90 123/151/90 126/152/90
f 123/153/91 127/146/91 125/154/91
f 123/155/92 128/149/92 126/152/92
f 129/150/93 123/156/93 108/157/93
f 99/140/94 129/150/94 108/157/94
f 117/137/95 128/149/95 125/154/95
f 117/137/96 127/146/96 119/135/96
f 118/148/97 130/144/97 126/152/97
f 47/65/1 5/64/1 53/3/1
f 5/64/1 14/1/1 53/3/1
f 11/4/2 7/33/2 27/5/2
f 14/1/3 5/64/3 37/7/3
f 17/9/98 16/49/98 4/10/98
f 12/12/5 3/69/5 36/13/5
f 15/15/6 1/28/6 34/16/6
f 37/7/7 5/64/7 15/18/7
f 34/16/8 1/28/8 12/12/8
f 17/20/99 13/11/99 8/21/99
f 6/23/100 10/50/100 17/24/100
f 2/25/101 16/49/101 17/26/101
f 27/5/12 7/33/12 14/1/12
f 36/13/13 3/69/13 11/4/13
f 44/67/14 12/12/14 56/30/14
f 12/12/14 1/28/14 56/30/14
f 43/34/15 7/33/15 51/32/15
f 7/33/15 11/4/15 51/32/15
f 46/2/16 14/1/16 57/35/16
f 14/1/16 7/33/16 57/35/16
f 20/36/17 25/51/17 33/37/17
f 19/39/18 24/52/18 32/40/18
f 18/42/19 23/53/19 31/43/19
f 21/45/20 22/54/20 30/46/20
f 30/48/21 22/55/21 18/42/21
f 31/43/22 23/53/22 20/36/22
f 32/40/23 24/52/23 21/45/23
f 33/37/24 25/51/24 19/39/24
f 13/11/25 33/37/25 35/41/25
f 9/22/26 32/40/26 29/47/26
f 16/49/27 31/43/27 28/38/27
f 10/27/28 30/48/28 26/44/28
f 29/47/29 30/46/29 10/50/29
f 26/44/30 31/43/30 16/49/30
f 35/41/31 32/40/31 9/22/31
f 28/38/32 33/37/32 13/11/32
f 20/36/33 36/13/33 41/6/33
f 19/39/34 27/5/34 40/8/34
f 18/42/35 34/16/35 39/14/35
f 21/45/36 37/7/36 38/19/36
f 38/17/37 34/16/37 18/42/37
f 39/14/38 36/13/38 20/36/38
f 40/8/39 37/7/39 21/45/39
f 41/6/40 27/5/40 19/39/40
f 66/56/41 57/35/41 43/34/41
f 59/57/41 42/31/41 55/58/41
f 72/80/42 63/63/42 79/62/42
f 63/63/42 62/60/42 79/62/42
f 53/3/41 46/2/41 62/60/41
f 48/76/43 15/18/43 58/66/43
f 15/18/43 5/64/43 58/66/43
f 45/70/44 3/69/44 52/68/44
f 3/69/44 12/12/44 52/68/44
f 42/31/45 11/4/45 55/58/45
f 11/4/45 3/69/45 55/58/45
f 49/29/46 1/28/46 54/72/46
f 1/28/46 15/15/46 54/72/46
f 70/97/47 59/57/47 84/74/47
f 59/57/47 65/59/47 84/74/47
f 58/66/41 63/63/41 60/75/41
f 47/65/41 53/3/41 63/63/41
f 56/30/41 64/78/41 61/77/41
f 49/29/41 54/72/41 64/78/41
f 54/72/41 48/71/41 60/79/41
f 65/59/41 55/58/41 45/70/41
f 61/77/41 65/59/41 52/68/41
f 67/108/48 60/75/48 80/81/48
f 60/75/48 63/63/48 80/81/48
f 59/57/41 66/56/41 51/32/41
f 69/61/49 62/60/49 85/83/49
f 62/60/49 66/56/49 85/83/49
f 62/60/41 46/2/41 57/35/41
f 90/84/102 98/111/102 94/85/102
f 79/62/41 69/61/41 76/87/41
f 77/89/41 70/97/41 84/74/41
f 87/91/41 85/83/41 75/82/41
f 74/73/51 65/59/51 83/94/51
f 65/59/51 61/77/51 83/94/51
f 73/98/52 64/78/52 82/96/52
f 64/78/52 60/79/52 82/96/52
f 75/82/53 66/56/53 86/92/53
f 66/56/53 59/57/53 86/92/53
f 71/93/54 61/77/54 81/99/54
f 61/77/54 64/78/54 81/99/54
f 77/89/41 87/91/41 86/92/41
f 88/100/103 78/86/103 94/85/103
f 76/87/41 69/61/41 85/83/41
f 88/90/41 84/74/41 74/73/41
f 78/102/41 88/90/41 83/94/41
f 77/103/104 88/100/104 96/101/104
f 87/105/105 77/103/105 93/104/105
f 80/81/41 89/88/41 50/107/41
f 72/80/41 79/62/41 89/88/41
f 81/99/41 90/109/41 78/102/41
f 73/98/41 82/96/41 90/109/41
f 82/96/41 67/95/41 50/110/41
f 98/111/106 91/158/106 68/112/106
f 95/106/107 103/129/107 100/114/107
f 96/101/108 94/85/108 102/116/108
f 92/115/109 100/114/109 105/118/109
f 76/120/110 87/105/110 95/106/110
f 89/121/111 97/119/111 91/122/111
f 76/120/112 92/115/112 97/119/112
f 50/124/113 91/158/113 98/111/113
f 105/118/114 100/114/114 109/125/114
f 102/116/115 106/113/115 115/127/115
f 103/129/116 101/132/116 110/130/116
f 101/132/117 104/117/117 113/133/117
f 97/119/118 105/118/118 68/134/118
f 93/104/119 96/101/119 104/117/119
f 95/106/120 93/104/120 101/132/120
f 94/85/121 98/111/121 106/113/121
f 110/130/122 117/137/122 119/135/122
f 110/130/123 113/133/123 120/136/123
f 107/138/124 114/126/124 121/139/124
f 115/127/125 107/143/125 99/141/125
f 104/117/126 102/116/126 111/128/126
f 103/129/127 112/131/127 109/125/127
f 106/113/128 68/112/128 107/143/128
f 68/134/129 105/118/129 114/126/129
f 99/141/82 108/159/82 130/144/82
f 116/145/83 119/135/83 127/146/83
f 118/148/84 126/152/84 128/149/84
f 116/145/85 124/147/85 129/150/85
f 111/128/130 115/127/130 122/142/130
f 109/125/131 116/145/131 121/139/131
f 113/133/132 111/128/132 118/148/132
f 112/131/133 119/135/133 116/145/133
f 130/144/134 108/159/134 123/151/134
f 123/153/135 124/147/135 127/146/135
f 123/155/136 125/154/136 128/149/136
f 129/150/137 124/147/137 123/156/137
f 99/140/94 121/139/94 129/150/94
f 117/137/95 120/136/95 128/149/95
f 117/137/96 125/154/96 127/146/96
f 118/148/97 122/142/97 130/144/97
