# Blender v2.83.0 OBJ File: 'crystalbar.blend'
# www.blender.org
o crystalbar_Cube
v -0.325467 -0.366799 0.996604
v -0.208414 0.050029 0.752193
v -0.325467 -0.366799 -0.996604
v -0.208414 0.050029 -0.752193
v 0.325467 -0.366799 0.996604
v 0.208414 0.050029 0.752193
v 0.325467 -0.366799 -0.996604
v 0.208414 0.050029 -0.752193
vt 0.580056 0.456430
vt 0.138618 0.258218
vt 0.799971 0.143891
vt 0.440273 0.528664
vt 0.285766 0.984347
vt 0.505680 0.671808
vt 0.947119 0.870020
vt 0.645464 0.599575
vt 0.972859 0.026557
vt 0.886548 0.099786
vt 0.886548 0.026557
vt 0.972859 0.099786
vn -0.9628 0.2704 0.0000
vn 0.0000 0.5058 -0.8626
vn 0.9628 0.2704 0.0000
vn 0.0000 0.5058 0.8626
vn 0.0000 -1.0000 0.0000
vn 0.0000 1.0000 0.0000
s off
f 2/1/1 3/2/1 1/3/1
f 4/4/2 7/5/2 3/2/2
f 8/6/3 5/7/3 7/5/3
f 6/8/4 1/3/4 5/7/4
f 7/9/5 1/10/5 3/11/5
f 4/4/6 6/8/6 8/6/6
f 2/1/1 4/4/1 3/2/1
f 4/4/2 8/6/2 7/5/2
f 8/6/3 6/8/3 5/7/3
f 6/8/4 2/1/4 1/3/4
f 7/9/5 5/12/5 1/10/5
f 4/4/6 2/1/6 6/8/6
