# Blender v2.83.0 OBJ File: 'irondust.blend'
# www.blender.org
o Irondust_Cube
v 0.000000 0.650324 0.000000
v 1.000000 -0.376254 -1.000000
v 1.000000 -0.376254 1.000000
v -1.000000 -0.376254 -1.000000
v -1.000000 -0.376254 1.000000
v -1.306341 -0.376254 0.000000
v 0.000000 -0.376254 -1.306341
v 0.000000 -0.376254 1.306341
v 1.306341 -0.376254 0.000000
v 0.000000 0.007150 0.000000
vt 0.274884 0.989606
vt 0.411986 0.581908
vt 0.614484 0.989606
vt 0.828985 0.990295
vt 0.819684 0.379411
vt 0.831908 0.164185
vt 0.908899 0.311084
vt 0.786040 0.311084
vt 0.004289 0.444806
vt 0.006242 0.993390
vt 0.821923 0.186613
vt 0.001762 0.161810
vt 0.685010 0.241176
vt 0.685010 0.118317
vt 0.754918 0.017287
vt 0.978807 0.087195
vt 0.877776 0.017287
vt 0.978807 0.210054
vn -0.1860 0.7726 0.6071
vn -0.6071 0.7726 -0.1860
vn -0.0860 -0.9560 -0.2806
vn 0.6071 0.7726 0.1860
vn 0.1860 0.7726 -0.6071
vn -0.1860 0.7726 -0.6071
vn 0.6071 0.7726 -0.1860
vn 0.2806 -0.9560 -0.0860
vn 0.2806 -0.9560 0.0860
vn -0.0860 -0.9560 0.2806
vn -0.6071 0.7726 0.1860
vn 0.1860 0.7726 0.6071
vn -0.2806 -0.9560 -0.0860
vn 0.0860 -0.9560 -0.2806
vn 0.0860 -0.9560 0.2806
vn -0.2806 -0.9560 0.0860
s off
f 8/1/1 1/2/1 5/3/1
f 6/4/2 1/2/2 4/5/2
f 10/6/3 3/7/3 8/8/3
f 9/9/4 1/2/4 3/10/4
f 7/11/5 1/2/5 2/12/5
f 4/5/6 1/2/6 7/11/6
f 2/12/7 1/2/7 9/9/7
f 10/6/8 5/13/8 6/14/8
f 4/15/9 10/6/9 6/14/9
f 2/16/10 10/6/10 7/17/10
f 5/3/11 1/2/11 6/4/11
f 3/10/12 1/2/12 8/1/12
f 10/6/13 9/18/13 3/7/13
f 10/6/14 8/8/14 5/13/14
f 4/15/15 7/17/15 10/6/15
f 2/16/16 9/18/16 10/6/16
