# Blender v2.93.2 OBJ File: 'firedrill.blend'
# www.blender.org
o firedrill_Cube
v -0.261065 0.822135 -0.003725
v -0.230285 1.084161 0.148774
v -0.374626 0.822135 -0.137574
v -0.327872 1.059761 -0.160528
v 0.108364 0.822135 -0.004138
v 0.096583 1.059761 -0.032577
v -0.000783 0.822135 -0.267600
v -0.074770 1.059761 -0.306344
v -0.344091 0.822135 -0.063869
v -0.293127 0.942146 0.174809
v -0.344091 1.059761 -0.063869
v -0.380006 0.940948 -0.274608
v -0.237181 0.822135 -0.322015
v -0.200273 1.059761 -0.337305
v -0.054653 0.940948 -0.397633
v 0.020965 0.822135 -0.215105
v -0.014226 1.059761 -0.200526
v 0.154566 0.940948 -0.013251
v -0.054461 0.822135 0.119037
v -0.074955 1.129699 0.053250
v -0.161563 1.106689 -0.139487
v -0.161563 0.877843 -0.139487
v -0.063301 0.942146 0.294187
v 0.067651 0.940948 -0.234446
v -0.268939 0.940948 -0.444930
v -0.316879 0.940948 -0.075142
v -0.159375 -0.636290 -0.068652
v -0.159375 0.882512 -0.068652
v -0.159375 -0.636290 -0.121213
v -0.159375 0.882512 -0.121213
v -0.106814 -0.636290 -0.068652
v -0.106814 0.882512 -0.068652
v -0.106814 -0.636290 -0.121213
v -0.106814 0.882512 -0.121213
v -0.133095 -0.728258 -0.094932
v -0.581409 0.279481 -1.249518
v -0.085326 0.255868 -0.081489
v -0.581409 0.305890 -1.249518
v -0.085318 0.279853 -0.081641
v -0.579858 0.274147 -1.290768
v -0.065264 0.255868 -0.080358
v -0.579858 0.311224 -1.290768
v -0.065256 0.279853 -0.080509
v -0.623372 0.323536 1.174907
v -0.568161 0.280611 1.125678
v -0.626782 0.318952 -1.300368
v -0.568161 0.304760 1.125678
v -0.623372 0.261835 1.174907
v -0.566985 0.275154 1.160794
v -0.626782 0.266419 -1.300368
v -0.566985 0.310217 1.160794
v -0.563000 0.261835 1.174907
v -0.563000 0.323536 1.174907
v -0.575379 0.266419 -1.300368
v -0.575379 0.318952 -1.300368
v -0.812748 0.343162 -0.062730
v -0.812748 0.242209 -0.062730
v -0.713967 0.242209 -0.062730
v -0.713967 0.343162 -0.062730
v -0.750845 0.335762 -0.681549
v -0.750620 0.249840 0.556088
v -0.666547 0.249609 -0.681549
v -0.666772 0.335532 0.556088
v -0.750620 0.335532 0.556088
v -0.750845 0.249609 -0.681549
v -0.666772 0.249840 0.556088
v -0.666547 0.335762 -0.681549
v -0.614190 0.311395 -1.241921
v -0.606649 0.271439 1.113112
v -0.577578 0.273977 -1.241921
v -0.565069 0.313933 1.113112
v -0.606649 0.313933 1.113112
v -0.614190 0.273977 -1.241921
v -0.565069 0.271439 1.113112
v -0.577578 0.311395 -1.241921
vt 0.769769 0.102650
vt 0.781621 0.155095
vt 0.717849 0.168505
vt 0.775422 0.228431
vt 0.790903 0.300248
vt 0.715291 0.252156
vt 0.876640 0.288977
vt 0.908973 0.213269
vt 0.955072 0.229133
vt 0.955072 0.085013
vt 0.867508 0.110806
vt 0.854073 0.055186
vt 0.825739 0.780974
vt 0.907986 0.767423
vt 0.899953 0.827308
vt 0.828403 0.187617
vt 0.885614 0.160243
vt 0.852147 0.235858
vt 0.813640 0.247882
vt 0.819791 0.836540
vt 0.791200 0.824512
vt 0.774993 0.811511
vt 0.842657 0.718812
vt 0.771510 0.746467
vt 0.851192 0.911156
vt 0.947642 0.750900
vt 0.883356 0.686303
vt 0.858414 0.728051
vt 0.800791 0.665736
vt 0.718328 0.793263
vt 0.767966 0.858519
vt 0.801574 0.131215
vt 0.355648 0.167323
vt 0.131920 0.907059
vt 0.108603 0.885848
vt 0.301373 0.106388
vt 0.061836 0.870699
vt 0.035610 0.873120
vt 0.324549 0.114485
vt 0.084251 0.874570
vt 0.335125 0.157896
vt 0.067963 0.925799
vt 0.391985 0.127058
vt 0.517517 0.940630
vt 0.532013 0.483546
vt 0.525940 0.940905
vt 0.540041 0.482843
vt 0.534818 0.959794
vt 0.550121 0.959568
vt 0.548659 0.482800
vt 0.559272 0.940996
vt 0.309785 0.944531
vt 0.295457 0.939313
vt 0.300429 0.936686
vt 0.519023 0.020166
vt 0.523413 0.483481
vt 0.526642 0.019940
vt 0.550021 0.000361
vt 0.559272 0.019717
vt 0.556686 0.483482
vt 0.311463 0.921392
vt 0.297169 0.923112
vt 0.062078 0.142047
vt 0.051091 0.134534
vt 0.053370 0.126635
vt 0.068034 0.140154
vt 0.074554 0.156651
vt 0.087915 0.148273
vt 0.094814 0.121370
vt 0.101634 0.141465
vt 0.269859 0.723345
vt 0.249571 0.522432
vt 0.296965 0.721454
vt 0.242855 0.730767
vt 0.155039 0.550043
vt 0.186426 0.540818
vt 0.191807 0.753301
vt 0.218822 0.742878
vt 0.131261 0.350496
vt 0.217957 0.531741
vt 0.286446 0.928996
vt 0.324976 0.920992
vt 0.157811 0.342404
vt 0.181532 0.329410
vt 0.123296 0.559452
vt 0.104564 0.353196
vt 0.327819 0.942283
vt 0.293161 0.939573
vt 0.286163 0.931809
vt 0.075941 0.127459
vt 0.075943 0.359280
vt 0.058942 0.157264
vt 0.058311 0.143237
vt 0.100271 0.125289
vt 0.104147 0.136709
vt 0.045025 0.158456
vt 0.056154 0.153364
vt 0.295744 0.949703
vt 0.330055 0.938063
vt 0.278604 0.935500
vt 0.275889 0.933872
vt 0.947642 0.883467
vt 0.719368 0.708458
vt 0.535641 0.000140
vt 0.047900 0.153849
vt 0.293308 0.947990
vt 0.328049 0.923036
vn -0.9456 0.1276 0.2993
vn 0.1716 0.6051 -0.7775
vn 0.8657 0.3672 -0.3402
vn -0.4328 0.3442 0.8332
vn -0.1216 -0.9795 -0.1607
vn -0.2760 0.9611 0.0093
vn 0.2877 0.9387 -0.1898
vn 0.2468 0.9587 -0.1412
vn -0.2463 0.9527 -0.1778
vn 0.1843 -0.9494 -0.2545
vn 0.2507 -0.9625 -0.1039
vn -0.0734 -0.9450 0.3188
vn -0.2948 -0.8167 0.4961
vn 0.5944 -0.1709 0.7858
vn 0.7328 0.4418 0.5176
vn 0.8502 -0.3914 -0.3522
vn 0.6873 0.5121 -0.5151
vn 0.1614 -0.6943 -0.7013
vn -0.6490 -0.5872 -0.4837
vn -0.5986 0.6995 -0.3903
vn -0.8967 0.2406 0.3715
vn -0.5740 0.2066 0.7924
vn -0.9686 -0.2307 0.0931
vn -1.0000 0.0000 0.0000
vn 0.0000 0.0000 -1.0000
vn 1.0000 0.0000 0.0000
vn 0.0000 0.0000 1.0000
vn 0.9615 -0.2748 0.0000
vn 0.0000 1.0000 0.0000
vn 0.0000 -0.2748 0.9615
vn 0.0000 -0.2748 -0.9615
vn -0.9615 -0.2748 0.0000
vn -0.9204 0.0000 0.3910
vn -0.2165 0.9692 0.1172
vn 0.9203 0.0000 -0.3913
vn -0.2960 -0.9486 0.1115
vn -0.9285 -0.0020 -0.3713
vn 0.0011 0.9998 -0.0202
vn 0.9271 0.0020 0.3747
vn -0.0011 -0.9998 0.0200
vn -0.9776 0.0000 0.2106
vn 0.9624 0.0000 -0.2718
vn 0.0000 -0.9881 -0.1536
vn 0.0000 0.9881 -0.1536
vn 0.0000 0.9999 -0.0120
vn 0.0000 -0.9999 -0.0120
vn 0.9971 0.0000 0.0764
vn -0.9950 0.0000 0.0999
vn -0.9682 0.0000 0.2502
vn 0.9876 0.0000 0.1568
vn 0.0000 -0.9991 -0.0434
vn 0.0000 0.9991 -0.0434
vn 0.0000 0.9999 0.0123
vn 0.0000 -0.9999 0.0123
vn 0.9971 0.0000 -0.0760
vn -0.9950 0.0000 -0.0995
vn 0.0000 0.9917 0.1282
vn 0.0000 -0.9917 0.1282
vn 0.8437 0.5355 -0.0375
vn -0.9653 0.0000 -0.2612
vn 0.0000 0.9992 0.0387
vn 0.0000 -0.9992 0.0387
vn 0.9837 0.0000 -0.1796
vn -0.9715 0.0000 -0.2369
vn 0.9535 0.3011 0.0149
vn 0.9535 -0.3011 0.0149
vn 0.9710 0.0000 0.2390
vn 0.9062 0.0000 0.4228
vn 0.8437 -0.5355 -0.0375
vn 0.8928 0.0000 -0.4504
vn -0.9651 -0.2057 -0.1619
vn 0.1883 0.6182 -0.7631
vn 0.6734 0.5909 -0.4443
vn 0.1414 0.7845 0.6038
vn -0.2507 -0.9625 0.1039
vn -0.2419 0.9701 0.0181
vn 0.2162 0.9533 -0.2110
vn 0.0596 0.9686 -0.2414
vn -0.2661 0.9629 -0.0446
vn 0.1612 -0.9489 -0.2712
vn 0.2501 -0.9501 0.1864
vn -0.2771 -0.7991 0.5335
vn 0.6401 -0.6184 0.4560
vn 0.5303 0.6813 0.5047
vn 0.8671 -0.3633 -0.3407
vn 0.7678 -0.2817 -0.5754
vn 0.6977 0.5948 -0.3992
vn 0.1561 -0.6897 -0.7070
vn -0.6576 -0.6194 -0.4288
vn -0.5974 0.6762 -0.4312
vn -0.9120 0.2916 0.2886
vn -0.9211 -0.3790 0.0893
vn -0.8150 0.4315 0.3867
vn -0.9204 0.0028 0.3910
vn -0.0013 0.9997 0.0228
vn 0.9203 -0.0028 -0.3913
vn 0.0012 -0.9998 -0.0207
vn -0.9285 0.0000 -0.3713
vn -0.2839 0.9489 -0.1380
vn 0.9271 0.0000 0.3747
vn -0.3606 -0.9234 -0.1314
s off
f 26/1/1 4/2/1 12/3/1
f 14/4/2 15/5/2 25/6/2
f 24/7/3 6/8/3 18/9/3
f 23/10/4 2/11/4 10/12/4
f 22/13/5 5/14/5 19/15/5
f 21/16/6 2/11/6 20/17/6
f 17/18/7 20/17/7 6/8/7
f 8/19/8 21/16/8 17/18/8
f 4/2/9 21/16/9 14/4/9
f 22/13/10 1/20/10 9/21/10
f 3/22/11 22/13/11 9/21/11
f 7/23/12 22/13/12 13/24/12
f 19/15/13 10/25/13 1/20/13
f 18/26/14 19/15/14 5/14/14
f 6/8/15 23/10/15 18/9/15
f 24/27/16 5/14/16 16/28/16
f 7/23/16 24/27/16 16/28/16
f 8/19/17 24/7/17 15/5/17
f 13/24/18 15/29/18 7/23/18
f 12/30/19 13/24/19 3/22/19
f 12/3/20 14/4/20 25/6/20
f 26/31/21 3/22/21 9/21/21
f 1/20/22 26/31/22 9/21/22
f 10/12/23 11/32/23 26/1/23
f 28/33/24 29/34/24 27/35/24
f 30/36/25 33/37/25 29/38/25
f 34/39/26 31/40/26 33/37/26
f 32/41/27 27/35/27 31/40/27
f 33/37/28 31/40/28 35/42/28
f 30/43/29 32/41/29 34/39/29
f 31/40/30 27/35/30 35/42/30
f 29/38/31 33/37/31 35/42/31
f 27/35/32 29/34/32 35/42/32
f 36/44/33 39/45/33 38/46/33
f 38/46/34 43/47/34 42/48/34
f 43/47/35 40/49/35 42/48/35
f 41/50/36 36/51/36 40/49/36
f 46/52/25 54/53/25 50/54/25
f 45/55/37 39/45/37 37/56/37
f 47/57/38 43/47/38 39/45/38
f 43/47/39 49/58/39 41/50/39
f 41/50/40 45/59/40 37/60/40
f 68/61/41 50/54/41 73/62/41
f 52/63/42 51/64/42 53/65/42
f 53/65/27 48/66/27 52/63/27
f 69/67/43 52/63/43 48/66/43
f 72/68/44 53/69/44 71/70/44
f 60/71/45 59/72/45 67/73/45
f 65/74/46 58/75/46 57/76/46
f 67/77/47 58/75/47 62/78/47
f 61/79/48 56/80/48 57/76/48
f 72/68/49 61/79/49 69/67/49
f 70/81/50 67/77/50 62/78/50
f 73/62/51 62/78/51 65/74/51
f 68/61/52 67/73/52 75/82/52
f 59/72/53 64/83/53 63/84/53
f 58/75/54 61/79/54 57/76/54
f 59/85/55 66/86/55 58/75/55
f 56/80/56 65/74/56 57/76/56
f 55/87/57 68/61/57 75/82/57
f 54/53/58 73/62/58 50/54/58
f 70/81/59 40/88/59 36/89/59
f 44/90/60 69/67/60 48/66/60
f 63/84/61 72/68/61 71/70/61
f 66/86/62 69/67/62 61/79/62
f 63/91/63 74/92/63 66/86/63
f 60/71/64 73/62/64 65/74/64
f 74/92/65 49/93/65 52/63/65
f 71/70/66 51/94/66 47/95/66
f 71/96/67 45/97/67 74/92/67
f 55/98/68 40/88/68 54/53/68
f 75/82/69 42/99/69 55/87/69
f 70/81/70 38/100/70 75/101/70
f 26/1/71 11/32/71 4/2/71
f 14/4/72 8/19/72 15/5/72
f 24/7/73 17/18/73 6/8/73
f 23/10/74 20/17/74 2/11/74
f 22/13/75 16/28/75 5/14/75
f 21/16/76 11/32/76 2/11/76
f 17/18/77 21/16/77 20/17/77
f 8/19/78 14/4/78 21/16/78
f 4/2/79 11/32/79 21/16/79
f 22/13/80 19/15/80 1/20/80
f 3/22/81 13/24/81 22/13/81
f 7/23/75 16/28/75 22/13/75
f 19/15/82 23/102/82 10/25/82
f 18/26/83 23/102/83 19/15/83
f 6/8/84 20/17/84 23/10/84
f 24/27/85 18/26/85 5/14/85
f 7/23/86 15/29/86 24/27/86
f 8/19/87 17/18/87 24/7/87
f 13/24/88 25/103/88 15/29/88
f 12/30/89 25/103/89 13/24/89
f 12/3/90 4/2/90 14/4/90
f 26/31/91 12/30/91 3/22/91
f 1/20/92 10/25/92 26/31/92
f 10/12/93 2/11/93 11/32/93
f 28/33/24 30/43/24 29/34/24
f 30/36/25 34/39/25 33/37/25
f 34/39/26 32/41/26 31/40/26
f 32/41/27 28/33/27 27/35/27
f 30/43/29 28/33/29 32/41/29
f 36/44/94 37/56/94 39/45/94
f 38/46/95 39/45/95 43/47/95
f 43/47/96 41/50/96 40/49/96
f 41/50/97 37/60/97 36/51/97
f 46/52/25 55/98/25 54/53/25
f 45/55/98 47/57/98 39/45/98
f 47/57/99 51/104/99 43/47/99
f 43/47/100 51/104/100 49/58/100
f 41/50/101 49/58/101 45/59/101
f 68/61/41 46/52/41 50/54/41
f 52/63/42 49/93/42 51/64/42
f 53/65/27 44/90/27 48/66/27
f 69/67/43 74/92/43 52/63/43
f 72/68/44 44/90/44 53/69/44
f 60/71/45 56/80/45 59/72/45
f 65/74/46 62/78/46 58/75/46
f 67/77/47 59/85/47 58/75/47
f 61/79/48 64/83/48 56/80/48
f 72/68/49 64/83/49 61/79/49
f 70/81/50 75/101/50 67/77/50
f 73/62/51 70/81/51 62/78/51
f 68/61/52 60/71/52 67/73/52
f 59/72/53 56/80/53 64/83/53
f 58/75/54 66/86/54 61/79/54
f 59/85/55 63/91/55 66/86/55
f 56/80/56 60/71/56 65/74/56
f 55/87/57 46/52/57 68/61/57
f 54/53/58 70/81/58 73/62/58
f 70/81/59 54/53/59 40/88/59
f 44/90/60 72/68/60 69/67/60
f 63/84/61 64/83/61 72/68/61
f 66/86/62 74/92/62 69/67/62
f 63/91/63 71/96/63 74/92/63
f 60/71/64 68/61/64 73/62/64
f 74/92/65 45/97/65 49/93/65
f 71/70/66 53/69/66 51/94/66
f 71/96/67 47/105/67 45/97/67
f 55/98/68 42/106/68 40/88/68
f 75/82/69 38/107/69 42/99/69
f 70/81/70 36/89/70 38/100/70
