# Blender v2.83.0 OBJ File: 'glider.blend'
# www.blender.org
o Glider_Cube.002
v -1.972050 -0.480593 1.221473
v -1.972050 -0.435831 1.221473
v -1.972050 -0.530104 0.402430
v -1.972050 -0.386320 0.402430
v 1.972050 -0.480593 1.221473
v 1.972050 -0.435831 1.221473
v 1.972050 -0.530104 0.402430
v 1.972050 -0.386320 0.402430
v -0.043740 -0.071892 -0.779056
v -0.043740 0.071892 -0.779056
v -0.043740 -0.022381 0.662488
v -0.043740 0.022381 0.662488
v -0.986025 -0.208672 -0.312841
v 0.986025 -0.064887 -0.312841
v 0.986025 -0.159161 0.866116
v -0.986025 -0.114398 0.866116
v 0.986025 -0.208672 -0.312841
v -0.986025 -0.064887 -0.312841
v -0.986025 -0.159161 0.866116
v 0.986025 -0.114398 0.866116
v -1.972050 -0.458212 0.345171
v 1.972050 -0.458212 0.345171
v -0.043740 0.000000 -0.836315
v -0.986025 -0.136780 -0.370100
v 0.986025 -0.136780 -0.370100
v -1.972050 -0.505348 0.483236
v -1.972050 -0.411075 0.483236
v 1.972050 -0.505348 0.483236
v 1.972050 -0.411075 0.483236
v -0.043740 0.047137 -0.696216
v -0.043740 -0.047137 -0.696216
v -0.986025 -0.183916 -0.208542
v 0.986025 -0.089643 -0.208542
v -0.986025 -0.089643 -0.208542
v 0.986025 -0.183916 -0.208542
v 1.921979 -0.467105 1.233763
v -1.921979 -0.422343 1.237209
v -0.935237 -0.145740 0.855075
v 0.935237 -0.100977 0.855075
v 0.935237 -0.145740 0.855075
v -0.935237 -0.100977 0.855075
v -1.921979 -0.467105 1.237209
v 1.921979 -0.422343 1.233763
v 0.935237 -0.170495 -0.250279
v -0.935237 -0.076222 -0.250279
v 1.921979 -0.397587 0.472440
v -1.921979 -0.491860 0.475885
v -0.935237 -0.170495 -0.250279
v 0.935237 -0.076222 -0.250279
v -1.921979 -0.397587 0.475885
v 1.921979 -0.491860 0.472440
v 0.040984 -0.075070 -0.779077
v 0.041975 0.025914 0.657400
v 0.040984 0.068714 -0.779077
v 0.040984 -0.003178 -0.836336
v 0.041975 -0.043604 -0.698690
v 0.041975 -0.018849 0.657400
v 0.041975 0.050669 -0.698690
v -0.001392 -0.077261 -0.802309
v -0.000871 0.017905 0.712866
v -0.000871 -0.064614 -0.714045
v -0.001392 0.073887 -0.802309
v -0.001392 -0.001687 -0.862501
v -0.000871 -0.023294 0.712866
v -0.000871 0.059224 -0.714045
vt 0.221373 0.818559
vt 0.209890 0.813622
vt 0.241586 0.806984
vt 0.228496 0.304862
vt 0.114608 0.089629
vt 0.124330 0.029624
vt 0.409481 0.128109
vt 0.420101 0.059767
vt 0.416593 0.085643
vt 0.260255 0.861758
vt 0.241695 0.890407
vt 0.258270 0.852185
vt 0.418550 0.132591
vt 0.420614 0.080603
vt 0.236059 0.876436
vt 0.133032 0.918747
vt 0.233154 0.863876
vt 0.250853 0.441744
vt 0.152678 0.446709
vt 0.149495 0.445179
vt 0.790733 0.983299
vt 0.729025 0.828816
vt 0.835960 0.855701
vt 0.271852 0.520577
vt 0.263664 0.518169
vt 0.265429 0.517288
vt 0.243405 0.536343
vt 0.287998 0.435560
vt 0.277391 0.586516
vt 0.242659 0.851809
vt 0.275679 0.909867
vt 0.858450 0.130988
vt 0.656938 0.181585
vt 0.887051 0.113241
vt 0.881130 0.549340
vt 0.641685 0.432242
vt 0.881174 0.449283
vt 0.858243 0.231045
vt 0.628336 0.199331
vt 0.234497 0.557709
vt 0.102856 0.613577
vt 0.235802 0.544822
vt 0.265672 0.325812
vt 0.365275 0.363347
vt 0.260419 0.333644
vt 0.287122 0.633524
vt 0.294498 0.620674
vt 0.286770 0.640141
vt 0.287842 0.427692
vt 0.215617 0.358748
vt 0.158373 0.467188
vt 0.210735 0.334130
vt 0.256675 0.307080
vt 0.193841 0.647998
vt 0.256868 0.807856
vt 0.168277 0.618492
vt 0.155734 0.478337
vt 0.385174 0.126738
vt 0.404995 0.132325
vt 0.246811 0.447085
vt 0.103020 0.082378
vt 0.201152 0.343211
vt 0.204909 0.636573
vt 0.267909 0.811751
vt 0.187293 0.491524
vt 0.202982 0.629542
vt 0.256705 0.441921
vt 0.256831 0.441198
vt 0.362787 0.100448
vt 0.259347 0.812433
vt 0.812934 0.831149
vt 0.759334 0.525872
vt 0.733440 0.691633
vt 0.640015 0.554956
vt 0.801402 0.696265
vt 0.705999 0.804264
vt 0.695439 0.638729
vt 0.101092 0.070750
vt 0.000188 0.066988
vt 0.001342 0.055231
vt 0.369042 0.382142
vt 0.367564 0.355085
vt 0.070465 0.337056
vt 0.069018 0.326382
vt 0.827443 0.340496
vt 0.609934 0.421068
vt 0.586668 0.291451
vt 0.865570 0.015518
vt 0.623035 0.054335
vt 0.849420 0.438108
vt 0.178367 0.480743
vt 0.265652 0.515079
vt 0.247542 0.437981
vt 0.206362 0.353854
vt 0.154973 0.471663
vt 0.083847 0.457990
vt 0.288438 0.430686
vt 0.256274 0.440403
vt 0.816315 0.668391
vt 0.833239 0.639295
vt 0.836500 0.802254
vt 0.716517 0.720729
vt 0.079507 0.467112
vt 0.153041 0.442492
vt 0.240478 0.905810
vt 0.139163 0.930270
vt 0.670159 0.983891
vt 0.271782 0.522628
vt 0.635834 0.563801
vt 0.633838 0.330905
vt 0.105420 0.625068
vt 0.294849 0.614058
vt 0.078514 0.470471
vt 0.195422 0.479391
vt 0.344290 0.101573
vt 0.424145 0.051294
vt 0.366753 0.390403
vt 0.744725 0.883865
vt 0.274359 0.519498
vn -1.0000 -0.0000 0.0000
vn 0.6104 0.4935 -0.6196
vn 1.0000 0.0000 0.0000
vn -0.2998 0.0000 0.9540
vn -0.2528 -0.9670 0.0314
vn -0.2557 0.9663 0.0314
vn 0.0702 0.9971 0.0289
vn 0.1417 -0.9897 0.0222
vn -0.7616 0.0000 0.6481
vn -0.4309 0.5622 -0.7059
vn -0.6104 0.4935 -0.6196
vn -0.3656 0.0000 0.9308
vn 0.3234 -0.9458 0.0308
vn 0.3014 0.9530 0.0310
vn -0.2387 0.9709 0.0217
vn -0.2719 -0.9621 0.0215
vn 0.2124 0.0000 0.9772
vn 0.4283 0.5630 -0.7068
vn 0.2854 -0.5971 -0.7497
vn -0.3423 -0.5854 -0.7350
vn -0.2843 -0.5973 -0.7499
vn 0.3423 -0.5854 -0.7350
vn -0.4080 -0.8883 0.2108
vn -0.0332 0.9784 0.2042
vn 0.1337 0.9590 0.2499
vn 0.4393 -0.8741 0.2075
vn 0.2659 -0.9236 0.2760
vn 0.0433 0.9856 0.1635
vn -0.1390 0.9603 0.2420
vn -0.3054 -0.9105 0.2789
vn 0.2112 0.0000 0.9775
vn -0.1495 -0.9886 0.0180
vn -0.1282 0.9916 0.0181
vn 0.2674 0.9631 0.0323
vn 0.2644 -0.9639 0.0323
vn 0.2384 0.0000 0.9712
vn -0.2124 0.0000 0.9772
vn 0.2599 -0.9654 0.0222
vn 0.2509 0.9678 0.0223
vn -0.2979 0.9543 0.0220
vn -0.3267 -0.9449 0.0218
vn 0.3686 0.0000 0.9296
vn 0.1398 -0.9898 0.0287
vn 0.0355 0.9779 0.2060
vn -0.0267 -0.9895 0.1419
vn 0.4187 -0.5658 -0.7104
vn 0.4507 0.5561 -0.6983
vn -0.2161 0.0000 0.9764
vn 0.1358 0.9905 0.0222
vn -0.4171 0.5662 -0.7109
vn -0.4533 -0.5553 -0.6973
vn -0.2620 -0.9247 0.2763
vn -0.3714 -0.9283 0.0169
vn 0.1161 0.9694 0.2162
vn 0.7914 0.0000 0.6113
vn -0.1611 0.9868 0.0180
vn -0.2665 -0.9633 0.0323
vn -0.2694 0.9625 0.0323
vn -0.2646 0.9642 0.0176
vn 0.1459 -0.9891 0.0180
vn 0.3268 -0.9448 0.0218
vn 0.2980 0.9543 0.0220
vn -0.2509 0.9678 0.0223
vn -0.2599 -0.9654 0.0222
vn -0.3020 -0.8865 0.3507
vn -0.2854 -0.9035 0.3196
vn 0.0026 0.9581 0.2863
vn -0.0672 0.9708 0.2304
vn 0.1908 0.9386 0.2875
vn 0.1480 0.9623 0.2284
vn 0.2878 -0.9157 0.2805
vn 0.4192 -0.8903 0.1778
vn 0.4080 -0.8883 0.2108
vn 0.2882 -0.9035 0.3174
vn -0.1494 0.9474 0.2831
vn -0.1480 0.9623 0.2284
vn -0.2098 0.9349 0.2864
vn -0.4387 -0.8744 0.2075
vn -0.4222 -0.8878 0.1830
vn -0.1454 -0.9891 0.0222
vn -0.1323 0.9910 0.0222
vn 0.2537 0.9668 0.0314
vn 0.2507 -0.9675 0.0315
vn 0.2719 -0.9621 0.0215
vn 0.2387 0.9709 0.0217
vn -0.3013 0.9530 0.0310
vn -0.3233 -0.9458 0.0308
vn 0.4354 -0.9001 0.0164
vn 0.0301 0.9754 0.2186
vn 0.0672 0.9708 0.2304
vn 0.3116 -0.8861 0.3430
vn 0.1317 0.9911 0.0181
vn -0.4533 -0.5553 -0.6972
vn -0.0474 -0.9887 0.1420
vn -0.0552 -0.9981 0.0289
vn 0.0307 0.9860 0.1636
vn 0.1859 0.9822 0.0284
s off
f 27/1/1 4/2/1 21/3/1
f 25/4/2 8/5/2 22/6/2
f 28/7/3 6/8/3 5/9/3
f 42/10/4 2/11/4 1/12/4
f 51/13/5 5/9/5 36/14/5
f 27/15/6 37/16/6 50/17/6
f 65/18/7 12/19/7 60/20/7
f 48/21/8 11/22/8 38/23/8
f 60/24/9 11/25/9 64/26/9
f 18/27/10 23/28/10 24/29/10
f 4/30/11 24/29/11 21/31/11
f 43/32/12 15/33/12 36/34/12
f 47/35/13 19/36/13 42/37/13
f 46/38/14 20/39/14 43/32/14
f 34/40/15 41/41/15 45/42/15
f 35/43/16 40/44/16 44/45/16
f 38/46/17 16/47/17 19/48/17
f 55/49/18 14/50/18 25/4/18
f 52/51/19 25/52/19 17/53/19
f 21/3/20 13/54/20 3/55/20
f 24/56/21 9/57/21 13/54/21
f 17/53/22 22/58/22 7/59/22
f 17/53/23 35/43/23 44/45/23
f 18/27/24 45/42/24 30/60/24
f 46/61/25 8/5/25 33/62/25
f 13/54/26 32/63/26 47/64/26
f 9/57/27 31/65/27 48/66/27
f 10/67/28 65/18/28 62/68/28
f 4/30/29 50/17/29 34/40/29
f 7/59/30 28/7/30 51/13/30
f 22/58/3 29/69/3 28/7/3
f 2/11/1 26/70/1 1/12/1
f 11/22/31 41/71/31 38/23/31
f 44/72/32 57/73/32 56/74/32
f 45/75/33 12/76/33 30/77/33
f 29/78/34 43/79/34 6/80/34
f 47/64/35 1/12/35 26/70/35
f 6/8/36 36/14/36 5/9/36
f 20/81/37 40/44/37 15/82/37
f 32/63/38 38/46/38 19/48/38
f 33/62/39 39/83/39 20/84/39
f 50/85/40 16/86/40 34/87/40
f 51/88/41 15/33/41 35/89/41
f 19/36/42 37/90/42 42/37/42
f 61/91/43 57/92/43 64/26/43
f 14/50/44 58/93/44 49/94/44
f 52/51/45 61/91/45 59/95/45
f 59/95/46 55/96/46 52/51/46
f 63/97/47 54/98/47 55/49/47
f 39/99/48 57/73/48 40/100/48
f 49/101/49 53/102/49 39/99/49
f 23/28/50 62/68/50 63/97/50
f 9/57/51 63/103/51 59/95/51
f 9/57/52 61/91/52 31/65/52
f 61/91/53 11/25/53 31/65/53
f 54/98/54 65/18/54 58/93/54
f 57/92/55 60/24/55 64/26/55
f 58/93/56 60/20/56 53/104/56
f 3/55/1 26/70/1 21/3/1
f 26/70/1 27/1/1 21/3/1
f 25/4/2 14/50/2 8/5/2
f 28/7/3 29/69/3 6/8/3
f 42/10/4 37/105/4 2/11/4
f 51/13/57 28/7/57 5/9/57
f 27/15/58 2/106/58 37/16/58
f 65/18/59 30/60/59 12/19/59
f 48/21/60 31/107/60 11/22/60
f 60/24/9 12/108/9 11/25/9
f 18/27/10 10/67/10 23/28/10
f 4/30/11 18/27/11 24/29/11
f 43/32/12 20/39/12 15/33/12
f 47/35/61 32/109/61 19/36/61
f 46/38/62 33/110/62 20/39/62
f 34/40/63 16/111/63 41/41/63
f 35/43/64 15/82/64 40/44/64
f 38/46/17 41/112/17 16/47/17
f 55/49/18 54/98/18 14/50/18
f 52/51/19 55/96/19 25/52/19
f 21/3/20 24/56/20 13/54/20
f 24/56/21 23/113/21 9/57/21
f 17/53/22 25/52/22 22/58/22
f 56/114/65 52/51/65 44/45/65
f 52/51/66 17/53/66 44/45/66
f 30/60/67 10/67/67 18/27/67
f 18/27/68 34/40/68 45/42/68
f 29/78/69 8/5/69 46/61/69
f 8/5/70 14/50/70 33/62/70
f 26/70/71 3/55/71 47/64/71
f 3/55/72 13/54/72 47/64/72
f 32/63/73 13/54/73 48/66/73
f 13/54/74 9/57/74 48/66/74
f 10/67/75 30/60/75 65/18/75
f 34/40/76 18/27/76 4/30/76
f 4/30/77 27/15/77 50/17/77
f 35/43/78 17/53/78 51/13/78
f 17/53/79 7/59/79 51/13/79
f 28/7/3 7/59/3 22/58/3
f 22/58/3 8/115/3 29/69/3
f 2/11/1 27/1/1 26/70/1
f 11/22/31 12/76/31 41/71/31
f 44/72/80 40/100/80 57/73/80
f 45/75/81 41/71/81 12/76/81
f 29/78/82 46/61/82 43/79/82
f 47/64/83 42/10/83 1/12/83
f 6/8/36 43/116/36 36/14/36
f 20/81/37 39/117/37 40/44/37
f 32/63/84 48/66/84 38/46/84
f 33/62/85 49/94/85 39/83/85
f 50/85/86 37/90/86 16/86/86
f 51/88/87 36/34/87 15/33/87
f 19/36/42 16/86/42 37/90/42
f 61/91/88 56/114/88 57/92/88
f 14/50/89 54/98/89 58/93/89
f 49/94/90 33/62/90 14/50/90
f 52/51/91 56/114/91 61/91/91
f 59/95/46 63/103/46 55/96/46
f 63/97/47 62/68/47 54/98/47
f 39/99/48 53/102/48 57/73/48
f 49/101/92 58/118/92 53/102/92
f 23/28/50 10/67/50 62/68/50
f 9/57/93 23/113/93 63/103/93
f 9/57/94 59/95/94 61/91/94
f 61/91/95 64/26/95 11/25/95
f 54/98/96 62/68/96 65/18/96
f 57/92/55 53/119/55 60/24/55
f 58/93/97 65/18/97 60/20/97
