# Blender v2.83.0 OBJ File: 'glider.blend'
# www.blender.org
o Glider_Cube.002
v -1.972050 -0.480593 1.069745
v -1.972050 -0.435831 1.069745
v -1.972050 -0.530104 0.201623
v -1.972050 -0.386320 0.201623
v 1.972050 -0.480593 1.069745
v 1.972050 -0.435831 1.069745
v 1.972050 -0.530104 0.201623
v 1.972050 -0.386320 0.201623
v -0.043740 -0.071892 -0.827306
v -0.043740 0.071892 -0.827306
v -0.043740 -0.022381 0.662488
v -0.043740 0.022381 0.662488
v -0.986025 -0.208672 -0.312841
v 0.986025 -0.064887 -0.312841
v 0.986025 -0.159161 0.866116
v -0.986025 -0.114398 0.866116
v 0.986025 -0.208672 -0.312841
v -0.986025 -0.064887 -0.312841
v -0.986025 -0.159161 0.866116
v 0.986025 -0.114398 0.866116
v -1.972050 -0.458212 0.144364
v 1.972050 -0.458212 0.144364
v -0.043740 0.000000 -0.884565
v -0.986025 -0.136780 -0.370100
v 0.986025 -0.136780 -0.370100
v -1.972050 -0.505348 0.282429
v -1.972050 -0.411075 0.282429
v 1.972050 -0.505348 0.282429
v 1.972050 -0.411075 0.282429
v -0.043740 0.047137 -0.696216
v -0.043740 -0.047137 -0.696216
v -0.986025 -0.183916 -0.208542
v 0.986025 -0.089643 -0.208542
v -0.986025 -0.089643 -0.208542
v 0.986025 -0.183916 -0.208542
v 1.921979 -0.467105 1.082036
v -1.921979 -0.422343 1.085481
v -0.935237 -0.145740 0.855075
v 0.935237 -0.100977 0.855075
v 0.935237 -0.145740 0.855075
v -0.935237 -0.100977 0.855075
v -1.921979 -0.467105 1.085481
v 1.921979 -0.422343 1.082036
v 0.935237 -0.170495 -0.250279
v -0.935237 -0.076222 -0.250279
v 1.921979 -0.397587 0.271633
v -1.921979 -0.491860 0.275078
v -0.935237 -0.170495 -0.250279
v 0.935237 -0.076222 -0.250279
v -1.921979 -0.397587 0.275078
v 1.921979 -0.491860 0.271633
v 0.040984 -0.075070 -0.827327
v 0.041975 0.025914 0.657400
v 0.040984 0.068714 -0.827327
v 0.040984 -0.003178 -0.884586
v 0.041975 -0.043604 -0.698690
v 0.041975 -0.018849 0.657400
v 0.041975 0.050669 -0.698690
vt 0.118359 0.712187
vt 0.116371 0.716967
vt 0.113559 0.706207
vt 0.088337 0.684835
vt 0.148849 0.295608
vt 0.129706 0.189027
vt 0.151210 0.253571
vt 0.072575 0.263880
vt 0.077655 0.156483
vt 0.131293 0.697368
vt 0.132853 0.702595
vt 0.130483 0.697652
vt 0.044513 0.185247
vt 0.089245 0.265075
vt 0.134178 0.704225
vt 0.119220 0.714649
vt 0.121630 0.872566
vt 0.077365 0.733086
vt 0.124544 0.867679
vt 0.842602 0.628513
vt 0.915430 0.778075
vt 0.806817 0.759073
vt 0.093312 0.710594
vt 0.102723 0.739262
vt 0.087880 0.726181
vt 0.103734 0.788613
vt 0.104469 0.863632
vt 0.101130 0.763547
vt 0.802403 0.288513
vt 0.784288 0.081538
vt 0.815407 0.319560
vt 0.915266 0.342011
vt 0.784279 0.574150
vt 0.815385 0.336078
vt 0.703636 0.272497
vt 0.771284 0.050491
vt 0.089458 0.790762
vt 0.076908 0.736647
vt 0.082111 0.794910
vt 0.033354 0.600022
vt 0.106685 0.589585
vt 0.051532 0.628874
vt 0.080528 0.733634
vt 0.075114 0.736057
vt 0.081989 0.732152
vt 0.119002 0.852576
vt 0.109136 0.747472
vt 0.100708 0.772178
vt 0.059993 0.603530
vt 0.100341 0.748912
vt 0.114714 0.696060
vt 0.095822 0.783604
vt 0.080166 0.026616
vt 0.173406 0.295952
vt 0.173406 0.699171
vt 0.096784 0.749052
vt 0.112671 0.699759
vt 0.090540 0.760025
vt 0.096293 0.749823
vt 0.124549 0.973384
vt 0.120904 0.930892
vt 0.114094 0.699915
vt 0.831574 0.781878
vt 0.684015 0.955806
vt 0.758973 0.805712
vt 0.806535 0.964289
vt 0.852928 0.915559
vt 0.940188 0.800880
vt 0.962811 0.965201
vt 0.106038 0.285050
vt 0.098495 0.279324
vt 0.073416 0.627091
vt 0.124280 0.561065
vt 0.092272 0.649860
vt 0.703624 0.383314
vt 0.771256 0.605188
vt 0.640495 0.620786
vt 0.915297 0.313793
vt 0.915297 0.068171
vt 0.802361 0.367119
vt 0.154597 0.732008
vt 0.089868 0.751200
vt 0.672953 0.802718
vt 0.648001 0.825309
vt 0.694328 0.669040
vt 0.783926 0.783120
vt 0.962811 0.619115
vt 0.915266 0.587733
vt 0.640495 0.035130
vt 0.806535 0.619115
vn -1.0000 -0.0000 0.0000
vn 0.5215 0.5316 -0.6674
vn 1.0000 0.0000 0.0000
vn -0.2998 0.0000 0.9540
vn -0.2532 -0.9670 0.0295
vn -0.2560 0.9662 0.0295
vn -0.0406 0.9990 0.0182
vn 0.1417 -0.9897 0.0222
vn 0.0593 0.0000 0.9982
vn -0.4596 0.5533 -0.6947
vn -0.5215 0.5316 -0.6674
vn -0.2248 0.0000 0.9744
vn 0.3185 -0.9475 0.0289
vn 0.3063 0.9515 0.0291
vn -0.2387 0.9709 0.0217
vn -0.2719 -0.9621 0.0215
vn 0.2124 0.0000 0.9772
vn 0.4571 0.5541 -0.6957
vn 0.3200 -0.5902 -0.7411
vn -0.2009 -0.6103 -0.7663
vn -0.3190 -0.5904 -0.7413
vn 0.2009 -0.6103 -0.7663
vn -0.4080 -0.8883 0.2108
vn -0.0332 0.9784 0.2042
vn 0.1706 0.9464 0.2743
vn 0.4023 -0.8908 0.2114
vn 0.2230 -0.9579 0.1809
vn 0.0372 0.9897 0.1385
vn -0.1751 0.9483 0.2648
vn -0.3054 -0.9105 0.2789
vn 0.2112 0.0000 0.9775
vn -0.1495 -0.9886 0.0180
vn -0.1282 0.9916 0.0181
vn 0.2669 0.9632 0.0303
vn 0.2641 -0.9640 0.0303
vn 0.2384 0.0000 0.9712
vn -0.2124 0.0000 0.9772
vn 0.2599 -0.9654 0.0222
vn 0.2509 0.9678 0.0223
vn -0.3022 0.9530 0.0220
vn -0.3225 -0.9463 0.0218
vn 0.2282 0.0000 0.9736
vn 0.0422 -0.9989 0.0182
vn 0.0355 0.9779 0.2060
vn 0.0458 -0.9816 0.1854
vn -0.0236 -0.6228 -0.7820
vn 0.0232 0.6228 -0.7820
vn -0.2161 0.0000 0.9764
vn 0.1358 0.9905 0.0222
vn -0.2661 -0.9635 0.0303
vn -0.2688 0.9627 0.0303
vn -0.0401 0.9990 0.0182
vn 0.1459 -0.9891 0.0180
vn 0.3226 -0.9463 0.0218
vn 0.3023 0.9530 0.0220
vn -0.2509 0.9678 0.0223
vn -0.2599 -0.9654 0.0222
vn -0.2499 -0.9401 0.2319
vn -0.2966 -0.9032 0.3103
vn -0.0413 0.9818 0.1854
vn -0.0672 0.9708 0.2304
vn 0.1908 0.9386 0.2875
vn 0.1930 0.9547 0.2266
vn 0.2878 -0.9157 0.2805
vn 0.3954 -0.8970 0.1975
vn 0.4080 -0.8883 0.2108
vn 0.2993 -0.9031 0.3081
vn -0.0351 0.9820 0.1854
vn -0.1930 0.9547 0.2266
vn -0.2098 0.9349 0.2864
vn -0.4017 -0.8910 0.2115
vn -0.3980 -0.8944 0.2040
vn -0.1454 -0.9891 0.0222
vn -0.1323 0.9910 0.0222
vn 0.2541 0.9667 0.0295
vn 0.2513 -0.9675 0.0296
vn 0.2719 -0.9621 0.0215
vn 0.2387 0.9709 0.0217
vn -0.3062 0.9515 0.0291
vn -0.3184 -0.9475 0.0289
vn 0.0417 -0.9990 0.0182
vn 0.0645 0.9883 0.1381
vn 0.0672 0.9708 0.2304
vn -0.0364 -0.9707 0.2377
vn 0.1317 0.9911 0.0181
s off
f 27/1/1 4/2/1 21/3/1
f 25/4/2 8/5/2 22/6/2
f 29/7/3 5/8/3 28/9/3
f 42/10/4 2/11/4 1/12/4
f 51/13/5 5/8/5 36/14/5
f 27/1/6 37/15/6 50/16/6
f 30/17/7 53/18/7 58/19/7
f 48/20/8 11/21/8 38/22/8
f 57/23/9 12/24/9 11/25/9
f 18/26/10 23/27/10 24/28/10
f 4/2/11 24/28/11 21/3/11
f 43/29/12 15/30/12 36/31/12
f 47/32/13 19/33/13 42/34/13
f 46/35/14 20/36/14 43/29/14
f 34/37/15 41/38/15 45/39/15
f 35/40/16 40/41/16 44/42/16
f 38/43/17 16/44/17 19/45/17
f 55/46/18 14/47/18 25/4/18
f 52/48/19 25/4/19 17/49/19
f 21/3/20 13/50/20 3/51/20
f 24/28/21 9/52/21 13/50/21
f 17/49/22 22/6/22 7/53/22
f 17/49/23 35/40/23 44/42/23
f 18/26/24 45/39/24 30/17/24
f 46/54/25 8/5/25 33/55/25
f 13/50/26 32/56/26 47/57/26
f 9/52/27 31/58/27 48/59/27
f 10/60/28 58/19/28 54/61/28
f 4/2/29 50/16/29 34/37/29
f 7/53/30 28/9/30 51/13/30
f 22/6/3 29/7/3 28/9/3
f 2/11/1 26/62/1 1/12/1
f 11/21/31 41/63/31 38/22/31
f 44/64/32 57/65/32 56/66/32
f 45/67/33 12/68/33 30/69/33
f 29/7/34 43/70/34 6/71/34
f 47/57/35 1/12/35 26/62/35
f 6/71/36 36/14/36 5/8/36
f 20/72/37 40/41/37 15/73/37
f 32/56/38 38/43/38 19/45/38
f 33/55/39 39/74/39 20/72/39
f 50/75/40 16/76/40 34/77/40
f 51/78/41 15/30/41 35/79/41
f 19/33/42 37/80/42 42/34/42
f 31/58/43 57/23/43 11/25/43
f 14/47/44 58/19/44 49/81/44
f 9/52/45 56/82/45 31/58/45
f 9/52/46 55/46/46 52/48/46
f 23/27/47 54/61/47 55/46/47
f 39/83/48 57/65/48 40/84/48
f 49/85/49 53/86/49 39/83/49
f 3/51/1 26/62/1 21/3/1
f 26/62/1 27/1/1 21/3/1
f 25/4/2 14/47/2 8/5/2
f 29/7/3 6/71/3 5/8/3
f 42/10/4 37/15/4 2/11/4
f 51/13/50 28/9/50 5/8/50
f 27/1/51 2/11/51 37/15/51
f 30/17/52 12/24/52 53/18/52
f 48/20/53 31/87/53 11/21/53
f 57/23/9 53/18/9 12/24/9
f 18/26/10 10/60/10 23/27/10
f 4/2/11 18/26/11 24/28/11
f 43/29/12 20/36/12 15/30/12
f 47/32/54 32/88/54 19/33/54
f 46/35/55 33/89/55 20/36/55
f 34/37/56 16/44/56 41/38/56
f 35/40/57 15/73/57 40/41/57
f 38/43/17 41/38/17 16/44/17
f 55/46/18 54/61/18 14/47/18
f 52/48/19 55/46/19 25/4/19
f 21/3/20 24/28/20 13/50/20
f 24/28/21 23/27/21 9/52/21
f 17/49/22 25/4/22 22/6/22
f 56/82/58 52/48/58 44/42/58
f 52/48/59 17/49/59 44/42/59
f 30/17/60 10/60/60 18/26/60
f 18/26/61 34/37/61 45/39/61
f 29/7/62 8/5/62 46/54/62
f 8/5/63 14/47/63 33/55/63
f 26/62/64 3/51/64 47/57/64
f 3/51/65 13/50/65 47/57/65
f 32/56/66 13/50/66 48/59/66
f 13/50/67 9/52/67 48/59/67
f 10/60/68 30/17/68 58/19/68
f 34/37/69 18/26/69 4/2/69
f 4/2/70 27/1/70 50/16/70
f 35/40/71 17/49/71 51/13/71
f 17/49/72 7/53/72 51/13/72
f 28/9/3 7/53/3 22/6/3
f 22/6/3 8/5/3 29/7/3
f 2/11/1 27/1/1 26/62/1
f 11/21/31 12/68/31 41/63/31
f 44/64/73 40/84/73 57/65/73
f 45/67/74 41/63/74 12/68/74
f 29/7/75 46/54/75 43/70/75
f 47/57/76 42/10/76 1/12/76
f 6/71/36 43/70/36 36/14/36
f 20/72/37 39/74/37 40/41/37
f 32/56/77 48/59/77 38/43/77
f 33/55/78 49/81/78 39/74/78
f 50/75/79 37/80/79 16/76/79
f 51/78/80 36/31/80 15/30/80
f 19/33/42 16/76/42 37/80/42
f 31/58/81 56/82/81 57/23/81
f 14/47/82 54/61/82 58/19/82
f 49/81/83 33/55/83 14/47/83
f 9/52/84 52/48/84 56/82/84
f 9/52/46 23/27/46 55/46/46
f 23/27/47 10/60/47 54/61/47
f 39/83/48 53/86/48 57/65/48
f 49/85/85 58/90/85 53/86/85
