# Blender v2.93.2 OBJ File: 'grapplinghook.blend'
# www.blender.org
o Hook_Cube
v -0.064034 -0.023513 0.559913
v -0.064034 0.248933 0.420627
v -0.122826 -0.023513 -0.606908
v -0.100235 0.248933 -0.698464
v 0.051581 -0.023513 0.559913
v 0.051581 0.248933 0.420627
v 0.110373 -0.023513 -0.606908
v 0.087782 0.248933 -0.698464
v -0.063682 0.112710 0.714338
v -0.064034 0.228352 0.608523
v 0.051581 0.228352 0.608523
v 0.051230 0.112710 0.714338
v -0.064034 -0.224910 0.660058
v 0.051581 -0.224910 0.660058
v -0.064034 -0.174561 0.861706
v 0.051581 -0.174561 0.861706
v -0.122826 -0.023513 -0.177411
v -0.122826 0.248933 -0.177411
v 0.110373 -0.023513 -0.177411
v 0.110373 0.248933 -0.177411
v 0.067737 -0.046368 -0.528382
v -0.080189 -0.046368 -0.528382
v 0.067737 -0.046368 -0.255937
v -0.080189 -0.046368 -0.255937
v 0.067737 -0.443555 -0.528382
v -0.080189 -0.443555 -0.528382
v 0.067737 -0.443555 -0.255937
v -0.080189 -0.443555 -0.255937
v 0.094496 -0.463587 -0.577666
v -0.106949 -0.463587 -0.577666
v 0.094496 -0.463587 -0.206653
v -0.106949 -0.463587 -0.206653
v 0.094496 -0.496933 -0.577666
v -0.106949 -0.496933 -0.577666
v 0.094496 -0.496933 -0.206653
v -0.106949 -0.496933 -0.206653
v -0.043782 0.156586 -0.646357
v -0.043782 0.068834 -0.646357
v 0.031329 0.068834 -0.646357
v 0.031329 0.156586 -0.646357
v -0.043782 0.156586 -0.766935
v -0.043782 0.068834 -0.766935
v 0.031329 0.068834 -0.766935
v 0.031329 0.156586 -0.766935
v -0.013502 0.141259 -0.902411
v -0.043400 0.085474 -0.902411
v -0.013502 0.141259 -0.976282
v 0.023841 0.083220 -0.902411
v -0.043400 0.085474 -0.976282
v 0.023841 0.083220 -0.976282
v 0.007919 -0.012424 -0.888087
v -0.033920 -0.011021 -0.888087
v -0.033920 -0.011021 -0.934051
v 0.007919 -0.012424 -0.934051
v 0.073422 0.183809 -0.886176
v 0.098590 0.144693 -0.886176
v 0.098590 0.144693 -0.935962
v 0.073422 0.183809 -0.935962
v -0.124586 0.137479 -0.882872
v -0.101761 0.180067 -0.882872
v -0.101761 0.180067 -0.939267
v -0.124586 0.137479 -0.939267
v 0.002317 -0.087430 -0.703198
v -0.036230 -0.086138 -0.703198
v 0.173360 0.246672 -0.700773
v 0.197219 0.209590 -0.700773
v -0.227111 0.196107 -0.699960
v -0.207350 0.232977 -0.699960
v -0.011020 0.103318 -1.099827
v 0.051581 -0.356653 0.746228
v -0.064034 -0.356653 0.746228
v -0.064034 -0.405652 0.972913
v 0.051581 -0.405652 0.972913
v 0.051581 -0.160623 0.632267
v -0.064034 -0.160623 0.632267
v -0.122826 -0.022750 0.273819
v 0.110373 0.248933 0.208103
v -0.122826 0.248933 0.208103
v 0.110373 -0.022750 0.273819
v 0.110373 -0.023513 0.208864
v -0.122826 -0.023513 0.208864
v -0.039628 -0.226132 0.361693
v 0.027176 -0.226132 0.361693
v 0.027176 -0.166496 0.301365
v -0.039628 -0.166496 0.301365
v -0.039628 -0.153134 0.233693
v 0.027176 -0.153134 0.233693
v -0.039628 -0.198138 0.271815
v 0.027176 -0.198138 0.271815
v 0.019273 -0.225524 0.613483
v 0.019273 -0.163568 0.594636
v -0.031726 -0.225524 0.613483
v -0.031726 -0.163568 0.594636
v -0.039628 -0.048233 0.207700
v 0.027176 -0.048117 0.275381
v 0.027176 -0.048233 0.207700
v -0.039628 -0.048117 0.275381
v -0.006226 0.293597 -0.635702
v -0.006226 0.293597 0.424090
v -0.006226 0.157374 0.766148
v -0.006226 0.273016 0.642611
v -0.006226 -0.129897 0.913516
v -0.006226 0.293597 -0.170610
v -0.006226 -0.360988 1.024722
v -0.006226 0.293597 0.214903
v -0.063682 0.112710 0.490270
v -0.161666 0.112710 -0.606908
v 0.149213 0.112710 -0.606908
v 0.051230 0.112710 0.490270
v 0.149213 0.112710 -0.177411
v -0.161666 0.112710 -0.177411
v -0.161666 0.112901 0.224722
v 0.149213 0.112901 0.224722
v -0.102970 -0.244962 -0.213980
v 0.090518 -0.244962 -0.213980
v 0.090518 -0.244962 -0.570339
v -0.102970 -0.244962 -0.570339
v -0.006226 -0.022750 0.354153
v -0.006226 -0.023513 0.169559
v -0.006226 -0.046368 -0.554349
v 0.089588 -0.046368 -0.392159
v -0.102041 -0.046368 -0.392159
v -0.006226 -0.046368 -0.229970
v -0.006226 -0.443555 -0.554349
v 0.089588 -0.443555 -0.392159
v -0.102041 -0.443555 -0.392159
v -0.006226 -0.443555 -0.229970
v -0.006226 -0.244962 -0.604304
v -0.131552 -0.244962 -0.392159
v 0.119099 -0.244962 -0.392159
v -0.006226 -0.244962 -0.180014
vt 0.454897 0.600416
vt 0.407981 0.759849
vt 0.401383 0.600398
vt 0.596583 0.759384
vt 0.619191 0.803590
vt 0.585070 0.807755
vt 0.595348 0.451272
vt 0.528212 0.382895
vt 0.575439 0.343377
vt 0.117822 0.273216
vt 0.108997 0.219548
vt 0.181923 0.225929
vt 0.256819 0.323499
vt 0.218746 0.378760
vt 0.121228 0.351363
vt 0.501623 0.458958
vt 0.474565 0.383082
vt 0.501386 0.383287
vt 0.500949 0.268807
vt 0.478446 0.320320
vt 0.468989 0.268732
vt 0.495583 0.070170
vt 0.492400 0.251437
vt 0.493724 0.296698
vt 0.501140 0.317021
vt 0.523863 0.320142
vt 0.532909 0.268475
vt 0.163455 0.112647
vt 0.091991 0.084925
vt 0.146500 0.023068
vt 0.167609 0.150397
vt 0.088495 0.130931
vt 0.162011 0.126212
vt 0.100760 0.165055
vt 0.095143 0.140799
vt 0.502359 0.766130
vt 0.501863 0.598017
vt 0.354429 0.764606
vt 0.339630 0.745068
vt 0.337119 0.683030
vt 0.548815 0.600324
vt 0.602308 0.600250
vt 0.457717 0.462063
vt 0.407978 0.451826
vt 0.865028 0.139490
vt 0.845806 0.253072
vt 0.845396 0.137826
vt 0.068420 0.720098
vt 0.041257 0.706573
vt 0.041257 0.664838
vt 0.182646 0.503124
vt 0.196171 0.475962
vt 0.237907 0.475962
vt 0.656821 0.600117
vt 0.669907 0.620808
vt 0.667189 0.682767
vt 0.339723 0.841755
vt 0.328492 0.929673
vt 0.328492 0.753837
vt 0.781558 0.132553
vt 0.825344 0.253828
vt 0.787260 0.259347
vt 0.902847 0.140839
vt 0.937074 0.251729
vt 0.901671 0.252023
vt 0.988697 0.149421
vt 0.956370 0.259970
vt 0.964682 0.145804
vt 0.201413 0.753837
vt 0.217216 0.929673
vt 0.201413 0.929673
vt 0.190182 0.841755
vt 0.264952 0.723464
vt 0.312688 0.738033
vt 0.217217 0.738033
vt 0.264952 0.960045
vt 0.217216 0.945477
vt 0.312688 0.945477
vt 0.312688 0.753837
vt 0.217217 0.753837
vt 0.312688 0.929673
vt 0.825334 0.920924
vt 0.803499 0.891870
vt 0.832161 0.902379
vt 0.116012 0.647039
vt 0.116012 0.682637
vt 0.539860 0.794238
vt 0.465022 0.794566
vt 0.419676 0.808421
vt 0.385271 0.804364
vt 0.796230 0.909967
vt 0.766890 0.885514
vt 0.810336 0.870791
vt 0.839643 0.881611
vt 0.846555 0.863836
vt 0.825798 0.830920
vt 0.855028 0.842563
vt 0.817429 0.853279
vt 0.754454 0.852478
vt 0.782573 0.835140
vt 0.752259 0.797901
vt 0.745679 0.800545
vt 0.703981 0.836229
vt 0.737143 0.788167
vt 0.702886 0.795363
vt 0.709908 0.767733
vt 0.632317 0.927154
vt 0.664177 0.895922
vt 0.670649 0.922313
vt 0.613511 0.878282
vt 0.598195 0.841691
vt 0.631842 0.841374
vt 0.628116 0.889106
vt 0.667260 0.854696
vt 0.649287 0.789585
vt 0.741054 0.907527
vt 0.698993 0.894151
vt 0.714950 0.887088
vt 0.811046 0.727851
vt 0.772527 0.800787
vt 0.762222 0.785211
vt 0.744909 0.774499
vt 0.552749 0.970861
vt 0.624274 0.908580
vt 0.537746 0.956708
vt 0.595307 0.883243
vt 0.729719 0.977995
vt 0.725489 0.899707
vt 0.696087 0.911888
vt 0.722613 0.936157
vt 0.031253 0.791722
vt 0.058650 0.759303
vt 0.086047 0.791722
vt 0.031253 0.976244
vt 0.086047 0.901637
vt 0.086047 0.976244
vt 0.140352 0.074790
vt 0.468014 0.149313
vt 0.500112 0.060754
vt 0.500493 0.155370
vt 0.121592 0.240478
vt 0.184109 0.202811
vt 0.121228 0.406157
vt 0.047755 0.351363
vt 0.427086 0.343954
vt 0.520909 0.322960
vt 0.502171 0.317462
vt 0.502272 0.297004
vt 0.545567 0.461823
vt 0.293167 0.503124
vt 0.293167 0.686193
vt 0.237907 0.667565
vt 0.494196 0.050066
vt 0.501205 0.059246
vt 0.501702 0.063171
vt 0.503499 0.250459
vt 0.493676 0.317380
vt 0.500805 0.297741
vt 0.474905 0.322780
vt 0.470861 0.378531
vt 0.524585 0.378722
vt 0.495163 0.297706
vt 0.382441 0.366976
vt 0.497445 0.465083
vt 0.597411 0.311642
vt 0.498143 0.257496
vt 0.398472 0.310937
vt 0.502892 0.043634
vt 0.498796 0.014595
vt 0.496255 0.060896
vt 0.499534 0.055633
vt 0.532922 0.149052
vt 0.532602 0.054059
vt 0.517575 0.836542
vt 0.487678 0.836673
vt 0.357764 0.424504
vt 0.353567 0.450439
vt 0.649964 0.449503
vt 0.645548 0.423506
vt 0.376807 0.307621
vt 0.347779 0.600322
vt 0.649624 0.764190
vt 0.199720 0.254743
vt 0.625511 0.306565
vt 0.959375 0.016721
vt 0.937725 0.021661
vt 0.901739 0.024689
vt 0.826004 0.026803
vt 0.789341 0.017978
vt 0.845878 0.027260
vt 0.613057 0.367764
vt 0.256819 0.434021
vt 0.182646 0.686193
vt 0.825763 0.136162
vt 0.752679 0.009153
vt 0.737353 0.128943
vt 0.865752 0.027717
vt 0.940666 0.142188
vt 0.866268 0.252317
vt 0.749176 0.264865
vt 0.334608 0.620992
vt 0.041257 0.623102
vt 0.068420 0.609577
vt 0.279643 0.475962
vt 0.664471 0.744725
vt 0.339723 0.764888
vt 0.339723 0.918622
vt 0.975666 0.268211
vt 0.190182 0.918622
vt 0.190182 0.764887
vt 0.223217 0.723464
vt 0.306688 0.723464
vt 0.306688 0.960045
vt 0.223217 0.960045
vt 0.756285 0.900510
vt 0.562974 0.982974
vt 0.031253 0.901637
vt 0.064431 0.043275
vt 0.467568 0.054321
vt 0.047755 0.406157
vt 0.981025 0.011782
vn -0.9617 0.2742 0.0000
vn 0.3173 0.0000 -0.9483
vn 0.9241 0.1720 0.3411
vn -1.0000 0.0026 0.0000
vn 0.0021 -1.0000 -0.0031
vn -0.6114 0.7913 0.0000
vn -0.7656 0.4330 0.4758
vn 0.9993 0.0270 0.0267
vn -0.6362 0.7682 0.0723
vn 1.0000 -0.0030 0.0000
vn -1.0000 0.0000 0.0000
vn 1.0000 0.0000 0.0000
vn -0.3577 0.9338 0.0000
vn -0.3816 -0.9223 -0.0612
vn 0.9617 0.2742 0.0000
vn -0.9616 0.2745 -0.0001
vn -0.3223 -0.2309 0.9180
vn 0.0831 -0.9680 -0.2366
vn -0.0831 -0.9680 0.2366
vn 0.3816 -0.9223 0.0612
vn 0.9713 0.2380 0.0000
vn 0.9769 -0.1452 0.1567
vn -0.9769 -0.1452 -0.1567
vn 0.3223 -0.2309 -0.9180
vn -0.9713 0.2380 0.0000
vn 0.0000 0.7585 -0.6517
vn 0.0000 0.7585 0.6517
vn 0.0000 -1.0000 0.0000
vn 0.0000 0.0000 -1.0000
vn 0.0000 0.0000 1.0000
vn 0.0000 1.0000 0.0000
vn 0.0000 -0.3928 -0.9196
vn 0.0000 0.8148 -0.5798
vn -0.3173 0.0000 -0.9483
vn 0.0000 0.9937 -0.1124
vn 0.0000 -0.9925 -0.1219
vn -1.0000 0.0000 -0.0028
vn -0.0333 -0.9940 -0.1037
vn 0.9985 0.0000 -0.0552
vn 0.0049 0.1473 0.9891
vn -0.9952 -0.0978 0.0000
vn -0.0135 -0.4020 -0.9155
vn 0.9864 -0.1642 0.0000
vn -0.1401 -0.0901 0.9860
vn 0.6352 -0.7724 0.0000
vn 0.3253 0.2093 -0.9222
vn -0.4397 0.8982 0.0000
vn -0.0331 -0.9879 -0.1514
vn 0.1756 -0.0941 0.9800
vn 0.4025 0.9154 0.0000
vn -0.3167 0.1698 -0.9332
vn -0.5394 -0.8421 0.0000
vn 0.0310 0.9259 0.3766
vn -0.9995 0.0307 0.0000
vn -0.0319 -0.9503 -0.3096
vn 0.9972 -0.0745 0.0000
vn -0.7094 -0.4564 0.5371
vn 0.5497 -0.8354 0.0000
vn 0.7516 0.4836 -0.4486
vn -0.5324 0.8465 0.0000
vn 0.7405 -0.3969 0.5423
vn 0.4480 0.8940 0.0000
vn -0.7904 0.4236 -0.4424
vn -0.4964 -0.8681 0.0000
vn 0.0000 -0.7574 0.6529
vn 0.8317 0.5352 -0.1476
vn -0.8699 0.4662 -0.1607
vn 0.0000 -0.5474 -0.8369
vn -0.7525 0.2856 0.5934
vn -0.7566 0.2984 0.5818
vn -1.0000 0.0013 0.0001
vn 1.0000 0.0008 0.0016
vn 0.0000 -0.4667 -0.8844
vn -0.9241 0.1720 0.3411
vn 0.9616 0.2745 -0.0001
vn 0.0000 -1.0000 0.0024
vn 0.0000 1.0000 -0.0100
vn -0.9995 0.0095 0.0313
vn 0.0000 -0.6464 -0.7630
vn 0.0000 0.2144 0.9767
vn 0.0000 -0.2405 -0.9706
vn 0.0000 -0.9548 -0.2974
vn 0.2225 -0.7176 -0.6599
vn -0.2744 -0.8753 0.3982
vn 0.2846 -0.9586 0.0113
vn -0.7994 -0.2384 -0.5514
vn 0.0000 0.9970 -0.0780
vn 0.0000 -0.9999 0.0132
vn -0.2917 -0.9565 0.0016
vn 0.7520 -0.1918 -0.6306
vn 0.3577 0.9338 0.0000
vn 0.7547 0.3002 0.5833
vn 0.7525 0.2856 0.5934
vn 0.4191 0.9077 -0.0182
vn 0.6124 0.7859 0.0861
vn 0.7656 0.4330 0.4758
vn 0.3610 0.9272 0.0999
vn 0.0000 -0.4914 -0.8709
vn -0.9617 -0.2742 0.0032
vn 0.9617 -0.2742 0.0000
vn 0.9617 -0.2742 0.0032
vn -0.9741 0.1050 0.2004
vn -0.9617 -0.2742 0.0000
vn 1.0000 0.0026 0.0000
vn -1.0000 -0.0027 -0.0003
vn 0.9741 0.1050 0.2004
vn 0.3223 0.2309 -0.9180
vn -0.9769 0.1452 -0.1567
vn 0.9769 0.1452 0.1567
vn -0.3223 0.2309 0.9180
vn 0.0000 -0.8392 -0.5439
vn -0.2225 -0.7176 -0.6599
vn -0.0000 -0.9519 0.3065
vn 0.2744 -0.8753 0.3982
vn 0.0000 -1.0000 -0.0037
vn -0.0021 -1.0000 -0.0031
vn 0.3223 0.2309 0.9180
vn 0.9769 0.1452 -0.1567
vn -0.9769 0.1452 0.1567
vn -0.3223 0.2309 -0.9180
vn -0.3223 -0.2309 -0.9180
vn -0.9769 -0.1452 0.1567
vn 0.9769 -0.1452 -0.1567
vn 0.3223 -0.2309 0.9180
vn -0.9206 0.3883 -0.0399
vn 0.0857 -0.5289 -0.8444
vn 0.3489 -0.0995 -0.9319
vn 0.9212 0.2941 0.2548
vn -0.3610 0.9272 0.0999
vn -0.6952 0.5248 0.4913
vn 0.9995 0.0095 0.0313
vn -0.6124 0.7859 0.0861
vn 1.0000 -0.0027 -0.0003
vn -0.4191 0.9077 -0.0182
vn -0.3816 -0.9223 0.0612
vn -0.7398 -0.6728 0.0000
vn 0.9206 0.3883 -0.0399
vn -0.0831 -0.9680 -0.2366
vn 0.0000 -0.9171 -0.3988
vn 0.0831 -0.9680 0.2366
vn 0.0000 -0.9171 0.3988
vn 0.3816 -0.9223 -0.0612
vn 0.7398 -0.6728 0.0000
vn 0.4987 0.8631 -0.0800
vn 0.4987 0.8631 0.0800
vn -0.4987 0.8631 0.0800
vn -0.4987 0.8631 -0.0800
vn -0.1127 0.9403 -0.3210
vn 0.1127 0.9403 -0.3210
vn 0.1127 0.9403 0.3210
vn -0.1127 0.9403 0.3210
vn -0.3489 -0.0995 -0.9319
vn -0.0857 -0.5289 -0.8444
vn 0.7963 0.5124 -0.3215
vn -0.8550 0.4582 -0.2429
vn 0.0000 -0.9774 -0.2113
vn -0.7547 0.3002 0.5833
vn -1.0000 0.0008 0.0016
vn 1.0000 0.0013 0.0001
vn -0.9212 0.2941 0.2548
vn -0.9993 0.0270 0.0267
vn 0.2917 -0.9565 0.0016
vn -0.7520 -0.1918 -0.6306
vn -0.2846 -0.9586 0.0113
vn 0.7994 -0.2384 -0.5514
vn 0.7566 0.2984 0.5818
vn 0.6362 0.7682 0.0723
vn 0.6952 0.5248 0.4913
vn 0.6114 0.7913 0.0000
vn 0.9618 -0.2739 0.0001
vn -0.9287 -0.1419 0.3426
vn -0.9618 -0.2739 0.0001
vn -1.0000 -0.0030 0.0000
vn 0.9287 -0.1419 0.3426
s off
f 18/1/1 107/2/1 111/3/1
f 108/4/2 39/5/2 40/6/2
f 113/7/3 6/8/3 109/9/3
f 106/10/4 1/11/4 9/12/4
f 76/13/5 118/14/5 1/15/5
f 105/16/6 2/17/6 99/18/6
f 100/19/7 10/20/7 9/21/7
f 91/22/8 83/23/8 84/24/8
f 99/18/9 10/20/9 101/25/9
f 109/9/10 11/26/10 12/27/10
f 15/28/11 71/29/11 72/30/11
f 74/31/12 16/32/12 14/33/12
f 15/28/11 75/34/11 13/35/11
f 98/36/13 18/1/13 103/37/13
f 3/38/14 22/39/14 122/40/14
f 108/4/15 20/41/15 110/42/15
f 78/43/16 111/3/16 112/44/16
f 114/45/17 127/46/17 131/47/17
f 7/48/18 21/49/18 120/50/18
f 17/51/19 24/52/19 123/53/19
f 19/54/20 23/55/20 121/56/20
f 125/57/21 31/58/21 29/59/21
f 130/60/22 27/61/22 125/62/22
f 129/63/23 26/64/23 126/65/23
f 116/66/24 124/67/24 128/68/24
f 30/69/11 36/70/11 32/71/11
f 126/72/25 30/69/25 32/71/25
f 124/73/26 29/74/26 30/75/26
f 127/76/27 32/77/27 31/78/27
f 33/79/28 36/70/28 34/80/28
f 29/74/29 34/80/29 30/75/29
f 32/77/30 35/81/30 31/78/30
f 31/58/12 33/79/12 29/59/12
f 40/82/31 41/83/31 37/84/31
f 7/48/32 38/85/32 39/86/32
f 98/36/33 8/87/33 4/88/33
f 107/2/34 37/89/34 38/90/34
f 44/91/35 45/92/35 41/83/35
f 37/84/11 42/93/11 38/94/11
f 39/95/12 44/96/12 40/97/12
f 38/94/28 43/98/28 39/95/28
f 42/93/36 46/99/36 43/98/36
f 41/83/37 46/99/37 42/93/37
f 48/100/38 43/98/38 46/99/38
f 43/98/39 48/100/39 44/96/39
f 52/101/40 48/100/40 46/99/40
f 53/102/41 46/99/41 49/103/41
f 54/104/42 49/103/42 50/105/42
f 48/106/43 54/104/43 50/105/43
f 56/107/44 45/108/44 48/109/44
f 57/110/45 48/111/45 50/112/45
f 58/113/46 50/112/46 47/114/46
f 45/108/47 58/113/47 47/114/47
f 50/105/48 49/103/48 69/115/48
f 60/116/49 46/99/49 45/92/49
f 61/117/50 45/108/50 47/114/50
f 62/118/51 47/114/51 49/103/51
f 46/99/52 62/118/52 49/103/52
f 52/101/53 63/119/53 51/120/53
f 53/102/54 64/121/54 52/101/54
f 63/119/55 53/102/55 54/104/55
f 51/122/56 63/119/56 54/104/56
f 56/107/57 65/123/57 55/124/57
f 57/110/58 66/125/58 56/126/58
f 65/123/59 57/110/59 58/113/59
f 55/124/60 65/123/60 58/113/60
f 68/127/61 59/128/61 60/116/61
f 61/117/62 68/127/62 60/129/62
f 67/130/63 61/117/63 62/118/63
f 59/128/64 67/130/64 62/118/64
f 73/131/65 104/132/65 72/133/65
f 47/114/66 50/112/66 69/115/66
f 49/103/67 47/114/67 69/115/67
f 14/134/68 71/135/68 13/136/68
f 16/32/12 70/137/12 14/33/12
f 15/138/69 104/139/69 102/140/69
f 9/21/70 102/140/70 100/19/70
f 9/12/71 75/34/71 15/28/71
f 12/141/72 74/31/72 5/142/72
f 5/143/73 75/144/73 1/15/73
f 2/17/74 112/44/74 106/145/74
f 97/146/11 86/147/11 85/148/11
f 110/42/75 77/149/75 113/7/75
f 19/150/28 80/151/28 119/152/28
f 103/37/13 78/43/13 105/16/13
f 92/153/76 83/23/76 90/154/76
f 91/22/77 85/148/77 93/155/77
f 93/155/78 82/156/78 92/153/78
f 87/157/79 88/158/79 86/147/79
f 95/159/12 87/157/12 96/160/12
f 97/146/80 84/24/80 95/159/80
f 96/160/81 86/147/81 94/161/81
f 89/162/82 82/156/82 88/158/82
f 84/24/12 89/162/12 87/157/12
f 85/148/11 88/158/11 82/156/11
f 80/163/83 96/160/83 119/164/83
f 76/165/84 97/146/84 118/166/84
f 79/167/85 96/160/85 80/163/85
f 75/168/86 92/153/86 13/169/86
f 74/170/87 93/155/87 75/168/87
f 13/169/88 90/154/88 14/171/88
f 76/165/89 94/161/89 97/146/89
f 74/170/90 90/154/90 91/22/90
f 103/37/91 77/149/91 20/41/91
f 12/27/92 102/140/92 16/172/92
f 16/172/93 104/139/93 73/173/93
f 98/36/94 20/41/94 8/87/94
f 99/18/95 11/26/95 6/8/95
f 11/26/96 100/19/96 12/27/96
f 105/16/97 6/8/97 77/149/97
f 4/88/98 40/174/98 37/175/98
f 76/176/99 112/44/99 81/177/99
f 110/42/100 80/178/100 19/54/100
f 80/178/101 113/7/101 79/179/101
f 106/145/102 76/176/102 1/180/102
f 81/177/103 111/3/103 17/181/103
f 108/4/100 19/54/100 7/182/100
f 5/142/104 109/183/104 12/141/104
f 106/145/105 10/20/105 2/17/105
f 79/179/106 109/9/106 5/184/106
f 111/3/103 3/38/103 17/181/103
f 120/185/107 116/66/107 128/68/107
f 22/186/108 129/63/108 122/187/108
f 23/188/109 130/60/109 121/189/109
f 123/190/110 114/45/110 131/47/110
f 94/161/111 119/164/111 96/160/111
f 119/164/112 94/161/112 81/191/112
f 97/146/113 95/159/113 118/166/113
f 95/159/114 79/167/114 118/166/114
f 5/143/115 1/15/115 118/14/115
f 79/192/116 5/143/116 118/14/116
f 17/51/28 19/150/28 119/152/28
f 81/193/28 17/51/28 119/152/28
f 123/190/117 115/194/117 23/188/117
f 21/195/118 130/60/118 116/196/118
f 24/197/119 129/63/119 114/45/119
f 120/185/120 117/198/120 22/186/120
f 117/198/121 124/67/121 26/64/121
f 129/63/122 28/199/122 114/45/122
f 130/60/123 25/200/123 116/196/123
f 115/194/124 127/46/124 27/61/124
f 18/1/125 4/88/125 107/2/125
f 40/6/126 8/87/126 108/4/126
f 108/4/127 7/182/127 39/5/127
f 113/7/128 77/149/128 6/8/128
f 105/16/129 78/43/129 2/17/129
f 100/19/130 101/25/130 10/20/130
f 91/22/131 90/154/131 83/23/131
f 99/18/132 2/17/132 10/20/132
f 109/9/133 6/8/133 11/26/133
f 15/28/11 13/35/11 71/29/11
f 98/36/134 4/88/134 18/1/134
f 24/201/135 17/181/135 122/40/135
f 17/181/136 3/38/136 122/40/136
f 108/4/137 8/87/137 20/41/137
f 78/43/1 18/1/1 111/3/1
f 114/45/17 28/199/17 127/46/17
f 22/202/138 3/203/138 120/50/138
f 3/203/139 7/48/139 120/50/139
f 23/204/140 19/150/140 123/53/140
f 19/150/141 17/51/141 123/53/141
f 21/205/142 7/182/142 121/56/142
f 7/182/143 19/54/143 121/56/143
f 29/59/144 25/206/144 125/57/144
f 125/57/145 27/207/145 31/58/145
f 130/60/22 115/194/22 27/61/22
f 129/63/23 117/198/23 26/64/23
f 116/66/24 25/208/24 124/67/24
f 30/69/11 34/80/11 36/70/11
f 32/71/146 28/209/146 126/72/146
f 126/72/147 26/210/147 30/69/147
f 30/75/148 26/211/148 124/73/148
f 124/73/149 25/212/149 29/74/149
f 31/78/150 27/213/150 127/76/150
f 127/76/151 28/214/151 32/77/151
f 33/79/28 35/81/28 36/70/28
f 29/74/29 33/79/29 34/80/29
f 32/77/30 36/70/30 35/81/30
f 31/58/12 35/81/12 33/79/12
f 40/82/31 44/91/31 41/83/31
f 7/48/32 3/203/32 38/85/32
f 38/90/152 3/38/152 107/2/152
f 107/2/153 4/88/153 37/89/153
f 44/91/154 48/215/154 45/92/154
f 37/84/11 41/83/11 42/93/11
f 39/95/12 43/98/12 44/96/12
f 38/94/28 42/93/28 43/98/28
f 41/83/155 45/92/155 46/99/155
f 52/101/40 51/120/40 48/100/40
f 53/102/41 52/101/41 46/99/41
f 54/104/42 53/102/42 49/103/42
f 48/106/43 51/122/43 54/104/43
f 56/107/44 55/124/44 45/108/44
f 57/110/45 56/126/45 48/111/45
f 58/113/46 57/110/46 50/112/46
f 45/108/47 55/124/47 58/113/47
f 60/116/49 59/128/49 46/99/49
f 61/117/50 60/129/50 45/108/50
f 62/118/51 61/117/51 47/114/51
f 46/99/52 59/128/52 62/118/52
f 52/101/53 64/121/53 63/119/53
f 63/119/55 64/121/55 53/102/55
f 56/107/57 66/216/57 65/123/57
f 65/123/59 66/125/59 57/110/59
f 68/127/61 67/130/61 59/128/61
f 67/130/63 68/127/63 61/117/63
f 72/133/156 71/135/156 70/217/156
f 70/217/156 73/131/156 72/133/156
f 14/134/68 70/217/68 71/135/68
f 16/32/12 73/218/12 70/137/12
f 15/138/69 72/219/69 104/139/69
f 9/21/157 15/138/157 102/140/157
f 9/12/158 1/11/158 75/34/158
f 12/141/159 16/32/159 74/31/159
f 5/143/73 74/220/73 75/144/73
f 2/17/160 78/43/160 112/44/160
f 97/146/11 94/161/11 86/147/11
f 110/42/15 20/41/15 77/149/15
f 103/37/13 18/1/13 78/43/13
f 92/153/76 82/156/76 83/23/76
f 91/22/77 84/24/77 85/148/77
f 93/155/161 85/148/161 82/156/161
f 87/157/79 89/162/79 88/158/79
f 95/159/12 84/24/12 87/157/12
f 97/146/80 85/148/80 84/24/80
f 96/160/81 87/157/81 86/147/81
f 89/162/82 83/23/82 82/156/82
f 84/24/12 83/23/12 89/162/12
f 85/148/11 86/147/11 88/158/11
f 79/167/162 95/159/162 96/160/162
f 75/168/163 93/155/163 92/153/163
f 74/170/87 91/22/87 93/155/87
f 13/169/88 92/153/88 90/154/88
f 76/165/164 81/191/164 94/161/164
f 74/170/165 14/171/165 90/154/165
f 103/37/91 105/16/91 77/149/91
f 12/27/166 100/19/166 102/140/166
f 16/172/93 102/140/93 104/139/93
f 98/36/91 103/37/91 20/41/91
f 99/18/167 101/25/167 11/26/167
f 11/26/168 101/25/168 100/19/168
f 105/16/169 99/18/169 6/8/169
f 4/88/98 8/87/98 40/174/98
f 110/42/170 113/7/170 80/178/170
f 106/145/171 112/44/171 76/176/171
f 81/177/172 112/44/172 111/3/172
f 108/4/100 110/42/100 19/54/100
f 106/145/173 9/21/173 10/20/173
f 79/179/174 113/7/174 109/9/174
f 111/3/103 107/2/103 3/38/103
f 120/185/107 21/221/107 116/66/107
f 22/186/108 117/198/108 129/63/108
f 23/188/109 115/194/109 130/60/109
f 123/190/110 24/197/110 114/45/110
f 123/190/117 131/47/117 115/194/117
f 21/195/118 121/189/118 130/60/118
f 24/197/119 122/187/119 129/63/119
f 120/185/120 128/68/120 117/198/120
f 117/198/121 128/68/121 124/67/121
f 129/63/122 126/65/122 28/199/122
f 130/60/123 125/62/123 25/200/123
f 115/194/124 131/47/124 127/46/124
