# Blender v2.93.2 OBJ File: 'grenade.blend'
# www.blender.org
o Cube
v 0.087841 0.322695 -0.087841
v 0.106088 -0.326254 -0.106088
v 0.087841 0.322695 0.087841
v 0.106088 -0.326254 0.106088
v -0.087841 0.322695 -0.087841
v -0.106088 -0.326254 -0.106088
v -0.087841 0.322695 0.087841
v -0.106088 -0.326254 0.106088
v -0.151218 -0.326254 -0.000000
v 0.000000 -0.326254 -0.151218
v 0.000000 0.322695 0.125210
v 0.125210 0.322695 -0.000000
v 0.000000 -0.326254 0.151218
v -0.125210 0.322695 -0.000000
v 0.000000 0.322695 -0.125210
v 0.151218 -0.326254 -0.000000
v 0.000000 -0.381220 -0.000000
v 0.267074 -0.000530 -0.267074
v -0.267074 -0.000530 0.267074
v 0.267074 -0.000530 0.267074
v -0.267074 -0.000530 -0.267074
v 0.000000 -0.000530 -0.380690
v 0.380690 -0.000530 -0.000000
v -0.380690 -0.000530 -0.000000
v 0.000000 -0.000530 0.380690
v 0.213143 -0.190875 -0.213143
v -0.213143 0.189815 0.213143
v 0.213143 -0.190875 0.213143
v -0.213143 -0.190875 -0.213143
v 0.000000 -0.190875 -0.303815
v 0.303815 -0.190875 -0.000000
v -0.303815 -0.190875 -0.000000
v 0.000000 -0.190875 0.303815
v 0.213143 0.189815 -0.213143
v -0.213143 -0.190875 0.213143
v 0.213143 0.189815 0.213143
v -0.213143 0.189815 -0.213143
v 0.000000 0.189815 -0.303815
v 0.303815 0.189815 -0.000000
v -0.303815 0.189815 -0.000000
v 0.000000 0.189815 0.303815
v 0.000000 0.414370 0.125210
v -0.087841 0.414370 0.087841
v 0.125210 0.414370 -0.000000
v 0.087841 0.414370 0.087841
v -0.125210 0.414370 -0.000000
v -0.087841 0.414370 -0.087841
v 0.000000 0.414370 -0.125210
v 0.087841 0.414370 -0.087841
v -0.000066 0.339160 -0.043475
v -0.043921 0.414370 0.106526
v 0.106526 0.414370 0.043921
v -0.106526 0.414370 -0.043921
v 0.043921 0.414370 -0.106526
v 0.043921 0.414370 0.106526
v 0.106526 0.414370 -0.043921
v -0.106526 0.414370 0.043921
v -0.043921 0.414370 -0.106526
v 0.000000 0.414370 0.085683
v 0.000000 0.414370 -0.085683
v 0.085683 0.414370 -0.000000
v -0.085683 0.414370 -0.000000
v -0.063285 0.414370 -0.063285
v 0.063285 0.414370 -0.063285
v 0.063285 0.414370 0.063285
v -0.063285 0.414370 0.063285
v 0.000000 0.350448 -0.085683
v 0.045332 0.534764 0.015664
v -0.085683 0.350448 -0.000000
v 0.000000 0.350448 0.085683
v 0.085683 0.350448 -0.000000
v -0.063285 0.350448 -0.063285
v 0.063285 0.350448 -0.063285
v 0.063285 0.350448 0.063285
v -0.063285 0.350448 0.063285
v -0.042915 0.339160 -0.000626
v -0.000066 0.339160 0.042222
v 0.042782 0.339160 -0.000626
v -0.074484 0.350448 -0.031642
v -0.031642 0.350448 -0.074484
v 0.074484 0.350448 -0.031642
v 0.031642 0.350448 -0.074484
v 0.074484 0.350448 0.031642
v 0.031642 0.350448 0.074484
v -0.074484 0.350448 0.031642
v -0.031642 0.350448 0.074484
v -0.030622 0.339160 0.029929
v 0.030489 0.339160 0.029929
v -0.030622 0.339160 -0.031182
v 0.030489 0.339160 -0.031182
v 0.022274 0.479859 -0.011497
v -0.031306 0.495234 0.012268
v -0.011284 0.479859 0.067356
v 0.042296 0.464484 0.043591
v -0.032713 0.490823 0.044877
v 0.019773 0.468895 0.067213
v -0.008783 0.490823 -0.011354
v 0.043703 0.468895 0.010983
v 0.127499 0.590793 0.024934
v -0.001972 0.568310 0.033243
v 0.013178 0.559292 0.091218
v 0.060481 0.525746 0.073640
v -0.004478 0.570950 0.065977
v 0.040058 0.540597 0.094784
v 0.018452 0.553459 0.012099
v 0.062987 0.523106 0.040906
v 0.070069 0.557691 0.030115
v 0.199601 0.598450 -0.035083
v 0.031290 0.604191 0.027662
v 0.047208 0.620428 0.083831
v 0.085987 0.573929 0.086283
v 0.030985 0.622219 0.055224
v 0.069990 0.600639 0.097027
v 0.047287 0.577481 0.016919
v 0.086292 0.555901 0.058722
v 0.104135 0.628453 0.004419
v 0.121452 0.658110 0.039141
v 0.144816 0.620450 0.059655
v 0.107815 0.651307 0.017408
v 0.136824 0.645600 0.056797
v 0.112127 0.603303 0.007277
v 0.141136 0.597596 0.046666
v 0.223800 0.613786 -0.037542
v 0.201100 0.632787 -0.050944
v 0.224104 0.644560 -0.023284
v 0.222606 0.610223 -0.007423
v 0.212922 0.645991 -0.040494
v 0.228258 0.629900 -0.009460
v 0.195448 0.613110 -0.048907
v 0.210784 0.597019 -0.017873
vt 0.341548 0.536246
vt 0.362965 0.579435
vt 0.343951 0.594237
vt 0.451258 0.514032
vt 0.378583 0.406501
vt 0.451267 0.402250
vt 0.212411 0.451848
vt 0.301380 0.421050
vt 0.531675 0.055373
vt 0.531125 0.170094
vt 0.450925 0.148591
vt 0.561102 0.536453
vt 0.523991 0.406461
vt 0.601338 0.420985
vt 0.664078 0.612838
vt 0.690558 0.451786
vt 0.810988 0.524924
vt 0.238988 0.612324
vt 0.092468 0.524906
vt 0.369928 0.056047
vt 0.370957 0.170432
vt 0.291216 0.150188
vt 0.208527 0.158354
vt 0.229136 0.045561
vt 0.693951 0.157509
vt 0.673030 0.044432
vt 0.767913 0.120675
vt 0.618018 0.563317
vt 0.580638 0.608670
vt 0.558633 0.594649
vt 0.451216 0.558223
vt 0.429632 0.562127
vt 0.395708 0.514268
vt 0.406736 0.563669
vt 0.385131 0.572784
vt 0.529866 0.344375
vt 0.451165 0.276441
vt 0.531404 0.278927
vt 0.372649 0.344491
vt 0.284620 0.278245
vt 0.370991 0.279124
vt 0.718629 0.367000
vt 0.617927 0.277861
vt 0.717457 0.275859
vt 0.184309 0.367333
vt 0.044290 0.249697
vt 0.185329 0.276433
vt 0.858854 0.248780
vt 0.611005 0.149511
vt 0.134707 0.121787
vt 0.451233 0.341987
vt 0.289825 0.352267
vt 0.612839 0.352047
vt 0.028611 0.394357
vt 0.874838 0.393856
vt 0.411062 0.581771
vt 0.451180 0.578046
vt 0.472803 0.562199
vt 0.491325 0.581936
vt 0.372845 0.598130
vt 0.391007 0.628274
vt 0.378263 0.639093
vt 0.336560 0.623760
vt 0.284808 0.562987
vt 0.322023 0.608151
vt 0.304693 0.630466
vt 0.539568 0.579745
vt 0.517354 0.573015
vt 0.506844 0.514357
vt 0.495720 0.563815
vt 0.618655 0.655228
vt 0.598050 0.631136
vt 0.482388 0.614850
vt 0.466936 0.613875
vt 0.310047 0.662258
vt 0.284225 0.654399
vt 0.529600 0.598481
vt 0.565995 0.624339
vt 0.592624 0.663182
vt 0.365182 0.649351
vt 0.357113 0.665635
vt 0.419846 0.614653
vt 0.405982 0.621787
vt 0.923263 0.835465
vt 0.828402 0.872504
vt 0.907591 0.816148
vt 0.404675 0.649956
vt 0.386678 0.665790
vt 0.451008 0.637164
vt 0.475200 0.640377
vt 0.426830 0.640159
vt 0.435278 0.613774
vt 0.511256 0.628685
vt 0.496258 0.622088
vt 0.555044 0.686302
vt 0.545192 0.666442
vt 0.451107 0.611594
vt 0.537131 0.650006
vt 0.524019 0.639626
vt 0.894222 0.795410
vt 0.814267 0.851826
vt 0.497380 0.650394
vt 0.882557 0.773823
vt 0.799185 0.833865
vt 0.870514 0.752214
vt 0.783989 0.817771
vt 0.377488 0.687463
vt 0.347262 0.685308
vt 0.515403 0.666452
vt 0.524564 0.688343
vt 0.840985 0.895070
vt 0.807838 0.937127
vt 0.797209 0.913360
vt 0.732702 0.834411
vt 0.769086 0.802154
vt 0.783643 0.893026
vt 0.769779 0.876563
vt 0.719462 0.817463
vt 0.754538 0.785409
vt 0.856118 0.731737
vt 0.839032 0.713470
vt 0.739674 0.766561
vt 0.820585 0.697011
vt 0.940646 0.853612
vt 0.707228 0.850041
vt 0.696574 0.831502
vt 0.765685 0.919033
vt 0.750251 0.905076
vt 0.744426 0.848920
vt 0.725843 0.880340
vt 0.716121 0.866465
vt 0.756807 0.862432
vt 0.736977 0.892906
vt 0.703452 0.798644
vt 0.671053 0.898716
vt 0.689409 0.921767
vt 0.679536 0.910833
vt 0.679171 0.813611
vt 0.651914 0.869975
vt 0.637322 0.857050
vt 0.724270 0.958430
vt 0.713084 0.943570
vt 0.779853 0.938762
vt 0.657209 0.979459
vt 0.662340 0.884683
vt 0.626027 0.939896
vt 0.615615 0.932571
vt 0.700728 0.932309
vt 0.642628 0.959085
vt 0.607607 0.922499
vt 0.642458 0.989660
vt 0.648409 0.970305
vt 0.610085 0.953838
vt 0.632766 0.950846
vt 0.628093 0.973082
vt 0.593972 0.936100
vt 0.596011 0.916422
vt 0.852208 0.918575
vt 0.661761 0.991488
vn -0.9202 0.0000 -0.3915
vn -0.2461 0.7776 0.5785
vn -0.5785 0.7776 -0.2461
vn 0.1438 -0.9301 0.3381
vn 0.5785 0.7776 0.2461
vn 0.2461 0.7776 -0.5785
vn -0.2461 0.7776 -0.5785
vn 0.5785 0.7776 -0.2461
vn -0.3381 -0.9301 0.1438
vn -0.3381 -0.9301 -0.1438
vn 0.1438 -0.9301 -0.3381
vn -0.5785 0.7776 0.2461
vn 0.2461 0.7776 0.5785
vn 0.9202 0.0000 -0.3915
vn -0.3915 0.0000 0.9202
vn -0.9202 0.0000 0.3915
vn 0.3669 -0.3484 0.8626
vn -0.8626 -0.3484 0.3669
vn 0.8626 -0.3484 -0.3669
vn -0.3669 -0.3484 -0.8626
vn 0.3669 -0.3484 -0.8626
vn 0.8626 -0.3484 0.3669
vn -0.8626 -0.3484 -0.3669
vn -0.3669 -0.3484 0.8626
vn -0.2717 -0.7199 0.6387
vn -0.6387 -0.7199 -0.2717
vn 0.6387 -0.7199 0.2717
vn 0.2717 -0.7199 -0.6387
vn -0.2717 -0.7199 -0.6387
vn 0.6387 -0.7199 -0.2717
vn -0.6387 -0.7199 0.2717
vn 0.2717 -0.7199 0.6387
vn 0.3669 0.3484 0.8626
vn -0.8626 0.3484 0.3669
vn 0.8626 0.3484 -0.3669
vn -0.3669 0.3484 -0.8626
vn 0.3669 0.3484 -0.8626
vn 0.8626 0.3484 0.3669
vn -0.8626 0.3484 -0.3669
vn -0.3669 0.3484 0.8626
vn 0.0000 1.0000 0.0000
vn 0.9427 0.0000 0.3336
vn -0.3915 0.0000 -0.9202
vn 0.9202 0.0000 0.3915
vn 0.3915 0.0000 0.9202
vn 0.3915 0.0000 -0.9202
vn -0.3336 0.0000 -0.9427
vn 0.3336 0.0000 0.9427
vn 0.9427 0.0000 -0.3336
vn 0.9194 0.1341 -0.3699
vn 0.2470 0.9639 0.0994
vn -0.0974 0.9654 -0.2420
vn 0.0859 0.9663 -0.2428
vn -0.9427 0.0000 -0.3336
vn -0.3336 0.0000 0.9427
vn 0.3336 0.0000 -0.9427
vn -0.9427 0.0000 0.3336
vn 0.0887 0.9640 -0.2505
vn 0.7030 -0.1422 0.6968
vn 0.2444 0.9647 -0.0983
vn -0.2444 0.9658 -0.0865
vn -0.2522 0.9635 -0.0893
vn -0.0591 -0.1801 0.9819
vn -0.7400 -0.0761 0.6683
vn 0.0911 0.9620 0.2574
vn 0.0882 0.9644 0.2493
vn -0.2546 0.9628 0.0901
vn -0.2467 0.9651 0.0873
vn -0.1000 0.9635 0.2485
vn 0.8236 0.0199 -0.5669
vn -0.9290 0.3700 0.0100
vn 0.4795 -0.4298 0.7651
vn -0.5810 0.4946 -0.6463
vn -0.9965 0.0768 -0.0326
vn -0.3603 0.2608 -0.8956
vn -0.9127 0.1794 -0.3672
vn 0.3609 0.2548 -0.8971
vn -0.1056 0.3160 -0.9429
vn 0.7908 -0.5081 0.3411
vn -0.6972 0.5727 0.4312
vn -0.2929 0.2737 0.9161
vn 0.1347 0.3934 -0.9095
vn -0.2652 -0.2016 0.9429
vn -0.7873 0.1181 0.6052
vn 0.9398 -0.3272 0.0983
vn -0.2568 0.9445 0.2048
vn -0.0424 0.7974 0.6019
vn 0.3014 -0.6344 -0.7119
vn 0.5849 -0.8028 -0.1157
vn 0.3098 -0.1893 0.9318
vn -0.7374 0.6664 -0.1102
vn 0.8161 -0.3177 -0.4827
vn 0.5028 0.0024 -0.8644
vn 0.1721 -0.9657 0.1943
vn -0.3509 0.7538 -0.5555
vn 0.5947 0.2748 0.7555
vn -0.5192 -0.2576 -0.8149
vn 0.6400 -0.4550 0.6192
vn -0.2350 0.2383 -0.9423
vn 0.3872 0.2246 0.8942
vn -0.4132 0.7600 -0.5017
vn 0.7621 -0.6458 -0.0462
vn 0.8245 0.2312 -0.5165
vn 0.9613 -0.2755 0.0055
vn 0.3087 -0.6048 -0.7341
vn -0.4237 -0.6821 -0.5960
vn 0.4453 0.6779 0.5850
vn -0.0874 0.9650 -0.2472
vn 0.3670 -0.7567 0.5410
vn 0.3381 -0.9301 0.1438
vn -0.1438 -0.9301 0.3381
vn -0.1438 -0.9301 -0.3381
vn 0.3381 -0.9301 -0.1438
vn 0.9935 -0.1103 0.0280
vn 0.2554 0.9626 0.0904
vn -0.0886 0.9641 -0.2503
vn 0.2451 0.9656 -0.0867
vn 0.0975 0.9653 -0.2423
vn 0.9202 -0.1271 0.3702
vn 0.2529 0.9633 -0.0895
vn -0.0859 0.9663 -0.2426
vn -0.2437 0.9649 -0.0981
vn 0.3633 -0.2295 0.9030
vn -0.3663 -0.1919 0.9105
vn 0.1001 0.9634 0.2488
vn 0.2474 0.9649 0.0876
vn -0.2463 0.9641 0.0991
vn -0.0881 0.9645 0.2491
vn -0.0910 0.9621 0.2571
vn 0.7308 0.0304 -0.6819
vn -0.9299 0.3540 -0.0997
vn 0.5830 -0.4907 0.6475
vn -0.4900 0.4165 -0.7658
vn -0.9266 -0.0495 0.3728
vn 0.0392 0.1240 -0.9915
vn -0.7090 0.1103 -0.6966
vn 0.7325 0.0382 -0.6797
vn -0.5259 0.3683 -0.7667
vn 0.7812 -0.6146 0.1094
vn -0.6341 0.4306 0.6423
vn -0.1170 0.0212 0.9929
vn 0.2814 0.2268 -0.9324
vn -0.1118 -0.3289 0.9377
vn -0.7204 0.0136 0.6934
vn 0.9429 -0.3330 -0.0044
vn -0.4509 0.8926 0.0035
vn 0.0684 0.6068 0.7919
vn 0.0693 -0.4970 -0.8650
vn 0.4537 -0.8356 -0.3096
vn 0.4657 -0.4470 0.7638
vn -0.8075 0.4895 -0.3291
vn 0.6893 -0.3406 -0.6394
vn 0.1467 0.0223 -0.9889
vn 0.0239 -0.9949 -0.0983
vn -0.3980 0.5009 -0.7685
vn 0.6414 -0.1056 0.7599
vn -0.4969 0.0531 -0.8662
vn 0.6025 -0.6649 0.4415
vn -0.2422 -0.1852 -0.9524
vn 0.4620 -0.0786 0.8834
vn -0.5270 0.4825 -0.6996
vn 0.4697 -0.8008 -0.3718
vn 0.5779 0.1212 -0.8070
vn 0.9754 0.0846 -0.2034
vn 0.3687 -0.1998 -0.9078
vn -0.1980 -0.8728 -0.4460
vn 0.3693 0.8791 0.3013
vn 0.1298 0.9915 -0.0019
vn 0.5992 -0.4663 0.6508
s off
f 14/1/1 46/2/1 53/3/1
f 11/4/2 27/5/2 41/6/2
f 14/1/3 37/7/3 40/8/3
f 17/9/4 4/10/4 13/11/4
f 12/12/5 36/13/5 39/14/5
f 15/15/6 34/16/6 38/17/6
f 37/7/7 15/18/7 38/19/7
f 34/16/8 12/12/8 39/14/8
f 17/20/9 8/21/9 9/22/9
f 6/23/10 17/24/10 9/22/10
f 2/25/11 17/26/11 10/27/11
f 27/5/12 14/1/12 40/8/12
f 36/13/13 11/4/13 41/6/13
f 1/28/14 49/29/14 56/30/14
f 11/4/15 42/31/15 51/32/15
f 7/33/16 43/34/16 57/35/16
f 20/36/17 33/37/17 28/38/17
f 19/39/18 32/40/18 35/41/18
f 18/42/19 31/43/19 26/44/19
f 21/45/20 30/46/20 29/47/20
f 30/48/21 18/42/21 26/44/21
f 31/43/22 20/36/22 28/38/22
f 32/40/23 21/45/23 29/47/23
f 33/37/24 19/39/24 35/41/24
f 13/11/25 35/41/25 8/21/25
f 9/22/26 29/47/26 6/23/26
f 16/49/27 28/38/27 4/10/27
f 10/27/28 26/44/28 2/25/28
f 29/47/29 10/50/29 6/23/29
f 26/44/30 16/49/30 2/25/30
f 35/41/31 9/22/31 8/21/31
f 28/38/32 13/11/32 4/10/32
f 20/36/33 41/6/33 25/51/33
f 19/39/34 40/8/34 24/52/34
f 18/42/35 39/14/35 23/53/35
f 21/45/36 38/19/36 22/54/36
f 38/17/37 18/42/37 22/55/37
f 39/14/38 20/36/38 23/53/38
f 40/8/39 21/45/39 24/52/39
f 41/6/40 19/39/40 25/51/40
f 66/56/41 43/34/41 51/32/41
f 59/57/41 55/58/41 65/59/41
f 62/60/42 69/61/42 79/62/42
f 53/3/41 62/60/41 63/63/41
f 5/64/43 47/65/43 58/66/43
f 12/12/44 44/67/44 52/68/44
f 3/69/45 45/70/45 55/58/45
f 15/15/46 48/71/46 54/72/46
f 65/59/47 74/73/47 84/74/47
f 58/66/41 60/75/41 48/76/41
f 47/65/41 63/63/41 58/66/41
f 56/30/41 61/77/41 44/67/41
f 49/29/41 64/78/41 56/30/41
f 54/72/41 60/79/41 64/78/41
f 65/59/41 45/70/41 52/68/41
f 61/77/41 52/68/41 44/67/41
f 63/63/48 72/80/48 80/81/48
f 59/57/41 51/32/41 42/31/41
f 66/56/49 75/82/49 85/83/49
f 62/60/41 57/35/41 66/56/41
f 90/84/50 94/85/50 78/86/50
f 79/62/51 76/87/51 89/88/51
f 77/89/52 84/74/52 88/90/52
f 87/91/53 75/82/53 86/92/53
f 61/77/54 71/93/54 83/94/54
f 60/79/55 67/95/55 82/96/55
f 59/57/56 70/97/56 86/92/56
f 64/78/57 73/98/57 81/99/57
f 77/89/58 86/92/58 70/97/58
f 88/100/59 94/85/59 96/101/59
f 76/87/60 85/83/60 87/91/60
f 88/90/61 74/73/61 83/94/61
f 78/102/62 83/94/62 71/93/62
f 77/103/63 96/101/63 93/104/63
f 87/105/64 93/104/64 95/106/64
f 80/81/65 50/107/65 67/108/65
f 72/80/66 89/88/66 80/81/66
f 81/99/67 78/102/67 71/93/67
f 73/98/68 90/109/68 81/99/68
f 82/96/69 50/110/69 90/109/69
f 98/111/70 68/112/70 106/113/70
f 95/106/71 100/114/71 92/115/71
f 96/101/72 102/116/72 104/117/72
f 92/115/73 105/118/73 97/119/73
f 76/120/74 95/106/74 92/115/74
f 89/121/75 91/122/75 50/123/75
f 76/120/76 97/119/76 89/121/76
f 50/124/77 98/111/77 90/84/77
f 105/118/78 109/125/78 114/126/78
f 102/116/79 115/127/79 111/128/79
f 103/129/80 110/130/80 112/131/80
f 101/132/81 113/133/81 110/130/81
f 97/119/82 68/134/82 91/122/82
f 93/104/83 104/117/83 101/132/83
f 95/106/84 101/132/84 103/129/84
f 94/85/85 106/113/85 102/116/85
f 110/130/86 119/135/86 112/131/86
f 110/130/87 120/136/87 117/137/87
f 107/138/88 121/139/88 99/140/88
f 115/127/89 99/141/89 122/142/89
f 104/117/90 111/128/90 113/133/90
f 103/129/91 109/125/91 100/114/91
f 106/113/92 107/143/92 115/127/92
f 68/134/93 114/126/93 107/138/93
f 99/141/94 130/144/94 122/142/94
f 116/145/95 127/146/95 124/147/95
f 118/148/96 128/149/96 120/136/96
f 116/145/97 129/150/97 121/139/97
f 111/128/98 122/142/98 118/148/98
f 109/125/99 121/139/99 114/126/99
f 113/133/100 118/148/100 120/136/100
f 112/131/101 116/145/101 109/125/101
f 130/144/102 123/151/102 126/152/102
f 123/153/103 127/146/103 125/154/103
f 123/155/104 128/149/104 126/152/104
f 129/150/105 123/156/105 108/157/105
f 99/140/106 129/150/106 108/157/106
f 117/137/107 128/149/107 125/154/107
f 117/137/108 127/146/108 119/135/108
f 118/148/109 130/144/109 126/152/109
f 47/65/1 5/64/1 53/3/1
f 5/64/1 14/1/1 53/3/1
f 11/4/2 7/33/2 27/5/2
f 14/1/3 5/64/3 37/7/3
f 17/9/110 16/49/110 4/10/110
f 12/12/5 3/69/5 36/13/5
f 15/15/6 1/28/6 34/16/6
f 37/7/7 5/64/7 15/18/7
f 34/16/8 1/28/8 12/12/8
f 17/20/111 13/11/111 8/21/111
f 6/23/112 10/50/112 17/24/112
f 2/25/113 16/49/113 17/26/113
f 27/5/12 7/33/12 14/1/12
f 36/13/13 3/69/13 11/4/13
f 44/67/14 12/12/14 56/30/14
f 12/12/14 1/28/14 56/30/14
f 43/34/15 7/33/15 51/32/15
f 7/33/15 11/4/15 51/32/15
f 46/2/16 14/1/16 57/35/16
f 14/1/16 7/33/16 57/35/16
f 20/36/17 25/51/17 33/37/17
f 19/39/18 24/52/18 32/40/18
f 18/42/19 23/53/19 31/43/19
f 21/45/20 22/54/20 30/46/20
f 30/48/21 22/55/21 18/42/21
f 31/43/22 23/53/22 20/36/22
f 32/40/23 24/52/23 21/45/23
f 33/37/24 25/51/24 19/39/24
f 13/11/25 33/37/25 35/41/25
f 9/22/26 32/40/26 29/47/26
f 16/49/27 31/43/27 28/38/27
f 10/27/28 30/48/28 26/44/28
f 29/47/29 30/46/29 10/50/29
f 26/44/30 31/43/30 16/49/30
f 35/41/31 32/40/31 9/22/31
f 28/38/32 33/37/32 13/11/32
f 20/36/33 36/13/33 41/6/33
f 19/39/34 27/5/34 40/8/34
f 18/42/35 34/16/35 39/14/35
f 21/45/36 37/7/36 38/19/36
f 38/17/37 34/16/37 18/42/37
f 39/14/38 36/13/38 20/36/38
f 40/8/39 37/7/39 21/45/39
f 41/6/40 27/5/40 19/39/40
f 66/56/41 57/35/41 43/34/41
f 59/57/41 42/31/41 55/58/41
f 72/80/42 63/63/42 79/62/42
f 63/63/42 62/60/42 79/62/42
f 53/3/41 46/2/41 62/60/41
f 48/76/43 15/18/43 58/66/43
f 15/18/43 5/64/43 58/66/43
f 45/70/44 3/69/44 52/68/44
f 3/69/44 12/12/44 52/68/44
f 42/31/45 11/4/45 55/58/45
f 11/4/45 3/69/45 55/58/45
f 49/29/46 1/28/46 54/72/46
f 1/28/46 15/15/46 54/72/46
f 70/97/47 59/57/47 84/74/47
f 59/57/47 65/59/47 84/74/47
f 58/66/41 63/63/41 60/75/41
f 47/65/41 53/3/41 63/63/41
f 56/30/41 64/78/41 61/77/41
f 49/29/41 54/72/41 64/78/41
f 54/72/41 48/71/41 60/79/41
f 65/59/41 55/58/41 45/70/41
f 61/77/41 65/59/41 52/68/41
f 67/108/48 60/75/48 80/81/48
f 60/75/48 63/63/48 80/81/48
f 59/57/41 66/56/41 51/32/41
f 69/61/49 62/60/49 85/83/49
f 62/60/49 66/56/49 85/83/49
f 62/60/41 46/2/41 57/35/41
f 90/84/114 98/111/114 94/85/114
f 79/62/115 69/61/115 76/87/115
f 77/89/116 70/97/116 84/74/116
f 87/91/117 85/83/117 75/82/117
f 74/73/54 65/59/54 83/94/54
f 65/59/54 61/77/54 83/94/54
f 73/98/55 64/78/55 82/96/55
f 64/78/55 60/79/55 82/96/55
f 75/82/56 66/56/56 86/92/56
f 66/56/56 59/57/56 86/92/56
f 71/93/57 61/77/57 81/99/57
f 61/77/57 64/78/57 81/99/57
f 77/89/118 87/91/118 86/92/118
f 88/100/119 78/86/119 94/85/119
f 76/87/120 69/61/120 85/83/120
f 88/90/121 84/74/121 74/73/121
f 78/102/122 88/90/122 83/94/122
f 77/103/123 88/100/123 96/101/123
f 87/105/124 77/103/124 93/104/124
f 80/81/125 89/88/125 50/107/125
f 72/80/126 79/62/126 89/88/126
f 81/99/127 90/109/127 78/102/127
f 73/98/128 82/96/128 90/109/128
f 82/96/129 67/95/129 50/110/129
f 98/111/130 91/158/130 68/112/130
f 95/106/131 103/129/131 100/114/131
f 96/101/132 94/85/132 102/116/132
f 92/115/133 100/114/133 105/118/133
f 76/120/134 87/105/134 95/106/134
f 89/121/135 97/119/135 91/122/135
f 76/120/136 92/115/136 97/119/136
f 50/124/137 91/158/137 98/111/137
f 105/118/138 100/114/138 109/125/138
f 102/116/139 106/113/139 115/127/139
f 103/129/140 101/132/140 110/130/140
f 101/132/141 104/117/141 113/133/141
f 97/119/142 105/118/142 68/134/142
f 93/104/143 96/101/143 104/117/143
f 95/106/144 93/104/144 101/132/144
f 94/85/145 98/111/145 106/113/145
f 110/130/146 117/137/146 119/135/146
f 110/130/147 113/133/147 120/136/147
f 107/138/148 114/126/148 121/139/148
f 115/127/149 107/143/149 99/141/149
f 104/117/150 102/116/150 111/128/150
f 103/129/151 112/131/151 109/125/151
f 106/113/152 68/112/152 107/143/152
f 68/134/153 105/118/153 114/126/153
f 99/141/154 108/159/154 130/144/154
f 116/145/155 119/135/155 127/146/155
f 118/148/156 126/152/156 128/149/156
f 116/145/157 124/147/157 129/150/157
f 111/128/158 115/127/158 122/142/158
f 109/125/159 116/145/159 121/139/159
f 113/133/160 111/128/160 118/148/160
f 112/131/161 119/135/161 116/145/161
f 130/144/162 108/159/162 123/151/162
f 123/153/163 124/147/163 127/146/163
f 123/155/164 125/154/164 128/149/164
f 129/150/165 124/147/165 123/156/165
f 99/140/166 121/139/166 129/150/166
f 117/137/167 120/136/167 128/149/167
f 117/137/168 125/154/168 127/146/168
f 118/148/169 122/142/169 130/144/169
