# Blender v3.0.0 OBJ File: 'grenade.blend'
# www.blender.org
o Cube
v 0.087841 0.322695 -0.087841
v 0.106088 -0.326254 -0.106088
v 0.087841 0.322695 0.087841
v 0.106088 -0.326254 0.106088
v -0.087841 0.322695 -0.087841
v -0.106088 -0.326254 -0.106088
v -0.087841 0.322695 0.087841
v -0.106088 -0.326254 0.106088
v 0.267074 -0.000530 -0.267074
v -0.267074 -0.000530 0.267074
v 0.267074 -0.000530 0.267074
v -0.267074 -0.000530 -0.267074
v 0.000000 -0.190875 -0.303815
v 0.303815 -0.190875 -0.000000
v -0.303815 -0.190875 -0.000000
v 0.000000 -0.190875 0.303815
v 0.000000 0.189815 -0.303815
v 0.303815 0.189815 -0.000000
v -0.303815 0.189815 -0.000000
v 0.000000 0.189815 0.303815
v -0.000033 0.411776 -0.048130
v -0.035319 0.414370 0.085663
v 0.085663 0.414370 0.035319
v -0.085663 0.414370 -0.035319
v 0.035319 0.414370 -0.085663
v 0.035319 0.414370 0.085663
v 0.085663 0.414370 -0.035319
v -0.085663 0.414370 0.035319
v -0.035319 0.414370 -0.085663
v -0.000033 0.411776 0.047504
v 0.047784 0.411776 -0.000313
v -0.047850 0.411776 -0.000313
v 0.022274 0.479859 -0.011497
v -0.031306 0.495234 0.012268
v -0.011284 0.479859 0.067356
v 0.042296 0.464484 0.043591
v -0.004478 0.570950 0.065977
v 0.040058 0.540597 0.094784
v 0.018452 0.553459 0.012099
v 0.062987 0.523106 0.040906
v 0.070069 0.557691 0.030115
v 0.199601 0.598450 -0.035083
v 0.048814 0.604191 0.046121
v 0.082049 0.590235 0.086283
v 0.107815 0.651307 0.017408
v 0.136824 0.645600 0.056797
v 0.112127 0.603303 0.007277
v 0.141136 0.597596 0.046666
v 0.201100 0.632787 -0.050944
v 0.224104 0.644560 -0.023284
v 0.222606 0.610223 -0.007423
vt 0.166559 0.288722
vt 0.186758 0.257313
vt 0.208203 0.286376
vt 0.132623 0.358462
vt 0.203489 0.563080
vt 0.039334 0.517263
vt 0.328466 0.260585
vt 0.452461 0.357464
vt 0.367228 0.374278
vt 0.350391 0.719332
vt 0.327050 0.562971
vt 0.480054 0.606199
vt 0.350003 0.461155
vt 0.447376 0.452983
vt 0.601142 0.478270
vt 0.545628 0.334314
vt 0.663764 0.345559
vt 0.363421 0.155367
vt 0.550271 0.219327
vt 0.449799 0.264676
vt 0.252956 0.332850
vt 0.252395 0.457622
vt 0.509057 0.056291
vt 0.319639 0.045061
vt 0.118414 0.270175
vt 0.294716 0.142221
vt 0.262547 0.139733
vt 0.273729 0.101745
vt 0.267084 0.189876
vt 0.272617 0.246798
vt 0.291267 0.215163
vt 0.782671 0.848488
vt 0.719407 0.851860
vt 0.770737 0.822174
vt 0.619083 0.959034
vt 0.613256 0.983644
vt 0.590296 0.957078
vt 0.646299 0.867804
vt 0.596341 0.931130
vt 0.572931 0.927267
vt 0.872871 0.827854
vt 0.811106 0.876793
vt 0.748266 0.795110
vt 0.841644 0.798257
vt 0.662162 0.892254
vt 0.686565 0.928267
vt 0.826842 0.762964
vt 0.805788 0.728203
vt 0.236608 0.234150
vt 0.822133 0.919936
vt 0.774590 0.906254
vt 0.731834 0.881547
vt 0.243323 0.271419
vt 0.797796 0.373067
vt 0.752071 0.523996
vt 0.721843 0.196003
vt 0.166237 0.732162
vt 0.299699 0.178627
vt 0.952667 0.800156
vt 0.897179 0.864675
vt 0.916325 0.764011
vt 0.911016 0.710562
vt 0.884597 0.670055
vt 0.137804 0.233365
vt 0.701417 0.951331
vt 0.670661 0.910542
vt 0.988351 0.835791
vn -0.0683 0.9977 0.0000
vn 0.5205 0.6163 -0.5909
vn -0.5205 0.6163 0.5909
vn 0.5649 -0.8251 0.0000
vn 0.4959 -0.5692 0.6558
vn -0.5649 -0.8251 0.0000
vn -0.5909 0.6163 -0.5205
vn 0.5909 0.6163 0.5205
vn 0.6558 -0.5692 -0.4959
vn 0.0000 0.8517 -0.5240
vn -0.5240 0.8517 0.0000
vn 0.6515 0.3887 -0.6515
vn 0.0000 0.9976 0.0689
vn 0.0356 0.9987 0.0356
vn -0.6515 0.3887 0.6515
vn 0.9997 0.0238 0.0000
vn 0.0000 0.0238 0.9997
vn -0.0899 0.6130 0.7849
vn 0.9907 0.0000 -0.1363
vn 0.1363 0.0000 0.9907
vn 0.7931 -0.2836 -0.5390
vn -0.4221 -0.3649 -0.8299
vn 0.8478 -0.2786 0.4512
vn -0.3853 0.6618 -0.6431
vn -0.5174 0.0516 0.8542
vn -0.0660 0.9367 -0.3438
vn 0.2668 -0.9466 0.1809
vn -0.1363 0.0000 0.9907
vn -0.6711 0.5722 -0.4714
vn -0.3233 0.2736 -0.9059
vn 0.0353 0.9988 -0.0353
vn 0.3345 -0.3424 -0.8780
vn 0.7113 -0.5209 0.4718
vn -0.0352 0.9988 -0.0352
vn 0.5240 0.8517 0.0000
vn 0.0000 0.8517 0.5240
vn 0.0000 -0.8251 0.5649
vn -0.9907 0.0000 0.1363
vn 0.0000 -1.0000 0.0000
vn -0.6558 -0.5692 -0.4959
vn -0.9907 0.0000 -0.1363
vn -0.4959 -0.5692 0.6558
vn -0.1363 0.0000 -0.9907
vn 0.1363 0.0000 -0.9907
vn 0.0000 -0.8251 -0.5649
vn 0.0000 0.9977 -0.0678
vn 0.0684 0.9977 0.0000
vn 0.6515 0.3887 0.6515
vn 0.9196 0.3036 -0.2495
vn -0.7067 0.0336 0.7067
vn -0.6515 0.3887 -0.6515
vn -0.6031 0.5221 -0.6031
vn 0.0000 0.0238 -0.9997
vn -0.9997 0.0238 0.0000
vn -0.0355 0.9987 0.0355
vn 0.3007 -0.6340 -0.7125
vn 0.5632 -0.1219 0.8173
vn 0.9907 0.0000 0.1363
vn 0.5118 -0.7124 -0.4802
vn 0.9716 -0.2233 -0.0779
vn -0.3424 0.7629 0.5484
vn -0.5170 0.1321 -0.8457
vn 0.3746 -0.8347 0.4037
vn 0.6477 0.2960 0.7021
vn -0.9303 0.0750 0.3590
vn 0.6441 0.2637 -0.7180
vn 0.6285 -0.4581 0.6285
vn -0.5868 0.6630 -0.4649
vn 0.2059 -0.5420 0.8148
vn 0.5909 0.6163 -0.5205
vn -0.5909 0.6163 0.5205
vn 0.6558 -0.5692 0.4959
vn -0.5205 0.6163 -0.5909
vn 0.5205 0.6163 0.5909
vn 0.4959 -0.5692 -0.6558
vn -0.5327 0.5594 0.6351
vn -0.5711 0.1201 -0.8120
vn 0.0858 0.9930 0.0807
vn -0.0920 -0.9928 -0.0761
vn -0.4959 -0.5692 -0.6558
vn -0.6558 -0.5692 0.4959
vn 0.6994 0.1472 -0.6994
vn -0.9329 -0.2340 0.2738
vn -0.3465 0.2066 -0.9150
vn -0.4909 0.7349 0.4680
vn 0.5620 -0.1222 0.8180
vn 0.8578 -0.3211 -0.4014
vn 0.3456 -0.2096 0.9147
s off
f 27/1/1 31/2/1 23/3/1
f 1/4/2 9/5/2 17/6/2
f 7/7/3 10/8/3 20/9/3
f 2/10/4 14/11/4 4/12/4
f 4/12/5 11/13/5 16/14/5
f 8/15/6 15/16/6 6/17/6
f 5/18/7 12/19/7 19/20/7
f 3/21/8 11/13/8 18/22/8
f 2/10/9 9/5/9 14/11/9
f 17/23/10 5/18/10 1/24/10
f 19/20/11 7/7/11 5/18/11
f 27/1/12 1/4/12 25/25/12
f 29/26/13 21/27/13 25/28/13
f 29/26/14 32/29/14 21/27/14
f 22/30/15 28/31/15 7/7/15
f 1/4/16 23/3/16 3/21/16
f 3/21/17 22/30/17 7/7/17
f 38/32/18 43/33/18 37/34/18
f 18/22/19 14/11/19 9/5/19
f 20/9/20 16/14/20 11/13/20
f 51/35/21 42/36/21 50/37/21
f 47/38/22 49/39/22 42/40/22
f 38/32/23 36/41/23 40/42/23
f 39/43/24 43/33/24 47/38/24
f 37/34/25 35/44/25 38/32/25
f 45/45/26 50/37/26 49/39/26
f 48/46/27 42/36/27 51/35/27
f 16/14/28 20/9/28 10/8/28
f 34/47/29 37/34/29 39/43/29
f 34/47/30 39/43/30 33/48/30
f 28/31/31 30/49/31 32/29/31
f 40/42/32 39/50/32 41/51/32
f 38/32/33 40/42/33 44/52/33
f 23/3/34 30/49/34 26/53/34
f 18/22/35 1/4/35 3/21/35
f 7/7/36 20/9/36 3/21/36
f 16/14/37 8/15/37 4/12/37
f 19/20/38 15/16/38 10/8/38
f 8/15/39 2/54/39 4/55/39
f 12/19/40 6/17/40 15/16/40
f 15/16/41 19/20/41 12/19/41
f 10/8/42 8/15/42 16/14/42
f 17/23/43 13/56/43 12/19/43
f 13/57/44 17/6/44 9/5/44
f 13/56/45 2/54/45 6/17/45
f 22/30/46 26/53/46 30/49/46
f 24/58/47 28/31/47 32/29/47
f 26/53/48 3/21/48 23/3/48
f 31/59/49 33/60/49 36/41/49
f 30/61/50 34/47/50 32/62/50
f 29/26/51 5/18/51 24/58/51
f 32/62/52 33/48/52 21/63/52
f 5/18/53 25/28/53 1/24/53
f 28/31/54 5/18/54 7/7/54
f 31/2/55 25/25/55 21/64/55
f 39/50/56 47/65/56 41/51/56
f 44/52/57 48/46/57 46/66/57
f 14/11/58 18/22/58 11/13/58
f 48/46/59 41/51/59 47/65/59
f 44/52/60 40/42/60 41/51/60
f 44/52/61 45/45/61 43/33/61
f 43/33/62 45/45/62 47/38/62
f 41/51/63 48/46/63 44/52/63
f 46/66/64 51/35/64 50/37/64
f 49/39/21 50/37/21 42/40/21
f 34/47/65 35/44/65 37/34/65
f 40/42/66 33/60/66 39/50/66
f 36/41/67 30/61/67 31/59/67
f 39/43/68 37/34/68 43/33/68
f 36/41/69 38/32/69 35/44/69
f 1/4/70 18/22/70 9/5/70
f 7/7/71 19/20/71 10/8/71
f 4/12/72 14/11/72 11/13/72
f 5/18/73 17/23/73 12/19/73
f 3/21/74 20/9/74 11/13/74
f 2/10/75 13/57/75 9/5/75
f 29/26/14 24/58/14 32/29/14
f 1/4/16 27/1/16 23/3/16
f 3/21/17 26/53/17 22/30/17
f 38/32/76 44/52/76 43/33/76
f 47/38/77 45/45/77 49/39/77
f 45/45/78 46/66/78 50/37/78
f 48/46/79 47/65/79 42/36/79
f 28/31/31 22/30/31 30/49/31
f 23/3/34 31/2/34 30/49/34
f 8/15/39 6/17/39 2/54/39
f 12/19/80 13/56/80 6/17/80
f 10/8/81 15/16/81 8/15/81
f 31/59/82 21/67/82 33/60/82
f 30/61/83 35/44/83 34/47/83
f 32/62/84 34/47/84 33/48/84
f 5/18/53 29/26/53 25/28/53
f 28/31/54 24/58/54 5/18/54
f 31/2/55 27/1/55 25/25/55
f 44/52/85 46/66/85 45/45/85
f 46/66/86 48/46/86 51/35/86
f 40/42/87 36/41/87 33/60/87
f 36/41/88 35/44/88 30/61/88
