# Blender v2.80 (sub 75) OBJ File: 'hook.blend'
# www.blender.org
o Hook_Cube
v 0.299271 0.133874 -0.301843
v 0.097727 -0.417298 -0.095053
v 0.299271 0.133874 0.301843
v 0.097727 -0.417298 0.095053
v -0.304406 0.130725 -0.301843
v -0.092375 -0.418928 -0.095053
v -0.304406 0.130725 0.301843
v -0.092375 -0.418928 0.095053
v 0.197694 -0.199574 -0.198528
v -0.199356 -0.201646 0.198528
v 0.197694 -0.199574 0.198528
v -0.199356 -0.201646 -0.198528
v -0.002567 0.132299 0.333389
v 0.330817 0.134039 0.000000
v -0.335952 0.130560 0.000000
v -0.002567 0.132299 -0.333389
v -0.002567 0.132299 0.000000
v 0.230577 0.428427 -0.398471
v 0.394385 0.429281 -0.233103
v 0.229019 0.428419 -0.069293
v 0.065211 0.427564 -0.234660
v 0.385095 0.425730 0.253866
v 0.210042 0.424816 0.407280
v 0.056630 0.424016 0.232225
v 0.231683 0.424929 0.078810
v -0.233525 0.413760 -0.082368
v -0.394202 0.412922 -0.250781
v -0.223003 0.419643 -0.405405
v -0.065115 0.414639 -0.243047
v -0.070687 0.414610 0.224906
v -0.235754 0.413749 0.389017
v -0.399863 0.412892 0.223947
v -0.234795 0.413754 0.059837
v -0.209188 0.678215 0.230839
v -0.273638 0.597604 0.318723
v -0.380231 0.583362 0.222658
v -0.315781 0.663973 0.134775
v -0.421926 0.893828 0.386755
v -0.419697 0.804695 0.423367
v -0.498627 0.781413 0.349969
v -0.500855 0.870546 0.313357
v -0.644555 0.921518 0.591784
v -0.607417 0.867938 0.567679
v -0.663657 0.856299 0.516685
v -0.700794 0.909879 0.540790
v -0.780328 0.795855 0.734458
v -0.738448 0.787339 0.695778
v -0.778202 0.773343 0.657019
v -0.820083 0.781859 0.695698
v -0.836873 0.644778 0.797264
v -0.835187 0.553422 0.813667
v -0.879906 0.539400 0.780770
v -0.876628 0.630782 0.758504
v -0.238013 0.678064 -0.219586
v -0.324123 0.597341 -0.286250
v -0.225813 0.584168 -0.390916
v -0.139704 0.664891 -0.324252
v -0.390669 0.893991 -0.434360
v -0.426844 0.804658 -0.433350
v -0.351717 0.782179 -0.510872
v -0.315542 0.871513 -0.511882
v -0.591223 0.921796 -0.661014
v -0.567602 0.868146 -0.623668
v -0.515402 0.857072 -0.678906
v -0.539023 0.910722 -0.716252
v -0.730406 0.796116 -0.800348
v -0.692550 0.787578 -0.757726
v -0.652908 0.773996 -0.796747
v -0.690763 0.782534 -0.839369
v -0.791231 0.645016 -0.858961
v -0.807179 0.553568 -0.858089
v -0.773295 0.539956 -0.902194
v -0.751588 0.631434 -0.897982
v 0.203725 0.680369 -0.239750
v 0.272027 0.600451 -0.325326
v 0.375360 0.587304 -0.225612
v 0.307058 0.667222 -0.140036
v 0.419492 0.898218 -0.388217
v 0.419466 0.809073 -0.424868
v 0.496036 0.786602 -0.348768
v 0.496061 0.875747 -0.312117
v 0.648810 0.928265 -0.585390
v 0.611418 0.874297 -0.562581
v 0.665970 0.863235 -0.509662
v 0.703362 0.917204 -0.532471
v 0.790763 0.804051 -0.723237
v 0.747655 0.795092 -0.686035
v 0.786182 0.781503 -0.645915
v 0.829290 0.790463 -0.683117
v 0.851029 0.653584 -0.784013
v 0.850867 0.562218 -0.800448
v 0.894559 0.548657 -0.766014
v 0.889557 0.639996 -0.743893
v 0.231073 0.680511 0.215235
v 0.314764 0.600674 0.285925
v 0.211748 0.586451 0.385818
v 0.128057 0.666288 0.315129
v 0.371120 0.897965 0.436948
v 0.408232 0.809014 0.437675
v 0.329755 0.785735 0.511556
v 0.292643 0.874685 0.510829
v 0.560409 0.927804 0.672844
v 0.539145 0.873920 0.634434
v 0.484504 0.862288 0.687139
v 0.505768 0.916173 0.725549
v 0.694135 0.803547 0.818648
v 0.658433 0.794626 0.774281
v 0.617130 0.780622 0.811383
v 0.652832 0.789543 0.855750
v 0.753687 0.653076 0.880114
v 0.770611 0.561799 0.880022
v 0.734819 0.547823 0.922475
v 0.712384 0.639071 0.917216
v -0.121472 -0.419177 0.000000
v 0.002676 -0.418113 -0.124149
v 0.002676 -0.418113 0.124149
v 0.126824 -0.417049 0.000000
v -0.000831 -0.200610 -0.259843
v 0.259009 -0.199255 0.000000
v -0.260670 -0.201966 0.000000
v -0.000831 -0.200610 0.259843
v 0.003085 -0.521548 0.000000
vt 0.145932 0.422002
vt 0.184086 0.325615
vt 0.211545 0.411618
vt 0.216539 0.529815
vt 0.453288 0.527174
vt 0.387172 0.419745
vt 0.451758 0.408245
vt 0.735849 0.813737
vt 0.730765 0.769474
vt 0.759402 0.773639
vt 0.710014 0.588390
vt 0.640846 0.496808
vt 0.698633 0.483339
vt 0.952326 0.588976
vt 0.884144 0.496781
vt 0.942023 0.483946
vt 0.910392 0.596692
vt 0.971255 0.770085
vt 0.944228 0.780356
vt 0.668121 0.596534
vt 0.703817 0.780024
vt 0.406485 0.531558
vt 0.455613 0.728255
vt 0.424872 0.736773
vt 0.168994 0.535809
vt 0.226374 0.734246
vt 0.195394 0.744071
vt 0.628801 0.406913
vt 0.672238 0.403911
vt 0.817247 0.494256
vt 0.824149 0.391651
vt 0.869767 0.407134
vt 0.486609 0.314423
vt 0.516945 0.418140
vt 0.912719 0.404385
vt 0.955858 0.397880
vt 0.999813 0.485232
vt 0.999822 0.396188
vt 0.574084 0.492871
vt 0.582827 0.391468
vt 0.756523 0.484078
vt 0.715637 0.397938
vt 0.759402 0.396255
vt 0.391545 0.319280
vt 0.440091 0.317964
vt 0.315507 0.401807
vt 0.260774 0.350618
vt 0.344365 0.291080
vt 0.089240 0.301179
vt 0.159325 0.237012
vt 0.136866 0.324702
vt 0.071398 0.411344
vt 0.232165 0.319361
vt 0.276274 0.416298
vt 0.011333 0.366520
vt 0.131132 0.226335
vt 0.136679 0.159048
vt 0.162428 0.159569
vt 0.186102 0.259876
vt 0.097434 0.223554
vt 0.220099 0.262213
vt 0.181677 0.164408
vt 0.183659 0.115705
vt 0.195947 0.120915
vt 0.221474 0.185566
vt 0.199029 0.180273
vt 0.187675 0.070487
vt 0.199694 0.070583
vt 0.209400 0.128998
vt 0.167832 0.113314
vt 0.224959 0.130002
vt 0.230436 0.083440
vt 0.233314 0.012331
vt 0.244461 0.010497
vt 0.218738 0.084113
vt 0.209282 0.076844
vt 0.213748 0.032310
vt 0.220949 0.037921
vt 0.419156 0.230098
vt 0.391409 0.217777
vt 0.400755 0.150637
vt 0.426512 0.152601
vt 0.444615 0.254104
vt 0.357753 0.213008
vt 0.478522 0.258383
vt 0.445520 0.158517
vt 0.450214 0.109870
vt 0.462225 0.115770
vt 0.484169 0.181896
vt 0.462021 0.175358
vt 0.456756 0.064830
vt 0.468781 0.065595
vt 0.475242 0.124610
vt 0.434504 0.106592
vt 0.490758 0.126482
vt 0.498838 0.080180
vt 0.505684 0.009159
vt 0.516945 0.007945
vt 0.487090 0.080201
vt 0.478030 0.072397
vt 0.484984 0.028067
vt 0.491880 0.034086
vt 0.880235 0.319263
vt 0.980951 0.320352
vt 0.944631 0.245160
vt 0.972669 0.227798
vt 0.913048 0.339521
vt 0.950625 0.341469
vt 0.888749 0.225602
vt 0.875607 0.153805
vt 0.895545 0.157654
vt 0.862876 0.225148
vt 0.915612 0.241965
vt 0.964553 0.151295
vt 0.929509 0.092969
vt 0.942009 0.083885
vt 0.918537 0.165317
vt 0.942840 0.161773
vt 0.909592 0.007160
vt 0.920428 0.002061
vt 0.915592 0.098056
vt 0.900761 0.091556
vt 0.889858 0.031264
vt 0.901803 0.036950
vt 0.887378 0.086776
vt 0.932022 0.030106
vt 0.639441 0.317892
vt 0.739533 0.319636
vt 0.703889 0.244626
vt 0.731901 0.227515
vt 0.671893 0.338225
vt 0.709234 0.340616
vt 0.648301 0.224837
vt 0.635585 0.153200
vt 0.655440 0.157147
vt 0.622505 0.224259
vt 0.674987 0.241275
vt 0.724263 0.151199
vt 0.689660 0.092857
vt 0.702173 0.083872
vt 0.678316 0.164913
vt 0.702558 0.161518
vt 0.670290 0.007204
vt 0.681121 0.002182
vt 0.675758 0.097849
vt 0.661011 0.091286
vt 0.650481 0.031121
vt 0.662357 0.036857
vt 0.647696 0.086446
vt 0.692520 0.030204
vt 0.752564 0.586858
vt 0.264333 0.531224
vt 0.258156 0.741035
vt 0.994848 0.587866
vt 0.999822 0.774530
vt 0.500200 0.530474
vt 0.486542 0.736063
vt 0.228791 0.784223
vt 0.456178 0.777363
vt 0.975894 0.814354
vt 0.759758 0.459751
vt 0.517301 0.456977
vt 0.312468 0.248961
vt 0.052265 0.262658
vt 0.219966 0.004102
vt 0.492781 0.000178
vt 0.848190 0.314517
vt 0.898006 0.000178
vt 0.607536 0.313160
vt 0.658780 0.000178
vn -0.0987 -0.2710 0.9575
vn -0.0967 -0.3232 0.9414
vn -0.9397 -0.3276 -0.0984
vn 0.1986 -0.7527 0.6277
vn 0.9431 -0.3178 0.0984
vn 0.1001 -0.3222 -0.9414
vn 0.2560 -0.5087 -0.8220
vn 0.8273 -0.5021 0.2519
vn -0.8150 -0.5223 -0.2509
vn -0.2467 -0.5158 0.8204
vn 0.6888 0.3988 -0.6054
vn -0.5777 0.5850 0.5692
vn -0.0972 -0.3115 -0.9453
vn -0.6546 0.3706 -0.6589
vn 0.7091 -0.0649 -0.7021
vn 0.6500 0.3797 0.6582
vn -0.5337 0.5903 -0.6055
vn -0.7036 0.3560 0.6150
vn 0.6577 -0.0701 0.7500
vn -0.6810 -0.3346 0.6514
vn -0.0015 0.2798 0.9601
vn 0.9763 0.2163 0.0000
vn 0.6602 0.3617 -0.6582
vn 0.9721 0.2346 0.0000
vn -0.9506 -0.2941 0.0995
vn -0.0011 0.2071 -0.9783
vn -0.8007 -0.2446 -0.5468
vn 0.6498 0.3846 0.6556
vn -0.7762 -0.0633 -0.6273
vn -0.6733 0.0831 0.7347
vn -0.0419 0.9831 -0.1782
vn -0.4539 -0.6578 0.6011
vn 0.3247 0.7433 -0.5849
vn 0.7176 0.1641 0.6768
vn -0.6862 -0.2050 -0.6979
vn 0.6429 0.3047 0.7027
vn -0.7491 -0.2418 -0.6167
vn -0.0595 -0.9313 0.3594
vn 0.5972 -0.5622 -0.5721
vn 0.4541 -0.8784 -0.1486
vn -0.4520 0.8374 0.3074
vn 0.6557 0.1190 0.7456
vn -0.7135 0.1110 0.6918
vn -0.6927 0.4822 0.5363
vn 0.5934 0.1528 0.7902
vn -0.6829 -0.0475 -0.7290
vn 0.6426 0.3616 0.6755
vn 0.5645 -0.2375 -0.7905
vn -0.6709 0.3777 0.6382
vn 0.6435 -0.0559 -0.7634
vn -0.7250 0.0481 -0.6870
vn 0.1738 0.9842 -0.0331
vn -0.5882 -0.6585 -0.4696
vn 0.5741 0.7446 0.3405
vn -0.6923 0.1568 0.7044
vn 0.7129 -0.1977 -0.6728
vn -0.7174 0.2976 0.6299
vn 0.6333 -0.2346 -0.7375
vn -0.3531 -0.9328 -0.0718
vn 0.5627 -0.5624 0.6059
vn 0.1439 -0.8801 0.4525
vn -0.3025 0.8382 -0.4539
vn -0.7595 0.1117 0.6408
vn -0.6775 0.1112 -0.7270
vn -0.5245 0.4831 -0.7011
vn -0.8031 0.1456 0.5778
vn 0.7431 -0.0400 -0.6680
vn -0.6597 0.3746 0.6515
vn 0.7837 -0.2364 0.5744
vn -0.6377 0.4264 -0.6415
vn 0.7555 -0.0535 0.6529
vn 0.6973 0.1175 -0.7071
vn 0.0254 0.9834 0.1794
vn 0.4813 -0.6529 -0.5849
vn -0.3525 0.7398 0.5731
vn -0.6953 0.1568 -0.7014
vn 0.6637 -0.1980 0.7213
vn -0.6212 0.2981 -0.7247
vn 0.7297 -0.2341 0.6425
vn 0.0817 -0.9305 -0.3570
vn -0.6108 -0.5685 0.5511
vn -0.4499 -0.8832 0.1329
vn 0.4537 0.8421 -0.2916
vn -0.6306 0.1123 -0.7679
vn 0.7359 0.1186 -0.6666
vn 0.7058 0.4895 -0.5120
vn -0.5672 0.1468 -0.8104
vn 0.6576 -0.0405 0.7523
vn -0.6132 0.3708 -0.6975
vn -0.5988 -0.2436 0.7630
vn 0.6918 0.3895 -0.6080
vn -0.6737 -0.0536 0.7371
vn 0.6871 0.0885 0.7212
vn -0.1854 0.9823 0.0245
vn 0.5721 -0.6524 0.4971
vn -0.5651 0.7386 -0.3675
vn 0.7232 0.1642 -0.6708
vn -0.7419 -0.2053 0.6383
vn 0.7433 0.3052 -0.5952
vn -0.6650 -0.2413 0.7067
vn 0.3591 -0.9291 0.0886
vn -0.5275 -0.5681 -0.6317
vn -0.1131 -0.8814 -0.4586
vn 0.2719 0.8412 0.4675
vn 0.7878 0.1197 -0.6041
vn 0.6411 0.1181 0.7583
vn 0.4857 0.4884 0.7250
vn 0.8280 0.1541 -0.5392
vn -0.7735 -0.0479 0.6320
vn 0.2560 -0.5087 0.8220
vn -0.8150 -0.5223 0.2509
vn 0.8273 -0.5021 -0.2519
vn -0.2467 -0.5158 -0.8204
vn -0.6230 -0.7581 0.1927
vn -0.6230 -0.7581 -0.1927
vn 0.1986 -0.7527 -0.6277
vn 0.9359 -0.2016 -0.2887
vn 0.2898 -0.2050 0.9349
vn -0.9338 -0.2114 0.2887
vn -0.2877 -0.2080 -0.9349
vn 0.6436 0.4049 0.6495
vn -0.2877 -0.2080 0.9349
vn -0.9338 -0.2114 -0.2887
vn 0.6332 -0.7498 0.1919
vn 0.9359 -0.2016 0.2887
vn 0.2898 -0.2050 -0.9349
vn 0.2565 -0.5084 -0.8220
vn 0.8272 -0.5009 0.2547
vn -0.8150 -0.5215 -0.2525
vn -0.2507 -0.5141 0.8203
vn -0.0014 0.2611 -0.9653
vn -0.0012 0.2287 0.9735
vn -0.6665 -0.0779 -0.7414
vn -0.9747 0.2237 0.0000
vn 0.1010 -0.2888 -0.9521
vn 0.9537 -0.2839 -0.0995
vn -0.9800 0.1989 0.0000
vn 0.1004 -0.3116 0.9449
vn 0.9589 -0.2655 0.1001
vn -0.9446 0.3130 -0.0986
vn 0.5434 0.6136 0.5729
vn 0.6753 0.3562 -0.6458
vn 0.5833 0.4004 -0.7066
vn 0.5702 0.5916 -0.5699
vn -0.7083 -0.0452 0.7044
vn -0.6552 0.3729 -0.6570
vn -0.7770 -0.0618 -0.6265
vn 0.6124 0.3054 0.7292
vn -0.7032 0.0756 -0.7069
vn -0.7042 0.1223 0.6994
vn -0.0716 0.9704 -0.2308
vn -0.4224 -0.6281 0.6535
vn 0.3637 0.7740 -0.5183
vn 0.7335 0.2739 0.6221
vn -0.7064 -0.1819 -0.6841
vn 0.6799 0.1481 0.7182
vn -0.7422 -0.2704 -0.6132
vn -0.0828 -0.9479 0.3077
vn 0.6789 -0.5345 -0.5034
vn 0.3667 -0.9092 -0.1969
vn -0.5333 0.8064 0.2558
vn 0.6851 0.0816 0.7238
vn -0.6210 0.2065 0.7561
vn 0.6829 0.0475 0.7290
vn -0.5729 -0.1746 -0.8008
vn 0.6924 0.4010 0.5999
vn 0.6426 -0.0544 -0.7642
vn -0.7432 0.2983 0.5988
vn 0.7161 0.0734 -0.6941
vn -0.6684 0.1126 -0.7352
vn 0.2270 0.9719 -0.0618
vn -0.6413 -0.6293 -0.4390
vn 0.5066 0.7747 0.3783
vn -0.6385 0.2667 0.7220
vn 0.6994 -0.1745 -0.6931
vn -0.7328 0.1408 0.6657
vn 0.6298 -0.2633 -0.7308
vn -0.3009 -0.9490 -0.0941
vn 0.4921 -0.5354 0.6864
vn 0.1942 -0.9101 0.3660
vn -0.2490 0.8078 -0.5342
vn -0.7382 0.0742 0.6705
vn -0.7443 0.2059 -0.6353
vn -0.5245 0.4831 -0.7010
vn -0.7431 0.0400 0.6680
vn 0.8134 -0.1673 -0.5572
vn -0.6090 0.4016 0.6840
vn 0.7554 -0.0538 0.6531
vn -0.5847 0.3052 -0.7517
vn 0.7027 0.0510 0.7096
vn 0.7043 0.1272 -0.6984
vn 0.0534 0.9710 0.2330
vn 0.4514 -0.6236 -0.6383
vn -0.3896 0.7700 0.5052
vn -0.7142 0.2663 -0.6472
vn 0.6840 -0.1746 0.7082
vn -0.6560 0.1412 -0.7414
vn 0.7232 -0.2628 0.6387
vn 0.1033 -0.9469 -0.3044
vn -0.6904 -0.5416 0.4796
vn -0.3639 -0.9130 0.1842
vn 0.5334 0.8119 -0.2372
vn -0.6604 0.0746 -0.7472
vn 0.6447 0.2131 -0.7341
vn -0.6576 0.0405 -0.7523
vn 0.5465 -0.1687 0.8203
vn -0.6635 0.4098 -0.6259
vn -0.6775 -0.0613 0.7329
vn 0.7670 0.3036 -0.5653
vn -0.7489 0.0950 0.6559
vn 0.6535 0.1259 0.7464
vn -0.2398 0.9695 0.0507
vn 0.6263 -0.6227 0.4691
vn -0.4962 0.7695 -0.4021
vn 0.6692 0.2735 -0.6910
vn -0.7296 -0.1820 0.6592
vn 0.7620 0.1486 -0.6303
vn -0.6609 -0.2700 0.7002
vn 0.3059 -0.9459 0.1084
vn -0.4535 -0.5404 -0.7088
vn -0.1671 -0.9120 -0.3745
vn 0.2150 0.8103 0.5452
vn 0.7683 0.0820 -0.6348
vn 0.7112 0.2135 0.6698
vn 0.7735 0.0479 -0.6320
vn -0.8371 -0.1760 0.5180
vn 0.2565 -0.5084 0.8220
vn -0.8150 -0.5215 0.2525
vn 0.8272 -0.5009 -0.2547
vn -0.2507 -0.5141 -0.8203
vn -0.1859 -0.7552 0.6286
vn -0.1859 -0.7552 -0.6286
vn 0.6332 -0.7498 -0.1919
vn 0.9431 -0.3178 -0.0984
vn 0.1001 -0.3222 0.9414
vn -0.9397 -0.3276 0.0984
vn -0.0967 -0.3232 -0.9414
s off
f 13/1/1 31/2/1 7/3/1
f 10/4/2 13/1/2 7/3/2
f 12/5/3 15/6/3 5/7/3
f 122/8/4 4/9/4 116/10/4
f 11/11/5 14/12/5 3/13/5
f 9/14/6 16/15/6 1/16/6
f 118/17/7 2/18/7 115/19/7
f 119/20/8 4/9/8 117/21/8
f 120/22/9 6/23/9 114/24/9
f 121/25/10 8/26/10 116/27/10
f 14/12/11 25/28/11 22/29/11
f 17/30/12 20/31/12 21/32/12
f 5/7/13 28/33/13 16/34/13
f 16/15/14 21/32/14 18/35/14
f 1/16/15 18/35/15 19/36/15
f 14/37/16 19/36/16 20/38/16
f 17/39/17 24/40/17 25/28/17
f 13/41/18 23/42/18 24/43/18
f 3/13/19 22/29/19 23/42/19
f 5/7/20 26/44/20 27/45/20
f 17/46/21 26/44/21 15/6/21
f 16/47/22 29/48/22 17/46/22
f 33/49/23 34/50/23 30/51/23
f 17/52/24 30/51/24 13/1/24
f 7/3/25 32/53/25 15/54/25
f 15/55/26 33/49/26 17/52/26
f 37/56/27 40/57/27 41/58/27
f 30/51/28 35/59/28 31/2/28
f 33/49/29 36/60/29 37/56/29
f 32/53/30 35/59/30 36/61/30
f 38/62/31 45/63/31 42/64/31
f 35/59/32 40/65/32 36/61/32
f 34/50/33 41/58/33 38/62/33
f 34/50/34 39/66/34 35/59/34
f 45/63/35 48/67/35 49/68/35
f 38/62/36 43/69/36 39/66/36
f 41/58/37 44/70/37 45/63/37
f 39/66/38 44/71/38 40/65/38
f 48/72/39 51/73/39 52/74/39
f 44/71/40 47/75/40 48/72/40
f 45/63/41 46/76/41 42/64/41
f 42/64/42 47/75/42 43/69/42
f 53/77/43 51/73/43 50/78/43
f 49/68/44 50/78/44 46/76/44
f 47/75/45 50/78/45 51/73/45
f 48/67/46 53/77/46 49/68/46
f 29/48/47 54/79/47 26/44/47
f 57/80/48 60/81/48 61/82/48
f 26/44/49 55/83/49 27/45/49
f 29/48/50 56/84/50 57/80/50
f 28/33/51 55/83/51 56/85/51
f 58/86/52 65/87/52 62/88/52
f 55/83/53 60/89/53 56/85/53
f 54/79/54 61/82/54 58/86/54
f 54/79/55 59/90/55 55/83/55
f 65/87/56 68/91/56 69/92/56
f 58/86/57 63/93/57 59/90/57
f 61/82/58 64/94/58 65/87/58
f 59/90/59 64/95/59 60/89/59
f 68/96/60 71/97/60 72/98/60
f 64/95/61 67/99/61 68/96/61
f 65/87/62 66/100/62 62/88/62
f 62/88/63 67/99/63 63/93/63
f 73/101/64 71/97/64 70/102/64
f 69/92/65 70/102/65 66/100/65
f 67/99/66 70/102/66 71/97/66
f 68/91/67 73/101/67 69/92/67
f 20/31/68 74/103/68 21/32/68
f 77/104/69 80/105/69 81/106/69
f 21/32/70 75/107/70 18/35/70
f 20/38/71 76/108/71 77/104/71
f 19/36/72 75/107/72 76/108/72
f 78/109/73 85/110/73 82/111/73
f 75/107/74 80/105/74 76/108/74
f 74/103/75 81/112/75 78/109/75
f 74/103/76 79/113/76 75/107/76
f 85/114/77 88/115/77 89/116/77
f 78/109/78 83/117/78 79/113/78
f 81/106/79 84/118/79 85/114/79
f 79/113/80 84/118/80 80/105/80
f 88/115/81 91/119/81 92/120/81
f 84/118/82 87/121/82 88/115/82
f 85/110/83 86/122/83 82/111/83
f 82/111/84 87/121/84 83/117/84
f 93/123/85 91/119/85 90/124/85
f 89/125/86 90/124/86 86/122/86
f 87/121/87 90/124/87 91/119/87
f 88/115/88 93/126/88 89/116/88
f 24/40/89 94/127/89 25/28/89
f 97/128/90 100/129/90 101/130/90
f 25/28/91 95/131/91 22/29/91
f 24/43/92 96/132/92 97/128/92
f 23/42/93 95/131/93 96/132/93
f 98/133/94 105/134/94 102/135/94
f 95/131/95 100/129/95 96/132/95
f 94/127/96 101/136/96 98/133/96
f 94/127/97 99/137/97 95/131/97
f 105/138/98 108/139/98 109/140/98
f 98/133/99 103/141/99 99/137/99
f 101/130/100 104/142/100 105/138/100
f 99/137/101 104/142/101 100/129/101
f 108/139/102 111/143/102 112/144/102
f 104/142/103 107/145/103 108/139/103
f 105/134/104 106/146/104 102/135/104
f 102/135/105 107/145/105 103/141/105
f 113/147/106 111/143/106 110/148/106
f 109/149/107 110/148/107 106/146/107
f 107/145/108 110/148/108 111/143/108
f 108/139/109 113/150/109 109/140/109
f 4/9/110 121/151/110 116/10/110
f 8/26/111 120/152/111 114/153/111
f 2/18/112 119/154/112 117/155/112
f 6/23/113 118/156/113 115/157/113
f 122/158/114 8/26/114 114/153/114
f 6/23/115 122/159/115 114/24/115
f 2/18/116 122/160/116 115/19/116
f 9/14/117 14/37/117 119/154/117
f 11/11/118 13/41/118 121/151/118
f 10/4/119 15/54/119 120/152/119
f 12/5/120 16/34/120 118/156/120
f 13/1/121 30/51/121 31/2/121
f 10/4/122 121/25/122 13/1/122
f 12/5/123 120/22/123 15/6/123
f 122/8/124 117/21/124 4/9/124
f 11/11/125 119/20/125 14/12/125
f 9/14/126 118/17/126 16/15/126
f 118/17/127 9/14/127 2/18/127
f 119/20/128 11/11/128 4/9/128
f 120/22/129 12/5/129 6/23/129
f 121/25/130 10/4/130 8/26/130
f 14/12/131 17/39/131 25/28/131
f 17/30/132 14/161/132 20/31/132
f 5/7/133 27/45/133 28/33/133
f 16/15/134 17/30/134 21/32/134
f 1/16/135 16/15/135 18/35/135
f 14/37/136 1/16/136 19/36/136
f 17/39/137 13/162/137 24/40/137
f 13/41/138 3/13/138 23/42/138
f 3/13/139 14/12/139 22/29/139
f 5/7/140 15/6/140 26/44/140
f 17/46/141 29/48/141 26/44/141
f 16/47/142 28/163/142 29/48/142
f 33/49/143 37/56/143 34/50/143
f 17/52/144 33/49/144 30/51/144
f 7/3/145 31/2/145 32/53/145
f 15/55/146 32/164/146 33/49/146
f 37/56/147 36/60/147 40/57/147
f 30/51/148 34/50/148 35/59/148
f 33/49/149 32/164/149 36/60/149
f 32/53/150 31/2/150 35/59/150
f 38/62/151 41/58/151 45/63/151
f 35/59/152 39/66/152 40/65/152
f 34/50/153 37/56/153 41/58/153
f 34/50/154 38/62/154 39/66/154
f 45/63/155 44/70/155 48/67/155
f 38/62/156 42/64/156 43/69/156
f 41/58/157 40/57/157 44/70/157
f 39/66/158 43/69/158 44/71/158
f 48/72/159 47/75/159 51/73/159
f 44/71/160 43/69/160 47/75/160
f 45/63/161 49/68/161 46/76/161
f 42/64/162 46/76/162 47/75/162
f 53/77/163 52/165/163 51/73/163
f 49/68/44 53/77/44 50/78/44
f 47/75/164 46/76/164 50/78/164
f 48/67/165 52/165/165 53/77/165
f 29/48/166 57/80/166 54/79/166
f 57/80/167 56/84/167 60/81/167
f 26/44/168 54/79/168 55/83/168
f 29/48/169 28/163/169 56/84/169
f 28/33/170 27/45/170 55/83/170
f 58/86/171 61/82/171 65/87/171
f 55/83/172 59/90/172 60/89/172
f 54/79/173 57/80/173 61/82/173
f 54/79/174 58/86/174 59/90/174
f 65/87/175 64/94/175 68/91/175
f 58/86/176 62/88/176 63/93/176
f 61/82/177 60/81/177 64/94/177
f 59/90/178 63/93/178 64/95/178
f 68/96/179 67/99/179 71/97/179
f 64/95/180 63/93/180 67/99/180
f 65/87/181 69/92/181 66/100/181
f 62/88/182 66/100/182 67/99/182
f 73/101/183 72/166/183 71/97/183
f 69/92/184 73/101/184 70/102/184
f 67/99/185 66/100/185 70/102/185
f 68/91/186 72/166/186 73/101/186
f 20/31/187 77/167/187 74/103/187
f 77/104/188 76/108/188 80/105/188
f 21/32/189 74/103/189 75/107/189
f 20/38/190 19/36/190 76/108/190
f 19/36/191 18/35/191 75/107/191
f 78/109/192 81/112/192 85/110/192
f 75/107/193 79/113/193 80/105/193
f 74/103/194 77/167/194 81/112/194
f 74/103/195 78/109/195 79/113/195
f 85/114/196 84/118/196 88/115/196
f 78/109/197 82/111/197 83/117/197
f 81/106/198 80/105/198 84/118/198
f 79/113/199 83/117/199 84/118/199
f 88/115/200 87/121/200 91/119/200
f 84/118/201 83/117/201 87/121/201
f 85/110/202 89/125/202 86/122/202
f 82/111/203 86/122/203 87/121/203
f 93/123/204 92/168/204 91/119/204
f 89/125/86 93/123/86 90/124/86
f 87/121/205 86/122/205 90/124/205
f 88/115/206 92/120/206 93/126/206
f 24/40/207 97/169/207 94/127/207
f 97/128/208 96/132/208 100/129/208
f 25/28/209 94/127/209 95/131/209
f 24/43/210 23/42/210 96/132/210
f 23/42/211 22/29/211 95/131/211
f 98/133/212 101/136/212 105/134/212
f 95/131/213 99/137/213 100/129/213
f 94/127/214 97/169/214 101/136/214
f 94/127/215 98/133/215 99/137/215
f 105/138/216 104/142/216 108/139/216
f 98/133/217 102/135/217 103/141/217
f 101/130/218 100/129/218 104/142/218
f 99/137/219 103/141/219 104/142/219
f 108/139/220 107/145/220 111/143/220
f 104/142/221 103/141/221 107/145/221
f 105/134/222 109/149/222 106/146/222
f 102/135/223 106/146/223 107/145/223
f 113/147/224 112/170/224 111/143/224
f 109/149/107 113/147/107 110/148/107
f 107/145/225 106/146/225 110/148/225
f 108/139/226 112/144/226 113/150/226
f 4/9/227 11/11/227 121/151/227
f 8/26/228 10/4/228 120/152/228
f 2/18/229 9/14/229 119/154/229
f 6/23/230 12/5/230 118/156/230
f 122/158/231 116/27/231 8/26/231
f 6/23/232 115/157/232 122/159/232
f 2/18/233 117/155/233 122/160/233
f 9/14/234 1/16/234 14/37/234
f 11/11/235 3/13/235 13/41/235
f 10/4/236 7/3/236 15/54/236
f 12/5/237 5/7/237 16/34/237
