# Blender v2.91.0 OBJ File: 'stonespear.blend'
# www.blender.org
o stonespear_Cube.002
v -0.028255 0.187968 -2.174531
v -0.076035 0.207542 2.015452
v -0.028255 -0.030379 -2.174531
v -0.076035 -0.049953 2.015452
v 0.028259 0.187968 -2.174531
v 0.076039 0.207542 2.015452
v 0.028259 -0.030379 -2.174531
v 0.076039 -0.049953 2.015452
v -0.076035 0.207542 -1.381439
v 0.076039 0.016474 -1.381439
v -0.076035 0.016474 -1.381439
v 0.076039 0.207542 -1.381439
v 0.106332 0.078794 2.015452
v 0.000002 0.258834 2.015452
v 0.000002 -0.073874 -2.174531
v -0.039513 0.078795 -2.174531
v 0.000002 -0.101245 2.015452
v 0.039516 0.078795 -2.174531
v 0.000002 0.231463 -2.174531
v -0.106328 0.078794 2.015452
v 0.000002 0.258834 -1.381439
v -0.106328 0.078795 -1.381439
v 0.106332 0.078795 -1.381439
v 0.000002 -0.034818 -1.381439
v 0.000002 0.078794 2.053317
v -0.000471 0.078795 -2.485220
v -0.076035 0.195826 -0.617183
v -0.076035 0.004352 -0.617183
v 0.076039 0.195826 -0.617183
v 0.076039 0.004352 -0.617183
v 0.000002 -0.033789 -0.617183
v 0.106332 0.100089 -0.617183
v -0.106328 0.100089 -0.617183
v 0.000002 0.233968 -0.617183
v -0.076035 0.185684 1.832989
v -0.076035 0.027495 1.832989
v 0.076039 0.185684 1.832989
v 0.000002 -0.004016 1.832989
v 0.106332 0.106590 1.832989
v -0.106328 0.106590 1.832989
v 0.000002 0.217195 1.832989
v 0.076039 0.027495 1.832989
v 0.076039 0.022784 1.134658
v -0.076035 0.197615 1.134658
v -0.076035 0.022784 1.134658
v 0.076039 0.197615 1.134658
v 0.000002 -0.012042 1.134658
v 0.106332 0.110199 1.134658
v -0.106328 0.110199 1.134658
v 0.000002 0.232441 1.134658
v 0.076039 0.021946 0.294467
v -0.076035 0.205099 0.294467
v -0.076035 0.021946 0.294467
v 0.076039 0.205099 0.294467
v 0.000002 -0.014537 0.294467
v 0.106332 0.113523 0.294467
v -0.106328 0.113523 0.294467
v 0.000002 0.241583 0.294467
v 0.089026 -0.005516 -1.380431
v 0.089026 -0.071943 -1.699700
v 0.000002 -0.131997 -1.699700
v -0.124490 0.078795 -1.699700
v -0.089023 -0.071943 -1.699700
v 0.124493 0.078795 -1.699700
v 0.089026 0.229532 -1.699700
v 0.000002 0.289586 -1.699700
v -0.089023 0.229532 -1.699700
v -0.089023 0.229532 -1.380431
v -0.089023 -0.005516 -1.380431
v 0.089026 0.229532 -1.380431
v 0.000002 0.289586 -1.380431
v -0.124490 0.078795 -1.380431
v 0.124493 0.078795 -1.380431
v 0.000002 -0.065570 -1.380431
v 0.000002 0.314151 -1.676710
v -0.042793 0.315695 -1.668511
v -0.042793 0.315695 -1.605063
v 0.042796 0.315695 -1.668511
v 0.042796 0.315695 -1.605063
v 0.000002 0.314151 -1.596864
v -0.053853 0.315695 -1.636788
v 0.053856 0.315695 -1.636788
v -0.049414 0.218537 -1.785318
v 0.069105 0.078795 -1.785318
v 0.049418 0.218537 -1.785318
v 0.000002 0.274210 -1.785318
v 0.049418 -0.060948 -1.785318
v 0.000002 -0.116621 -1.785318
v -0.049414 -0.060948 -1.785318
v -0.069101 0.078795 -1.785318
vt 0.776458 0.303383
vt 0.776551 0.014968
vt 0.806219 0.298263
vt 0.402429 0.655870
vt 0.452246 0.736477
vt 0.388294 0.738935
vt 0.409492 0.952396
vt 0.343079 0.975903
vt 0.411265 0.941007
vt 0.060921 0.050196
vt 0.044348 0.069704
vt 0.030011 0.063947
vt 0.912681 0.636622
vt 0.833824 0.722078
vt 0.823922 0.644375
vt 0.500786 0.655613
vt 0.451716 0.658946
vt 0.157386 0.754882
vt 0.159976 0.957929
vt 0.142098 0.756257
vt 0.136297 0.959797
vt 0.106093 0.759455
vt 0.124078 0.757858
vt 0.190665 0.751601
vt 0.192666 0.954857
vt 0.172662 0.753385
vt 0.245084 0.949189
vt 0.208633 0.749820
vt 0.223845 0.748292
vt 0.107420 0.962125
vt 0.090862 0.760788
vt 0.216278 0.952282
vt 0.727821 0.960724
vt 0.684814 0.968869
vt 0.728048 0.947840
vt 0.311567 0.645766
vt 0.298578 0.735448
vt 0.120891 0.044561
vt 0.140807 0.060640
vt 0.124242 0.064717
vt 0.106707 0.066423
vt 0.078928 0.069034
vt 0.092295 0.062161
vt 0.776024 0.948706
vt 0.776034 0.933690
vt 0.454269 0.944653
vt 0.497542 0.940115
vt 0.499830 0.951900
vt 0.746707 0.298217
vt 0.870874 0.283652
vt 0.421100 0.301754
vt 0.355307 0.286692
vt 0.451950 0.013231
vt 0.149843 0.513244
vt 0.134814 0.514663
vt 0.102566 0.517682
vt 0.119783 0.516068
vt 0.184295 0.509996
vt 0.167060 0.511622
vt 0.070233 0.520650
vt 0.085329 0.519296
vt 0.199379 0.508515
vt 0.096671 0.108739
vt 0.061382 0.070623
vt 0.051631 0.112371
vt 0.126649 0.106130
vt 0.156685 0.101884
vt 0.153821 0.052314
vt 0.036431 0.113183
vt 0.141600 0.103917
vt 0.066733 0.111760
vt 0.099211 0.295453
vt 0.081834 0.110321
vt 0.082637 0.296858
vt 0.145503 0.290951
vt 0.111543 0.107529
vt 0.161914 0.289259
vt 0.066198 0.298253
vt 0.128958 0.292658
vt 0.114091 0.294124
vt 0.176935 0.287700
vt 0.051150 0.299519
vt 0.630107 0.724693
vt 0.454150 0.930800
vt 0.434047 0.804645
vt 0.453078 0.810889
vt 0.431847 0.784016
vt 0.600544 0.732882
vt 0.572194 0.973648
vt 0.824001 0.947906
vt 0.922249 0.724891
vt 0.867206 0.968994
vt 0.824210 0.960790
vt 0.776180 0.719024
vt 0.776228 0.646974
vt 0.566124 0.981606
vt 0.639796 0.636441
vt 0.718533 0.722000
vt 0.728538 0.644312
vt 0.859626 0.975671
vt 0.589610 0.645545
vt 0.516511 0.737234
vt 0.473794 0.783244
vt 0.472032 0.804136
vt 0.435563 0.765118
vt 0.470028 0.764671
vt 0.452520 0.759202
vt 0.976178 0.943980
vt 0.958849 0.987107
vt 0.934709 0.922992
vt 0.979738 0.971726
vt 0.933003 0.989322
vt 0.917380 0.966119
vt 0.913820 0.938373
vt 0.960554 0.920777
vt 0.451445 0.307038
vt 0.682067 0.283535
vt 0.481782 0.301809
vt 0.547558 0.287010
vt 0.349089 0.983042
vt 0.176339 0.956591
vt 0.123867 0.960773
vt 0.228672 0.950926
vt 0.692385 0.975556
vn 0.8098 -0.5261 -0.2597
vn 0.5253 0.7787 -0.3430
vn -0.0555 -0.0130 0.9984
vn -0.1375 -0.2039 0.9693
vn 0.8941 -0.1260 -0.4298
vn -0.7426 0.6592 -0.1184
vn -0.4483 0.8938 0.0137
vn -0.9534 -0.3017 0.0084
vn 0.9534 0.3017 0.0046
vn 0.4484 -0.8938 0.0012
vn -0.4484 -0.8938 0.0012
vn 0.9534 -0.3017 0.0084
vn -0.9534 0.3017 0.0046
vn 0.4483 0.8938 0.0137
vn 0.0453 0.0191 0.9988
vn 0.8237 0.1938 -0.5329
vn 0.3344 -0.0787 0.9391
vn 0.3344 0.0787 0.9391
vn -0.1375 0.2039 0.9693
vn 0.0221 0.0328 0.9992
vn 0.0221 -0.0328 0.9992
vn -0.8103 -0.5264 -0.2574
vn 0.9867 -0.1017 -0.1270
vn 0.9867 0.1017 -0.1270
vn 0.4326 0.9016 -0.0075
vn -0.9494 0.3141 -0.0032
vn 0.9494 -0.3141 0.0046
vn -0.4325 -0.9015 0.0174
vn 0.4325 -0.9015 0.0174
vn 0.9494 0.3141 -0.0032
vn -0.9494 -0.3141 0.0046
vn -0.4326 0.9016 -0.0075
vn -0.5495 0.8146 -0.1859
vn -0.9689 -0.2280 -0.0968
vn 0.9728 0.2289 0.0349
vn 0.5115 -0.7583 -0.4041
vn -0.5115 -0.7583 -0.4041
vn 0.9689 -0.2280 -0.0968
vn -0.9728 0.2289 0.0349
vn 0.5495 0.8146 -0.1859
vn -0.3828 0.9237 0.0158
vn -0.9338 -0.3577 -0.0018
vn 0.9338 0.3577 0.0018
vn 0.3828 -0.9238 0.0062
vn -0.3828 -0.9238 0.0062
vn 0.9338 -0.3577 -0.0018
vn -0.9338 0.3577 0.0018
vn 0.3828 0.9237 0.0158
vn -0.4164 0.9091 0.0081
vn -0.9449 -0.3274 0.0003
vn 0.9449 0.3274 0.0013
vn 0.4164 -0.9092 0.0009
vn -0.4164 -0.9092 0.0009
vn 0.9449 -0.3274 0.0003
vn -0.9449 0.3274 0.0013
vn 0.4164 0.9091 0.0081
vn 0.9734 0.2290 0.0000
vn -0.9218 -0.3878 -0.0000
vn -0.0142 0.9935 0.1128
vn 0.9345 0.1436 0.3258
vn -0.9734 0.2290 0.0000
vn 0.9218 -0.3878 0.0000
vn -0.0221 0.0328 0.9992
vn -0.0221 -0.0328 0.9992
vn 0.7426 -0.6592 -0.1184
vn 0.0554 -0.0130 0.9984
vn -0.8237 -0.1938 -0.5329
vn -0.5253 -0.7787 -0.3430
vn -0.0554 0.0269 0.9981
vn -0.8941 0.1260 -0.4298
vn -0.9345 0.1436 0.3258
vn -0.5481 0.8125 0.1988
vn 0.3158 0.4682 -0.8253
vn -0.1145 0.6788 -0.7253
vn -0.5511 -0.8169 0.1700
vn 0.5511 -0.8169 0.1700
vn 0.0286 0.9996 0.0000
vn 0.0386 0.9992 -0.0135
vn -0.0386 0.9992 -0.0135
vn -0.0386 0.9992 0.0135
vn 0.0386 0.9992 0.0135
vn -0.0286 0.9996 0.0000
vn 0.8098 0.5261 -0.2597
vn -0.9870 -0.1018 -0.1240
vn -0.8103 0.5264 -0.2574
vn -0.9870 0.1018 -0.1240
vn -0.9881 0.1392 -0.0647
vn -0.8353 -0.5427 -0.0880
vn -0.9919 -0.1023 -0.0754
vn 0.7459 -0.6621 -0.0727
vn 0.9919 0.1023 -0.0754
vn -0.7459 0.6621 -0.0727
vn 0.9881 -0.1392 -0.0647
vn 0.8353 0.5427 -0.0880
vn 0.7426 0.6592 -0.1184
vn -0.0554 -0.0130 0.9984
vn -0.3344 -0.0787 0.9391
vn 0.8237 -0.1938 -0.5329
vn -0.5253 0.7787 -0.3430
vn -0.5590 0.8287 0.0270
vn -0.8994 -0.4372 -0.0069
vn 0.9734 0.2290 -0.0064
vn 0.5592 -0.8289 -0.0131
vn -0.5592 -0.8289 -0.0131
vn 0.8994 -0.4372 -0.0069
vn -0.9734 0.2290 -0.0064
vn 0.5590 0.8287 0.0270
vn 0.0554 0.0269 0.9981
vn 0.8941 0.1260 -0.4298
vn 0.1375 -0.2039 0.9693
vn 0.1375 0.2039 0.9693
vn -0.3344 0.0787 0.9391
vn 0.4484 0.8938 -0.0091
vn -0.9534 0.3017 -0.0044
vn 0.9534 -0.3017 0.0058
vn -0.4483 -0.8937 0.0189
vn 0.4483 -0.8937 0.0189
vn 0.9534 0.3017 -0.0044
vn -0.9534 -0.3017 0.0058
vn -0.4484 0.8938 -0.0091
vn -0.3805 0.9182 -0.1100
vn -0.9325 -0.3571 -0.0544
vn 0.9330 0.3573 -0.0428
vn 0.3564 -0.8601 -0.3651
vn -0.3564 -0.8601 -0.3651
vn 0.9325 -0.3571 -0.0544
vn -0.9330 0.3573 -0.0428
vn 0.3805 0.9182 -0.1100
vn -0.4163 0.9090 0.0198
vn -0.9449 -0.3274 0.0022
vn 0.9449 0.3274 0.0056
vn 0.4164 -0.9091 0.0104
vn -0.4164 -0.9091 0.0104
vn 0.9449 -0.3274 0.0022
vn -0.9449 0.3274 0.0056
vn 0.4163 0.9090 0.0198
vn -0.4326 0.9015 0.0098
vn -0.9494 -0.3141 -0.0012
vn 0.9494 0.3141 0.0028
vn 0.4326 -0.9016 0.0027
vn -0.4326 -0.9016 0.0027
vn 0.9494 -0.3141 -0.0012
vn -0.9494 0.3141 0.0028
vn 0.4326 0.9015 0.0098
vn -0.9723 -0.2288 0.0476
vn 0.5481 0.8125 0.1988
vn 0.8812 0.4728 0.0000
vn 0.8004 0.5305 -0.2791
vn 0.9723 -0.2288 0.0476
vn 0.5253 -0.7787 -0.3430
vn 0.0555 -0.0130 0.9984
vn -0.8941 -0.1260 -0.4298
vn -0.7426 -0.6592 -0.1184
vn -0.0453 0.0191 0.9988
vn -0.8237 0.1938 -0.5329
vn -0.8004 0.5305 -0.2791
vn -0.8812 0.4728 0.0000
vn 0.0142 0.9935 0.1128
vn 0.1145 0.6788 -0.7253
vn -0.3158 0.4682 -0.8253
vn -0.9919 0.1023 -0.0754
vn -0.7459 -0.6621 -0.0727
vn -0.9881 -0.1392 -0.0647
vn 0.8353 -0.5427 -0.0880
vn 0.9881 0.1392 -0.0647
vn -0.8353 0.5427 -0.0880
vn 0.9919 -0.1023 -0.0754
vn 0.7459 0.6621 -0.0727
s off
f 15/1/1 26/2/1 7/3/1
f 85/4/2 66/5/2 65/6/2
f 12/7/3 73/8/3 70/9/3
f 25/10/4 4/11/4 17/12/4
f 84/13/5 60/14/5 87/15/5
f 83/16/6 66/5/6 86/17/6
f 34/18/7 9/19/7 27/20/7
f 22/21/8 28/22/8 33/23/8
f 32/24/9 12/25/9 29/26/9
f 24/27/10 30/28/10 31/29/10
f 28/22/11 24/30/11 31/31/11
f 30/28/12 23/32/12 32/24/12
f 9/19/13 33/23/13 27/20/13
f 12/25/14 34/18/14 29/26/14
f 11/33/15 72/34/15 69/35/15
f 84/36/16 65/6/16 64/37/16
f 25/38/17 8/39/17 13/40/17
f 6/41/18 25/38/18 13/40/18
f 2/42/19 25/10/19 14/43/19
f 24/44/20 69/35/20 74/45/20
f 21/46/21 68/47/21 9/48/21
f 15/1/22 3/49/22 26/2/22
f 18/50/23 7/3/23 26/2/23
f 5/51/24 18/52/24 26/53/24
f 54/54/25 34/18/25 58/55/25
f 27/20/26 57/56/26 52/57/26
f 51/58/27 32/24/27 56/59/27
f 28/22/28 55/60/28 53/61/28
f 55/62/29 30/28/29 51/58/29
f 56/59/30 29/26/30 54/54/30
f 33/23/31 53/61/31 57/56/31
f 34/18/32 52/57/32 58/55/32
f 41/63/33 2/42/33 14/43/33
f 20/64/34 36/65/34 4/11/34
f 39/66/35 6/41/35 13/40/35
f 38/67/36 8/39/36 17/68/36
f 4/11/37 38/69/37 17/12/37
f 42/70/38 13/40/38 8/39/38
f 2/42/39 40/71/39 20/64/39
f 6/41/40 41/63/40 14/43/40
f 41/63/41 44/72/41 35/73/41
f 49/74/42 36/65/42 40/71/42
f 48/75/43 37/76/43 39/66/43
f 38/67/44 43/77/44 42/70/44
f 45/78/45 38/69/45 36/65/45
f 42/70/46 48/75/46 39/66/46
f 35/73/47 49/74/47 40/71/47
f 46/79/48 41/63/48 37/76/48
f 50/80/49 52/57/49 44/72/49
f 49/74/50 53/61/50 45/78/50
f 56/59/51 46/79/51 48/75/51
f 47/81/52 51/58/52 43/77/52
f 53/61/53 47/82/53 45/78/53
f 51/58/54 48/75/54 43/77/54
f 44/72/55 57/56/55 49/74/55
f 54/54/56 50/80/56 46/79/56
f 64/37/57 70/9/57 73/8/57
f 62/83/58 69/35/58 72/34/58
f 71/84/59 79/85/59 80/86/59
f 65/6/60 82/87/60 79/85/60
f 68/47/61 62/88/61 72/89/61
f 59/90/62 64/91/62 73/92/62
f 24/44/63 59/90/63 10/93/63
f 21/46/64 70/9/64 71/84/64
f 87/15/65 61/94/65 88/95/65
f 9/48/66 72/89/66 22/96/66
f 90/97/67 63/98/67 62/83/67
f 89/99/68 61/94/68 63/98/68
f 10/93/69 73/92/69 23/100/69
f 90/101/70 67/102/70 83/16/70
f 81/103/71 67/102/71 77/104/71
f 71/84/72 77/104/72 68/47/72
f 66/5/73 78/105/73 65/6/73
f 66/5/74 76/106/74 75/107/74
f 63/98/75 74/45/75 69/35/75
f 74/45/76 60/14/76 59/90/76
f 81/108/77 80/109/77 75/110/77
f 81/108/78 77/111/78 80/109/78
f 79/112/79 82/113/79 80/109/79
f 75/110/80 82/113/80 78/114/80
f 75/110/81 76/115/81 81/108/81
f 82/113/82 75/110/82 80/109/82
f 19/116/83 5/51/83 26/53/83
f 16/117/84 26/2/84 3/49/84
f 1/118/85 19/116/85 26/53/85
f 16/119/86 1/118/86 26/53/86
f 1/118/87 90/101/87 83/16/87
f 15/1/88 89/99/88 3/49/88
f 3/49/89 90/97/89 16/117/89
f 15/1/90 87/15/90 88/95/90
f 5/51/91 84/36/91 18/52/91
f 19/116/92 83/16/92 86/17/92
f 7/3/93 84/13/93 87/15/93
f 19/116/94 85/4/94 5/51/94
f 85/4/95 86/17/95 66/5/95
f 12/7/96 23/120/96 73/8/96
f 25/10/97 20/64/97 4/11/97
f 84/13/98 64/91/98 60/14/98
f 83/16/99 67/102/99 66/5/99
f 34/18/100 21/121/100 9/19/100
f 22/21/101 11/122/101 28/22/101
f 32/24/102 23/32/102 12/25/102
f 24/27/103 10/123/103 30/28/103
f 28/22/104 11/122/104 24/30/104
f 30/28/105 10/123/105 23/32/105
f 9/19/106 22/21/106 33/23/106
f 12/25/107 21/121/107 34/18/107
f 11/33/108 22/124/108 72/34/108
f 84/36/109 85/4/109 65/6/109
f 25/38/110 17/68/110 8/39/110
f 6/41/111 14/43/111 25/38/111
f 2/42/112 20/64/112 25/10/112
f 24/44/20 11/33/20 69/35/20
f 21/46/21 71/84/21 68/47/21
f 54/54/113 29/26/113 34/18/113
f 27/20/114 33/23/114 57/56/114
f 51/58/115 30/28/115 32/24/115
f 28/22/116 31/31/116 55/60/116
f 55/62/117 31/29/117 30/28/117
f 56/59/118 32/24/118 29/26/118
f 33/23/119 28/22/119 53/61/119
f 34/18/120 27/20/120 52/57/120
f 41/63/121 35/73/121 2/42/121
f 20/64/122 40/71/122 36/65/122
f 39/66/123 37/76/123 6/41/123
f 38/67/124 42/70/124 8/39/124
f 4/11/125 36/65/125 38/69/125
f 42/70/126 39/66/126 13/40/126
f 2/42/127 35/73/127 40/71/127
f 6/41/128 37/76/128 41/63/128
f 41/63/129 50/80/129 44/72/129
f 49/74/130 45/78/130 36/65/130
f 48/75/131 46/79/131 37/76/131
f 38/67/132 47/81/132 43/77/132
f 45/78/133 47/82/133 38/69/133
f 42/70/134 43/77/134 48/75/134
f 35/73/135 44/72/135 49/74/135
f 46/79/136 50/80/136 41/63/136
f 50/80/137 58/55/137 52/57/137
f 49/74/138 57/56/138 53/61/138
f 56/59/139 54/54/139 46/79/139
f 47/81/140 55/62/140 51/58/140
f 53/61/141 55/60/141 47/82/141
f 51/58/142 56/59/142 48/75/142
f 44/72/143 52/57/143 57/56/143
f 54/54/144 58/55/144 50/80/144
f 64/37/57 65/6/57 70/9/57
f 62/83/145 63/98/145 69/35/145
f 71/84/146 70/9/146 79/85/146
f 79/85/147 70/9/147 65/6/147
f 65/6/148 78/105/148 82/87/148
f 68/47/61 67/102/61 62/88/61
f 59/90/149 60/14/149 64/91/149
f 24/44/63 74/45/63 59/90/63
f 21/46/64 12/7/64 70/9/64
f 87/15/150 60/14/150 61/94/150
f 9/48/151 68/47/151 72/89/151
f 90/97/152 89/99/152 63/98/152
f 89/99/153 88/95/153 61/94/153
f 10/93/154 59/90/154 73/92/154
f 90/101/155 62/88/155 67/102/155
f 76/106/156 67/102/156 81/103/156
f 67/102/157 68/47/157 77/104/157
f 71/84/158 80/86/158 77/104/158
f 66/5/159 75/107/159 78/105/159
f 66/5/160 67/102/160 76/106/160
f 63/98/75 61/94/75 74/45/75
f 74/45/76 61/94/76 60/14/76
f 1/118/161 16/119/161 90/101/161
f 15/1/162 88/95/162 89/99/162
f 3/49/163 89/99/163 90/97/163
f 15/1/164 7/3/164 87/15/164
f 5/51/165 85/4/165 84/36/165
f 19/116/166 1/118/166 83/16/166
f 7/3/167 18/50/167 84/13/167
f 19/116/168 86/17/168 85/4/168
