# Blender v2.93.2 OBJ File: 'jetpack.blend'
# www.blender.org
o Jetpack_Cube
v 0.452057 0.831014 -0.446564
v 0.397715 -0.433953 -0.310253
v 0.452057 -0.100173 0.461376
v 0.452057 -0.433953 0.461376
v -0.355455 -0.433953 0.185919
v -0.355455 0.537549 0.185919
v -0.355455 -0.433953 0.461376
v -0.355455 -0.100173 0.461376
v 0.452057 0.537549 0.185919
v -0.301112 -0.433953 -0.310253
v 0.452057 -0.433953 0.185919
v 0.452057 0.198530 -0.314141
v -0.355455 0.831014 -0.446564
v 0.057232 -0.433953 -0.399129
v 0.038674 -0.100173 0.536930
v 0.038674 -0.433953 0.536930
v 0.056826 0.937789 -0.446564
v 0.038674 0.718727 0.152450
v 0.057232 0.198530 -0.314141
v -0.355455 0.198530 -0.314141
v -0.159051 -0.491216 0.291175
v -0.193718 -0.473464 0.321217
v -0.193718 -0.473464 0.156103
v -0.161144 -0.473464 -0.141312
v 0.042530 -0.473464 0.366506
v 0.290321 -0.473464 0.321217
v 0.290321 -0.473464 0.156103
v 0.257747 -0.473464 -0.141312
v 0.054072 -0.473464 -0.194587
v -0.277753 -0.739305 0.247510
v -0.159051 -0.491216 0.149712
v -0.131143 -0.491216 -0.105101
v 0.043357 -0.491216 0.329977
v 0.255654 -0.491216 0.291175
v 0.255654 -0.491216 0.149712
v 0.227745 -0.491216 -0.105101
v 0.053246 -0.491216 -0.150744
v 0.336441 0.430221 0.389563
v -0.277753 -0.739305 0.134633
v -0.233868 -0.739305 -0.068690
v 0.374355 -0.739305 0.134633
v 0.330471 -0.739305 -0.068690
v 0.374355 -0.739305 0.247510
v -0.267093 -0.751441 0.226973
v -0.267093 -0.751441 0.130264
v -0.229495 -0.751441 -0.043935
v 0.351618 -0.751441 0.130264
v 0.314020 -0.751441 -0.043935
v 0.351618 -0.751441 0.226973
v 0.043942 -0.808982 0.469191
v 0.235491 -0.808982 0.408932
v 0.210311 -0.808982 -0.206486
v 0.052864 -0.808982 -0.277370
v 0.052225 -0.822705 -0.258961
v -0.113505 -0.808982 -0.206486
v 0.044581 -0.822705 0.447376
v -0.138686 -0.808982 0.408932
v -0.111887 -0.822705 0.395748
v 0.208693 -0.822705 0.395748
v 0.187119 -0.822705 -0.198230
v -0.090313 -0.822705 -0.198230
v 0.336441 0.271715 0.388495
v 0.040038 0.437321 0.441996
v 0.040038 0.264845 0.438181
v -0.242559 0.430221 0.389563
v -0.242559 0.271715 0.388495
v 0.369685 -0.333460 -0.387603
v 0.368349 -0.410885 -0.385109
v 0.127481 -0.333460 -0.387603
v 0.127481 -0.406843 -0.402559
v 0.082493 0.844853 -0.487245
v 0.407492 0.824808 -0.487245
v 0.407492 0.770938 -0.457439
v 0.097631 0.770938 -0.462232
v 0.185280 0.663225 -0.589754
v 0.363050 0.650507 -0.580351
v 0.363050 0.616811 -0.553823
v 0.193561 0.615196 -0.558056
v 0.300052 0.141386 -0.716786
v 0.477822 0.131393 -0.704527
v 0.477822 0.105316 -0.670480
v 0.308332 0.102703 -0.674180
v 0.301765 -0.526953 -0.981853
v 0.479535 -0.520297 -0.967506
v 0.479535 -0.501079 -0.929167
v 0.310045 -0.505549 -0.928436
v 0.233348 -0.705913 -0.728367
v 0.411117 -0.693429 -0.738259
v 0.411117 -0.654473 -0.730146
v 0.241628 -0.658943 -0.729415
v 0.397161 -0.565110 -0.532393
v 0.396123 -0.601269 -0.516013
v 0.209022 -0.565110 -0.532393
v 0.209022 -0.599493 -0.528507
v -0.255221 -0.333460 -0.387603
v -0.253885 -0.410885 -0.385109
v -0.013017 -0.333460 -0.387603
v -0.013017 -0.410885 -0.442108
v 0.031971 0.844853 -0.487245
v -0.293028 0.824808 -0.487245
v -0.293028 0.770938 -0.457439
v 0.016833 0.770938 -0.462232
v -0.094140 0.663225 -0.595556
v -0.268767 0.650507 -0.560974
v -0.264995 0.616811 -0.534715
v -0.097829 0.615196 -0.563002
v -0.210895 0.227476 -0.709187
v -0.385116 0.217483 -0.671777
v -0.380275 0.191406 -0.638076
v -0.213034 0.188793 -0.665837
v -0.217977 -0.440863 -0.973626
v -0.391901 -0.434207 -0.934149
v -0.386450 -0.414989 -0.896200
v -0.218579 -0.419459 -0.919573
v -0.114215 -0.619823 -0.732442
v -0.291585 -0.607339 -0.716958
v -0.290431 -0.568383 -0.708928
v -0.122560 -0.572853 -0.732301
v -0.248500 -0.479020 -0.515169
v -0.245144 -0.515179 -0.499102
v -0.062272 -0.479020 -0.541918
v -0.061720 -0.513403 -0.538070
vt 0.850384 0.713036
vt 0.969973 0.704336
vt 0.887617 0.751364
vt 0.729185 0.666965
vt 0.688910 0.462642
vt 0.623945 0.221619
vt 0.546025 0.448354
vt 0.484835 0.265683
vt 0.651394 0.793319
vt 0.588437 0.875038
vt 0.526232 0.834397
vt 0.435787 0.839644
vt 0.510819 0.733720
vt 0.502649 0.449540
vt 0.595376 0.391426
vt 0.558637 0.478350
vt 0.430108 0.541462
vt 0.273637 0.650064
vt 0.229706 0.451133
vt 0.772418 0.759062
vt 0.507772 0.548494
vt 0.473427 0.530823
vt 0.419153 0.502893
vt 0.444127 0.419427
vt 0.350484 0.305536
vt 0.496032 0.340307
vt 0.804731 0.276038
vt 0.879189 0.465476
vt 0.623196 0.701717
vt 0.668909 0.570616
vt 0.503410 0.575333
vt 0.331578 0.899167
vt 0.279869 0.850649
vt 0.480855 0.892100
vt 0.426242 0.892266
vt 0.948305 0.105973
vt 0.851573 0.055981
vt 0.950688 0.041679
vt 0.946298 0.120678
vt 0.981949 0.063848
vt 0.956273 0.122219
vt 0.839138 0.153150
vt 0.812702 0.209645
vt 0.795471 0.194228
vt 0.962752 0.172391
vt 0.959860 0.174809
vt 0.743870 0.827805
vt 0.665740 0.843938
vt 0.842219 0.781658
vt 0.497057 0.164652
vt 0.460111 0.076236
vt 0.407894 0.111115
vt 0.572896 0.111387
vt 0.513669 0.108362
vt 0.232288 0.090729
vt 0.327922 0.062067
vt 0.227112 0.160787
vt 0.257600 0.228195
vt 0.357170 0.220914
vt 0.411356 0.210936
vt 0.411943 0.130671
vt 0.382107 0.052090
vt 0.858820 0.073880
vt 0.829167 0.033417
vt 0.881483 0.050392
vt 0.911190 0.114831
vt 0.833682 0.051981
vt 0.911702 0.029640
vt 0.921194 0.141494
vt 0.947678 0.183219
vt 0.914616 0.103444
vt 0.816902 0.155634
vt 0.820116 0.102967
vt 0.921584 0.051314
vt 0.916242 0.026068
vt 0.920690 0.020049
vt 0.833833 0.110305
vt 0.826541 0.058051
vt 0.917287 0.103063
vt 0.917245 0.052897
vt 0.825397 0.135293
vt 0.826945 0.108290
vt 0.927836 0.197612
vt 0.873327 0.180283
vt 0.999120 0.046914
vt 0.999736 0.000264
vt 0.831594 0.029451
vt 0.880825 0.040330
vt 0.832593 0.141557
vt 0.924731 0.200256
vt 0.873606 0.190747
vt 0.921775 0.109789
vt 0.816364 0.118581
vt 0.800091 0.065884
vt 0.803936 0.063364
vt 0.819905 0.044892
vt 0.855998 0.105546
vt 0.845374 0.146457
vt 0.850122 0.105415
vt 0.845278 0.062327
vt 0.809619 0.148576
vt 0.813393 0.102827
vt 0.809559 0.054961
vt 0.816784 0.047812
vt 0.941234 0.019830
vt 0.944646 0.023182
vt 0.781945 0.176565
vt 0.815965 0.211970
vt 0.918930 0.082472
vt 0.963304 0.040874
vt 0.978903 0.060148
vt 0.851740 0.152699
vt 0.779910 0.173131
vt 0.805921 0.117486
vt 0.916809 0.030668
vt 0.780332 0.074138
vt 0.865241 0.120177
vt 0.780571 0.118788
vt 0.946069 0.073685
vt 0.865108 0.071580
vt 0.507683 0.619797
vt 0.592746 0.603373
vt 0.647593 0.531398
vt 0.578266 0.556497
vt 0.135425 0.280282
vt 0.100834 0.338129
vt 0.109902 0.265929
vt 0.596051 0.169757
vt 0.515437 0.175283
vt 0.582126 0.188766
vt 0.502746 0.559781
vt 0.512759 0.568596
vt 0.468017 0.541470
vt 0.456083 0.540036
vt 0.104210 0.928576
vt 0.064448 0.884955
vt 0.099053 0.881739
vt 0.606653 0.387169
vt 0.598419 0.382092
vt 0.360757 0.285045
vt 0.466242 0.237407
vt 0.057857 0.081930
vt 0.086238 0.047041
vt 0.056813 0.039074
vt 0.985819 0.635285
vt 0.073279 0.722353
vt 0.082667 0.716391
vt 0.005809 0.913347
vt 0.055007 0.894077
vt 0.048860 0.955481
vt 0.059693 0.942956
vt 0.105705 0.887086
vt 0.112740 0.932227
vt 0.133286 0.497427
vt 0.108675 0.715824
vt 0.115106 0.720364
vt 0.027583 0.872216
vt 0.084558 0.488095
vt 0.060171 0.411525
vt 0.090101 0.401175
vt 0.052430 0.493526
vt 0.093232 0.491107
vt 0.140500 0.492809
vt 0.098428 0.404235
vt 0.132138 0.344674
vt 0.131295 0.409614
vt 0.137450 0.409739
vt 0.065170 0.286305
vt 0.095989 0.342935
vt 0.062659 0.346075
vt 0.140440 0.293689
vt 0.103571 0.279378
vt 0.137380 0.347287
vt 0.413820 0.136190
vt 0.412975 0.513593
vt 0.398845 0.509973
vt 0.444560 0.532739
vt 0.453497 0.520567
vt 0.130781 0.536980
vt 0.086556 0.508756
vt 0.090102 0.559015
vt 0.490639 0.327469
vt 0.597555 0.211793
vt 0.075887 0.396771
vt 0.078016 0.516073
vt 0.034324 0.534367
vt 0.080798 0.569826
vt 0.126673 0.506108
vt 0.139672 0.540120
vt 0.108107 0.208827
vt 0.084697 0.391657
vt 0.111194 0.390439
vt 0.118188 0.393601
vt 0.119479 0.502311
vt 0.048351 0.500215
vt 0.058561 0.202620
vt 0.025058 0.141699
vt 0.027527 0.209696
vt 0.040467 0.390710
vt 0.067496 0.204662
vt 0.086955 0.082741
vt 0.062117 0.134404
vt 0.095444 0.136212
vt 0.101621 0.135852
vt 0.114778 0.204624
vt 0.020936 0.087544
vt 0.053238 0.054874
vt 0.012894 0.055116
vt 0.092882 0.056562
vt 0.053318 0.085198
vt 0.053633 0.132260
vt 0.092634 0.083955
vt 0.483945 0.231931
vt 0.547903 0.352789
vt 0.551520 0.368645
vt 0.540063 0.362749
vt 0.916809 0.172862
vt 0.911702 0.161545
vt 0.999736 0.132010
vt 0.950688 0.166915
vt 0.946069 0.118336
vt 0.039115 0.711447
vt 0.473954 0.171481
vt 0.501581 0.332208
vt 0.555067 0.356475
vn -0.2418 -0.9700 -0.0265
vn -1.0000 0.0000 0.0000
vn -0.2369 0.9147 0.3273
vn 0.0414 -0.9731 0.2265
vn 1.0000 0.0000 0.0000
vn 0.0000 -0.2428 -0.9701
vn -0.1883 0.0000 0.9821
vn 0.0000 0.1368 -0.9906
vn 0.3416 0.8525 0.3956
vn 0.1798 0.0000 0.9837
vn -0.1827 0.2422 0.9529
vn 0.2907 0.7685 0.5700
vn 0.2418 -0.9700 -0.0265
vn 0.2373 -0.9714 0.0000
vn -0.2375 0.1526 -0.9593
vn -0.7069 -0.2852 -0.6473
vn 0.3753 -0.2887 0.8808
vn 0.6734 -0.4283 0.6026
vn -0.0431 -0.9735 0.2247
vn -0.2373 -0.9714 0.0000
vn -0.0472 -0.9806 -0.1902
vn 0.0494 -0.9808 -0.1887
vn 0.0000 -1.0000 0.0000
vn -0.9382 -0.3460 0.0000
vn 0.9661 0.2354 -0.1058
vn 0.9236 -0.3835 0.0000
vn -0.3010 0.2779 0.9122
vn -0.7513 -0.6599 0.0000
vn 0.4838 -0.8689 -0.1044
vn -0.7698 -0.6163 -0.1661
vn 0.4709 -0.8822 0.0000
vn 0.9382 -0.3304 0.1028
vn -0.9535 0.3014 0.0000
vn -0.4909 -0.3734 0.7871
vn 0.9535 0.3014 0.0000
vn 0.6240 -0.3601 -0.6935
vn -0.9293 0.3100 -0.2006
vn -0.6776 -0.3736 -0.6335
vn -0.9149 -0.3521 0.1975
vn 0.2574 -0.7790 -0.5717
vn -0.2490 -0.7723 -0.5844
vn -0.1719 -0.8361 0.5209
vn 0.1663 -0.8325 0.5285
vn 0.5454 -0.3215 -0.7741
vn -0.2460 -0.2341 0.9406
vn -0.4694 -0.2919 0.8333
vn -0.2842 -0.3210 -0.9034
vn 0.1812 -0.2723 -0.9450
vn 0.4006 0.2181 -0.8899
vn 0.8015 -0.2212 0.5556
vn 0.1753 0.2221 0.9591
vn 0.1655 -0.0066 0.9862
vn -0.1819 -0.0217 0.9831
vn 0.1539 0.2575 0.9539
vn -0.8753 -0.0033 0.4835
vn -0.1458 0.7091 0.6899
vn 0.5717 0.3253 0.7532
vn 0.0000 0.5300 -0.8480
vn 0.0055 -0.9550 -0.2964
vn 0.9276 -0.0280 -0.3725
vn -0.1239 0.1982 -0.9723
vn -0.0162 -0.5268 0.8498
vn 0.6547 -0.3659 -0.6614
vn 0.0251 0.4067 -0.9132
vn 0.0000 0.7274 -0.6862
vn 0.9904 -0.0858 -0.1085
vn -0.9904 -0.0858 -0.1085
vn -0.9762 -0.2170 -0.0073
vn 0.0311 0.5046 -0.8628
vn -0.8830 -0.3549 -0.3071
vn 0.9659 -0.1253 -0.2265
vn -0.0140 -0.3924 0.9197
vn 0.9644 0.1635 0.2077
vn -0.0178 -0.2261 0.9739
vn 0.0690 0.2503 -0.9657
vn 0.0258 -0.8199 -0.5719
vn 0.0611 0.3681 -0.9278
vn -0.9887 -0.0602 0.1375
vn 1.0000 0.0033 -0.0017
vn -0.0258 0.9103 -0.4132
vn -0.9200 0.3917 -0.0144
vn 0.9665 -0.2296 0.1151
vn -0.0183 0.7950 0.6064
vn -0.0601 -0.5715 0.8184
vn 0.9792 -0.0104 0.2024
vn -0.8742 -0.0545 -0.4825
vn -0.9646 0.1655 -0.2055
vn -0.0395 -0.8840 0.4659
vn 0.9972 -0.0153 0.0736
vn 0.8994 -0.0799 -0.4298
vn -0.0279 0.1331 -0.9907
vn -0.0848 -0.9359 -0.3419
vn -0.8409 -0.0319 -0.5403
vn 0.5675 0.4740 -0.6733
vn 0.0129 -0.5499 0.8351
vn -0.3451 -0.1923 -0.9186
vn -0.2213 0.8545 -0.4700
vn 0.9589 -0.2060 -0.1953
vn -0.0326 0.5285 -0.8483
vn 0.8391 -0.3206 -0.4395
vn -0.9870 -0.0779 -0.1407
vn 0.1450 -0.3888 0.9099
vn -0.9262 0.1617 0.3406
vn 0.1580 -0.2716 0.9493
vn -0.2063 0.2983 -0.9319
vn -0.1600 -0.8066 -0.5690
vn -0.2154 0.3666 -0.9051
vn 0.9993 -0.0216 0.0300
vn -0.9928 -0.0381 0.1132
vn -0.0332 0.9103 -0.4126
vn 0.9086 0.3917 -0.1450
vn -0.9403 -0.2296 0.2513
vn 0.1044 0.7950 0.5976
vn 0.1593 -0.7223 0.6730
vn -0.9993 -0.0183 -0.0318
vn 0.6523 0.4363 -0.6198
vn 0.9255 0.1655 -0.3406
vn -0.0302 -0.9182 0.3949
vn -0.9766 -0.0153 0.2147
vn -0.8130 -0.0734 -0.5777
vn 0.0279 0.1331 -0.9907
vn 0.0000 0.4010 -0.9161
vn 0.0000 -0.3205 -0.9472
vn 0.0000 -0.2505 -0.9681
vn -0.3562 0.8476 0.3933
vn 0.0150 -0.2514 -0.9678
vn 0.2453 0.9080 0.3395
vn -0.0150 -0.2514 -0.9678
vn -0.1612 0.2583 0.9525
vn 0.1391 0.7105 0.6898
vn -0.3821 0.2227 -0.8969
vn -0.5455 -0.3217 -0.7739
vn 0.2335 -0.2362 0.9432
vn 0.4909 -0.3734 0.7871
vn -0.0471 -0.9806 -0.1902
vn 0.0492 -0.9808 -0.1886
vn 0.9293 0.3100 -0.2006
vn -0.1836 0.2203 0.9580
vn 0.9007 -0.3885 0.1944
vn -0.5018 -0.3771 0.7784
vn 0.8475 -0.4018 -0.3467
vn -0.9661 0.2354 -0.1058
vn -0.6240 -0.3601 -0.6935
vn -0.9511 -0.2908 0.1042
vn 0.2574 -0.7790 -0.5718
vn 0.7069 -0.2848 -0.6475
vn -0.3936 -0.2842 0.8743
vn -0.8015 -0.2217 0.5554
vn -0.1729 -0.2740 -0.9461
vn 0.2971 -0.3178 -0.9004
vn 0.2502 0.1504 -0.9564
vn 0.4693 -0.2917 0.8335
vn 0.2880 0.2814 0.9154
vn 0.1736 -0.0218 0.9846
vn -0.1733 -0.0066 0.9848
vn 0.1745 0.2413 0.9546
vn -0.5808 0.3228 0.7473
vn -0.3026 0.7637 0.5703
vn 0.8704 -0.0033 0.4924
vn 0.1995 -0.6135 -0.7641
vn -0.0131 -0.5298 0.8480
vn 0.4579 -0.1822 -0.8701
vn 0.2393 0.8859 -0.3973
vn -0.1077 0.6524 -0.7501
vn -0.9779 -0.2026 -0.0515
vn 0.0794 0.4538 -0.8875
vn -0.8854 -0.3012 -0.3541
vn 0.9679 -0.1555 -0.1976
vn 0.0142 -0.3856 0.9226
vn 0.9723 0.1857 0.1422
vn -0.0222 -0.2257 0.9740
vn 0.0805 0.2487 -0.9652
vn 0.0775 -0.8066 -0.5860
vn 0.0847 0.3731 -0.9239
vn -0.9805 -0.0747 0.1819
vn 1.0000 0.0021 0.0016
vn 0.0000 0.9028 -0.4300
vn -0.9751 0.1687 -0.1441
vn 0.9571 -0.0590 0.2835
vn -0.0690 -0.5662 0.8214
vn 0.9877 0.0401 0.1512
vn -0.7609 0.1296 -0.6358
vn -0.9877 -0.0175 -0.1551
vn 0.0860 -0.9182 0.3866
vn 0.9976 0.0027 0.0692
vn -0.0851 -0.9292 -0.3596
vn 0.1473 -0.4218 0.8947
vn -0.5259 -0.4118 -0.7442
vn -0.0251 0.4065 -0.9133
vn 0.9628 -0.2235 -0.1519
vn -0.2064 0.3567 -0.9111
vn 0.8394 -0.3477 -0.4178
vn -0.9868 -0.1525 -0.0539
vn 0.1174 -0.3833 0.9162
vn -0.9416 0.1871 0.2800
vn 0.1534 -0.2724 0.9499
vn -0.2167 0.2963 -0.9302
vn -0.1068 -0.8199 -0.5624
vn -0.1930 0.3628 -0.9117
vn 0.9997 -0.0178 0.0182
vn -0.9835 -0.0586 0.1709
vn -0.0611 0.9028 -0.4256
vn 0.9447 0.1687 -0.2813
vn -0.9071 -0.0590 0.4167
vn 0.1523 -0.7130 0.6844
vn -0.9959 -0.0898 0.0058
vn 0.9050 -0.0329 -0.4241
vn 0.9557 -0.0175 -0.2940
vn 0.1053 -0.8840 0.4555
vn -0.9776 0.0027 0.2103
s off
f 5/1/1 24/2/1 23/3/1
f 5/1/2 8/4/2 6/5/2
f 13/6/3 18/7/3 17/8/3
f 16/9/4 26/10/4 4/11/4
f 11/12/5 3/13/5 4/11/5
f 19/14/6 73/15/6 12/16/6
f 9/17/5 12/18/5 1/19/5
f 16/9/7 8/4/7 7/20/7
f 19/14/8 67/21/8 69/22/8
f 19/14/8 95/23/8 20/24/8
f 1/25/9 18/7/9 9/17/9
f 101/26/6 19/14/6 20/24/6
f 6/5/2 13/27/2 20/28/2
f 3/13/10 16/9/10 4/11/10
f 15/29/11 66/30/11 8/4/11
f 18/7/12 38/31/12 9/17/12
f 11/12/13 28/32/13 2/33/13
f 11/12/14 26/34/14 27/35/14
f 29/36/15 55/37/15 24/38/15
f 21/39/16 57/40/16 22/41/16
f 37/42/17 61/43/17 54/44/17
f 21/39/18 30/45/18 44/46/18
f 16/9/19 22/47/19 25/48/19
f 5/1/20 22/49/20 7/20/20
f 14/50/21 24/51/21 10/52/21
f 14/50/22 28/53/22 29/54/22
f 36/55/23 35/56/23 37/57/23
f 32/58/23 37/57/23 31/59/23
f 21/60/23 31/59/23 33/61/23
f 34/62/23 33/61/23 35/56/23
f 35/63/24 49/64/24 34/65/24
f 27/66/25 42/67/25 28/68/25
f 31/69/26 44/46/26 45/70/26
f 25/71/27 57/72/27 50/73/27
f 39/74/28 44/75/28 30/76/28
f 41/77/29 48/78/29 42/67/29
f 39/74/30 46/79/30 45/80/30
f 41/77/31 49/81/31 47/82/31
f 31/69/32 46/83/32 32/84/32
f 23/85/33 30/76/33 22/86/33
f 34/65/34 43/87/34 26/88/34
f 27/66/35 43/89/35 41/77/35
f 32/84/36 40/90/36 24/91/36
f 23/85/37 40/92/37 39/74/37
f 36/93/38 42/94/38 48/95/38
f 35/63/39 48/95/39 47/96/39
f 53/97/40 60/98/40 54/99/40
f 53/97/41 61/100/41 55/37/41
f 50/73/42 58/101/42 56/102/42
f 50/73/43 59/103/43 51/104/43
f 34/65/44 51/105/44 59/106/44
f 37/42/45 60/107/45 36/93/45
f 32/84/46 55/108/46 61/43/46
f 33/109/47 59/106/47 56/110/47
f 33/109/48 58/111/48 21/39/48
f 29/36/49 52/112/49 53/97/49
f 36/93/50 52/113/50 28/114/50
f 25/71/51 51/104/51 26/115/51
f 35/56/23 31/59/23 37/57/23
f 38/116/52 64/117/52 62/118/52
f 65/119/53 64/117/53 63/120/53
f 15/29/54 62/121/54 64/122/54
f 6/5/55 66/30/55 65/123/55
f 18/7/56 65/123/56 63/124/56
f 9/17/57 62/121/57 3/13/57
f 67/125/58 93/126/58 69/127/58
f 2/128/59 70/129/59 68/130/59
f 68/131/60 67/21/60 2/132/60
f 70/133/61 14/134/61 69/22/61
f 73/135/62 78/136/62 77/137/62
f 1/138/63 73/15/63 72/139/63
f 17/8/64 72/140/64 71/141/64
f 121/142/65 95/143/65 97/144/65
f 12/18/66 11/12/66 2/33/66
f 5/1/67 20/28/67 10/145/67
f 78/136/68 79/146/68 82/147/68
f 72/148/69 75/149/69 71/150/69
f 74/151/70 75/149/70 78/136/70
f 73/135/71 76/152/71 72/153/71
f 82/147/72 85/154/72 81/155/72
f 77/137/73 80/156/73 76/152/73
f 77/137/74 82/147/74 81/155/74
f 76/157/75 79/146/75 75/149/75
f 83/158/76 88/159/76 87/160/76
f 79/146/77 84/161/77 83/158/77
f 79/146/78 86/162/78 82/147/78
f 80/156/79 85/154/79 84/163/79
f 90/164/80 91/165/80 89/166/80
f 83/158/81 90/164/81 86/162/81
f 85/154/82 88/167/82 84/163/82
f 86/162/83 89/166/83 85/154/83
f 68/168/84 94/169/84 92/170/84
f 68/171/85 91/165/85 67/125/85
f 70/172/86 93/126/86 94/169/86
f 94/169/87 90/164/87 87/160/87
f 87/160/88 92/170/88 94/169/88
f 89/166/89 92/173/89 88/167/89
f 2/132/90 67/21/90 12/16/90
f 19/14/91 69/22/91 14/134/91
f 96/174/92 14/50/92 10/52/92
f 96/175/93 10/176/93 95/23/93
f 98/177/94 97/178/94 14/134/94
f 101/179/95 106/180/95 102/181/95
f 13/182/96 101/26/96 20/24/96
f 17/8/97 100/183/97 13/6/97
f 106/180/98 107/184/98 103/185/98
f 103/185/99 100/186/99 99/187/99
f 102/181/100 103/185/100 99/187/100
f 104/188/101 101/179/101 100/189/101
f 113/190/102 110/191/102 109/192/102
f 108/193/103 105/194/103 104/188/103
f 105/194/104 110/191/104 106/180/104
f 107/184/105 104/195/105 103/185/105
f 111/196/106 116/197/106 112/198/106
f 107/184/107 112/198/107 108/199/107
f 114/200/108 107/184/108 110/191/108
f 108/193/109 113/190/109 109/192/109
f 119/201/110 118/202/110 117/203/110
f 118/202/111 111/196/111 114/200/111
f 116/204/112 113/190/112 112/205/112
f 117/203/113 114/200/113 113/190/113
f 120/206/114 98/207/114 96/208/114
f 119/201/115 96/209/115 95/143/115
f 98/207/116 121/142/116 97/144/116
f 118/202/117 122/210/117 115/211/117
f 115/211/118 120/206/118 116/197/118
f 120/212/119 117/203/119 116/204/119
f 10/176/120 20/24/120 95/23/120
f 19/14/121 14/134/121 97/178/121
f 17/8/122 71/141/122 99/213/122
f 99/214/123 74/215/123 102/216/123
f 74/215/124 19/14/124 102/216/124
f 5/1/1 10/145/1 24/2/1
f 5/1/2 7/20/2 8/4/2
f 13/6/125 6/5/125 18/7/125
f 16/9/4 25/48/4 26/10/4
f 11/12/5 9/17/5 3/13/5
f 19/14/126 74/215/126 73/15/126
f 16/9/7 15/29/7 8/4/7
f 19/14/8 12/16/8 67/21/8
f 19/14/8 97/178/8 95/23/8
f 1/25/127 17/8/127 18/7/127
f 101/26/128 102/216/128 19/14/128
f 3/13/10 15/29/10 16/9/10
f 15/29/129 64/122/129 66/30/129
f 18/7/130 63/124/130 38/31/130
f 11/12/13 27/35/13 28/32/13
f 11/12/14 4/11/14 26/34/14
f 29/36/131 53/97/131 55/37/131
f 21/39/132 58/111/132 57/40/132
f 37/42/133 32/84/133 61/43/133
f 21/39/134 22/41/134 30/45/134
f 16/9/19 7/20/19 22/47/19
f 5/1/20 23/3/20 22/49/20
f 14/50/135 29/54/135 24/51/135
f 14/50/136 2/128/136 28/53/136
f 35/63/24 47/96/24 49/64/24
f 27/66/137 41/77/137 42/67/137
f 31/69/26 21/39/26 44/46/26
f 25/71/138 22/217/138 57/72/138
f 39/74/28 45/80/28 44/75/28
f 41/77/29 47/82/29 48/78/29
f 39/74/30 40/92/30 46/79/30
f 41/77/31 43/89/31 49/81/31
f 31/69/139 45/70/139 46/83/139
f 23/85/33 39/74/33 30/76/33
f 34/65/140 49/64/140 43/87/140
f 27/66/35 26/218/35 43/89/35
f 32/84/141 46/83/141 40/90/141
f 23/85/142 24/219/142 40/92/142
f 36/93/143 28/114/143 42/94/143
f 35/63/144 36/93/144 48/95/144
f 53/97/145 52/112/145 60/98/145
f 53/97/41 54/99/41 61/100/41
f 50/73/42 57/72/42 58/101/42
f 50/73/43 56/102/43 59/103/43
f 34/65/146 26/88/146 51/105/146
f 37/42/147 54/44/147 60/107/147
f 32/84/148 24/91/148 55/108/148
f 33/109/149 34/65/149 59/106/149
f 33/109/150 56/110/150 58/111/150
f 29/36/151 28/220/151 52/112/151
f 36/93/152 60/107/152 52/113/152
f 25/71/153 50/73/153 51/104/153
f 35/56/23 33/61/23 31/59/23
f 38/116/154 63/120/154 64/117/154
f 65/119/155 66/221/155 64/117/155
f 15/29/156 3/13/156 62/121/156
f 6/5/157 8/4/157 66/30/157
f 18/7/158 6/5/158 65/123/158
f 9/17/159 38/31/159 62/121/159
f 67/125/58 91/165/58 93/126/58
f 2/128/160 14/50/160 70/129/160
f 73/135/161 74/151/161 78/136/161
f 1/138/162 12/16/162 73/15/162
f 17/8/163 1/25/163 72/140/163
f 121/142/164 119/201/164 95/143/164
f 12/18/5 9/17/5 11/12/5
f 5/1/2 6/5/2 20/28/2
f 78/136/165 75/149/165 79/146/165
f 72/148/166 76/157/166 75/149/166
f 74/151/167 71/150/167 75/149/167
f 73/135/168 77/137/168 76/152/168
f 82/147/169 86/162/169 85/154/169
f 77/137/170 81/155/170 80/156/170
f 77/137/171 78/136/171 82/147/171
f 76/157/172 80/222/172 79/146/172
f 83/158/173 84/161/173 88/159/173
f 79/146/174 80/222/174 84/161/174
f 79/146/175 83/158/175 86/162/175
f 80/156/176 81/155/176 85/154/176
f 90/164/177 93/126/177 91/165/177
f 83/158/178 87/160/178 90/164/178
f 85/154/179 89/166/179 88/167/179
f 86/162/83 90/164/83 89/166/83
f 68/168/180 70/172/180 94/169/180
f 68/171/181 92/173/181 91/165/181
f 70/172/182 69/127/182 93/126/182
f 94/169/183 93/126/183 90/164/183
f 87/160/184 88/159/184 92/170/184
f 89/166/185 91/165/185 92/173/185
f 96/174/186 98/223/186 14/50/186
f 101/179/187 105/194/187 106/180/187
f 13/182/188 100/224/188 101/26/188
f 17/8/189 99/213/189 100/183/189
f 106/180/190 110/191/190 107/184/190
f 103/185/191 104/195/191 100/186/191
f 102/181/192 106/180/192 103/185/192
f 104/188/193 105/194/193 101/179/193
f 113/190/194 114/200/194 110/191/194
f 108/193/195 109/192/195 105/194/195
f 105/194/196 109/192/196 110/191/196
f 107/184/197 108/199/197 104/195/197
f 111/196/198 115/211/198 116/197/198
f 107/184/199 111/196/199 112/198/199
f 114/200/200 111/196/200 107/184/200
f 108/193/201 112/205/201 113/190/201
f 119/201/202 121/142/202 118/202/202
f 118/202/203 115/211/203 111/196/203
f 116/204/204 117/203/204 113/190/204
f 117/203/113 118/202/113 114/200/113
f 120/206/205 122/210/205 98/207/205
f 119/201/206 120/212/206 96/209/206
f 98/207/207 122/210/207 121/142/207
f 118/202/208 121/142/208 122/210/208
f 115/211/209 122/210/209 120/206/209
f 120/212/210 119/201/210 117/203/210
f 99/214/123 71/225/123 74/215/123
