# Blender v2.83.0 OBJ File: 'karnickel.blend'
# www.blender.org
o Karnickel_Cube.001
v -0.556110 -0.793457 0.330844
v -0.376442 0.114613 0.273988
v -0.556110 -0.776084 -0.658870
v -0.376442 0.114613 -0.479202
v 0.556416 -0.793457 0.330844
v 0.376748 0.114613 0.273988
v 0.556416 -0.776084 -0.658870
v 0.376748 0.114613 -0.479202
v -0.566729 -0.903038 -0.102607
v -0.564848 -0.324832 0.462395
v -0.496666 0.234837 -0.102607
v -0.564848 -0.324832 -0.667608
v 0.000153 -0.903038 -0.836451
v 0.000153 0.234837 -0.599426
v 0.565154 -0.324832 -0.667608
v 0.567035 -0.903038 -0.102607
v 0.496972 0.234837 -0.102607
v 0.565154 -0.324832 0.462395
v 0.000153 -0.903038 0.508425
v 0.000153 0.234837 0.394212
v 0.000153 0.366042 -0.102607
v 0.000153 -0.936650 -0.102607
v 0.000153 -0.324832 0.611606
v 0.714366 -0.324832 -0.102607
v 0.000153 -0.324832 -0.816820
v -0.714060 -0.324832 -0.102607
v -0.060627 -0.579571 -0.702603
v -0.236686 -0.281911 -0.702603
v -0.060627 -0.434603 -0.958245
v -0.167835 -0.281911 -0.958245
v 0.060933 -0.579571 -0.702603
v 0.236993 -0.281911 -0.702603
v 0.060933 -0.434603 -0.958245
v 0.168142 -0.281911 -0.958245
v 0.048917 -0.835266 -0.775743
v 0.048917 -0.473685 -0.775743
v 0.075118 -0.835266 -0.845805
v 0.075118 -0.473685 -0.845805
v 0.237672 -0.828450 -0.705154
v 0.237672 -0.473685 -0.705154
v 0.263873 -0.828450 -0.775216
v 0.263873 -0.473685 -0.775216
v -0.239184 -0.828450 -0.707784
v -0.239184 -0.473685 -0.707784
v -0.263135 -0.828450 -0.778647
v -0.263135 -0.473685 -0.778647
v -0.048272 -0.835266 -0.772311
v -0.048272 -0.473685 -0.772311
v -0.072223 -0.835266 -0.843174
v -0.072223 -0.473685 -0.843174
v 0.085016 0.307058 0.002978
v 0.414116 0.764255 0.002978
v 0.042389 0.323280 -0.208192
v 0.414116 0.764255 -0.208192
v 0.563293 -0.045459 0.002978
v 0.813218 0.441867 0.002978
v 0.605920 -0.061680 -0.208192
v 0.813218 0.441867 -0.208192
v 0.716638 0.793964 -0.208192
v 0.716638 0.793964 0.002978
v 0.447746 0.663720 -0.124152
v 0.195832 0.364877 -0.124152
v 0.577729 0.103995 -0.124152
v 0.652761 0.683853 -0.124152
v 0.718212 0.445242 -0.124152
v 0.324155 0.130800 0.115054
v -0.080994 0.331905 -0.085766
v -0.410094 0.777850 -0.186574
v -0.038367 0.301166 -0.295316
v -0.410094 0.731289 -0.392547
v -0.559271 -0.011936 -0.008039
v -0.809196 0.463396 -0.115491
v -0.601898 -0.074320 -0.210435
v -0.809196 0.416835 -0.321463
v -0.712616 0.760266 -0.399097
v -0.712616 0.806827 -0.193125
v -0.443724 0.651757 -0.288409
v -0.191810 0.360269 -0.222517
v -0.573707 0.105808 -0.164994
v -0.648739 0.671394 -0.292848
v -0.714190 0.438656 -0.240236
v -0.320132 0.184696 0.062415
v -0.293324 -0.675978 1.059153
v -0.293324 -0.113532 1.059153
v -0.293324 -0.675978 0.496707
v -0.293324 -0.113532 0.496707
v 0.269121 -0.675978 1.059153
v 0.277452 -0.015495 1.067484
v 0.269121 -0.675978 0.496707
v 0.269121 -0.113532 0.496707
v -0.366852 -0.749506 0.790185
v -0.366852 -0.382501 1.157190
v -0.366852 -0.015495 0.790185
v -0.366852 -0.382501 0.423179
v 0.000153 -0.749506 0.423179
v 0.000153 -0.015495 0.423179
v 0.367159 -0.382501 0.423179
v 0.367159 -0.749506 0.790185
v 0.367159 -0.015495 0.790185
v 0.367159 -0.382501 1.157190
v 0.000153 -0.749506 1.157190
v 0.000153 -0.015495 1.157190
v 0.000153 0.101157 0.790185
v 0.000153 -0.866158 0.790185
v 0.000153 -0.382501 1.273842
v 0.483810 -0.382501 0.790185
v 0.000153 -0.382501 0.306527
v -0.483504 -0.382501 0.790185
v -0.010133 -0.185916 -0.679980
v -0.004358 0.015794 -0.619509
v 0.133283 -0.104031 -0.774626
v 0.136033 -0.007972 -0.745829
v 0.355509 -0.240341 -0.533348
v 0.428093 0.038164 -0.421184
v 0.310431 -0.134985 -0.713136
v 0.410795 0.037870 -0.610740
v 0.274650 0.058135 -0.687242
v 0.213104 0.070165 -0.507400
v 0.408184 -0.053346 -0.638086
v 0.423970 -0.105877 -0.464365
v 0.012780 -0.185916 -0.679980
v 0.007005 0.015794 -0.619509
v -0.130636 -0.104031 -0.774626
v -0.133386 -0.007972 -0.745829
v -0.352862 -0.240341 -0.533348
v -0.425446 0.038164 -0.421184
v -0.307785 -0.134985 -0.713136
v -0.408148 0.037870 -0.610740
v -0.272003 0.058135 -0.687242
v -0.210457 0.070165 -0.507400
v -0.405537 -0.053346 -0.638086
v -0.421323 -0.105877 -0.464365
v -0.136358 -0.233299 -0.685054
v -0.096673 -0.233299 -0.832403
v 0.096980 -0.233299 -0.832403
v 0.136664 -0.233299 -0.685054
v -0.031432 0.040710 -0.521878
v 0.036377 0.146768 -0.521878
v 0.042755 0.074589 -0.659585
v 0.102886 0.132420 -0.659585
v 0.230134 0.068941 -0.521878
v 0.244723 0.159860 -0.521878
v 0.196880 0.097637 -0.659585
v 0.211468 0.145512 -0.659585
v 0.034916 0.040710 -0.521878
v -0.032893 0.146768 -0.521878
v -0.039271 0.074589 -0.659585
v -0.099402 0.132420 -0.659585
v -0.226650 0.068941 -0.521878
v -0.241238 0.159860 -0.521878
v -0.193395 0.097637 -0.659585
v -0.207984 0.145512 -0.659585
v 0.214791 -0.119508 -0.763953
v 0.205341 0.043925 -0.736607
v -0.212145 -0.119508 -0.763953
v -0.202695 0.043925 -0.736607
vt 0.601601 0.200410
vt 0.626832 0.231583
vt 0.601214 0.230620
vt 0.602542 0.253723
vt 0.626832 0.275862
vt 0.601214 0.276825
vt 0.601601 0.307035
vt 0.650883 0.338271
vt 0.601141 0.348213
vt 0.604458 0.060204
vt 0.650883 0.169174
vt 0.601141 0.159232
vt 0.474813 0.253723
vt 0.561099 0.335699
vt 0.487931 0.394099
vt 0.714670 0.253723
vt 0.716915 0.134864
vt 0.640251 0.299013
vt 0.630567 0.253723
vt 0.561099 0.171746
vt 0.564439 0.208060
vt 0.583153 0.232105
vt 0.583153 0.275340
vt 0.580285 0.253723
vt 0.487931 0.113346
vt 0.604458 0.447241
vt 0.564439 0.299385
vt 0.153830 0.813356
vt 0.089041 0.889601
vt 0.000251 0.868223
vt 0.108495 0.885785
vt 0.085579 0.906760
vt 0.153830 0.987197
vt 0.001542 0.921485
vt 0.270109 0.596406
vt 0.223097 0.643418
vt 0.223097 0.596406
vt 0.122048 0.909697
vt 0.139146 0.916920
vt 0.270109 0.643418
vt 0.223097 0.690430
vt 0.270109 0.690430
vt 0.223097 0.737442
vt 0.270109 0.784454
vt 0.223097 0.784454
vt 0.176085 0.690430
vt 0.176085 0.737442
vt 0.317121 0.690430
vt 0.270109 0.737442
vt 0.115768 0.595247
vt 0.068829 0.642186
vt 0.068829 0.595247
vt 0.115768 0.689124
vt 0.068829 0.689124
vt 0.068829 0.736062
vt 0.115768 0.736062
vt 0.068829 0.783001
vt 0.021891 0.736062
vt 0.021891 0.689124
vt 0.162706 0.736062
vt 0.916970 0.600125
vt 0.838409 0.663258
vt 0.876807 0.574163
vt 0.859358 0.734522
vt 0.817074 0.703764
vt 0.842666 0.696079
vt 0.944369 0.788576
vt 0.878421 0.715023
vt 0.965747 0.742773
vt 0.965747 0.662531
vt 0.862162 0.668568
vt 0.633285 0.625010
vt 0.556415 0.686784
vt 0.579657 0.691980
vt 0.859662 0.689571
vt 0.390719 0.965227
vt 0.361170 0.929944
vt 0.396939 0.887801
vt 0.843282 0.588292
vt 0.818528 0.658059
vt 0.903526 0.794062
vt 0.843597 0.748258
vt 0.867819 0.917202
vt 0.535540 0.726418
vt 0.576913 0.756514
vt 0.560580 0.718898
vt 0.660094 0.809404
vt 0.595566 0.737435
vt 0.681011 0.686072
vt 0.577211 0.712530
vt 0.236656 0.897329
vt 0.200887 0.939472
vt 0.230436 0.974755
vt 0.561183 0.613433
vt 0.593987 0.599607
vt 0.620130 0.814771
vt 0.585193 0.935261
vt 0.681011 0.764587
vt 0.171474 0.441861
vt 0.151455 0.416133
vt 0.169714 0.415586
vt 0.168105 0.394236
vt 0.147713 0.376152
vt 0.166619 0.372956
vt 0.164675 0.346413
vt 0.117557 0.324999
vt 0.161341 0.309968
vt 0.179891 0.562568
vt 0.136581 0.473273
vt 0.174110 0.478303
vt 0.273265 0.387132
vt 0.204079 0.313708
vt 0.259200 0.269731
vt 0.064350 0.402429
vt 0.077988 0.515352
vt 0.132943 0.354888
vt 0.144751 0.396143
vt 0.212413 0.466741
vt 0.202660 0.433430
vt 0.189118 0.413255
vt 0.186999 0.373450
vt 0.191728 0.392711
vt 0.273265 0.502469
vt 0.152944 0.219790
vt 0.196876 0.350392
vt 0.257344 0.241415
vt 0.305119 0.174776
vt 0.352971 0.220190
vt 0.257687 0.135829
vt 0.277809 0.095181
vt 0.303930 0.122037
vt 0.251835 0.096681
vt 0.279588 0.028284
vt 0.191019 0.152036
vt 0.208202 0.043435
vt 0.307691 0.151799
vt 0.352971 0.063822
vt 0.276737 0.175119
vt 0.386346 0.653918
vt 0.426412 0.588965
vt 0.426412 0.663609
vt 0.105429 0.142808
vt 0.066186 0.197546
vt 0.144735 0.180111
vt 0.066468 0.110816
vt 0.082996 0.077428
vt 0.061661 0.078661
vt 0.084457 0.022479
vt 0.011706 0.124129
vt 0.144735 0.051670
vt 0.104452 0.099488
vt 0.107541 0.123935
vt 0.082116 0.143090
vt 0.074324 0.125947
vt 0.434114 0.667313
vt 0.482630 0.588660
vt 0.443425 0.592161
vt 0.121601 0.888333
vt 0.140641 0.879813
vt 0.107000 0.911994
vt 0.396688 0.779251
vt 0.424471 0.810966
vt 0.386635 0.834625
vt 0.430483 0.803020
vt 0.439852 0.807299
vt 0.440018 0.803316
vt 0.474394 0.828538
vt 0.474394 0.783428
vt 0.425272 0.733294
vt 0.399510 0.703886
vt 0.390187 0.755232
vt 0.439533 0.729894
vt 0.430846 0.725925
vt 0.471563 0.749588
vt 0.439688 0.726200
vt 0.471563 0.707759
vt 0.640251 0.208432
vt 0.716915 0.372581
vt 0.317121 0.737442
vt 0.115768 0.642186
vt 0.115768 0.783001
vt 0.162706 0.689124
vt 0.477594 0.870713
vt 0.477594 0.974039
vt 0.851649 0.881230
vt 0.561492 0.769954
vt 0.317311 0.983567
vt 0.317311 0.880241
vt 0.536962 0.681697
vt 0.569370 0.900063
vt 0.139693 0.437817
vt 0.066033 0.286751
vt 0.267252 0.154249
vt 0.394035 0.591855
vt 0.025821 0.034924
vt 0.482630 0.679048
vn -0.8564 0.4641 -0.2262
vn 0.2262 0.4641 -0.8564
vn 0.8564 0.4641 0.2262
vn -0.2262 0.4641 0.8564
vn 0.2095 -0.9763 0.0537
vn -0.3635 0.9007 0.2379
vn 0.2379 0.9007 0.3635
vn 0.2379 0.9007 -0.3635
vn -0.3635 0.9007 -0.2379
vn -0.0574 -0.9676 0.2460
vn -0.0577 -0.9731 -0.2232
vn 0.2358 -0.9708 -0.0445
vn -0.3294 -0.1659 0.9295
vn 0.3294 -0.1659 0.9295
vn 0.2262 0.4641 0.8564
vn 0.9655 -0.2460 0.0858
vn 0.9663 -0.2462 -0.0746
vn 0.8564 0.4641 -0.2262
vn 0.2972 0.0324 -0.9543
vn -0.2972 0.0324 -0.9543
vn -0.2262 0.4641 -0.8564
vn -0.9663 -0.2462 -0.0746
vn -0.9655 -0.2460 0.0858
vn -0.8564 0.4641 0.2262
vn -0.8269 -0.4891 -0.2774
vn 0.0000 0.0000 -1.0000
vn 0.8269 -0.4891 -0.2774
vn -0.9366 0.0000 -0.3503
vn 0.0000 -0.8699 -0.4933
vn 0.4173 0.9018 -0.1124
vn 0.3503 0.0000 -0.9366
vn 0.9366 0.0000 0.3503
vn -0.3503 0.0000 0.9366
vn 0.0317 -0.9994 0.0118
vn 0.0000 1.0000 -0.0000
vn -0.9474 0.0000 0.3202
vn -0.3202 0.0000 -0.9474
vn 0.9474 0.0000 -0.3202
vn 0.3202 0.0000 0.9474
vn -0.0320 -0.9994 0.0108
vn -0.7492 0.6315 0.1997
vn -0.6553 -0.1798 -0.7336
vn 0.8700 -0.4462 0.2099
vn -0.2865 0.2062 0.9356
vn 0.8116 0.5698 -0.1288
vn -0.0977 0.9952 0.0000
vn 0.9644 0.2645 0.0000
vn 0.5202 -0.4385 -0.7328
vn 0.0617 -0.6279 -0.7758
vn -0.6343 0.2611 -0.7276
vn 0.3220 0.4713 -0.8211
vn 0.3177 -0.1629 0.9341
vn 0.6553 -0.3371 -0.6759
vn -0.9247 -0.3713 0.0839
vn 0.2865 0.4074 0.8671
vn 0.0977 0.9707 -0.2194
vn -0.9644 0.2580 -0.0583
vn -0.0000 -0.2205 -0.9754
vn -0.5202 -0.5893 -0.6181
vn -0.0617 -0.7835 -0.6183
vn 0.6343 0.0943 -0.7673
vn -0.3220 0.2786 -0.9048
vn -0.3177 0.0470 0.9470
vn -0.9014 0.3247 -0.2865
vn 0.2840 0.3478 -0.8935
vn 0.9111 0.2935 0.2896
vn -0.2783 0.3952 0.8755
vn 0.3478 -0.8935 0.2840
vn -0.3869 0.8788 0.2793
vn 0.3015 0.9485 0.0975
vn 0.2793 0.8788 -0.3869
vn -0.3668 0.8866 -0.2818
vn -0.2865 -0.9014 0.3247
vn -0.2889 -0.9091 -0.3002
vn 0.3247 -0.9014 -0.2865
vn -0.3668 -0.2818 0.8866
vn 0.3952 -0.2783 0.8755
vn 0.2896 0.2935 0.9111
vn 0.8755 -0.2783 0.3952
vn 0.8866 -0.2818 -0.3668
vn 0.8755 0.3952 -0.2783
vn 0.3247 -0.2865 -0.9014
vn -0.3002 -0.2889 -0.9091
vn -0.2865 0.3247 -0.9014
vn -0.9091 -0.2889 -0.3002
vn -0.9014 -0.2865 0.3247
vn -0.8935 0.3478 0.2840
vn -0.6265 0.2402 -0.7415
vn 0.4835 0.2037 -0.8513
vn 0.9959 -0.0013 -0.0909
vn 0.1533 0.9881 -0.0155
vn 0.0702 -0.8653 -0.4963
vn -0.0929 0.9547 -0.2828
vn 0.7500 -0.4713 -0.4642
vn 0.4849 0.2039 -0.8505
vn 0.6265 0.2402 -0.7415
vn -0.5025 0.2350 -0.8320
vn -0.9959 -0.0013 -0.0909
vn -0.1545 0.9879 -0.0132
vn -0.1445 -0.8375 -0.5270
vn 0.5917 0.8030 -0.0719
vn -0.7500 -0.4713 -0.4642
vn -0.5486 0.1687 -0.8189
vn -0.4173 0.9018 -0.1124
vn 0.0000 -0.3395 0.9406
vn 0.0000 0.9328 -0.3603
vn -0.8021 0.5128 -0.3060
vn 0.9183 -0.2798 -0.2801
vn 0.1055 -0.9773 -0.1836
vn -0.1194 0.9901 -0.0743
vn 0.8021 0.5128 -0.3060
vn -0.9183 -0.2798 -0.2801
vn -0.1438 -0.9613 -0.2350
vn 0.1194 0.9901 -0.0743
vn -0.1764 0.2780 -0.9442
vn 0.1764 0.2780 -0.9442
vn -0.8615 0.3346 -0.3819
vn 0.3819 0.3346 -0.8615
vn 0.8615 0.3346 0.3819
vn -0.3819 0.3346 0.8615
vn 0.0574 -0.9676 0.2460
vn -0.2379 0.9007 0.3635
vn 0.3635 0.9007 0.2379
vn 0.3635 0.9007 -0.2379
vn -0.2379 0.9007 -0.3635
vn -0.2095 -0.9763 0.0537
vn -0.2358 -0.9708 -0.0445
vn 0.0577 -0.9731 -0.2232
vn -0.2461 -0.2662 0.9320
vn 0.2461 -0.2662 0.9320
vn 0.3819 0.3346 0.8615
vn 0.9630 -0.0893 0.2543
vn 0.9666 -0.0237 -0.2553
vn 0.8615 0.3346 -0.3819
vn 0.2553 -0.0237 -0.9666
vn -0.2553 -0.0237 -0.9666
vn -0.3819 0.3346 -0.8615
vn -0.9666 -0.0237 -0.2553
vn -0.9630 -0.0893 0.2543
vn -0.8615 0.3346 0.3819
vn -0.7992 -0.5612 -0.2153
vn 0.7992 -0.5612 -0.2153
vn -0.8116 0.5842 0.0000
vn 0.9247 -0.3807 0.0000
vn -0.0173 0.1766 0.9841
vn 0.7492 0.6600 0.0556
vn 0.1912 0.0525 0.9801
vn -0.8700 -0.3889 0.3031
vn 0.0173 0.3892 0.9210
vn -0.1912 0.2673 0.9444
vn -0.9023 0.2868 -0.3219
vn 0.3478 0.2840 -0.8935
vn 0.9107 0.2895 0.2946
vn -0.3869 0.2793 0.8788
vn 0.2840 -0.8935 0.3478
vn -0.2783 0.8755 0.3952
vn 0.0975 0.9485 0.3015
vn 0.3952 0.8755 -0.2783
vn -0.2818 0.8866 -0.3668
vn -0.3219 -0.9023 0.2868
vn -0.3002 -0.9091 -0.2889
vn 0.2868 -0.9023 -0.3219
vn -0.2818 -0.3668 0.8866
vn 0.2793 -0.3869 0.8788
vn 0.2946 0.2895 0.9107
vn 0.8788 -0.3869 0.2793
vn 0.8866 -0.3668 -0.2818
vn 0.8788 0.2793 -0.3869
vn 0.2868 -0.3219 -0.9023
vn -0.2889 -0.3002 -0.9091
vn -0.3219 0.2868 -0.9023
vn -0.9091 -0.3002 -0.2889
vn -0.9023 -0.3219 0.2868
vn -0.8935 0.2840 0.3478
vn 0.5025 0.2350 -0.8320
vn 0.1545 0.9879 -0.0132
vn -0.0460 -0.7199 -0.6926
vn 0.1445 -0.8375 -0.5270
vn -0.1248 0.9862 -0.1087
vn -0.5917 0.8030 -0.0719
vn 0.9109 -0.3647 -0.1931
vn 0.5486 0.1687 -0.8189
vn -0.4835 0.2037 -0.8513
vn -0.1533 0.9881 -0.0155
vn 0.0460 -0.7199 -0.6926
vn -0.0702 -0.8653 -0.4963
vn 0.1248 0.9862 -0.1087
vn 0.0929 0.9547 -0.2828
vn -0.9109 -0.3647 -0.1931
vn -0.4849 0.2039 -0.8505
vn -0.6414 0.6669 -0.3793
vn 0.9639 -0.1547 -0.2167
vn 0.1438 -0.9613 -0.2350
vn -0.0622 0.9892 -0.1331
vn 0.6414 0.6669 -0.3793
vn -0.9639 -0.1547 -0.2167
vn -0.1055 -0.9773 -0.1836
vn 0.0622 0.9892 -0.1331
vn -0.0073 0.1654 -0.9862
vn 0.0073 0.1654 -0.9862
s off
f 26/1/1 4/2/1 12/3/1
f 25/4/2 8/5/2 15/6/2
f 24/7/3 6/8/3 18/9/3
f 23/10/4 2/11/4 10/12/4
f 22/13/5 5/14/5 19/15/5
f 21/16/6 2/11/6 20/17/6
f 21/16/7 6/8/7 17/18/7
f 8/5/8 21/16/8 17/18/8
f 4/2/9 21/16/9 14/19/9
f 22/13/10 1/20/10 9/21/10
f 3/22/11 22/13/11 9/21/11
f 7/23/12 22/13/12 13/24/12
f 23/10/13 1/20/13 19/25/13
f 5/14/14 23/26/14 19/15/14
f 6/8/15 23/26/15 18/9/15
f 24/7/16 5/14/16 16/27/16
f 7/23/17 24/7/17 16/27/17
f 8/5/18 24/7/18 15/6/18
f 25/4/19 7/23/19 13/24/19
f 3/22/20 25/4/20 13/24/20
f 4/2/21 25/4/21 12/3/21
f 26/1/22 3/22/22 9/21/22
f 1/20/23 26/1/23 9/21/23
f 2/11/24 26/1/24 10/12/24
f 28/28/25 29/29/25 27/30/25
f 30/31/26 33/32/26 29/29/26
f 33/32/27 32/33/27 31/34/27
f 36/35/28 37/36/28 35/37/28
f 33/32/29 27/30/29 29/29/29
f 32/33/30 135/38/30 136/39/30
f 38/40/31 41/41/31 37/36/31
f 42/42/32 39/43/32 41/41/32
f 39/43/33 36/44/33 35/45/33
f 37/46/34 39/43/34 35/47/34
f 38/48/35 40/49/35 42/42/35
f 44/50/36 45/51/36 43/52/36
f 45/51/37 50/53/37 49/54/37
f 50/53/38 47/55/38 49/54/38
f 48/56/39 43/57/39 47/55/39
f 49/54/40 43/58/40 45/59/40
f 50/53/35 44/60/35 48/56/35
f 51/61/41 54/62/41 53/63/41
f 58/64/42 64/65/42 59/66/42
f 57/67/43 56/68/43 55/69/43
f 66/70/44 52/71/44 51/61/44
f 67/72/45 70/73/45 68/74/45
f 54/62/46 60/75/46 59/66/46
f 59/66/47 56/68/47 58/64/47
f 61/76/26 64/77/26 65/78/26
f 54/62/48 62/79/48 53/63/48
f 54/62/49 64/65/49 61/80/49
f 58/64/50 63/81/50 65/82/50
f 53/83/51 63/81/51 57/67/51
f 56/68/52 66/70/52 55/69/52
f 80/84/53 74/85/53 75/86/53
f 73/87/54 72/88/54 74/85/54
f 68/74/55 82/89/55 67/72/55
f 75/86/56 68/74/56 70/73/56
f 74/85/57 76/90/57 75/86/57
f 81/91/58 80/92/58 77/93/58
f 78/94/59 70/73/59 69/95/59
f 70/73/60 80/84/60 75/86/60
f 74/85/61 79/96/61 73/87/61
f 79/96/62 69/97/62 73/87/62
f 82/89/63 72/88/63 71/98/63
f 108/99/64 86/100/64 94/101/64
f 107/102/65 90/103/65 97/104/65
f 106/105/66 88/106/66 100/107/66
f 105/108/67 84/109/67 92/110/67
f 104/111/68 87/112/68 101/113/68
f 103/114/69 84/109/69 102/115/69
f 103/114/70 88/106/70 99/116/70
f 90/103/71 103/114/71 99/116/71
f 86/100/72 103/114/72 96/117/72
f 104/111/73 83/118/73 91/119/73
f 85/120/74 104/111/74 91/119/74
f 89/121/75 104/111/75 95/122/75
f 105/108/76 83/118/76 101/123/76
f 87/112/77 105/124/77 101/113/77
f 88/106/78 105/124/78 100/107/78
f 106/105/79 87/112/79 98/125/79
f 89/121/80 106/105/80 98/125/80
f 90/103/81 106/105/81 97/104/81
f 107/102/82 89/121/82 95/122/82
f 85/120/83 107/102/83 95/122/83
f 86/100/84 107/102/84 94/101/84
f 108/99/85 85/120/85 91/119/85
f 83/118/86 108/99/86 91/119/86
f 84/109/87 108/99/87 92/110/87
f 110/126/88 111/127/88 109/128/88
f 117/129/89 119/130/89 115/131/89
f 116/132/90 120/133/90 119/130/90
f 116/132/91 118/134/91 114/135/91
f 153/136/92 113/137/92 109/128/92
f 112/138/93 110/126/93 118/134/93
f 119/130/94 113/137/94 115/131/94
f 153/139/95 117/140/95 115/141/95
f 123/142/96 122/143/96 121/144/96
f 129/145/97 131/146/97 128/147/97
f 132/148/98 128/147/98 131/146/98
f 128/147/99 130/149/99 129/145/99
f 125/150/100 127/151/100 155/152/100
f 130/149/101 124/153/101 156/154/101
f 125/150/102 131/146/102 127/151/102
f 155/155/103 129/156/103 156/157/103
f 134/158/35 136/39/35 135/38/35
f 28/28/104 134/158/104 30/31/104
f 28/28/105 136/39/105 133/159/105
f 30/31/106 135/38/106 34/160/106
f 138/161/107 139/162/107 137/163/107
f 140/164/26 143/165/26 139/162/26
f 144/166/108 141/167/108 143/165/108
f 139/162/109 141/167/109 137/163/109
f 140/164/110 142/168/110 144/166/110
f 147/169/111 146/170/111 145/171/111
f 151/172/26 148/173/26 147/169/26
f 149/174/112 152/175/112 151/172/112
f 147/169/113 149/174/113 151/172/113
f 150/176/114 148/173/114 152/175/114
f 155/152/115 124/153/115 123/142/115
f 112/138/116 153/136/116 111/127/116
f 26/1/117 11/177/117 4/2/117
f 25/4/118 14/19/118 8/5/118
f 24/7/119 17/18/119 6/8/119
f 23/10/120 20/17/120 2/11/120
f 22/13/121 16/27/121 5/14/121
f 21/16/122 11/177/122 2/11/122
f 21/16/123 20/178/123 6/8/123
f 8/5/124 14/19/124 21/16/124
f 4/2/125 11/177/125 21/16/125
f 22/13/126 19/25/126 1/20/126
f 3/22/127 13/24/127 22/13/127
f 7/23/128 16/27/128 22/13/128
f 23/10/129 10/12/129 1/20/129
f 5/14/130 18/9/130 23/26/130
f 6/8/131 20/178/131 23/26/131
f 24/7/132 18/9/132 5/14/132
f 7/23/133 15/6/133 24/7/133
f 8/5/134 17/18/134 24/7/134
f 25/4/135 15/6/135 7/23/135
f 3/22/136 12/3/136 25/4/136
f 4/2/137 14/19/137 25/4/137
f 26/1/138 12/3/138 3/22/138
f 1/20/139 10/12/139 26/1/139
f 2/11/140 11/177/140 26/1/140
f 28/28/141 30/31/141 29/29/141
f 30/31/26 34/160/26 33/32/26
f 33/32/142 34/160/142 32/33/142
f 36/35/28 38/40/28 37/36/28
f 33/32/29 31/34/29 27/30/29
f 32/33/30 34/160/30 135/38/30
f 38/40/31 42/42/31 41/41/31
f 42/42/32 40/49/32 39/43/32
f 39/43/33 40/49/33 36/44/33
f 37/46/34 41/41/34 39/43/34
f 38/48/35 36/179/35 40/49/35
f 44/50/36 46/180/36 45/51/36
f 45/51/37 46/180/37 50/53/37
f 50/53/38 48/56/38 47/55/38
f 48/56/39 44/181/39 43/57/39
f 49/54/40 47/55/40 43/58/40
f 50/53/35 46/182/35 44/60/35
f 51/61/143 52/71/143 54/62/143
f 58/64/42 65/82/42 64/65/42
f 57/67/144 58/64/144 56/68/144
f 66/70/145 60/75/145 52/71/145
f 67/72/146 69/95/146 70/73/146
f 54/62/46 52/71/46 60/75/46
f 59/66/47 60/75/47 56/68/47
f 63/183/26 62/184/26 65/78/26
f 62/184/26 61/76/26 65/78/26
f 54/62/48 61/80/48 62/79/48
f 54/62/49 59/66/49 64/65/49
f 58/64/50 57/67/50 63/81/50
f 53/83/51 62/185/51 63/81/51
f 56/68/147 60/75/147 66/70/147
f 80/84/53 81/186/53 74/85/53
f 73/87/148 71/98/148 72/88/148
f 68/74/149 76/90/149 82/89/149
f 75/86/56 76/90/56 68/74/56
f 74/85/57 72/88/57 76/90/57
f 77/93/58 78/187/58 81/91/58
f 78/187/58 79/188/58 81/91/58
f 78/94/59 77/189/59 70/73/59
f 70/73/60 77/189/60 80/84/60
f 74/85/61 81/186/61 79/96/61
f 79/96/62 78/190/62 69/97/62
f 82/89/150 76/90/150 72/88/150
f 108/99/151 93/191/151 86/100/151
f 107/102/152 96/117/152 90/103/152
f 106/105/153 99/116/153 88/106/153
f 105/108/154 102/115/154 84/109/154
f 104/111/155 98/125/155 87/112/155
f 103/114/156 93/191/156 84/109/156
f 103/114/157 102/192/157 88/106/157
f 90/103/158 96/117/158 103/114/158
f 86/100/159 93/191/159 103/114/159
f 104/111/160 101/123/160 83/118/160
f 85/120/161 95/122/161 104/111/161
f 89/121/162 98/125/162 104/111/162
f 105/108/163 92/110/163 83/118/163
f 87/112/164 100/107/164 105/124/164
f 88/106/165 102/192/165 105/124/165
f 106/105/166 100/107/166 87/112/166
f 89/121/167 97/104/167 106/105/167
f 90/103/168 99/116/168 106/105/168
f 107/102/169 97/104/169 89/121/169
f 85/120/170 94/101/170 107/102/170
f 86/100/171 96/117/171 107/102/171
f 108/99/172 94/101/172 85/120/172
f 83/118/173 92/110/173 108/99/173
f 84/109/174 93/191/174 108/99/174
f 110/126/88 112/138/88 111/127/88
f 117/129/175 116/132/175 119/130/175
f 116/132/90 114/135/90 120/133/90
f 116/132/176 117/129/176 118/134/176
f 109/128/177 111/127/177 153/136/177
f 153/136/178 115/131/178 113/137/178
f 118/134/179 117/129/179 154/193/179
f 154/193/180 112/138/180 118/134/180
f 119/130/181 120/133/181 113/137/181
f 153/139/182 154/194/182 117/140/182
f 123/142/96 124/153/96 122/143/96
f 129/145/183 127/151/183 131/146/183
f 132/148/98 126/195/98 128/147/98
f 128/147/184 126/195/184 130/149/184
f 155/152/185 123/142/185 121/144/185
f 121/144/186 125/150/186 155/152/186
f 156/154/187 129/145/187 130/149/187
f 130/149/188 122/143/188 124/153/188
f 125/150/189 132/148/189 131/146/189
f 155/155/190 127/196/190 129/156/190
f 134/158/35 133/159/35 136/39/35
f 28/28/104 133/159/104 134/158/104
f 28/28/105 32/33/105 136/39/105
f 30/31/106 134/158/106 135/38/106
f 138/161/191 140/164/191 139/162/191
f 140/164/26 144/166/26 143/165/26
f 144/166/192 142/168/192 141/167/192
f 139/162/193 143/165/193 141/167/193
f 140/164/194 138/161/194 142/168/194
f 147/169/195 148/173/195 146/170/195
f 151/172/26 152/175/26 148/173/26
f 149/174/196 150/176/196 152/175/196
f 147/169/197 145/171/197 149/174/197
f 150/176/198 146/170/198 148/173/198
f 155/152/199 156/154/199 124/153/199
f 112/138/200 154/193/200 153/136/200
