# Blender v2.83.0 OBJ File: 'meat.blend'
# www.blender.org
o Meat_Meat_Cube
v 0.129679 0.264462 0.477702
v 0.191359 0.307277 -0.467976
v -0.105186 0.445987 -0.387475
v -0.401730 0.307277 -0.306973
v -0.164249 0.397030 -0.605047
v -0.428242 0.273547 -0.533383
v 0.384904 0.000000 0.408417
v 0.325224 -0.000000 -0.504316
v 0.129679 -0.264462 0.477702
v -0.401730 -0.307277 -0.306973
v -0.105186 -0.445987 -0.387475
v -0.125546 0.000000 0.546987
v -0.535596 -0.000000 -0.270633
v 0.305524 -0.182209 0.429966
v 0.138859 -0.099213 0.511515
v -0.046165 -0.182209 0.525438
v 0.072890 -0.068356 0.529424
v 0.234606 0.000000 0.485523
v 0.204827 -0.068356 0.493607
v 0.305524 0.182209 0.429966
v 0.191359 -0.307277 -0.467976
v -0.164249 -0.397030 -0.605047
v 0.218914 -0.000000 -0.709063
v 0.099743 0.273547 -0.676712
v -0.046165 0.182209 0.525438
v -0.053219 -0.000000 -0.663792
v -0.090001 0.084429 -0.653807
v -0.171481 0.122542 -0.631688
v 0.099743 -0.273547 -0.676712
v -0.252961 0.084429 -0.609569
v -0.547412 -0.000000 -0.501032
v -0.428242 -0.273547 -0.533383
v 0.274490 0.000000 0.644342
v 0.245647 -0.066209 0.652172
v 0.181751 -0.096096 0.669518
v 0.117854 -0.066209 0.686864
v 0.204827 0.068356 0.493607
v 0.064945 0.000278 0.676302
v 0.043111 0.000000 0.537508
v 0.138859 0.099213 0.511515
v 0.072890 0.068356 0.529423
v -0.171481 -0.000000 -0.631688
v -0.090001 -0.084429 -0.653807
v -0.171481 -0.122542 -0.631688
v -0.252961 -0.084429 -0.609569
v -0.289743 -0.000000 -0.599584
v 0.117854 0.066209 0.686864
v 0.117467 0.133222 0.725021
v 0.181751 0.096096 0.669518
v 0.265978 0.066209 0.727064
v 0.245647 0.066209 0.652172
v 0.271188 -0.137159 0.663065
v 0.341982 0.000278 0.821133
v 0.374377 0.034478 0.775935
v 0.202081 0.000000 0.744410
v 0.160121 0.079310 0.890727
v 0.125691 0.000278 0.900073
v 0.134537 -0.066209 0.748318
v 0.202081 -0.096096 0.744410
v 0.307552 -0.078754 0.830479
v 0.049898 0.101616 0.743364
v 0.049898 -0.038416 0.743364
v 0.338757 -0.105553 0.644722
v 0.019395 0.031600 0.751644
v 0.085517 0.101616 0.874577
v 0.153087 0.133222 0.856234
v 0.055014 0.031600 0.882857
v 0.202081 0.096096 0.744410
v 0.085517 -0.038416 0.874577
v 0.306808 -0.137159 0.794278
v 0.369260 -0.035538 0.636441
v 0.374377 -0.105553 0.775935
v 0.338757 0.034478 0.644722
v 0.404880 -0.035538 0.767654
vt 0.808659 0.187204
vt 0.837827 0.265884
vt 0.771809 0.256432
vt 0.727079 0.206955
vt 0.729554 0.335843
vt 0.657130 0.228300
vt 0.818051 0.184321
vt 0.887272 0.221167
vt 0.815188 0.174940
vt 0.786056 0.096232
vt 0.852043 0.105723
vt 0.805787 0.177791
vt 0.736563 0.140933
vt 0.817927 0.179231
vt 0.813103 0.178845
vt 0.810105 0.175045
vt 0.811216 0.178733
vt 0.814141 0.182245
vt 0.814247 0.180354
vt 0.813775 0.187072
vt 0.896730 0.155184
vt 0.894303 0.026383
vt 0.966630 0.263394
vt 0.859192 0.335799
vt 0.805905 0.182900
vt 0.015693 0.441134
vt 0.351503 0.468676
vt 0.285807 0.543230
vt 0.285751 0.642637
vt 0.015693 0.764578
vt 0.552941 0.198567
vt 0.229573 0.198613
vt 0.258319 0.978463
vt 0.360376 0.708288
vt 0.657170 0.098645
vt 0.764745 0.026300
vt 0.966630 0.133853
vt 0.139517 0.007643
vt 0.092362 0.086069
vt 0.090909 0.084393
vt 0.011246 0.032202
vt 0.088228 0.083718
vt 0.086074 0.085320
vt 0.170435 0.133745
vt 0.170435 0.066913
vt 0.084020 0.088665
vt 0.010408 0.106214
vt 0.810738 0.183291
vt 0.812638 0.183392
vt 0.809697 0.179877
vt 0.809605 0.181771
vt 0.387826 0.096851
vt 0.346132 0.149317
vt 0.319494 0.104668
vt 0.335360 0.055157
vt 0.380009 0.028518
vt 0.429520 0.044385
vt 0.440292 0.138545
vt 0.456159 0.089033
vt 0.525509 0.534392
vt 0.450884 0.468741
vt 0.459757 0.708353
vt 0.581687 0.978416
vt 0.795567 0.735895
vt 0.795567 0.412451
vt 0.525453 0.633800
vt 0.086711 0.090538
vt 0.087710 0.089009
vt 0.089611 0.090836
vt 0.089679 0.087812
vt 0.091600 0.088881
vt 0.089785 0.085659
vt 0.089665 0.086670
vt 0.089847 0.086732
vt 0.072623 0.004231
vt 0.044841 0.171749
vt 0.112619 0.168289
vt 0.088615 0.087219
vt 0.087743 0.088034
vt 0.087614 0.087863
vt 0.087520 0.086436
vt 0.088549 0.085990
vt 0.089525 0.086466
vt 0.087160 0.088665
vt 0.086597 0.087530
vt 0.090095 0.086007
vt 0.086848 0.088210
vt 0.087562 0.088130
vt 0.087755 0.088215
vt 0.087455 0.087970
vt 0.088848 0.088452
vt 0.087476 0.087790
vt 0.089562 0.086259
vt 0.090273 0.086330
vt 0.089749 0.086371
vt 0.090523 0.086751
vt 0.089855 0.086532
vt 0.395644 0.165183
vn 0.4380 0.8963 0.0691
vn -0.4404 0.8941 -0.0816
vn 0.9125 0.4046 -0.0597
vn -0.3429 -0.8963 0.2811
vn -0.8174 0.4046 0.4100
vn 0.3451 -0.2065 0.9156
vn 0.1652 -0.2065 0.9644
vn 0.4545 -0.0932 0.8859
vn 0.4545 0.0932 0.8859
vn -0.8174 -0.4046 0.4100
vn 0.4380 -0.8963 0.0691
vn 0.9125 -0.4046 -0.0597
vn -0.4404 -0.8941 -0.0816
vn 0.8120 0.4036 -0.4216
vn 0.8120 -0.4036 -0.4216
vn -0.3429 0.8963 0.2811
vn -0.1639 0.0451 -0.9854
vn -0.2169 0.1000 -0.9711
vn -0.1639 -0.0451 -0.9854
vn -0.3040 0.1000 -0.9474
vn 0.3386 0.8941 -0.2931
vn -0.9137 0.4036 0.0469
vn -0.9137 -0.4036 0.0469
vn 0.3386 -0.8941 -0.2931
vn 0.8840 -0.4114 -0.2220
vn -0.3925 -0.9113 0.1245
vn 0.8840 0.4114 -0.2220
vn -0.9011 -0.4094 0.1426
vn 0.1652 0.2065 0.9644
vn 0.3451 0.2065 0.9156
vn 0.0559 0.0932 0.9941
vn 0.0559 -0.0932 0.9941
vn -0.2620 0.0000 -0.9651
vn -0.2169 -0.1000 -0.9711
vn -0.3569 0.0451 -0.9331
vn -0.3040 -0.1000 -0.9474
vn -0.3569 -0.0451 -0.9331
vn -0.4229 0.4465 -0.7885
vn 0.3971 0.9114 -0.1078
vn -0.1648 -0.2074 -0.9643
vn -0.0295 0.8072 0.5896
vn 0.4015 -0.9113 -0.0910
vn 0.4016 -0.9113 -0.0910
vn 0.4015 0.9113 -0.0910
vn -0.7767 0.5865 0.2298
vn -0.3925 0.9113 0.1245
vn 0.8500 -0.3209 0.4177
vn 0.0578 0.0000 0.9983
vn -0.6322 0.0000 0.7748
vn -0.3958 0.5705 0.7196
vn -0.4146 0.4586 -0.7860
vn -0.3154 -0.9451 0.0856
vn -0.1089 -0.0698 -0.9916
vn -0.3968 -0.9115 0.1077
vn -0.3971 -0.9114 0.1078
vn -0.8796 0.4114 0.2388
vn -0.3971 0.9114 0.1078
vn -0.8796 -0.4114 0.2388
vn -0.8623 -0.3302 -0.3840
vn -0.1556 0.1826 0.9708
vn -0.0221 0.5368 0.8434
vn 0.4210 0.8998 -0.1143
vn 0.5122 -0.7753 0.3695
vn 0.3971 -0.9114 -0.1078
vn 0.8796 -0.4114 -0.2388
vn 0.8796 0.4114 -0.2388
vn -0.4091 -0.9057 0.1110
vn -0.4081 -0.9062 0.1108
vn 0.5846 -0.1607 0.7952
vn 0.4316 -0.4792 0.7642
vn 0.3152 0.9451 -0.0856
vn -0.0464 0.0974 -0.9942
vn -0.7789 -0.5833 0.2304
vn 0.7025 0.2263 0.6747
vn 0.4016 0.9113 -0.0910
vn -0.9014 0.4094 0.1410
vn 0.9613 0.0000 0.2757
vn 0.6704 -0.6645 0.3302
vn -0.4593 0.2990 0.8364
vn 0.2620 0.0000 0.9651
vn -0.7712 0.2677 -0.5776
vn -0.6449 -0.5903 -0.4853
vn 0.9050 0.3067 0.2947
vn -0.3332 -0.2526 0.9084
vn -0.5212 -0.4448 0.7283
s 1
f 1/1/1 2/2/1 3/3/1
f 4/4/2 5/5/2 6/6/2
f 2/2/3 7/7/3 8/8/3
f 9/9/4 10/10/4 11/11/4
f 12/12/5 4/4/5 13/13/5
f 14/14/6 15/15/6 9/9/6
f 16/16/7 15/15/7 17/17/7
f 14/14/8 18/18/8 19/19/8
f 20/20/9 18/18/9 7/7/9
f 12/12/10 10/10/10 16/16/10
f 9/9/11 21/21/11 14/14/11
f 21/21/12 7/7/12 14/14/12
f 10/10/13 22/22/13 11/11/13
f 2/2/14 23/23/14 24/24/14
f 21/21/15 23/23/15 8/8/15
f 1/1/16 4/4/16 25/25/16
f 24/26/17 26/27/17 27/28/17
f 24/26/18 28/29/18 5/30/18
f 29/31/19 26/27/19 23/32/19
f 6/33/20 28/29/20 30/34/20
f 2/2/21 5/5/21 3/3/21
f 4/4/22 31/35/22 13/13/22
f 10/10/23 31/35/23 32/36/23
f 21/21/24 22/22/24 29/37/24
f 19/38/25 33/39/25 34/40/25
f 17/41/26 35/42/26 36/43/26
f 37/44/27 33/39/27 18/45/27
f 17/41/28 38/46/28 39/47/28
f 25/25/29 40/48/29 1/1/29
f 20/20/30 40/48/30 37/49/30
f 25/25/31 39/50/31 41/51/31
f 16/16/32 39/50/32 12/12/32
f 42/52/33 27/53/33 26/54/33
f 42/52/33 43/55/33 44/56/33
f 45/57/33 42/52/33 44/56/33
f 30/58/33 42/52/33 46/59/33
f 29/31/34 44/60/34 43/61/34
f 6/33/35 46/62/35 31/63/35
f 32/64/36 44/60/36 22/65/36
f 32/64/37 46/62/37 45/66/37
f 47/67/38 48/68/38 49/69/38
f 49/69/39 50/70/39 51/71/39
f 34/40/40 52/72/40 35/42/40
f 53/73/41 54/74/41 50/70/41
f 19/38/42 35/42/42 15/75/43
f 37/44/44 49/69/44 51/71/44
f 41/76/45 38/46/45 47/67/45
f 41/76/46 49/69/46 40/77/46
f 55/78/47 56/79/47 57/80/47
f 55/78/48 58/81/48 59/82/48
f 60/83/49 55/78/49 59/82/49
f 50/70/50 55/78/50 53/73/50
f 38/46/51 61/84/51 47/67/51
f 58/81/52 62/85/52 36/43/52
f 33/39/53 63/86/53 34/40/53
f 35/42/54 58/81/55 36/43/55
f 64/87/56 65/88/56 61/84/56
f 61/84/57 66/89/57 48/68/57
f 62/85/58 67/90/58 64/87/58
f 38/46/59 62/85/59 64/87/59
f 57/80/60 65/88/60 67/90/60
f 56/79/61 66/89/61 65/88/61
f 68/91/62 48/68/62 66/89/62
f 57/80/63 69/92/63 58/81/63
f 63/86/64 70/93/64 52/72/64
f 71/94/65 72/95/65 63/86/65
f 73/96/66 74/97/66 71/94/66
f 59/82/67 52/72/68 70/93/68
f 53/73/69 72/95/69 74/97/69
f 60/83/70 70/93/70 72/95/70
f 50/70/71 73/96/71 51/71/71
f 33/39/72 73/96/72 71/94/72
f 1/1/1 20/20/1 2/2/1
f 4/4/2 3/3/2 5/5/2
f 2/2/3 20/20/3 7/7/3
f 9/9/4 16/16/4 10/10/4
f 12/12/5 25/25/5 4/4/5
f 14/14/6 19/19/6 15/15/6
f 16/16/7 9/9/7 15/15/7
f 14/14/8 7/7/8 18/18/8
f 20/20/9 37/49/9 18/18/9
f 12/12/10 13/13/10 10/10/10
f 9/9/11 11/11/11 21/21/11
f 21/21/12 8/8/12 7/7/12
f 10/10/13 32/36/13 22/22/13
f 2/2/14 8/8/14 23/23/14
f 21/21/15 29/37/15 23/23/15
f 1/1/16 3/3/16 4/4/16
f 24/26/17 23/32/17 26/27/17
f 24/26/18 27/28/18 28/29/18
f 29/31/19 43/61/19 26/27/19
f 6/33/20 5/30/20 28/29/20
f 2/2/21 24/24/21 5/5/21
f 4/4/22 6/6/22 31/35/22
f 10/10/23 13/13/23 31/35/23
f 21/21/24 11/11/24 22/22/24
f 19/38/25 18/45/25 33/39/25
f 17/41/26 15/75/26 35/42/26
f 37/44/27 51/71/27 33/39/27
f 17/41/73 36/43/73 38/46/73
f 25/25/29 41/51/29 40/48/29
f 20/20/30 1/1/30 40/48/30
f 25/25/31 12/12/31 39/50/31
f 16/16/32 17/17/32 39/50/32
f 42/52/33 28/98/33 27/53/33
f 42/52/33 26/54/33 43/55/33
f 45/57/33 46/59/33 42/52/33
f 30/58/33 28/98/33 42/52/33
f 29/31/34 22/65/34 44/60/34
f 6/33/35 30/34/35 46/62/35
f 32/64/36 45/66/36 44/60/36
f 32/64/37 31/63/37 46/62/37
f 47/67/38 61/84/38 48/68/38
f 49/69/39 68/91/39 50/70/39
f 34/40/40 63/86/40 52/72/40
f 53/73/74 74/97/74 54/74/74
f 19/38/42 34/40/42 35/42/42
f 37/44/44 40/77/75 49/69/44
f 41/76/76 39/47/76 38/46/76
f 41/76/46 47/67/46 49/69/46
f 55/78/77 68/91/77 56/79/77
f 55/78/78 57/80/78 58/81/78
f 60/83/79 53/73/79 55/78/79
f 50/70/80 68/91/80 55/78/80
f 38/46/81 64/87/81 61/84/81
f 58/81/52 69/92/52 62/85/52
f 33/39/53 71/94/53 63/86/53
f 35/42/54 59/82/67 58/81/55
f 64/87/56 67/90/56 65/88/56
f 61/84/57 65/88/57 66/89/57
f 62/85/58 69/92/58 67/90/58
f 38/46/82 36/43/82 62/85/82
f 57/80/60 56/79/60 65/88/60
f 56/79/83 68/91/83 66/89/83
f 68/91/62 49/69/62 48/68/62
f 57/80/84 67/90/84 69/92/84
f 63/86/64 72/95/64 70/93/64
f 71/94/65 74/97/65 72/95/65
f 73/96/66 54/74/66 74/97/66
f 59/82/67 35/42/54 52/72/68
f 53/73/69 60/83/69 72/95/69
f 60/83/85 59/82/85 70/93/85
f 50/70/71 54/74/71 73/96/71
f 33/39/72 51/71/72 73/96/72
