# Blender v2.80 (sub 75) OBJ File: 'pear.blend'
# www.blender.org
o Cube
v 0.039755 0.568927 -0.285297
v 0.185981 -0.516664 -0.185981
v 0.039755 0.611565 -0.207709
v 0.185981 -0.503850 0.185981
v -0.039755 0.550365 -0.258467
v -0.185981 -0.516664 -0.185981
v -0.039755 0.635465 -0.228891
v -0.185981 -0.503850 0.185981
v 0.299285 -0.169173 -0.306077
v -0.299285 -0.169173 0.292492
v 0.299285 -0.169173 0.292492
v -0.299285 -0.169173 -0.306077
v -0.026187 0.279690 0.032554
v 0.026187 0.279690 -0.019821
v 0.026187 0.279690 0.032554
v -0.026187 0.279690 -0.019821
v 0.299285 -0.292237 -0.306077
v 0.299285 -0.292237 0.292492
v -0.299285 -0.292237 -0.306077
v -0.299285 -0.292237 0.292492
v -0.021338 0.452731 -0.008301
v 0.024073 0.433343 -0.049364
v 0.024073 0.452731 -0.008301
v -0.021338 0.433343 -0.049364
v 0.000000 0.631893 -0.217760
v 0.047142 0.595607 -0.247855
v -0.047142 0.595607 -0.247855
v 0.000000 0.559322 -0.277950
v 0.000000 0.281233 -0.023676
v 0.035187 0.281233 0.011511
v -0.035187 0.281233 0.011511
v 0.000000 0.281233 0.046698
v 0.001368 0.431391 -0.055700
v 0.033695 0.442886 -0.026196
v -0.027871 0.442886 -0.028331
v 0.001368 0.457506 0.001549
v 0.000000 0.595607 -0.247855
v -0.241001 -0.553661 0.000000
v 0.000000 -0.516664 -0.199686
v 0.000000 -0.482626 0.241001
v 0.241001 -0.553661 0.000000
v 0.000000 -0.123842 -0.366714
v 0.387824 -0.123842 -0.006792
v -0.387824 -0.123842 -0.006792
v 0.000000 -0.123842 0.381031
v 0.000000 -0.328402 0.381031
v -0.387824 -0.328402 -0.006792
v 0.387824 -0.328402 -0.006792
v 0.000000 -0.269359 -0.359194
v 0.000000 -0.579973 0.000000
v -0.092991 -0.486783 -0.263007
v 0.181343 -0.328421 -0.405908
v 0.092991 -0.486783 -0.263007
v -0.181343 -0.328421 -0.405908
v 0.098500 0.220923 -0.098264
v 0.098500 0.220923 0.098737
v -0.098500 0.220923 -0.098264
v -0.098500 0.220923 0.098737
v 0.128432 0.228078 0.003487
v 0.000000 0.228078 -0.117304
v -0.128432 0.228078 0.003487
v 0.000000 0.228078 0.131919
v 0.161575 0.062939 -0.164241
v 0.161575 0.062939 0.158909
v -0.161575 0.062939 -0.164241
v -0.161575 0.062939 0.158909
v 0.209697 0.089182 -0.001346
v 0.000000 0.089182 -0.196605
v -0.209697 0.089182 -0.001346
v 0.000000 0.089182 0.208351
v 0.040010 0.085605 -0.188871
v 0.197539 0.085605 0.037344
v -0.197539 0.085605 -0.042676
v 0.197539 0.085605 -0.042676
v -0.040010 0.085605 -0.188871
v -0.197539 0.085605 0.037344
v 0.040010 0.085605 0.194873
v -0.040010 0.085605 0.194873
v -0.021484 0.567315 -0.091366
v 0.022963 0.536742 -0.126045
v 0.022963 0.558811 -0.083830
v -0.021484 0.530138 -0.116500
v 0.000739 0.532630 -0.125686
v 0.029014 0.549631 -0.104481
v -0.026436 0.549631 -0.105240
v 0.000739 0.567743 -0.083901
v -0.007339 0.566044 -0.087406
v -0.024112 0.546235 -0.112724
v 0.026386 0.555308 -0.090197
v 0.008818 0.533325 -0.123431
v -0.013405 0.529444 -0.118754
v 0.025591 0.546235 -0.112724
v -0.023808 0.563812 -0.098493
v 0.014884 0.560510 -0.080325
vt 0.878903 0.987744
vt 0.855166 0.944995
vt 0.879550 0.943366
vt 0.855838 0.758569
vt 0.886972 0.849143
vt 0.867694 0.850967
vt 0.773940 0.780814
vt 0.820621 0.867240
vt 0.800659 0.873740
vt 0.469144 0.122507
vt 0.630840 0.130311
vt 0.592000 0.212565
vt 0.939622 0.854117
vt 0.910115 0.940165
vt 0.920977 0.850012
vt 0.721903 0.884223
vt 0.726348 0.798613
vt 0.749790 0.878394
vt 0.167734 0.610296
vt 0.204431 0.571990
vt 0.248100 0.604789
vt 0.790260 0.014531
vt 0.778269 0.201610
vt 0.734218 0.174916
vt 0.550542 0.777181
vt 0.359873 0.761043
vt 0.388345 0.716285
vt 0.660267 0.262606
vt 0.637611 0.393496
vt 0.598898 0.359520
vt 0.161470 0.773865
vt 0.253468 0.698843
vt 0.181922 0.790034
vt 0.922814 0.246539
vt 0.905808 0.093042
vt 0.950664 0.238371
vt 0.308837 0.905011
vt 0.466157 0.896763
vt 0.313286 0.936106
vt 0.904621 0.441726
vt 0.904449 0.493304
vt 0.875455 0.487840
vt 0.525249 0.274358
vt 0.435976 0.610717
vt 0.550542 0.585922
vt 0.602483 0.016321
vt 0.313770 0.553499
vt 0.295632 0.500606
vt 0.646721 0.692860
vt 0.688757 0.668608
vt 0.969129 0.768069
vt 0.951125 0.621034
vt 0.997258 0.622402
vt 0.813865 0.767814
vt 0.737208 0.667105
vt 0.786614 0.622769
vt 0.894393 0.754920
vt 0.833964 0.620346
vt 0.892621 0.594897
vt 0.622365 0.819228
vt 0.586204 0.679784
vt 0.784494 0.862847
vt 0.760698 0.871747
vt 0.702958 0.902013
vt 0.735341 0.993756
vt 0.678853 0.906492
vt 0.855502 0.851782
vt 0.834515 0.856404
vt 0.902254 0.847543
vt 0.931839 0.759858
vt 0.931044 0.974737
vt 0.754422 0.965830
vt 0.787433 0.996539
vt 0.795048 0.944881
vt 0.773231 0.958175
vt 0.380287 0.605686
vt 0.289105 0.653421
vt 0.368066 0.552778
vt 0.106686 0.428945
vt 0.292451 0.383432
vt 0.462814 0.461231
vt 0.408009 0.281621
vt 0.346097 0.681674
vt 0.446961 0.452220
vt 0.010620 0.539362
vt 0.118602 0.729592
vt 0.040046 0.694125
vt 0.255695 0.837151
vt 0.202493 0.806051
vt 0.572460 0.547795
vt 0.756533 0.440668
vt 0.723958 0.517817
vt 0.721903 0.307788
vt 0.859045 0.300822
vt 0.830862 0.353911
vt 0.953756 0.426040
vt 0.939820 0.400035
vt 0.876640 0.545874
vt 0.123072 0.928877
vt 0.110376 0.881225
vt 0.151517 0.913259
vt 0.061072 0.880233
vt 0.006951 0.855046
vt 0.069471 0.848888
vt 0.798679 0.397814
vt 0.160415 0.975449
vt 0.121586 0.978755
vt 0.995520 0.383699
vt 0.987517 0.420781
vt 0.088724 0.908822
vt 0.827378 0.966666
vt 0.950086 0.871403
vt 0.712499 0.888050
vt 0.670575 0.810270
vt 0.927025 0.458149
vt 0.008786 0.697204
vt 0.724550 0.546835
vt 0.813262 0.374757
vt 0.909595 0.527083
vt 0.012980 0.893546
vn 0.2632 0.6159 -0.7426
vn -0.4268 0.5525 0.7159
vn -0.9613 -0.1524 -0.2294
vn 0.0050 -0.9272 0.3745
vn 0.8886 0.3661 0.2764
vn 0.2683 -0.5467 -0.7932
vn 0.6461 0.0000 -0.7633
vn 0.9589 0.0000 0.2837
vn -0.9589 0.0000 -0.2837
vn -0.2837 0.0000 0.9589
vn 0.2026 0.6111 -0.7652
vn 0.7382 0.6099 0.2884
vn -0.7352 0.6217 -0.2701
vn -0.2278 0.8382 0.4954
vn -0.1409 -0.6655 0.7330
vn -0.7844 -0.5214 -0.3358
vn 0.7846 -0.5004 0.3661
vn 0.4002 -0.5812 -0.7086
vn 0.1305 -0.2079 -0.9694
vn 0.9120 0.1011 0.3975
vn -0.9612 -0.0243 -0.2749
vn -0.4735 0.2220 0.8524
vn 0.4739 0.2150 0.8539
vn -0.9068 0.1391 0.3980
vn 0.9604 -0.0549 -0.2732
vn -0.1307 -0.2056 -0.9699
vn -0.2681 -0.5493 -0.7914
vn 0.8009 -0.5922 -0.0887
vn -0.9587 0.1662 0.2310
vn 0.4291 0.5269 0.7337
vn 0.0000 0.9293 -0.3694
vn 0.0000 0.8144 -0.5803
vn -0.4621 0.5662 -0.6826
vn 0.3698 -0.5036 -0.7808
vn 0.7844 -0.5214 -0.3358
vn -0.7846 -0.5004 0.3661
vn 0.1409 -0.6655 0.7330
vn 0.2837 0.0000 0.9589
vn -0.9589 0.0000 0.2837
vn 0.9589 0.0000 -0.2837
vn 0.2643 -0.0498 -0.9632
vn -0.1040 -0.9526 0.2859
vn -0.0223 -0.9530 -0.3021
vn 0.1058 -0.9688 -0.2240
vn -0.4002 -0.5812 -0.7086
vn -0.3698 -0.5036 -0.7808
vn 0.7266 0.6040 -0.3276
vn -0.2647 0.5943 -0.7594
vn -0.7326 0.5965 0.3279
vn 0.3282 0.5918 0.7363
vn 0.2278 0.8382 0.4954
vn -0.4883 0.8452 0.2170
vn -0.1577 0.8546 -0.4948
vn 0.4775 0.8554 -0.2006
vn -0.3294 0.4481 0.8311
vn -0.4756 0.8613 -0.1790
vn 0.4941 0.8258 0.2719
vn 0.1230 0.8630 -0.4900
vn 0.0000 0.4296 -0.9030
vn -0.1714 0.5781 0.7978
vn -0.9781 -0.1197 -0.1705
vn 0.1040 -0.9526 0.2859
vn 0.9855 0.0790 0.1499
vn -0.0045 -0.5957 -0.8032
vn -0.2643 -0.0498 -0.9632
vn 0.2388 0.3827 -0.8925
vn 0.2647 0.5943 -0.7594
vn 0.7326 0.5965 0.3279
vn -0.7266 0.6040 -0.3276
vn -0.3184 0.8043 0.5017
vn -0.2972 -0.5515 0.7794
vn -0.7789 -0.5523 -0.2972
vn 0.7719 -0.5625 0.2963
vn 0.5734 -0.7016 -0.4231
vn 0.2786 -0.1776 -0.9438
vn 0.8995 0.1108 0.4227
vn -0.9578 -0.0248 -0.2863
vn -0.4267 0.2191 0.8774
vn 0.4262 0.2128 0.8792
vn -0.9591 0.0903 0.2684
vn 0.9301 -0.0570 -0.3628
vn -0.2785 -0.1729 -0.9448
vn -0.2646 -0.5495 -0.7925
vn 0.9487 -0.3140 0.0366
vn -0.9833 0.1150 0.1413
vn 0.1130 0.6091 0.7850
vn 0.4621 0.5662 -0.6826
vn -0.2843 0.6121 -0.7380
vn 0.0000 0.2284 -0.9736
vn 0.3655 -0.5029 -0.7833
vn 0.7789 -0.5523 -0.2972
vn -0.7719 -0.5625 0.2963
vn 0.2972 -0.5515 0.7794
vn -0.6461 0.0000 -0.7633
vn -0.2388 0.3827 -0.8925
vn -0.0050 -0.9272 0.3745
vn -0.1058 -0.9688 -0.2240
vn -0.0289 -0.9197 -0.3916
vn 0.0223 -0.9530 -0.3021
vn 0.0289 -0.9197 -0.3916
vn -0.5734 -0.7016 -0.4231
vn -0.3655 -0.5029 -0.7833
vn 0.7352 0.6217 -0.2701
vn -0.2026 0.6111 -0.7652
vn -0.7382 0.6099 0.2884
vn 0.3030 0.6001 0.7403
vn 0.3184 0.8043 0.5017
vn -0.4941 0.8258 0.2719
vn -0.1230 0.8630 -0.4900
vn 0.4756 0.8613 -0.1790
vn -0.3204 0.4567 0.8299
vn -0.4775 0.8554 -0.2006
vn 0.4883 0.8452 0.2170
vn 0.1577 0.8546 -0.4948
vn -0.3030 0.6001 0.7403
vn 0.3137 0.4561 0.8328
vn -0.8298 0.4729 0.2963
vn -0.1998 0.4841 -0.8519
vn 0.8260 0.4906 -0.2775
vn -0.8213 0.4656 -0.3298
vn 0.8269 0.4557 0.3296
vn 0.2578 0.4582 -0.8507
vn -0.3087 0.6054 0.7336
vn 0.3294 0.4481 0.8311
vn -0.8269 0.4557 0.3296
vn -0.2578 0.4582 -0.8507
vn 0.8213 0.4656 -0.3298
vn -0.8260 0.4906 -0.2775
vn 0.8298 0.4729 0.2963
vn 0.1998 0.4841 -0.8519
vn 0.3326 0.8512 0.4061
vn -0.9798 0.0988 0.1741
vn 0.9873 -0.0876 -0.1324
vn 0.1357 -0.9758 -0.1717
vn 0.2008 -0.9641 -0.1737
vn 0.9826 0.1360 0.1267
vn -0.9780 -0.1831 0.0998
vn -0.0453 0.8927 0.4484
vn 0.3536 0.8424 0.4067
vn -0.9573 0.1875 0.2201
vn 0.9321 -0.1867 -0.3103
vn -0.1195 -0.9849 -0.1249
vn 0.1319 -0.9763 -0.1718
vn 0.9032 0.2552 0.3452
vn -0.8617 -0.5060 -0.0380
vn -0.3533 0.8429 0.4059
vn 0.7239 0.6175 -0.3077
vn -0.2451 0.6072 -0.7558
vn -0.7297 0.6103 0.3083
vn 0.3087 0.6054 0.7336
vn 0.2451 0.6072 -0.7558
vn 0.7297 0.6103 0.3083
vn -0.7239 0.6175 -0.3077
vn -0.3137 0.4561 0.8328
vn 0.3204 0.4567 0.8299
vn -0.8269 0.4733 0.3036
vn -0.2076 0.4850 -0.8495
vn 0.8231 0.4915 -0.2847
vn -0.3282 0.5918 0.7363
vn -0.8231 0.4915 -0.2847
vn 0.8269 0.4733 0.3036
vn 0.2076 0.4850 -0.8495
s off
f 37/1/1 7/2/1 25/3/1
f 21/4/2 86/5/2 87/6/2
f 24/7/3 85/8/3 88/9/3
f 50/10/4 4/11/4 40/12/4
f 89/13/5 3/14/5 81/15/5
f 90/16/6 33/17/6 83/18/6
f 9/19/7 17/20/7 52/21/7
f 48/22/8 11/23/8 18/24/8
f 47/25/9 12/26/9 19/27/9
f 46/28/10 10/29/10 20/30/10
f 71/31/11 42/32/11 68/33/11
f 72/34/12 43/35/12 67/36/12
f 73/37/13 44/38/13 69/39/13
f 62/40/14 13/41/14 58/42/14
f 46/28/15 8/43/15 40/12/15
f 47/25/16 6/44/16 38/45/16
f 48/22/17 4/11/17 41/46/17
f 53/47/18 17/20/18 2/48/18
f 33/17/19 14/49/19 29/50/19
f 34/51/20 15/52/20 30/53/20
f 35/54/21 16/55/21 31/56/21
f 36/57/22 13/58/22 32/59/22
f 15/52/23 36/57/23 32/59/23
f 13/58/24 35/54/24 31/56/24
f 14/49/25 34/60/25 30/61/25
f 16/55/26 33/17/26 29/50/26
f 33/17/27 82/62/27 91/63/27
f 92/64/28 26/65/28 84/66/28
f 35/54/29 79/67/29 93/68/29
f 94/69/30 23/70/30 81/15/30
f 37/1/31 3/14/31 26/71/31
f 1/72/32 37/73/32 26/65/32
f 5/74/33 37/73/33 28/75/33
f 51/76/34 49/77/34 39/78/34
f 2/48/35 48/79/35 41/80/35
f 8/43/36 47/81/36 38/82/36
f 4/11/37 46/28/37 40/12/37
f 11/23/38 46/28/38 18/24/38
f 10/29/39 47/81/39 20/30/39
f 9/19/40 48/79/40 17/20/40
f 42/32/41 49/77/41 54/83/41
f 50/10/42 8/43/42 38/82/42
f 50/84/43 6/44/43 39/78/43
f 2/48/44 41/80/44 50/84/44
f 19/27/45 51/76/45 6/44/45
f 49/77/46 53/47/46 39/78/46
f 43/85/47 63/86/47 74/87/47
f 42/32/48 65/88/48 75/89/48
f 44/90/49 66/91/49 76/92/49
f 45/93/50 64/94/50 77/95/50
f 15/96/51 62/40/51 56/97/51
f 13/41/52 61/98/52 58/42/52
f 16/99/53 60/100/53 57/101/53
f 14/102/54 59/103/54 55/104/54
f 78/105/55 58/42/55 66/91/55
f 16/99/56 61/106/56 31/107/56
f 15/96/57 59/108/57 30/109/57
f 14/102/58 60/100/58 29/110/58
f 37/1/59 27/111/59 7/2/59
f 87/6/60 79/67/60 21/4/60
f 88/9/61 82/62/61 24/7/61
f 50/10/62 41/46/62 4/11/62
f 84/112/63 3/14/63 89/13/63
f 90/16/64 80/113/64 22/114/64
f 52/21/65 49/77/65 42/32/65
f 42/32/66 9/19/66 52/21/66
f 48/22/8 43/35/8 11/23/8
f 47/25/9 44/38/9 12/26/9
f 46/28/10 45/93/10 10/29/10
f 63/86/67 42/32/67 71/31/67
f 64/94/68 43/35/68 72/34/68
f 65/88/69 44/38/69 73/37/69
f 62/40/70 32/115/70 13/41/70
f 46/28/71 20/30/71 8/43/71
f 47/25/72 19/27/72 6/44/72
f 48/22/73 18/24/73 4/11/73
f 53/47/74 52/21/74 17/20/74
f 33/17/75 22/114/75 14/49/75
f 34/51/76 23/70/76 15/52/76
f 35/54/77 24/7/77 16/55/77
f 36/57/78 21/4/78 13/58/78
f 15/52/79 23/70/79 36/57/79
f 13/58/80 21/4/80 35/54/80
f 14/49/81 22/114/81 34/60/81
f 16/55/82 24/7/82 33/17/82
f 91/63/83 83/18/83 33/17/83
f 80/113/84 26/65/84 92/64/84
f 93/68/85 85/8/85 35/54/85
f 94/69/86 86/5/86 36/57/86
f 37/1/87 25/3/87 3/14/87
f 1/72/88 28/75/88 37/73/88
f 5/74/89 27/111/89 37/73/89
f 51/76/90 54/83/90 49/77/90
f 2/48/91 17/20/91 48/79/91
f 8/43/92 20/30/92 47/81/92
f 4/11/93 18/24/93 46/28/93
f 11/23/38 45/93/38 46/28/38
f 10/29/39 44/90/39 47/81/39
f 9/19/40 43/85/40 48/79/40
f 54/83/94 19/27/94 12/26/94
f 12/26/95 42/32/95 54/83/95
f 50/10/96 40/12/96 8/43/96
f 38/45/97 6/44/97 50/84/97
f 6/44/98 51/76/98 39/78/98
f 50/84/99 39/78/99 2/48/99
f 39/78/100 53/47/100 2/48/100
f 19/27/101 54/83/101 51/76/101
f 49/77/102 52/21/102 53/47/102
f 74/87/103 67/116/103 43/85/103
f 75/89/104 68/33/104 42/32/104
f 76/92/105 69/117/105 44/90/105
f 77/95/106 70/118/106 45/93/106
f 15/96/107 32/115/107 62/40/107
f 13/41/108 31/119/108 61/98/108
f 16/99/109 29/110/109 60/100/109
f 14/102/110 30/120/110 59/103/110
f 62/40/111 78/105/111 70/118/111
f 16/99/112 57/101/112 61/106/112
f 15/96/113 56/97/113 59/108/113
f 14/102/114 55/104/114 60/100/114
f 45/93/115 70/118/115 78/105/115
f 62/40/116 77/95/116 56/97/116
f 61/98/117 76/92/117 58/42/117
f 60/100/118 75/89/118 57/101/118
f 59/103/119 74/87/119 55/104/119
f 57/101/120 65/88/120 73/37/120
f 56/97/121 64/94/121 72/34/121
f 55/104/122 63/86/122 71/31/122
f 45/93/123 66/91/123 10/29/123
f 56/97/124 77/95/124 64/94/124
f 58/42/125 76/92/125 66/91/125
f 57/101/126 75/89/126 65/88/126
f 55/104/127 74/87/127 63/86/127
f 73/37/128 61/106/128 57/101/128
f 72/34/129 59/108/129 56/97/129
f 71/31/130 60/100/130 55/104/130
f 3/14/131 86/5/131 94/69/131
f 7/2/132 85/8/132 93/68/132
f 22/114/133 80/113/133 92/64/133
f 5/74/134 83/18/134 91/63/134
f 28/75/135 80/113/135 90/16/135
f 34/51/136 84/112/136 89/13/136
f 5/74/137 88/9/137 27/111/137
f 25/3/138 79/67/138 87/6/138
f 3/14/139 94/69/139 81/15/139
f 7/2/140 93/68/140 79/67/140
f 22/114/141 84/66/141 34/60/141
f 5/74/142 91/63/142 82/62/142
f 28/75/143 90/16/143 83/18/143
f 34/51/144 81/15/144 23/70/144
f 27/111/145 88/9/145 85/8/145
f 25/3/146 87/6/146 86/5/146
f 21/4/2 36/57/2 86/5/2
f 24/7/3 35/54/3 85/8/3
f 90/16/6 22/114/6 33/17/6
f 33/17/27 24/7/27 82/62/27
f 35/54/29 21/4/29 79/67/29
f 94/69/30 36/57/30 23/70/30
f 43/85/147 9/19/147 63/86/147
f 42/32/148 12/26/148 65/88/148
f 44/90/149 10/29/149 66/91/149
f 45/93/150 11/23/150 64/94/150
f 84/112/63 26/71/63 3/14/63
f 63/86/151 9/19/151 42/32/151
f 64/94/152 11/23/152 43/35/152
f 65/88/153 12/26/153 44/38/153
f 80/113/84 1/72/84 26/65/84
f 62/40/154 58/42/154 78/105/154
f 62/40/155 70/118/155 77/95/155
f 61/98/156 69/117/156 76/92/156
f 60/100/157 68/33/157 75/89/157
f 59/103/158 67/116/158 74/87/158
f 45/93/159 78/105/159 66/91/159
f 73/37/160 69/39/160 61/106/160
f 72/34/161 67/36/161 59/108/161
f 71/31/162 68/33/162 60/100/162
f 3/14/131 25/3/131 86/5/131
f 7/2/132 27/111/132 85/8/132
f 5/74/134 28/75/134 83/18/134
f 28/75/135 1/72/135 80/113/135
f 5/74/137 82/62/137 88/9/137
f 25/3/138 7/2/138 79/67/138
f 22/114/141 92/64/141 84/66/141
f 34/51/144 89/13/144 81/15/144
