# Blender v2.80 (sub 75) OBJ File: 'pickaxe.blend'
# www.blender.org
o Pickaxe_Cube
v -0.050959 1.029562 0.147836
v -0.050959 -0.962658 0.147836
v -0.050959 1.029562 -0.024732
v -0.050959 -0.962658 -0.024732
v 0.050959 1.029562 0.147836
v 0.050959 -0.962658 0.147836
v 0.050959 1.029562 -0.024732
v 0.050959 -0.962658 -0.024732
v -0.050959 0.719376 0.147836
v 0.050959 0.719376 -0.024732
v -0.050959 0.719376 -0.024732
v 0.050959 0.719376 0.147836
v 0.071260 -0.962658 0.061552
v -0.000000 -0.962658 0.182212
v 0.000000 1.029562 -0.059107
v -0.071260 1.029562 0.061552
v 0.000000 -0.962658 -0.059107
v 0.071260 1.029562 0.061552
v -0.000000 1.029562 0.182212
v -0.071260 -0.962658 0.061552
v -0.000000 0.719376 0.182212
v -0.071260 0.719376 0.061552
v 0.071260 0.719376 0.061552
v 0.000000 0.719376 -0.059107
v -0.000000 -1.000000 0.061552
v -0.000000 1.059946 0.061552
v -0.050959 0.525879 0.160133
v -0.050959 0.525879 0.031810
v 0.050959 0.525879 0.160133
v 0.050959 0.525879 0.031810
v 0.000000 0.525879 0.006248
v 0.071260 0.525879 0.095971
v -0.071260 0.525879 0.095971
v -0.000000 0.525879 0.185694
v -0.050959 -0.782714 0.133188
v -0.050959 -0.782714 0.027173
v 0.050959 -0.782714 0.133188
v 0.000000 -0.782714 0.006054
v 0.071260 -0.782714 0.080180
v -0.071260 -0.782714 0.080180
v -0.000000 -0.782714 0.154306
v 0.050959 -0.782714 0.027173
v 0.050959 -0.094023 0.061380
v -0.050959 -0.094023 0.178548
v -0.050959 -0.094023 0.061380
v 0.050959 -0.094023 0.178549
v -0.000000 -0.094023 0.038040
v 0.071260 -0.094023 0.119964
v -0.071260 -0.094023 0.119964
v -0.000000 -0.094023 0.201888
v 0.050959 0.250322 0.054225
v -0.050959 0.250322 0.176970
v -0.050959 0.250322 0.054225
v 0.050959 0.250322 0.176970
v 0.000000 0.250322 0.029774
v 0.071260 0.250322 0.115598
v -0.071260 0.250322 0.115598
v -0.000000 0.250322 0.201421
v 0.059663 0.718382 -0.039470
v 0.059663 1.033243 -0.039470
v 0.000000 1.033243 -0.079717
v -0.083432 1.033243 0.061552
v -0.059663 1.033243 -0.039470
v 0.083432 1.033243 0.061552
v 0.059663 1.033243 0.162574
v -0.000000 1.033243 0.202821
v -0.059663 1.033243 0.162574
v -0.059663 0.718382 0.162574
v -0.059663 0.718382 -0.039470
v 0.059663 0.718382 0.162574
v -0.000000 0.718382 0.202821
v -0.083432 0.718382 0.061552
v 0.083432 0.718382 0.061552
v 0.000000 0.718382 -0.070558
v -0.035470 1.021273 0.220319
v -0.054161 0.953243 0.220319
v 0.035470 1.021273 0.220319
v 0.054161 0.953243 0.220319
v 0.015700 0.938464 -0.101432
v 0.015700 1.015627 -0.101432
v 0.000000 1.028743 -0.102842
v -0.015700 1.015627 -0.101432
v -0.015700 0.938464 -0.101432
v 0.000000 0.929951 -0.102842
v 0.015700 0.942812 -0.701474
v 0.015700 0.959923 -0.701474
v 0.000000 0.939395 -0.828386
v -0.015700 0.959923 -0.701474
v -0.015700 0.942812 -0.701474
v 0.000000 0.927561 -0.828386
v 0.000000 1.019203 -0.245814
v -0.015700 1.014009 -0.238485
v -0.015700 0.964749 -0.235757
v 0.015700 0.964749 -0.235757
v 0.015700 1.014009 -0.238485
v 0.000000 0.958009 -0.236221
v 0.000000 0.995769 -0.469286
v 0.015700 0.969796 -0.468616
v -0.015700 0.990024 -0.469979
v -0.015700 0.969796 -0.468616
v 0.015700 0.990024 -0.469979
v 0.000000 0.959255 -0.464490
v -0.035438 1.025632 0.325705
v -0.054112 1.004761 0.325705
v 0.054112 1.004761 0.325705
v 0.035438 1.025632 0.325705
v 0.032502 1.030334 0.453564
v -0.032502 1.030334 0.453564
v 0.049629 1.015448 0.453564
v -0.049629 1.015448 0.453564
v 0.028569 1.024349 0.582917
v -0.028569 1.024349 0.582917
v 0.043624 1.009463 0.582917
v -0.043624 1.009463 0.582917
v 0.024587 1.016655 0.698322
v -0.024587 1.016655 0.698322
v 0.032344 1.001769 0.756473
v -0.032344 1.001769 0.756473
v -0.000000 0.959707 0.220319
v -0.000000 1.008515 0.325705
v -0.000000 1.019202 0.453564
v -0.000000 1.013217 0.582917
v -0.000000 1.005523 0.756473
v -0.000000 1.028707 0.220319
v -0.000000 1.029949 0.325705
v -0.000000 1.034651 0.453564
v -0.000000 1.028667 0.582917
v -0.000000 1.020972 0.698322
vt 0.112300 0.708637
vt 0.066876 0.633123
vt 0.112773 0.603253
vt 0.402317 0.585647
vt 0.436232 0.561374
vt 0.440492 0.572152
vt 0.578839 0.394221
vt 0.618911 0.437614
vt 0.568992 0.396558
vt 0.000103 0.224093
vt 0.036086 0.261952
vt 0.021281 0.289804
vt 0.531815 0.633430
vt 0.497077 0.588555
vt 0.542453 0.632887
vt 0.393294 0.626529
vt 0.389129 0.576908
vt 0.999693 0.163054
vt 0.889713 0.196313
vt 0.889429 0.163054
vt 0.998896 0.244245
vt 0.891850 0.272891
vt 0.890654 0.234922
vt 0.890654 0.091186
vt 0.998843 0.130004
vt 0.889713 0.129795
vt 0.890465 0.021477
vt 0.999897 0.033780
vt 0.891850 0.053217
vt 0.999897 0.292328
vt 0.890465 0.304632
vt 0.998896 0.081863
vt 0.998843 0.196104
vt 0.398916 0.872146
vt 0.350892 0.838969
vt 0.407849 0.867468
vt 0.492459 0.594857
vt 0.000103 0.102017
vt 0.036086 0.064158
vt 0.041646 0.098620
vt 0.042125 0.134597
vt 0.042125 0.191513
vt 0.030928 0.163055
vt 0.425125 0.899264
vt 0.432736 0.897760
vt 0.259833 0.817130
vt 0.293851 0.810148
vt 0.295676 0.819897
vt 0.158400 0.633534
vt 0.177234 0.708928
vt 0.157724 0.784151
vt 0.066200 0.783741
vt 0.111827 0.814021
vt 0.695825 0.132688
vt 0.695217 0.163054
vt 0.697230 0.228454
vt 0.695825 0.193420
vt 0.698448 0.062187
vt 0.697230 0.097654
vt 0.698373 0.295114
vt 0.698448 0.263922
vt 0.698373 0.030994
vt 0.127647 0.163055
vt 0.041646 0.227491
vt 0.124356 0.256407
vt 0.126894 0.100574
vt 0.122671 0.038566
vt 0.021280 0.036306
vt 0.122671 0.287544
vt 0.124356 0.069703
vt 0.126894 0.225536
vt 0.510357 0.193317
vt 0.127654 0.194179
vt 0.508505 0.261407
vt 0.509418 0.098934
vt 0.127654 0.131931
vt 0.507956 0.033985
vt 0.507957 0.292123
vt 0.508505 0.064701
vt 0.509418 0.227175
vt 0.510357 0.132791
vt 0.510738 0.163054
vt 0.549376 0.681380
vt 0.577329 0.677192
vt 0.566431 0.692738
vt 0.442959 0.670721
vt 0.253803 0.805659
vt 0.324244 0.647855
vt 0.669658 0.479794
vt 0.556275 0.708746
vt 0.502557 0.693886
vt 0.705604 0.483538
vt 0.670407 0.469568
vt 0.561635 0.361302
vt 0.548255 0.360208
vt 0.535333 0.672111
vt 0.347490 0.845610
vt 0.498535 0.684046
vt 0.447192 0.664131
vt 0.623788 0.431722
vt 0.404830 0.625867
vt 0.359969 0.595868
vt 0.047863 0.353075
vt 0.091956 0.362084
vt 0.083185 0.376195
vt 0.377339 0.569148
vt 0.319714 0.497761
vt 0.395028 0.542665
vt 0.784032 0.870032
vt 0.902000 0.927120
vt 0.899148 0.934129
vt 0.796665 0.847502
vt 0.791149 0.857606
vt 0.534746 0.789301
vt 0.533403 0.774432
vt 0.629704 0.631074
vt 0.644057 0.626732
vt 0.980992 0.971563
vt 0.915496 0.909830
vt 0.988357 0.963914
vt 0.976687 0.981270
vt 0.812783 0.827318
vt 0.910076 0.915110
vt 0.803949 0.838589
vt 0.775680 0.880577
vt 0.819407 0.815610
vt 0.428980 0.489116
vt 0.416658 0.448703
vt 0.668877 0.746543
vt 0.666079 0.759628
vt 0.698767 0.711049
vt 0.689933 0.718998
vt 0.633394 0.808191
vt 0.654998 0.767143
vt 0.637427 0.797019
vt 0.331120 0.479908
vt 0.277189 0.562041
vt 0.289021 0.544502
vt 0.282680 0.652476
vt 0.148752 0.419127
vt 0.159596 0.402120
vt 0.202604 0.501683
vt 0.211909 0.488339
vt 0.245964 0.435527
vt 0.166909 0.389363
vt 0.304602 0.521295
vt 0.224765 0.468927
vt 0.341172 0.441057
vt 0.261284 0.404004
vt 0.180322 0.362158
vt 0.061341 0.332764
vt 0.070786 0.312278
vt 0.137497 0.435862
vt 0.073761 0.389879
vt 0.128725 0.447661
vt 0.179841 0.528303
vt 0.109156 0.470824
vt 0.034650 0.373553
vt 0.245675 0.586678
vt 0.237436 0.449389
vt 0.047366 0.708346
vt 0.997975 0.000103
vt 0.997975 0.326006
vt 0.707085 0.491139
vt 0.019663 0.390403
vn 0.1625 0.9568 -0.2409
vn -0.1178 0.9776 -0.1746
vn -0.0814 -0.9965 -0.0192
vn -0.1956 -0.9368 -0.2899
vn -0.2889 0.9550 0.0680
vn 0.1178 0.9776 -0.1746
vn -0.4483 0.0161 0.8937
vn -0.9520 -0.0536 -0.3012
vn 0.9532 0.0192 0.3016
vn 0.4338 -0.2527 -0.8648
vn -0.4338 -0.2527 -0.8648
vn 0.9520 -0.0536 -0.3012
vn -0.9532 0.0192 0.3016
vn 0.4483 0.0161 0.8937
vn 0.0814 -0.9965 0.0192
vn -0.2889 0.9550 -0.0680
vn 0.4614 -0.8805 -0.1086
vn 0.4614 -0.8805 0.1086
vn -0.1956 -0.9368 0.2899
vn 0.0450 -0.9952 0.0864
vn 0.0325 -0.9983 -0.0482
vn -0.3906 0.9160 -0.0919
vn -0.3906 0.9160 0.0919
vn 0.1625 0.9568 0.2409
vn 0.4320 0.0514 0.9004
vn -0.9492 0.0192 0.3140
vn 0.9492 -0.0224 -0.3140
vn -0.4314 -0.0731 -0.8992
vn 0.4314 -0.0731 -0.8992
vn 0.9492 0.0192 0.3140
vn -0.9492 -0.0224 -0.3140
vn -0.4320 0.0514 0.9004
vn -0.5547 0.1275 0.8222
vn -0.9713 0.0659 -0.2285
vn 0.9731 -0.0237 0.2290
vn 0.5356 0.2875 -0.7940
vn -0.5356 0.2875 -0.7940
vn 0.9713 0.0659 -0.2285
vn -0.9731 -0.0237 0.2290
vn 0.5547 0.1275 0.8222
vn -0.3821 -0.0607 0.9221
vn -0.9337 0.0178 -0.3576
vn 0.9337 -0.0207 0.3576
vn 0.3825 0.0429 -0.9230
vn -0.3825 0.0429 -0.9230
vn 0.9337 0.0178 -0.3576
vn -0.9337 -0.0207 0.3576
vn 0.3821 -0.0607 0.9221
vn -0.4164 0.0012 0.9092
vn -0.9449 -0.0042 -0.3274
vn 0.9449 0.0015 0.3274
vn 0.4163 -0.0189 -0.9090
vn -0.4163 -0.0189 -0.9090
vn 0.9449 -0.0042 -0.3274
vn -0.9449 0.0015 0.3274
vn 0.4164 0.0012 0.9092
vn 0.6419 0.7527 -0.1465
vn 0.9734 0.0000 0.2290
vn -0.9734 0.0000 -0.2290
vn -0.5493 -0.1873 0.8143
vn -0.9734 0.0000 0.2290
vn 0.9734 0.0000 -0.2290
vn -0.3073 0.8355 -0.4556
vn -0.0325 -0.9983 0.0482
vn -0.0325 -0.9983 -0.0482
vn -0.1178 0.9776 0.1746
vn 0.0814 -0.9965 -0.0192
vn 0.2889 0.9550 0.0680
vn 0.1178 0.9776 0.1746
vn -0.0814 -0.9965 0.0192
vn 0.2889 0.9550 -0.0680
vn -0.8764 0.2408 0.4171
vn 0.1673 0.9528 0.2532
vn 0.2050 0.9779 -0.0404
vn -1.0000 0.0000 -0.0000
vn -0.3364 0.9339 -0.1214
vn -0.4579 -0.1341 -0.8788
vn -0.8156 0.0000 -0.5787
vn 0.8156 0.0000 -0.5787
vn 0.2082 -0.2263 -0.9515
vn 0.9924 0.0000 -0.1228
vn -0.9924 0.0000 -0.1228
vn 1.0000 0.0000 0.0000
vn -0.2573 -0.9627 0.0838
vn 0.5719 -0.8149 0.0944
vn -0.0380 0.9872 -0.1550
vn -0.0086 -0.0723 0.9973
vn 0.3397 0.9384 -0.0626
vn 0.3927 -0.9025 -0.1766
vn -0.4813 -0.8578 -0.1804
vn -0.6416 0.7670 -0.0091
vn 0.7450 0.6666 -0.0273
vn 0.3382 0.9360 -0.0981
vn 0.5541 -0.8323 -0.0180
vn -0.3946 -0.9188 -0.0050
vn -0.3529 0.9307 -0.0964
vn 0.9955 0.0000 0.0948
vn -0.7450 0.6666 -0.0273
vn 0.1066 -0.8933 0.4366
vn 0.1841 0.9443 0.2729
vn -0.1841 0.9443 0.2729
vn 0.1490 0.9863 0.0709
vn -0.6560 0.7547 -0.0127
vn 0.7016 0.7096 0.0654
vn -0.1316 0.9906 -0.0364
vn -0.0752 -0.9937 0.0831
vn 0.7449 0.6665 -0.0296
vn -0.1152 -0.9924 -0.0440
vn -0.0856 -0.9953 -0.0460
vn -0.1493 0.9877 0.0457
vn -0.6550 0.7536 0.0548
vn -0.1673 0.9528 0.2532
vn -0.1726 0.9828 0.0655
vn -0.7013 0.7093 0.0715
vn 0.7274 0.6818 0.0775
vn 0.0753 -0.9959 -0.0496
vn 0.0856 -0.9951 -0.0497
vn 0.0690 -0.9943 0.0807
vn -0.1066 -0.8933 0.4366
vn 0.1315 0.9901 0.0498
vn 0.1209 0.9921 -0.0337
vn -0.2050 0.9779 -0.0404
vn 0.3906 0.9160 -0.0919
vn -0.4614 -0.8805 -0.1086
vn -0.5585 0.0526 0.8279
vn -0.9712 -0.0668 -0.2285
vn 0.9726 0.0407 0.2288
vn 0.5385 -0.2696 -0.7983
vn -0.5385 -0.2696 -0.7983
vn 0.9712 -0.0668 -0.2285
vn -0.9726 0.0407 0.2288
vn 0.5585 0.0526 0.8279
vn 0.1956 -0.9368 -0.2899
vn 0.1956 -0.9368 0.2899
vn -0.4614 -0.8805 0.1086
vn 0.0325 -0.9983 0.0482
vn -0.1625 0.9568 -0.2409
vn -0.1625 0.9568 0.2409
vn 0.3906 0.9160 0.0919
vn 0.4477 0.0545 0.8925
vn -0.9532 0.0215 0.3016
vn 0.9531 -0.0245 -0.3016
vn -0.4471 -0.0761 -0.8913
vn 0.4471 -0.0761 -0.8913
vn 0.9532 0.0215 0.3016
vn -0.9531 -0.0245 -0.3016
vn -0.4477 0.0545 0.8925
vn -0.3818 0.0750 0.9212
vn -0.9332 0.0370 -0.3574
vn 0.9335 0.0291 0.3575
vn 0.3699 0.2575 -0.8927
vn -0.3699 0.2575 -0.8927
vn 0.9332 0.0370 -0.3574
vn -0.9335 0.0291 0.3575
vn 0.3818 0.0750 0.9212
vn -0.4156 -0.0627 0.9074
vn -0.9447 0.0189 -0.3274
vn 0.9447 -0.0216 0.3274
vn 0.4160 0.0451 -0.9082
vn -0.4160 0.0451 -0.9082
vn 0.9447 0.0189 -0.3274
vn -0.9447 -0.0216 0.3274
vn 0.4156 -0.0627 0.9074
vn -0.4326 0.0041 0.9016
vn -0.9494 -0.0065 -0.3141
vn 0.9494 0.0040 0.3141
vn 0.4325 -0.0216 -0.9014
vn -0.4325 -0.0216 -0.9014
vn 0.9494 -0.0065 -0.3141
vn -0.9494 0.0040 0.3141
vn 0.4326 0.0041 0.9016
vn 0.3073 0.8355 -0.4556
vn 0.0086 -0.0723 0.9973
vn -0.6419 0.7527 -0.1465
vn -0.0450 -0.9952 0.0864
vn -0.9955 0.0000 0.0948
vn 0.1121 0.9661 0.2324
vn 0.1209 0.9926 -0.0117
vn 0.0380 0.9872 -0.1550
vn -0.2082 -0.2263 -0.9515
vn 0.4579 -0.1341 -0.8788
vn -0.5719 -0.8149 0.0944
vn 0.2573 -0.9627 0.0838
vn 0.3364 0.9339 -0.1214
vn 0.5493 -0.1873 0.8143
vn 0.6416 0.7670 -0.0091
vn 0.4813 -0.8578 -0.1804
vn -0.3927 -0.9025 -0.1766
vn -0.3397 0.9384 -0.0626
vn 0.9563 0.2627 -0.1280
vn 0.3529 0.9307 -0.0964
vn 0.3946 -0.9188 -0.0050
vn -0.5541 -0.8323 -0.0180
vn -0.3382 0.9360 -0.0981
vn 0.8764 0.2408 0.4171
vn -0.9563 0.2627 -0.1280
vn 0.0628 -0.9056 0.4194
vn 0.1988 0.9487 0.2460
vn -0.1988 0.9487 0.2460
vn 0.1726 0.9828 0.0655
vn -0.7449 0.6665 -0.0296
vn 0.6550 0.7536 0.0548
vn -0.1209 0.9921 -0.0337
vn -0.0690 -0.9943 0.0807
vn 0.6560 0.7547 -0.0127
vn -0.0856 -0.9951 -0.0497
vn -0.0753 -0.9959 -0.0496
vn -0.1315 0.9901 0.0498
vn -0.7016 0.7096 0.0654
vn -0.1121 0.9661 0.2324
vn -0.1490 0.9863 0.0709
vn -0.7274 0.6818 0.0775
vn 0.7013 0.7093 0.0715
vn 0.0856 -0.9953 -0.0460
vn 0.1152 -0.9924 -0.0440
vn 0.0752 -0.9937 0.0831
vn -0.0628 -0.9056 0.4194
vn 0.1493 0.9877 0.0457
vn 0.1316 0.9906 -0.0364
vn -0.1209 0.9926 -0.0117
s off
f 26/1/1 7/2/1 15/3/1
f 19/4/2 65/5/2 5/6/2
f 12/7/3 73/8/3 70/9/3
f 25/10/4 4/11/4 17/12/4
f 7/13/5 64/14/5 60/15/5
f 19/4/6 67/16/6 66/17/6
f 21/18/7 27/19/7 34/20/7
f 22/21/8 28/22/8 33/23/8
f 32/24/9 12/25/9 29/26/9
f 31/27/10 10/28/10 30/29/10
f 11/30/11 31/31/11 28/22/11
f 30/29/12 23/32/12 32/24/12
f 9/33/13 33/23/13 27/19/13
f 29/26/14 21/18/14 34/20/14
f 11/34/15 72/35/15 69/36/15
f 5/6/16 64/14/16 18/37/16
f 25/38/17 8/39/17 13/40/17
f 6/41/18 25/38/18 13/40/18
f 2/42/19 25/10/19 14/43/19
f 24/44/20 69/36/20 74/45/20
f 21/46/21 68/47/21 9/48/21
f 26/1/22 3/49/22 16/50/22
f 1/51/23 26/1/23 16/50/23
f 5/52/24 26/1/24 19/53/24
f 54/54/25 34/20/25 58/55/25
f 27/19/26 57/56/26 52/57/26
f 51/58/27 32/24/27 56/59/27
f 28/22/28 55/60/28 53/61/28
f 55/62/29 30/29/29 51/58/29
f 56/59/30 29/26/30 54/54/30
f 33/23/31 53/61/31 57/56/31
f 34/20/32 52/57/32 58/55/32
f 41/63/33 2/42/33 14/43/33
f 20/64/34 36/65/34 4/11/34
f 39/66/35 6/41/35 13/40/35
f 38/67/36 8/39/36 17/68/36
f 4/11/37 38/69/37 17/12/37
f 42/70/38 13/40/38 8/39/38
f 2/42/39 40/71/39 20/64/39
f 6/41/40 41/63/40 14/43/40
f 41/63/41 44/72/41 35/73/41
f 40/71/42 45/74/42 36/65/42
f 48/75/43 37/76/43 39/66/43
f 47/77/44 42/70/44 38/67/44
f 36/65/45 47/78/45 38/69/45
f 43/79/46 39/66/46 42/70/46
f 35/73/47 49/80/47 40/71/47
f 46/81/48 41/63/48 37/76/48
f 58/55/49 44/72/49 50/82/49
f 57/56/50 45/74/50 49/80/50
f 48/75/51 54/54/51 46/81/51
f 47/77/52 51/58/52 43/79/52
f 53/61/53 47/78/53 45/74/53
f 43/79/54 56/59/54 48/75/54
f 52/57/55 49/80/55 44/72/55
f 46/81/56 58/55/56 50/82/56
f 61/83/57 80/84/57 81/85/57
f 64/14/58 70/9/58 73/8/58
f 62/86/59 69/36/59 72/35/59
f 71/87/60 76/88/60 68/47/60
f 67/16/61 72/35/61 68/47/61
f 60/15/62 73/8/62 59/89/62
f 61/83/63 82/90/63 63/91/63
f 24/92/64 59/89/64 10/93/64
f 21/94/65 70/9/65 71/95/65
f 15/96/66 60/15/66 61/83/66
f 9/48/67 72/35/67 22/97/67
f 3/98/68 62/86/68 16/99/68
f 15/96/69 63/91/69 3/98/69
f 10/93/70 73/8/70 23/100/70
f 1/101/71 62/86/71 67/16/71
f 67/16/72 76/88/72 75/102/72
f 123/103/73 115/104/73 128/105/73
f 124/106/74 106/107/74 77/108/74
f 100/109/75 88/110/75 89/111/75
f 97/112/76 88/110/76 99/113/76
f 69/36/77 84/114/77 74/45/77
f 63/91/78 83/115/78 69/36/78
f 60/15/79 79/116/79 80/84/79
f 59/89/80 84/117/80 79/116/80
f 87/118/81 85/119/81 90/120/81
f 89/111/82 87/118/82 90/121/82
f 98/122/83 86/123/83 101/124/83
f 102/125/84 89/111/84 90/121/84
f 102/126/85 85/119/85 98/122/85
f 97/112/86 86/123/86 87/118/86
f 71/95/87 78/127/87 119/128/87
f 81/85/88 95/129/88 91/130/88
f 79/116/89 96/131/89 94/132/89
f 83/115/90 96/133/90 84/114/90
f 80/84/83 94/132/83 95/129/83
f 81/85/91 92/134/91 82/90/91
f 82/90/75 93/135/75 83/115/75
f 105/136/92 77/108/92 106/107/92
f 91/130/93 101/124/93 97/112/93
f 94/132/94 102/126/94 98/122/94
f 93/135/95 102/125/95 96/133/95
f 95/129/83 98/122/83 101/124/83
f 91/130/96 99/113/96 92/134/96
f 92/134/75 100/109/75 93/135/75
f 65/5/97 78/127/97 70/9/97
f 75/102/98 104/137/98 103/138/98
f 119/139/99 104/137/99 76/88/99
f 66/17/100 77/108/100 65/5/100
f 75/102/101 66/17/101 67/16/101
f 127/140/102 115/104/102 111/141/102
f 103/138/103 110/142/103 108/143/103
f 109/144/104 111/141/104 113/145/104
f 125/146/105 108/143/105 126/147/105
f 120/148/106 109/144/106 121/149/106
f 106/107/107 109/144/107 105/136/107
f 122/150/108 117/151/108 123/152/108
f 121/149/109 113/145/109 122/150/109
f 126/147/110 112/153/110 127/140/110
f 110/142/111 112/153/111 108/143/111
f 116/154/112 123/103/112 128/105/112
f 127/140/113 116/154/113 128/105/113
f 114/155/114 116/154/114 112/153/114
f 113/145/115 115/104/115 117/151/115
f 121/156/116 114/155/116 110/142/116
f 122/157/117 118/158/117 114/155/117
f 120/159/118 110/142/118 104/137/118
f 105/136/119 119/128/119 78/127/119
f 126/147/120 111/141/120 107/160/120
f 125/146/121 107/160/121 106/107/121
f 103/138/122 124/106/122 75/102/122
f 26/1/123 18/161/123 7/2/123
f 19/4/2 66/17/2 65/5/2
f 12/7/3 23/100/3 73/8/3
f 25/10/124 20/64/124 4/11/124
f 7/13/5 18/37/5 64/14/5
f 19/4/6 1/101/6 67/16/6
f 21/18/125 9/33/125 27/19/125
f 22/21/126 11/30/126 28/22/126
f 32/24/127 23/32/127 12/25/127
f 31/27/128 24/162/128 10/28/128
f 11/30/129 24/163/129 31/31/129
f 30/29/130 10/28/130 23/32/130
f 9/33/131 22/21/131 33/23/131
f 29/26/132 12/25/132 21/18/132
f 11/34/15 22/97/15 72/35/15
f 5/6/16 65/5/16 64/14/16
f 25/38/133 17/68/133 8/39/133
f 6/41/134 14/43/134 25/38/134
f 2/42/135 20/64/135 25/10/135
f 24/44/136 11/34/136 69/36/136
f 21/46/21 71/87/21 68/47/21
f 26/1/137 15/3/137 3/49/137
f 1/51/138 19/53/138 26/1/138
f 5/52/139 18/161/139 26/1/139
f 54/54/140 29/26/140 34/20/140
f 27/19/141 33/23/141 57/56/141
f 51/58/142 30/29/142 32/24/142
f 28/22/143 31/31/143 55/60/143
f 55/62/144 31/27/144 30/29/144
f 56/59/145 32/24/145 29/26/145
f 33/23/146 28/22/146 53/61/146
f 34/20/147 27/19/147 52/57/147
f 41/63/148 35/73/148 2/42/148
f 20/64/149 40/71/149 36/65/149
f 39/66/150 37/76/150 6/41/150
f 38/67/151 42/70/151 8/39/151
f 4/11/152 36/65/152 38/69/152
f 42/70/153 39/66/153 13/40/153
f 2/42/154 35/73/154 40/71/154
f 6/41/155 37/76/155 41/63/155
f 41/63/156 50/82/156 44/72/156
f 40/71/157 49/80/157 45/74/157
f 48/75/158 46/81/158 37/76/158
f 47/77/159 43/79/159 42/70/159
f 36/65/160 45/74/160 47/78/160
f 43/79/161 48/75/161 39/66/161
f 35/73/162 44/72/162 49/80/162
f 46/81/163 50/82/163 41/63/163
f 58/55/164 52/57/164 44/72/164
f 57/56/165 53/61/165 45/74/165
f 48/75/166 56/59/166 54/54/166
f 47/77/167 55/62/167 51/58/167
f 53/61/168 55/60/168 47/78/168
f 43/79/169 51/58/169 56/59/169
f 52/57/170 57/56/170 49/80/170
f 46/81/171 54/54/171 58/55/171
f 61/83/172 60/15/172 80/84/172
f 64/14/58 65/5/58 70/9/58
f 62/86/59 63/91/59 69/36/59
f 71/87/173 119/139/173 76/88/173
f 67/16/61 62/86/61 72/35/61
f 60/15/62 64/14/62 73/8/62
f 61/83/174 81/85/174 82/90/174
f 24/92/175 74/164/175 59/89/175
f 21/94/65 12/7/65 70/9/65
f 15/96/66 7/13/66 60/15/66
f 9/48/67 68/47/67 72/35/67
f 3/98/68 63/91/68 62/86/68
f 15/96/69 61/83/69 63/91/69
f 10/93/70 59/89/70 73/8/70
f 1/101/71 16/99/71 62/86/71
f 67/16/176 68/47/176 76/88/176
f 123/103/177 117/151/177 115/104/177
f 124/106/178 125/146/178 106/107/178
f 100/109/75 99/113/75 88/110/75
f 97/112/179 87/118/179 88/110/179
f 69/36/180 83/115/180 84/114/180
f 63/91/78 82/90/78 83/115/78
f 60/15/79 59/89/79 79/116/79
f 59/89/181 74/164/181 84/117/181
f 87/118/81 86/123/81 85/119/81
f 89/111/82 88/110/82 87/118/82
f 98/122/83 85/119/83 86/123/83
f 102/125/182 100/109/182 89/111/182
f 102/126/183 90/120/183 85/119/183
f 97/112/184 101/124/184 86/123/184
f 71/95/185 70/9/185 78/127/185
f 81/85/186 80/84/186 95/129/186
f 79/116/187 84/117/187 96/131/187
f 83/115/188 93/135/188 96/133/188
f 80/84/83 79/116/83 94/132/83
f 81/85/189 91/130/189 92/134/189
f 82/90/75 92/134/75 93/135/75
f 105/136/190 78/127/190 77/108/190
f 91/130/191 95/129/191 101/124/191
f 94/132/192 96/131/192 102/126/192
f 93/135/193 100/109/193 102/125/193
f 95/129/83 94/132/83 98/122/83
f 91/130/194 97/112/194 99/113/194
f 92/134/75 99/113/75 100/109/75
f 65/5/195 77/108/195 78/127/195
f 75/102/196 76/88/196 104/137/196
f 119/139/197 120/159/197 104/137/197
f 66/17/198 124/106/198 77/108/198
f 75/102/199 124/106/199 66/17/199
f 127/140/200 128/105/200 115/104/200
f 103/138/201 104/137/201 110/142/201
f 109/144/202 107/160/202 111/141/202
f 125/146/203 103/138/203 108/143/203
f 120/148/204 105/136/204 109/144/204
f 106/107/205 107/160/205 109/144/205
f 122/150/206 113/145/206 117/151/206
f 121/149/207 109/144/207 113/145/207
f 126/147/208 108/143/208 112/153/208
f 110/142/209 114/155/209 112/153/209
f 116/154/210 118/158/210 123/103/210
f 127/140/211 112/153/211 116/154/211
f 114/155/212 118/158/212 116/154/212
f 113/145/213 111/141/213 115/104/213
f 121/156/214 122/157/214 114/155/214
f 122/157/215 123/165/215 118/158/215
f 120/159/216 121/156/216 110/142/216
f 105/136/217 120/148/217 119/128/217
f 126/147/218 127/140/218 111/141/218
f 125/146/219 126/147/219 107/160/219
f 103/138/220 125/146/220 124/106/220
