# Blender v2.83.0 OBJ File: 'stoneaxe.blend'
# www.blender.org
o stoneaxe_Cube
v -0.050959 1.029562 0.147836
v -0.050959 -0.962658 0.147836
v -0.050959 1.029562 -0.024732
v -0.050959 -0.962658 -0.024732
v 0.050959 1.029562 0.147836
v 0.050959 -0.962658 0.147836
v 0.050959 1.029562 -0.024732
v 0.050959 -0.962658 -0.024732
v -0.050959 0.719376 0.147836
v 0.050959 0.719376 -0.024732
v -0.050959 0.719376 -0.024732
v 0.050959 0.719376 0.147836
v 0.071260 -0.962658 0.061552
v -0.000000 -0.962658 0.182212
v 0.000000 1.029562 -0.059107
v -0.071260 1.029562 0.061552
v 0.000000 -0.962658 -0.059107
v 0.071260 1.029562 0.061552
v -0.000000 1.029562 0.182212
v -0.071260 -0.962658 0.061552
v -0.000000 0.719376 0.182212
v -0.071260 0.719376 0.061552
v 0.071260 0.719376 0.061552
v 0.000000 0.719376 -0.059107
v -0.000000 -1.000000 0.061552
v -0.000000 1.059946 0.061552
v -0.050959 0.525879 0.160133
v -0.050959 0.525879 0.031810
v 0.050959 0.525879 0.160133
v 0.050959 0.525879 0.031810
v 0.000000 0.525879 0.006248
v 0.071260 0.525879 0.095971
v -0.071260 0.525879 0.095971
v -0.000000 0.525879 0.185694
v -0.050959 -0.782714 0.133188
v -0.050959 -0.782714 0.027173
v 0.050959 -0.782714 0.133188
v 0.000000 -0.782714 0.006054
v 0.071260 -0.782714 0.080180
v -0.071260 -0.782714 0.080180
v -0.000000 -0.782714 0.154306
v 0.050959 -0.782714 0.027173
v 0.050959 -0.094023 0.061380
v -0.050959 -0.094023 0.178548
v -0.050959 -0.094023 0.061380
v 0.050959 -0.094023 0.178549
v -0.000000 -0.094023 0.038040
v 0.071260 -0.094023 0.119964
v -0.071260 -0.094023 0.119964
v -0.000000 -0.094023 0.201888
v 0.050959 0.250322 0.054225
v -0.050959 0.250322 0.176970
v -0.050959 0.250322 0.054225
v 0.050959 0.250322 0.176970
v 0.000000 0.250322 0.029774
v 0.071260 0.250322 0.115598
v -0.071260 0.250322 0.115598
v -0.000000 0.250322 0.201421
v 0.059663 0.718382 -0.039470
v 0.059663 1.033243 -0.039470
v 0.000000 1.033243 -0.079717
v -0.083432 1.033243 0.061552
v -0.059663 1.033243 -0.039470
v 0.083432 1.033243 0.061552
v 0.059663 1.033243 0.162574
v -0.000000 1.033243 0.202821
v -0.059663 1.033243 0.162574
v -0.059663 0.718382 0.162574
v -0.059663 0.718382 -0.039470
v 0.059663 0.718382 0.162574
v -0.000000 0.718382 0.202821
v -0.083432 0.718382 0.061552
v 0.083432 0.718382 0.061552
v 0.000000 0.718382 -0.079717
v -0.000000 1.010571 0.219284
v -0.028680 1.002486 0.220319
v -0.028680 0.939913 0.220319
v 0.028680 1.002486 0.220319
v 0.028680 0.939913 0.220319
v -0.000000 0.931827 0.219284
v -0.036093 0.971200 0.220319
v 0.036092 0.971200 0.220319
v 0.015700 0.708687 -0.101432
v 0.015700 1.023548 -0.101432
v 0.000000 1.028743 -0.102842
v -0.015700 1.023548 -0.101432
v -0.015700 0.708687 -0.101432
v 0.000000 0.701946 -0.102842
v 0.015700 0.550078 -0.450376
v 0.015700 1.023548 -0.450376
v 0.000000 1.028743 -0.511608
v -0.015700 1.023548 -0.450376
v -0.015700 0.550078 -0.450376
v 0.000000 0.543337 -0.511608
v 0.000000 1.028743 -0.230532
v -0.015700 1.023548 -0.226996
v -0.015700 0.669255 -0.271442
v 0.015700 0.669255 -0.271442
v 0.015700 1.023548 -0.226996
v 0.000000 0.662514 -0.271666
vt 0.105819 0.651280
vt 0.060395 0.575766
vt 0.106292 0.545896
vt 0.234848 0.561786
vt 0.295811 0.535518
vt 0.302838 0.552065
vt 0.349963 0.361205
vt 0.438822 0.388906
vt 0.337486 0.372681
vt 0.000103 0.224093
vt 0.036086 0.261952
vt 0.021281 0.289804
vt 0.486541 0.601887
vt 0.398156 0.561441
vt 0.502906 0.591705
vt 0.239894 0.745549
vt 0.300289 0.775178
vt 0.222735 0.764271
vt 0.999693 0.163054
vt 0.889713 0.196313
vt 0.889429 0.163054
vt 0.998896 0.244245
vt 0.891850 0.272891
vt 0.890654 0.234922
vt 0.890654 0.091186
vt 0.998843 0.130004
vt 0.889713 0.129795
vt 0.890465 0.021477
vt 0.999897 0.033780
vt 0.891850 0.053217
vt 0.999897 0.292328
vt 0.890465 0.304632
vt 0.998896 0.081863
vt 0.998843 0.196104
vt 0.530392 0.929639
vt 0.433653 0.925293
vt 0.542112 0.915087
vt 0.394793 0.573871
vt 0.000103 0.102017
vt 0.036086 0.064158
vt 0.041646 0.098620
vt 0.042125 0.134597
vt 0.042125 0.191513
vt 0.030928 0.163055
vt 0.585440 0.966000
vt 0.606174 0.957178
vt 0.286204 0.986537
vt 0.330757 0.941568
vt 0.343109 0.953315
vt 0.151919 0.576177
vt 0.170753 0.651571
vt 0.151243 0.726794
vt 0.059720 0.726383
vt 0.105347 0.756664
vt 0.695825 0.132688
vt 0.695217 0.163054
vt 0.697230 0.228454
vt 0.695825 0.193420
vt 0.698448 0.062187
vt 0.697230 0.097654
vt 0.698373 0.295114
vt 0.698448 0.263922
vt 0.698373 0.030994
vt 0.127647 0.163055
vt 0.041646 0.227491
vt 0.124356 0.256407
vt 0.126894 0.100574
vt 0.122671 0.038566
vt 0.021280 0.036306
vt 0.122671 0.287544
vt 0.124356 0.069703
vt 0.126894 0.225536
vt 0.510357 0.193317
vt 0.127654 0.194179
vt 0.508505 0.261407
vt 0.509418 0.098934
vt 0.127654 0.131931
vt 0.507956 0.033985
vt 0.507957 0.292123
vt 0.508505 0.064701
vt 0.509418 0.227175
vt 0.510357 0.132791
vt 0.510738 0.163054
vt 0.557311 0.656039
vt 0.598852 0.632566
vt 0.599235 0.656059
vt 0.401930 0.750393
vt 0.228632 0.422514
vt 0.273132 0.336305
vt 0.251300 0.471206
vt 0.254591 0.440788
vt 0.544133 0.397609
vt 0.598811 0.679543
vt 0.503244 0.719690
vt 0.586591 0.347481
vt 0.532568 0.383553
vt 0.294869 0.325873
vt 0.529966 0.656091
vt 0.435203 0.937468
vt 0.487178 0.709931
vt 0.398615 0.738217
vt 0.440282 0.377010
vt 0.307755 0.758758
vt 0.251107 0.837715
vt 0.252538 0.868643
vt 0.225236 0.885459
vt 0.218841 0.542373
vt 0.242892 0.498881
vt 0.244309 0.809299
vt 0.214493 0.798685
vt 0.817701 0.905193
vt 0.903690 0.673968
vt 0.939865 0.899651
vt 0.790233 0.656252
vt 0.763328 0.676133
vt 0.635323 0.927815
vt 0.643115 0.947225
vt 0.607099 0.356102
vt 0.636116 0.385146
vt 0.953242 0.656351
vt 0.939897 0.413194
vt 0.987097 0.399198
vt 0.987097 0.913658
vt 0.817879 0.407646
vt 0.903710 0.638678
vt 0.763360 0.636327
vt 0.847782 0.922049
vt 0.847900 0.390816
vt 0.212687 0.507656
vt 0.643816 0.365837
vt 0.040885 0.650989
vt 0.997975 0.000103
vt 0.997975 0.326006
vt 0.264830 0.975096
vn 0.1625 0.9568 -0.2409
vn -0.1178 0.9776 -0.1746
vn -0.0814 -0.9965 -0.0192
vn -0.1956 -0.9368 -0.2899
vn -0.2889 0.9550 0.0680
vn 0.1178 0.9776 -0.1746
vn -0.4483 0.0161 0.8937
vn -0.9520 -0.0536 -0.3012
vn 0.9532 0.0192 0.3016
vn 0.4338 -0.2527 -0.8648
vn -0.4338 -0.2527 -0.8648
vn 0.9520 -0.0536 -0.3012
vn -0.9532 0.0192 0.3016
vn 0.4483 0.0161 0.8937
vn 0.0814 -0.9965 0.0192
vn -0.2889 0.9550 -0.0680
vn 0.4614 -0.8805 -0.1086
vn 0.4614 -0.8805 0.1086
vn -0.1956 -0.9368 0.2899
vn 0.0325 -0.9983 0.0482
vn 0.0325 -0.9983 -0.0482
vn -0.3906 0.9160 -0.0919
vn -0.3906 0.9160 0.0919
vn 0.1625 0.9568 0.2409
vn 0.4320 0.0514 0.9004
vn -0.9492 0.0192 0.3140
vn 0.9492 -0.0224 -0.3140
vn -0.4314 -0.0731 -0.8992
vn 0.4314 -0.0731 -0.8992
vn 0.9492 0.0192 0.3140
vn -0.9492 -0.0224 -0.3140
vn -0.4320 0.0514 0.9004
vn -0.5547 0.1275 0.8222
vn -0.9713 0.0659 -0.2285
vn 0.9731 -0.0237 0.2290
vn 0.5356 0.2875 -0.7940
vn -0.5356 0.2875 -0.7940
vn 0.9713 0.0659 -0.2285
vn -0.9731 -0.0237 0.2290
vn 0.5547 0.1275 0.8222
vn -0.3821 -0.0607 0.9221
vn -0.9337 0.0178 -0.3576
vn 0.9337 -0.0207 0.3576
vn 0.3825 0.0429 -0.9230
vn -0.3825 0.0429 -0.9230
vn 0.9337 0.0178 -0.3576
vn -0.9337 -0.0207 0.3576
vn 0.3821 -0.0607 0.9221
vn -0.4164 0.0012 0.9092
vn -0.9449 -0.0042 -0.3274
vn 0.9449 0.0015 0.3274
vn 0.4163 -0.0189 -0.9090
vn -0.4163 -0.0189 -0.9090
vn 0.9449 -0.0042 -0.3274
vn -0.9449 0.0015 0.3274
vn 0.4164 0.0012 0.9092
vn 0.3235 0.9288 -0.1808
vn 0.9734 0.0000 0.2290
vn -0.9734 0.0000 -0.2290
vn 0.5581 -0.0638 0.8273
vn 0.9624 -0.2280 0.1478
vn -0.9734 0.0000 0.2290
vn 0.9734 0.0000 -0.2290
vn -0.1904 0.9403 -0.2822
vn -0.0325 -0.9983 0.0482
vn -0.0325 -0.9983 -0.0482
vn -0.1178 0.9776 0.1746
vn 0.0814 -0.9965 -0.0192
vn 0.2889 0.9550 0.0680
vn 0.1178 0.9776 0.1746
vn -0.0814 -0.9965 0.0192
vn 0.2889 0.9550 -0.0680
vn -0.9624 -0.2280 0.1478
vn -0.0349 -0.2475 0.9683
vn 0.3968 0.7046 0.5882
vn -0.1352 0.5822 0.8017
vn -1.0000 0.0000 -0.0000
vn -0.3141 0.9494 0.0000
vn -0.2855 -0.7812 0.5552
vn -0.8156 0.0000 -0.5787
vn 0.8156 0.0000 -0.5787
vn -0.1904 -0.9403 0.2822
vn 0.9687 0.0000 -0.2484
vn -0.9687 0.0000 -0.2484
vn 1.0000 0.0000 0.0000
vn 0.8036 -0.5330 0.2647
vn 0.3299 -0.7857 0.5233
vn 0.3141 0.9494 0.0000
vn 0.0286 0.0000 0.9996
vn 0.0386 0.0091 0.9992
vn -0.0386 0.0091 0.9992
vn -0.0386 -0.0091 0.9992
vn 0.0386 -0.0091 0.9992
vn 0.3697 -0.9051 0.2099
vn -0.3832 -0.8995 0.2101
vn -0.0286 0.0000 0.9996
vn 0.3906 0.9160 -0.0919
vn -0.4614 -0.8805 -0.1086
vn -0.5585 0.0526 0.8279
vn -0.9712 -0.0668 -0.2285
vn 0.9726 0.0407 0.2288
vn 0.5385 -0.2696 -0.7983
vn -0.5385 -0.2696 -0.7983
vn 0.9712 -0.0668 -0.2285
vn -0.9726 0.0407 0.2288
vn 0.5585 0.0526 0.8279
vn 0.1956 -0.9368 -0.2899
vn 0.1956 -0.9368 0.2899
vn -0.4614 -0.8805 0.1086
vn -0.1625 0.9568 -0.2409
vn -0.1625 0.9568 0.2409
vn 0.3906 0.9160 0.0919
vn 0.4477 0.0545 0.8925
vn -0.9532 0.0215 0.3016
vn 0.9531 -0.0245 -0.3016
vn -0.4471 -0.0761 -0.8913
vn 0.4471 -0.0761 -0.8913
vn 0.9532 0.0215 0.3016
vn -0.9531 -0.0245 -0.3016
vn -0.4477 0.0545 0.8925
vn -0.3818 0.0750 0.9212
vn -0.9332 0.0370 -0.3574
vn 0.9335 0.0291 0.3575
vn 0.3699 0.2575 -0.8927
vn -0.3699 0.2575 -0.8927
vn 0.9332 0.0370 -0.3574
vn -0.9335 0.0291 0.3575
vn 0.3818 0.0750 0.9212
vn -0.4156 -0.0627 0.9074
vn -0.9447 0.0189 -0.3274
vn 0.9447 -0.0216 0.3274
vn 0.4160 0.0451 -0.9082
vn -0.4160 0.0451 -0.9082
vn 0.9447 0.0189 -0.3274
vn -0.9447 -0.0216 0.3274
vn 0.4156 -0.0627 0.9074
vn -0.4326 0.0041 0.9016
vn -0.9494 -0.0065 -0.3141
vn 0.9494 0.0040 0.3141
vn 0.4325 -0.0216 -0.9014
vn -0.4325 -0.0216 -0.9014
vn 0.9494 -0.0065 -0.3141
vn -0.9494 0.0040 0.3141
vn 0.4326 0.0041 0.9016
vn 0.1904 0.9403 -0.2822
vn 0.0349 -0.2475 0.9683
vn 0.8812 0.0000 0.4728
vn 0.8178 0.1937 0.5420
vn -0.3235 0.9288 -0.1808
vn -0.8178 0.1937 0.5420
vn -0.8812 0.0000 0.4728
vn -0.5581 -0.0638 0.8273
vn 0.1352 0.5822 0.8017
vn -0.3968 0.7046 0.5882
vn 0.1904 -0.9403 0.2822
vn 0.2855 -0.7812 0.5552
vn -0.3299 -0.7857 0.5233
vn -0.8036 -0.5330 0.2647
vn 0.3832 -0.8995 0.2101
vn -0.3697 -0.9051 0.2099
s off
f 26/1/1 7/2/1 15/3/1
f 19/4/2 65/5/2 5/6/2
f 12/7/3 73/8/3 70/9/3
f 25/10/4 4/11/4 17/12/4
f 7/13/5 64/14/5 60/15/5
f 19/16/6 67/17/6 66/18/6
f 21/19/7 27/20/7 34/21/7
f 22/22/8 28/23/8 33/24/8
f 32/25/9 12/26/9 29/27/9
f 31/28/10 10/29/10 30/30/10
f 11/31/11 31/32/11 28/23/11
f 30/30/12 23/33/12 32/25/12
f 9/34/13 33/24/13 27/20/13
f 29/27/14 21/19/14 34/21/14
f 11/35/15 72/36/15 69/37/15
f 5/6/16 64/14/16 18/38/16
f 25/39/17 8/40/17 13/41/17
f 6/42/18 25/39/18 13/41/18
f 2/43/19 25/10/19 14/44/19
f 24/45/20 69/37/20 74/46/20
f 21/47/21 68/48/21 9/49/21
f 26/1/22 3/50/22 16/51/22
f 1/52/23 26/1/23 16/51/23
f 5/53/24 26/1/24 19/54/24
f 54/55/25 34/21/25 58/56/25
f 27/20/26 57/57/26 52/58/26
f 51/59/27 32/25/27 56/60/27
f 28/23/28 55/61/28 53/62/28
f 55/63/29 30/30/29 51/59/29
f 56/60/30 29/27/30 54/55/30
f 33/24/31 53/62/31 57/57/31
f 34/21/32 52/58/32 58/56/32
f 41/64/33 2/43/33 14/44/33
f 20/65/34 36/66/34 4/11/34
f 39/67/35 6/42/35 13/41/35
f 38/68/36 8/40/36 17/69/36
f 4/11/37 38/70/37 17/12/37
f 42/71/38 13/41/38 8/40/38
f 2/43/39 40/72/39 20/65/39
f 6/42/40 41/64/40 14/44/40
f 41/64/41 44/73/41 35/74/41
f 40/72/42 45/75/42 36/66/42
f 48/76/43 37/77/43 39/67/43
f 47/78/44 42/71/44 38/68/44
f 36/66/45 47/79/45 38/70/45
f 43/80/46 39/67/46 42/71/46
f 35/74/47 49/81/47 40/72/47
f 46/82/48 41/64/48 37/77/48
f 58/56/49 44/73/49 50/83/49
f 57/57/50 45/75/50 49/81/50
f 48/76/51 54/55/51 46/82/51
f 47/78/52 51/59/52 43/80/52
f 53/62/53 47/79/53 45/75/53
f 43/80/54 56/60/54 48/76/54
f 52/58/55 49/81/55 44/73/55
f 46/82/56 58/56/56 50/83/56
f 61/84/57 84/85/57 85/86/57
f 64/14/58 70/9/58 73/8/58
f 62/87/59 69/37/59 72/36/59
f 70/9/60 80/88/60 71/89/60
f 65/5/61 82/90/61 79/91/61
f 67/17/62 72/36/62 68/48/62
f 60/15/63 73/8/63 59/92/63
f 61/84/64 86/93/64 63/94/64
f 24/95/65 59/92/65 10/96/65
f 21/97/66 70/9/66 71/89/66
f 15/98/67 60/15/67 61/84/67
f 9/49/68 72/36/68 22/99/68
f 3/100/69 62/87/69 16/101/69
f 15/98/70 63/94/70 3/100/70
f 10/96/71 73/8/71 23/102/71
f 1/103/72 62/87/72 67/17/72
f 81/104/73 67/17/73 77/105/73
f 68/48/74 80/106/74 77/105/74
f 66/107/75 78/108/75 65/5/75
f 66/18/76 76/109/76 75/110/76
f 97/111/77 92/112/77 93/113/77
f 95/114/78 92/112/78 96/115/78
f 74/46/79 87/116/79 88/117/79
f 69/37/80 86/93/80 87/116/80
f 59/92/81 84/85/81 60/15/81
f 74/118/82 83/119/82 59/92/82
f 91/120/83 89/121/83 94/122/83
f 93/113/84 91/120/84 94/123/84
f 98/124/85 90/125/85 99/126/85
f 100/127/86 93/113/86 94/123/86
f 100/128/87 89/121/87 98/124/87
f 95/114/88 90/125/88 91/120/88
f 81/104/89 80/106/89 75/110/89
f 81/104/90 77/105/90 80/106/90
f 79/91/91 82/90/91 80/88/91
f 75/129/92 82/90/92 78/108/92
f 75/110/93 76/109/93 81/104/93
f 85/86/88 99/126/88 95/114/88
f 88/130/94 98/124/94 83/119/94
f 88/117/95 97/111/95 100/127/95
f 83/119/85 99/126/85 84/85/85
f 85/86/78 96/115/78 86/93/78
f 87/116/77 96/115/77 97/111/77
f 82/90/96 75/129/96 80/88/96
f 26/1/97 18/131/97 7/2/97
f 19/4/2 66/107/2 65/5/2
f 12/7/3 23/102/3 73/8/3
f 25/10/98 20/65/98 4/11/98
f 7/13/5 18/38/5 64/14/5
f 19/16/6 1/103/6 67/17/6
f 21/19/99 9/34/99 27/20/99
f 22/22/100 11/31/100 28/23/100
f 32/25/101 23/33/101 12/26/101
f 31/28/102 24/132/102 10/29/102
f 11/31/103 24/133/103 31/32/103
f 30/30/104 10/29/104 23/33/104
f 9/34/105 22/22/105 33/24/105
f 29/27/106 12/26/106 21/19/106
f 11/35/15 22/99/15 72/36/15
f 5/6/16 65/5/16 64/14/16
f 25/39/107 17/69/107 8/40/107
f 6/42/108 14/44/108 25/39/108
f 2/43/109 20/65/109 25/10/109
f 24/45/20 11/35/20 69/37/20
f 21/47/21 71/134/21 68/48/21
f 26/1/110 15/3/110 3/50/110
f 1/52/111 19/54/111 26/1/111
f 5/53/112 18/131/112 26/1/112
f 54/55/113 29/27/113 34/21/113
f 27/20/114 33/24/114 57/57/114
f 51/59/115 30/30/115 32/25/115
f 28/23/116 31/32/116 55/61/116
f 55/63/117 31/28/117 30/30/117
f 56/60/118 32/25/118 29/27/118
f 33/24/119 28/23/119 53/62/119
f 34/21/120 27/20/120 52/58/120
f 41/64/121 35/74/121 2/43/121
f 20/65/122 40/72/122 36/66/122
f 39/67/123 37/77/123 6/42/123
f 38/68/124 42/71/124 8/40/124
f 4/11/125 36/66/125 38/70/125
f 42/71/126 39/67/126 13/41/126
f 2/43/127 35/74/127 40/72/127
f 6/42/128 37/77/128 41/64/128
f 41/64/129 50/83/129 44/73/129
f 40/72/130 49/81/130 45/75/130
f 48/76/131 46/82/131 37/77/131
f 47/78/132 43/80/132 42/71/132
f 36/66/133 45/75/133 47/79/133
f 43/80/134 48/76/134 39/67/134
f 35/74/135 44/73/135 49/81/135
f 46/82/136 50/83/136 41/64/136
f 58/56/137 52/58/137 44/73/137
f 57/57/138 53/62/138 45/75/138
f 48/76/139 56/60/139 54/55/139
f 47/78/140 55/63/140 51/59/140
f 53/62/141 55/61/141 47/79/141
f 43/80/142 51/59/142 56/60/142
f 52/58/143 57/57/143 49/81/143
f 46/82/144 54/55/144 58/56/144
f 61/84/145 60/15/145 84/85/145
f 64/14/58 65/5/58 70/9/58
f 62/87/59 63/94/59 69/37/59
f 70/9/146 79/91/146 80/88/146
f 79/91/147 70/9/147 65/5/147
f 65/5/148 78/108/148 82/90/148
f 67/17/62 62/87/62 72/36/62
f 60/15/63 64/14/63 73/8/63
f 61/84/149 85/86/149 86/93/149
f 24/95/65 74/118/65 59/92/65
f 21/97/66 12/7/66 70/9/66
f 15/98/67 7/13/67 60/15/67
f 9/49/68 68/48/68 72/36/68
f 3/100/69 63/94/69 62/87/69
f 15/98/70 61/84/70 63/94/70
f 10/96/71 59/92/71 73/8/71
f 1/103/72 16/101/72 62/87/72
f 76/109/150 67/17/150 81/104/150
f 67/17/151 68/48/151 77/105/151
f 68/48/152 71/134/152 80/106/152
f 66/107/153 75/129/153 78/108/153
f 66/18/154 67/17/154 76/109/154
f 97/111/77 96/115/77 92/112/77
f 95/114/78 91/120/78 92/112/78
f 74/46/155 69/37/155 87/116/155
f 69/37/80 63/94/80 86/93/80
f 59/92/81 83/119/81 84/85/81
f 74/118/156 88/130/156 83/119/156
f 91/120/83 90/125/83 89/121/83
f 93/113/84 92/112/84 91/120/84
f 98/124/85 89/121/85 90/125/85
f 100/127/157 97/111/157 93/113/157
f 100/128/158 94/122/158 89/121/158
f 95/114/88 99/126/88 90/125/88
f 85/86/88 84/85/88 99/126/88
f 88/130/159 100/128/159 98/124/159
f 88/117/160 87/116/160 97/111/160
f 83/119/85 98/124/85 99/126/85
f 85/86/78 95/114/78 96/115/78
f 87/116/77 86/93/77 96/115/77
