# Blender v2.83.0 OBJ File: 'sunglasses.blend'
# www.blender.org
o Sunglasses_Cube.001
v -0.421526 -0.002171 0.020157
v -0.421526 0.105997 0.020157
v -0.421526 -0.002171 -0.020157
v -0.421526 0.105997 -0.020157
v 0.421526 -0.002171 0.020157
v 0.421526 0.105997 0.020157
v 0.421526 -0.002171 -0.020157
v 0.421526 0.105997 -0.020157
v 0.379163 -0.002171 -0.020157
v 0.222967 -0.105997 0.003098
v 0.060218 -0.004380 -0.020157
v -0.060218 -0.004380 -0.020157
v -0.222967 -0.105997 0.003098
v -0.379163 -0.002171 -0.020157
v -0.379163 0.105997 -0.020157
v -0.222967 0.105997 0.003098
v -0.060218 0.105997 -0.020157
v 0.060218 0.105997 -0.020157
v 0.222967 0.105997 0.003098
v 0.379163 0.105997 -0.020157
v -0.379163 -0.002171 0.020157
v -0.222967 -0.105997 0.015988
v -0.060218 -0.004380 0.020157
v 0.060218 -0.004380 0.020157
v 0.222967 -0.105997 0.015988
v 0.379163 -0.002171 0.020157
v 0.379163 0.105997 0.020157
v 0.222967 0.105997 0.015988
v 0.060218 0.105997 0.020157
v -0.060218 0.105997 0.020157
v -0.222967 0.105997 0.015988
v -0.379163 0.105997 0.020157
v 0.315742 -0.070652 0.003098
v 0.126915 -0.071756 0.003098
v -0.123756 -0.071756 0.003098
v -0.318901 -0.070652 0.003098
v -0.301065 0.105997 0.003098
v -0.141592 0.105997 0.003098
v 0.141592 0.105997 0.003098
v 0.301065 0.105997 0.003098
v -0.318901 -0.070652 0.015988
v -0.123756 -0.071756 0.015988
v 0.126915 -0.071756 0.015988
v 0.315742 -0.070652 0.015988
v 0.301065 0.105997 0.015988
v 0.141592 0.105997 0.015988
v -0.141592 0.105997 0.015988
v -0.301065 0.105997 0.015988
v -0.422607 0.105997 -0.090819
v -0.422607 0.060470 -0.090819
v -0.411462 0.060470 -0.090819
v 0.411567 0.105997 -0.090819
v 0.422501 0.105997 -0.090819
v 0.422501 0.060470 -0.090819
v 0.411567 0.060470 -0.090819
v -0.411462 0.105997 -0.090819
v -0.422607 0.102992 -0.409095
v -0.422607 0.063476 -0.386487
v -0.411462 0.063476 -0.386487
v 0.411567 0.102992 -0.409095
v 0.422501 0.102992 -0.409095
v 0.422501 0.063476 -0.386487
v 0.411567 0.063476 -0.386487
v -0.411462 0.102992 -0.409095
v -0.422607 0.055512 -0.492083
v -0.422607 0.015996 -0.469475
v -0.411462 0.015996 -0.469475
v 0.411567 0.055512 -0.492083
v 0.422501 0.055512 -0.492083
v 0.422501 0.015996 -0.469475
v 0.411567 0.015996 -0.469475
v -0.411462 0.055512 -0.492083
vt 0.625000 0.000000
vt 0.375000 0.250000
vt 0.375000 0.000000
vt 0.125000 0.500000
vt 0.160714 0.500000
vt 0.160714 0.500000
vt 0.625000 0.500000
vt 0.375000 0.750000
vt 0.375000 0.500000
vt 0.625000 0.964286
vt 0.375000 1.000000
vt 0.375000 0.964286
vt 0.339286 0.750000
vt 0.339286 0.500000
vt 0.875000 0.500000
vt 0.839286 0.750000
vt 0.839286 0.500000
vt 0.660714 0.500000
vt 0.625000 0.750000
vt 0.696429 0.500000
vt 0.678571 0.750000
vt 0.678571 0.500000
vt 0.714286 0.500000
vt 0.732143 0.750000
vt 0.714286 0.750000
vt 0.767857 0.500000
vt 0.732143 0.500000
vt 0.803571 0.500000
vt 0.785714 0.750000
vt 0.785714 0.500000
vt 0.821429 0.500000
vt 0.821429 0.750000
vt 0.125000 0.750000
vt 0.196429 0.500000
vt 0.178571 0.750000
vt 0.178571 0.500000
vt 0.214286 0.500000
vt 0.232143 0.750000
vt 0.214286 0.750000
vt 0.267857 0.500000
vt 0.232143 0.500000
vt 0.303571 0.500000
vt 0.285714 0.750000
vt 0.285714 0.500000
vt 0.321429 0.500000
vt 0.321429 0.750000
vt 0.375000 0.785714
vt 0.375000 0.803571
vt 0.625000 0.821429
vt 0.375000 0.821429
vt 0.625000 0.839286
vt 0.375000 0.857143
vt 0.375000 0.839286
vt 0.625000 0.857143
vt 0.375000 0.892857
vt 0.375000 0.910714
vt 0.625000 0.928571
vt 0.375000 0.928571
vt 0.625000 0.946429
vt 0.375000 0.946429
vt 0.625000 0.464286
vt 0.375000 0.464286
vt 0.375000 0.464286
vt 0.375000 0.303571
vt 0.625000 0.321429
vt 0.375000 0.321429
vt 0.625000 0.339286
vt 0.375000 0.357143
vt 0.375000 0.339286
vt 0.625000 0.357143
vt 0.375000 0.392857
vt 0.375000 0.410714
vt 0.625000 0.428571
vt 0.375000 0.428571
vt 0.625000 0.446429
vt 0.375000 0.446429
vt 0.625000 0.410714
vt 0.375000 0.285714
vt 0.625000 0.303571
vt 0.625000 0.910714
vt 0.625000 0.803571
vt 0.303571 0.750000
vt 0.267857 0.750000
vt 0.196429 0.750000
vt 0.160714 0.750000
vt 0.803571 0.750000
vt 0.767857 0.750000
vt 0.696429 0.750000
vt 0.660714 0.750000
vt 0.625000 0.464286
vt 0.375000 0.464286
vt 0.625000 0.250000
vt 0.375000 0.250000
vt 0.375000 0.250000
vt 0.839286 0.500000
vt 0.875000 0.500000
vt 0.660714 0.500000
vt 0.625000 0.250000
vt 0.339286 0.500000
vt 0.375000 0.500000
vt 0.625000 0.285714
vt 0.375000 0.285714
vt 0.625000 0.285714
vt 0.625000 0.500000
vt 0.339286 0.500000
vt 0.375000 0.500000
vt 0.375000 0.500000
vt 0.625000 0.285714
vt 0.375000 0.285714
vt 0.625000 0.285714
vt 0.875000 0.500000
vt 0.625000 0.500000
vt 0.125000 0.500000
vt 0.160714 0.500000
vt 0.375000 0.285714
vt 0.660714 0.500000
vt 0.625000 0.464286
vt 0.375000 0.464286
vt 0.625000 0.250000
vt 0.375000 0.250000
vt 0.660714 0.500000
vt 0.625000 0.250000
vt 0.625000 0.464286
vt 0.839286 0.500000
vt 0.875000 0.500000
vt 0.625000 0.500000
vt 0.125000 0.500000
vt 0.160714 0.500000
vt 0.625000 1.000000
vt 0.875000 0.750000
vt 0.625000 0.785714
vt 0.625000 0.892857
vt 0.625000 0.392857
vt 0.339286 0.500000
vt 0.839286 0.500000
vt 0.125000 0.500000
vn -1.0000 0.0000 0.0000
vn 0.0000 -0.7483 -0.6634
vn 1.0000 0.0000 0.0000
vn 0.0000 0.0000 1.0000
vn 0.0000 -1.0000 0.0000
vn 0.0000 1.0000 0.0000
vn -0.3457 -0.9383 0.0000
vn 0.7275 -0.6861 0.0000
vn -0.3358 -0.9419 0.0000
vn 0.7337 -0.6795 0.0000
vn 0.0576 -0.0048 0.9983
vn 0.0619 -0.0063 0.9981
vn -0.9090 0.0000 -0.4168
vn 0.0000 0.0000 -1.0000
vn -0.3139 -0.0315 -0.9489
vn -0.3188 -0.0265 -0.9474
vn 0.3063 -0.0253 -0.9516
vn 0.3270 -0.0330 -0.9445
vn -0.0592 -0.0059 0.9982
vn -0.0602 -0.0050 0.9982
vn 0.3560 -0.9345 0.0000
vn -0.7107 -0.7035 0.0000
vn 0.3262 -0.9453 0.0000
vn -0.7507 -0.6606 0.0000
vn -0.9999 0.0000 0.0153
vn 0.9095 0.0000 -0.4157
vn 0.9999 0.0000 0.0138
vn 0.0000 -0.8680 0.4966
vn 0.0000 1.0000 -0.0094
vn 0.0000 -0.9999 -0.0102
vn 0.0000 -0.4966 -0.8680
vn 0.0000 0.8680 -0.4966
vn 0.0512 0.0000 0.9987
vn 0.0533 0.0000 0.9986
vn -0.2748 0.0000 -0.9615
vn -0.2854 0.0000 -0.9584
vn 0.2748 0.0000 -0.9615
vn 0.2854 0.0000 -0.9584
vn -0.0512 0.0000 0.9987
vn -0.0533 0.0000 0.9986
s off
f 2/1/1 3/2/1 1/3/1
f 3/4/2 51/5/2 14/6/2
f 8/7/3 5/8/3 7/9/3
f 32/10/4 1/11/4 21/12/4
f 7/9/5 26/13/5 9/14/5
f 4/15/6 32/16/6 15/17/6
f 20/18/6 6/19/6 8/7/6
f 19/20/6 45/21/6 40/22/6
f 39/23/6 29/24/6 46/25/6
f 17/26/6 29/24/6 18/27/6
f 16/28/6 47/29/6 38/30/6
f 37/31/6 32/16/6 48/32/6
f 14/6/5 1/33/5 3/4/5
f 13/34/7 41/35/7 36/36/7
f 35/37/8 23/38/8 42/39/8
f 11/40/5 23/38/5 12/41/5
f 10/42/9 43/43/9 34/44/9
f 33/45/10 26/13/10 44/46/10
f 6/19/4 26/47/4 5/8/4
f 44/48/4 28/49/4 25/50/4
f 46/51/11 24/52/11 43/53/11
f 29/54/4 23/55/4 24/52/4
f 42/56/4 31/57/4 22/58/4
f 48/59/12 21/12/12 41/60/12
f 20/61/13 55/62/13 9/63/13
f 36/64/14 16/65/14 13/66/14
f 38/67/15 12/68/15 35/69/15
f 17/70/14 11/71/14 12/68/14
f 34/72/14 19/73/14 10/74/14
f 40/75/16 9/63/16 33/76/16
f 19/73/14 33/76/14 10/74/14
f 11/71/17 39/77/17 34/72/17
f 16/65/14 35/69/14 13/66/14
f 14/78/18 37/79/18 36/64/18
f 31/57/4 41/60/4 22/58/4
f 23/55/19 47/80/19 42/56/19
f 28/49/4 43/53/4 25/50/4
f 26/47/20 45/81/20 44/48/20
f 33/45/21 25/82/21 10/42/21
f 34/44/22 24/83/22 11/40/22
f 35/37/23 22/84/23 13/34/23
f 36/36/24 21/85/24 14/6/24
f 37/31/6 31/86/6 16/28/6
f 38/30/6 30/87/6 17/26/6
f 39/23/6 28/88/6 19/20/6
f 40/22/6 27/89/6 20/18/6
f 52/90/1 63/91/1 55/62/1
f 49/92/1 58/93/1 50/94/1
f 4/15/6 56/95/6 49/96/6
f 8/7/6 52/97/6 20/18/6
f 4/98/25 50/94/25 3/2/25
f 7/9/2 55/99/2 54/100/2
f 15/101/26 51/102/26 56/103/26
f 8/7/27 54/100/27 53/104/27
f 63/105/28 70/106/28 62/107/28
f 64/108/3 67/109/3 72/110/3
f 56/95/29 57/111/29 49/96/29
f 53/104/3 62/107/3 61/112/3
f 50/113/30 59/114/30 51/5/30
f 56/103/3 59/115/3 64/108/3
f 55/99/30 62/107/30 54/100/30
f 53/104/29 60/116/29 52/97/29
f 68/117/31 70/106/31 71/118/31
f 65/119/31 67/109/31 66/120/31
f 61/112/32 68/121/32 60/116/32
f 57/122/1 66/120/1 58/93/1
f 60/123/1 71/118/1 63/91/1
f 64/124/32 65/125/32 57/111/32
f 61/112/3 70/106/3 69/126/3
f 58/127/28 67/128/28 59/114/28
f 2/1/1 4/98/1 3/2/1
f 3/4/2 50/113/2 51/5/2
f 8/7/3 6/19/3 5/8/3
f 32/10/4 2/129/4 1/11/4
f 7/9/5 5/8/5 26/13/5
f 4/15/6 2/130/6 32/16/6
f 20/18/6 27/89/6 6/19/6
f 19/20/6 28/88/6 45/21/6
f 39/23/6 18/27/6 29/24/6
f 17/26/6 30/87/6 29/24/6
f 16/28/6 31/86/6 47/29/6
f 37/31/6 15/17/6 32/16/6
f 14/6/5 21/85/5 1/33/5
f 13/34/7 22/84/7 41/35/7
f 35/37/8 12/41/8 23/38/8
f 11/40/5 24/83/5 23/38/5
f 10/42/9 25/82/9 43/43/9
f 33/45/10 9/14/10 26/13/10
f 6/19/4 27/131/4 26/47/4
f 44/48/4 45/81/4 28/49/4
f 46/51/33 29/54/33 24/52/33
f 29/54/4 30/132/4 23/55/4
f 42/56/4 47/80/4 31/57/4
f 48/59/34 32/10/34 21/12/34
f 20/61/13 52/90/13 55/62/13
f 36/64/14 37/79/14 16/65/14
f 38/67/35 17/70/35 12/68/35
f 17/70/14 18/133/14 11/71/14
f 34/72/14 39/77/14 19/73/14
f 40/75/36 20/61/36 9/63/36
f 19/73/14 40/75/14 33/76/14
f 11/71/37 18/133/37 39/77/37
f 16/65/14 38/67/14 35/69/14
f 14/78/38 15/101/38 37/79/38
f 31/57/4 48/59/4 41/60/4
f 23/55/39 30/132/39 47/80/39
f 28/49/4 46/51/4 43/53/4
f 26/47/40 27/131/40 45/81/40
f 33/45/21 44/46/21 25/82/21
f 34/44/22 43/43/22 24/83/22
f 35/37/23 42/39/23 22/84/23
f 36/36/24 41/35/24 21/85/24
f 37/31/6 48/32/6 31/86/6
f 38/30/6 47/29/6 30/87/6
f 39/23/6 46/25/6 28/88/6
f 40/22/6 45/21/6 27/89/6
f 52/90/1 60/123/1 63/91/1
f 49/92/1 57/122/1 58/93/1
f 4/15/6 15/17/6 56/95/6
f 8/7/6 53/104/6 52/97/6
f 4/98/25 49/92/25 50/94/25
f 7/9/2 9/14/2 55/99/2
f 15/101/26 14/78/26 51/102/26
f 8/7/27 7/9/27 54/100/27
f 63/105/28 71/134/28 70/106/28
f 64/108/3 59/115/3 67/109/3
f 56/95/29 64/124/29 57/111/29
f 53/104/3 54/100/3 62/107/3
f 50/113/30 58/127/30 59/114/30
f 56/103/3 51/102/3 59/115/3
f 55/99/30 63/105/30 62/107/30
f 53/104/29 61/112/29 60/116/29
f 68/117/31 69/126/31 70/106/31
f 65/119/31 72/110/31 67/109/31
f 61/112/32 69/126/32 68/121/32
f 57/122/1 65/119/1 66/120/1
f 60/123/1 68/117/1 71/118/1
f 64/124/32 72/135/32 65/125/32
f 61/112/3 62/107/3 70/106/3
f 58/127/28 66/136/28 67/128/28
